<?xml version="1.0" encoding="utf-8"?>
<!-- Generator: Adobe Illustrator 28.2.0, SVG Export Plug-In . SVG Version: 6.00 Build 0)  -->
<svg version="1.1" xmlns="http://www.w3.org/2000/svg" xmlns:xlink="http://www.w3.org/1999/xlink" x="0px" y="0px"
	 viewBox="0 0 400 300" style="enable-background:new 0 0 400 300;" xml:space="preserve">
<style type="text/css">
	.st0{fill:#70BF44;}
</style>
<g id="Layer_2">
	<path class="st0" d="M192.56,52.7c-0.27-3.57-0.74-8.11-1.8-12.16c1.47-3.85-0.24-9.03-5.15-9.72c-0.65-0.67-1.35-1.28-2.09-1.74
		c0.09-5.44-4.12-10.8-9.28-12.22c-3.81-1.05-7.38-0.22-10.22,1.78c-4.79-0.45-10.05,1.53-12.11,6.02c-0.05,0.1-0.09,0.2-0.14,0.3
		c-0.77-1.59-1.94-3.05-3.57-4.26c-4.87-3.64-12-3.59-16.41,0.98c-4.22,4.37-6.61,9.57-9.55,14.77c-0.81,1.43-0.17,1.15-1.51,1.71
		c-4.44,1.83-8.33,3.54-11.17,7.62c-4.07,5.84-4.08,13.21-0.42,18.53c-2.38-0.85-5.03-0.93-7.62-0.34c-0.34-0.26-0.69-0.5-1.03-0.77
		c-2.77-1.74-5.95-2.72-9.22-2.86c-5.41-0.23-10.65,1.99-15.41,4.31c-7.3,3.56-14.01,9.47-17.81,16.71
		c-2.36,4.51-3.37,9.1-3.9,14.12c-0.45,4.22,0,8.62-0.94,12.76c-0.91,4.01-2.99,7.65-3.99,11.64c-1.5,5.97-1.44,12.71,1.5,18.25
		c5.28,9.95,16.64,13.65,26.68,8.73c2.98-1.46,4.03-1.07,7.48,0.03c4.28,1.36,8.27,3.88,12.85,4.07c3.83,0.16,7.47-1.13,10.21-3.49
		c2,0.54,4.16,0.59,6.36-0.02c6.25-1.72,10.88-8.95,8.73-15.38c-0.07-0.2-0.12-0.38-0.18-0.53c0.19-0.62,0.55-2.11,0.63-2.37
		c0.73-2.36,1.63-4.66,2.12-7.09c0.64-3.17,0.48-6.11,0.53-9.27c-0.01,0.72,0.4-1.97,0.55-2.46c0.4-1.33,0.85-2.63,1.16-3.98
		c1.45-6.26,1.58-12.48,0.62-18.76c2.65,0.33,5.25-0.02,7.79-0.84c0.51-0.17,1.01-0.37,1.5-0.59c2.14,0.99,4.51,1.56,7.04,1.7
		c2.26,0.12,4.7-0.16,6.87-0.82c2.44-0.75,4.9-2.68,7.35-3.36c-0.61,0.27,1.78,0.32,2.29,0.34c2.29,0.06,4.68-0.08,6.89-0.71
		c4.8-1.37,7.39-4.36,9.36-8.04c0.71-0.24,1.41-0.49,2.14-0.78c2.73-1.1,5.1-2.56,7.16-4.71C191.1,65.36,193.02,58.72,192.56,52.7z"
		/>
	<path class="st0" d="M329.45,52.83c1.8-8.73-7.81-15.51-15.85-13.72c-1.11,0.25-2.18,0.45-3.26,0.61c0.06-0.5,0.09-1,0.11-1.49
		c0.02,0,0.03,0,0.05,0.01c-0.01-0.12-0.02-0.24-0.03-0.36c0.04-2.26-0.37-4.37-1.39-6.33c-2.48-6.34-7.96-11.04-15.25-12.03
		c-4.6-0.62-8.77,0.4-12.62,2.96c-1.4,0.94-2.51,1.95-3.53,3.09c-2.14-1.2-4.51-1.96-6.99-2.01c-6.88-0.13-13.3,4.32-15.32,10.95
		c-1,0.04-2,0.22-2.97,0.6c-7.74,3-12.95,9.11-13.23,17.43c-3.25-1.96-7.19-2.47-11.05-0.77c-4.25,1.87-7.51,6.19-7.75,10.87
		c-2.85,3.52-5.01,7.59-5.65,11.99c-0.97,6.69,2.12,12.95,1.34,19.76c-0.77,6.72,6.29,12.5,12.5,12.5c1.43,0,2.74-0.22,3.94-0.62
		c2.43,3.2,5.8,5.67,9.85,6.7c7.59,1.92,14.32-2.1,16.96-9.22c1.41-3.8,2.47-7.76,3.68-11.63c2.28-7.31,4.56-14.61,6.84-21.92
		c1.45,0.61,3.11,0.96,5,0.96c0.55,0,1.07-0.03,1.58-0.09c0.26,0.16,0.53,0.31,0.79,0.47c0.1,0.06,0.17,0.1,0.25,0.14
		c0.05,0.05,0.08,0.09,0.14,0.15c0.54,0.54,1.11,1.06,1.63,1.63c0.21,0.22,0.41,0.45,0.61,0.69c0.04,0.05,0.06,0.08,0.1,0.11
		c0.17,0.32,0.33,0.67,0.45,0.92c-3.66,3.58-4.58,9.5-2.78,14.27c-2.19,0.69-4.07,2.3-4.52,4.69c-0.02,0.11-0.1,0.34-0.15,0.52
		c-0.04,0.07-0.08,0.13-0.09,0.15c-1.29,1.96-1.22,4.64-0.15,6.76c0.33,2.97,1.96,5.96,5.13,6.68c3.09,0.7,6.21-0.49,7.91-3.22
		c0.04-0.07,0.09-0.13,0.13-0.2c0.07-0.08,0.15-0.15,0.23-0.22c0.22-0.09,0.61-0.32,0.9-0.5c0.19-0.05,0.38-0.1,0.58-0.14
		c0.52-0.12,1.01-0.31,1.47-0.56c1.96,1.74,4.62,2.85,8,2.85c2.19,0,4.07-0.47,5.66-1.27c3.26,0.17,6.54-0.91,9.13-3.51
		c2.47-2.47,3.76-6.2,3.59-9.8c6.89-1.57,12.39-7.85,10.06-15.49c-0.62-2.02-1.37-3.7-2.4-5.31
		C329.95,66.97,331.69,59.46,329.45,52.83z"/>
	<path class="st0" d="M330.59,183c-0.21-0.61-0.49-1.19-0.79-1.76c1.83-7.13,2.9-13.69-0.91-20.45c-2.07-3.68-5.09-5.51-8.27-5.98
		c-3.14-3.34-8.02-5.27-12.39-3.59c-5.25,2.03-8.53,4.8-11.17,9.68c-7.48-2.57-15.32,5.13-15.26,12.26c0.02,2.01,0.33,3.86,0.9,5.59
		c-2.39,2.75-3.47,6.96-2.98,10.2c0.17,1.15,0.49,2.23,0.92,3.25c-0.19,1.15-0.31,2.31-0.36,3.43c0,0.11-0.02,0.58-0.03,1.18
		c-0.25,0-0.5,0-0.75,0.01c-5.12,0.31-9.71,2.33-12.43,6.93c-5.03,8.51,0.81,17.56,8.48,21.78c3.71,2.04,7.74,2.8,11.92,3.1
		c0.9,0.06,2.08,0.29,3.02,0.19c3.8,3.03,9.48,3.45,13.73,1.15c-0.59-3.44,1.67-7.75,6.27-7.75c2.13,0,3.58,0.91,4.4,2.23
		c3.62-0.92,6.98-2.78,9.63-5.43c2.25-2.25,3.81-4.81,4.91-7.55c-0.98-1.21-1.53-2.74-1.23-4.22c0.44-2.23,0.28-4.45,0.26-6.71
		c-0.02-2.23,1.56-3.94,3.49-4.8C332.05,191.37,332.27,187.13,330.59,183z"/>
	<path class="st0" d="M233.74,238.13c-2.33-1.08-5.19-0.99-7.61,1.24c-3.74,3.45-7.64,6.79-11.27,10.36
		c-0.46,1.57-0.69,3.2-1.08,5.02c-0.04,0-0.07-0.01-0.11-0.01c-3.95,0-6.17,2.7-6.66,5.72c-2.89-0.4-5.94-3.38-5.25-6.52
		c0.97-4.38,1.21-8.66,3.56-12.61c1.4-2.36,3.2-4.41,5.07-6.42c-0.98-0.89-2.21-1.55-3.5-1.88c-0.98,1.08-1.98,2.06-3.11,3
		c-0.46,0.38-0.93,0.76-1.37,1.17c-0.1,0.09-0.19,0.19-0.29,0.3c-0.02,0.02-0.03,0.04-0.05,0.06c-1.1,1.47-2.67,2.29-4.32,2.45
		c-1.38,2.97-2.84,5.9-4.42,8.77c-1.12,2.05-2.29,4.07-3.51,6.07c-0.8,1.32-1.95,4.22-3.23,5.09c-1.54,1.06-6.6-1.43-8.27-3.48
		c-0.64-0.78-1.21-1.62-1.75-2.48c2.28-0.93,4.07-2.99,4.13-6.18c0.11-6.54,0.93-13.55-1.34-19.81c-2.01-5.52-5.74-9.9-10.6-13.07
		c0.44-3.78-1.79-7.93-6.7-7.93c-1.76,0-3.17,0.54-4.24,1.4c0.82,3.3,2.59,6.41,4.43,9.21c0.67,1.01,1.12,2.13,1.28,3.25
		c0.77-0.15,1.46-0.4,2.06-0.75c1.51,5.07,2.86,10.18,4.19,15.31c0.53,2.05,0.01,3.68-1.04,4.83c-0.55-0.13-1.14-0.21-1.78-0.21
		c-8.51,0-8.99,12.47-1.42,13.87c-0.26,1.25-0.89,2.43-1.92,3.39c-0.65,0.6-1.44,1-2.29,1.21c0.36,0.93,0.75,1.85,1.18,2.76
		c-0.94-0.88-1.91-1.73-2.89-2.57c-1.71-0.05-3.41-0.76-4.46-2.09c-0.8-1.02-1.56-2.07-2.33-3.11c-2.4-1.65-4.89-3.17-7.47-4.56
		c-3-1.61-5.87-0.89-7.86,0.86c0.45,0.6,0.81,1.3,1.05,2.14c1.85,6.58,8.86,11.38,13.42,16.07c5.09,5.24,10.83,9.42,17.63,11.98
		c0.21-0.16,0.42-0.33,0.6-0.51c0.14-0.13,0.26-0.27,0.38-0.41c12.73-0.1,25.78-2.89,38.17,0.94c6.38,1.97,10.06-4.91,8.06-9.7
		c2.03-1.24,3.75-2.92,4.95-5.17c0.71-1.35,0.85-2.95,1.68-4.23c0,0,0,0,0.01-0.01C222.88,252.31,229.24,245.5,233.74,238.13z"/>
</g>
<g id="Layer_1">
	<g>
		<path d="M127.72,244.39c4.6-4.32,4.8-4.28,9.95-2.08c7.37,3.14,14.66,6.35,20.57,12c1.1,1.05,2.69,1.58,5.05,2.9
			c-3.7-11.09-10.03-18.59-18.73-24.13c2.3-3.99,3.55-4.83,7.16-3.59c3.11,1.07,6.08,2.68,8.93,4.36c2.55,1.5,4.85,3.43,8.1,5.78
			c-3.53-14.26-9.28-26.51-16.96-37.82c2.06-2.3,3.54-1.91,5.2-0.63c3.01,2.31,6.09,4.5,10.23,7.54c-0.96-4.38-1.63-7.65-2.41-10.9
			c-1.55-6.45-3.19-12.89-4.74-19.34c-1.44-5.98-2.51-12.07-4.34-17.92c-1.69-5.37-4.16-10.49-6.32-15.71
			c-2.65-6.4-7.34-10.56-13.92-12.68c-2.33-0.75-4.63-1.63-7.35-2.59c-0.83,4.11-4.17,6.33-3.95,11.01
			c0.26,5.56-7.5,11.2-13.24,11.15c-3.3-0.03-6.43-0.26-9.53,1.84c-2.48,1.68-5.74,1.46-8.65,0.1c-0.6-0.28-1.27-0.48-1.79-0.87
			c-4.93-3.72-9.61-5.75-15.99-2.12c-3.91,2.22-9.1,1.24-13.69,0c-5.96-1.6-9.69-5.7-11.94-11.17c-3.61-8.78-3.38-17.53,0.83-26.11
			c0.95-1.94,1.9-3.89,2.99-6.14c-5.1-5.88-3.88-12.36-1.53-19.09c3.33-9.55,8.07-18.08,17.23-23.03
			c8.14-4.39,17.05-6.57,26.37-6.39c1.92,0.04,3.82,1.03,5.74,1.57c1.05,0.3,2.11,0.56,3.73,1c-0.16-1.63-0.16-2.72-0.4-3.76
			c-2.17-9.65,4.29-16.15,10.5-18.8c2.25-0.96,3.56-2.17,4.26-4.35c1.63-5.05,4.92-9.04,8.4-12.87c4.33-4.77,9.97-6.85,16.18-6.27
			c3.05,0.28,5.93,2.33,9.85,3.99c0.68-0.41,2.34-1.44,4.04-2.41c5.84-3.33,12-4.91,18.7-3.29c5,1.21,8.01,4.34,7.96,9.45
			c-0.03,3.66,0.99,5.28,4.64,6.22c6.09,1.58,7.49,4.8,5.57,11c-0.39,1.27-0.87,2.5-1.42,4.06c4.22,6.59,5.56,13.09,1.65,21.18
			c-3.82,7.9-8.65,12.21-17.7,12.06c-1.58,5.05-5.25,8.19-10.02,10.34c-0.86,0.39-1.8,1.76-1.82,2.69
			c-0.2,8.67-4.98,15.76-7.86,23.51c-0.98,2.63-2.15,5.19-3.23,7.78c0.47,0.51,0.73,1.04,1.12,1.18c6.77,2.4,10.31,7.96,12.5,14.1
			c3,8.43,5.19,17.15,7.57,25.79c1.8,6.56,3.34,13.2,5.04,19.79c0.11,0.41,0.62,0.72,1.21,1.38c4.38-8.7,12.78-11.79,20.74-15.4
			c2.52-1.14,3.8-2.35,4.12-5.38c1.09-10.2,5.07-19.49,9.82-28.49c1.61-3.06,2.71-6.39,4.28-9.47c2.38-4.67,4.97-9.24,7.44-13.86
			c0.22-0.41,0.28-0.9,0.4-1.3c-0.31-0.32-0.51-0.73-0.74-0.74c-2.23-0.13-5.49,0.72-6.52-0.44c-3.23-3.61-8-6.35-8.54-11.84
			c-0.14-1.38,0.39-2.96,1.02-4.24c0.79-1.62,2.01-3.03,3.16-4.69c-1.16-2.45-2.42-4.97-3.57-7.54c-2.11-4.7-2.19-9.48,0.47-13.92
			c2.21-3.69,4.94-7.07,7.48-10.55c0.58-0.8,1.6-1.33,2.03-2.18c2.3-4.61,6.36-5.44,10.92-5.34c0.49,0.01,0.99-0.07,1.86-0.13
			c0.77-1.64,1.51-3.45,2.45-5.17c2.31-4.23,5.29-7.56,10.48-8.38c1.39-0.22,2.72-1.63,3.8-2.76c2.18-2.28,4.1-4.8,6.24-7.11
			c3.51-3.78,7.8-4.9,12.74-3.33c3.54,1.12,6.66,0.77,9.88-1.49c7.05-4.96,17.16-4.68,24.51,2.85c3.99,4.09,4.71,5.44,7.63,14.43
			c0.91-0.36,1.78-0.85,2.71-1.05c4.65-1.01,8.76-0.66,12.09,3.53c5.23,6.58,6.92,14.07,5.51,22.04c-0.54,3.04-2.9,5.93-4.92,8.49
			c-1.58,2-2.59,3.75-1.72,6.29c2.15,6.21-1.19,13.45-7.39,16.14c-2.18,0.95-2.69,2.72-3.43,4.57
			c-3.69,9.22-10.28,12.17-18.92,11.07c-2.73-0.35-5.32-1.81-8.21-2.85c-5.63,4.28-11.57,6.4-17.89-0.04
			c-0.17,1.14-0.52,1.86-0.3,2.32c2.27,4.89,0.9,9.48-1.37,13.81c-1.73,3.31-2.85,6.55-3.01,10.37c-0.12,2.84-1.49,5.66-2.47,8.43
			c-1.89,5.31-3.94,10.55-5.81,15.86c-0.3,0.86-0.04,1.92-0.04,3.2c1.14,0.25,2.22,0.55,3.32,0.71c6.23,0.91,10.06,4.68,12.37,10.3
			c1.01,2.46,2.04,4.91,3.17,7.31c0.7,1.47,1.41,3.3,3.64,2.25c1.99-0.94,0.79-2.39,0.59-3.83c-0.38-2.76-0.85-5.66-0.38-8.35
			c1.08-6.25,5.88-9.69,12.2-9.32c0.98,0.06,1.96,0.19,3.09,0.3c1.36-1.73,2.6-3.49,4.03-5.07c4.61-5.11,9.02-5.88,15.26-3.16
			c2.05,0.89,4.35,1.44,6.58,1.63c6.25,0.53,8.02,1.91,9.51,8.11c1.91,7.95,1.91,7.95-0.94,15.13c5.51,7.15,4.07,14.8,0.9,22.41
			c-0.84,2.02-1.37,3.72-1.14,6.09c0.95,9.42-6.09,22.78-19.58,20.86c-0.97-0.14-1.97-0.02-3.13-0.02
			c-0.79,1.47-1.48,2.95-2.34,4.32c-3.09,4.95-8.62,6.68-13.23,3.3c-4.04-2.96-8.12-3.91-12.95-3.77c-4.29,0.12-7.88-2.21-9.85-5.87
			c-3.34-6.2-6.11-12.8-2.81-19.93c1.2-2.59,3.3-4.75,5.5-7.83c-4.19-5.31-8.55-11.1-13.21-16.65c-2.61-3.11-6.29-2.78-9.08,0.24
			c-2.58,2.8-5.43,5.37-7.88,8.27c-3.27,3.87-11.11,4.17-15.23,1.6c-3.16-1.96-6.92-3.43-10.58-4.01
			c-8.01-1.28-13.73,2.64-15.38,10.62c-1.92,9.26-3.21,18.65-4.76,27.99c-0.87,5.25-1.7,10.5-2.54,15.75
			c-0.22,1.37-0.42,2.74-0.23,4.27c7.13-5.96,11.43-14.59,19.77-19.53c1.13,4.2,0.45,7.49-1.01,10.99
			c-2.68,6.39-6.35,12.48-6.8,19.66c-0.08,1.3-0.3,2.59,0.34,4.48c1.13-1.21,2.32-2.38,3.39-3.64c6.61-7.78,13.89-14.82,22.57-20.27
			c2.4-1.51,4.82-3.79,8.47-1.7c-0.5,1.13-0.73,2.3-1.41,3.09c-9.86,11.44-15.35,25.07-19.51,39.3c-2.03,6.96-7.96,10.04-14.54,6.95
			c-0.15-0.07-0.35-0.1-0.45-0.21c-3.74-4-8.78-3.22-13.45-3.47c-1.86-0.1-3.97,0.38-5.61,1.25c-3.96,2.11-7.74,2.6-11.91,0.62
			c-1.16-0.55-2.84-0.27-4.23-0.03c-2.6,0.45-4.97,0.34-6.96-1.63c-4.44-4.42-8.99-8.75-13.29-13.3
			c-4.32-4.57-8.29-9.47-12.61-14.04C133.48,249.31,130.52,246.93,127.72,244.39z M293.8,85.84c0.02,3.93-0.63,5.18-3.34,7.01
			c-5.23,3.53-10.33,2.42-15.84-1.17c-0.63,3.29-1.14,5.95-1.65,8.62c0.97,0.72,1.66,1.18,2.28,1.7c0.76,0.65,1.42,1.41,2.21,2.02
			c2.82,2.19,5,1.94,7.32-0.77c3.56-4.16,4.02-4.34,8.56-1.47c9.27,5.88,16.97,2.69,18.73-7.87c0.39-2.32,1.57-3.43,3.72-4.08
			c6.33-1.92,8.56-6.72,5.74-12.59c-2.42-5.03-5.12-9.93-7.67-14.85c5.9-2.31,7.17,3.64,10.06,6.64c3.91-3.3,5.19-7.27,4.99-11.82
			c-0.18-4.23-1.41-8.15-3.48-11.83c-1.87-3.32-4.32-5.37-8.49-4.57c-2.37,0.45-4.83,0.45-7.54,0.68c-0.16-0.55-0.51-1.31-0.58-2.1
			c-0.55-5.85-4.03-10.1-7.89-14.02c-4.77-4.84-10.64-6.13-15.33-2.73c-5.08,3.69-10.21,4.48-15.98,2.75
			c-3.12-0.93-5.61,0.11-7.54,2.5c-2.19,2.71-4.46,5.42-6.24,8.4c-1.55,2.6-3.19,3.99-6.39,3.49c-1.21-0.19-3.13,0.38-3.79,1.28
			c-1.52,2.1-2.65,4.55-3.61,6.98c-0.86,2.18-0.29,3.94,1.79,5.6c2.1,1.69,3.56,4.18,5.36,6.38c-3.16,1.93-3.06,1.81-4.98,0.3
			c-2.98-2.36-5.92-4.86-9.22-6.68c-3.39-1.87-5.48-1.28-7.95,1.61c-2.47,2.9-4.69,6.03-6.97,9.09c-5.02,6.74-3.9,13.37,0.47,19.9
			c0.8,1.2,1.62,2.38,2.35,3.45c-7.49,9.51-7.17,11.55,2.58,18.15c1.27-0.97,2.55-2.03,3.92-2.96c3.08-2.09,4.56-2.22,6.98,0.46
			c2.12,2.35,4.89,3.74,7.1,5.82c5.21,4.88,8.12,3.48,10.29-2.31c0.29-0.78,0.67-1.52,0.99-2.29c2.35-5.66,4.57-11.37,7.09-16.95
			c2.17-4.8,4.68-9.44,7.12-14.32c-4.16-2.4-6.2-5.85-6.85-10.22c-0.63-4.24-0.27-8.46,1.53-12.23c4.44-9.31,7.4-11.81,16.75-10.56
			c5.82,0.78,10.91,6.44,11.25,12.27c0.04,0.72-0.33,1.46-0.74,3.16c-1.32-1.62-2.06-2.57-2.85-3.48c-1.84-2.11-3.5-4.45-5.62-6.24
			c-3.58-3.03-8.25-2.99-10.91-0.31c-4.04,4.06-5.85,14.69-3.08,19.74c1.43,2.6,3.27,5.03,7.04,4.31c2.87-0.55,4.93,1.19,7.19,3.03
			c-1.63,4.13-3.21,8.13-4.8,12.14c1.22,2.7,2.96,4.89,5.94,5.62C288.05,91.58,289.95,87.22,293.8,85.84z M122.43,92.54
			c4.59-4.39,1.98-9.42,0.5-13.64c-2.21-6.28-6-11.15-13.84-12.59c-4.93-0.9-10.44-0.15-15.06-3.37c-1.36-0.95-3.97-0.59-5.86-0.18
			c-4.54,0.98-9.04,2.2-13.47,3.61c-4.41,1.4-7.78,4.34-10.59,7.98c-4.16,5.39-6.46,11.61-8.18,18.07
			c-0.96,3.62-1.32,7.39,1.31,10.46c2.25,2.63,1.9,4.64,0.16,7.49c-5.55,9.1-6.59,18.74-1.82,28.55c4.33,8.91,16.09,11.67,23.74,5.7
			c3.46-2.71,4.67-2.7,8.42-0.13c2.33,1.59,4.6,3.36,7.13,4.55c1.51,0.71,4.14,1.28,5.1,0.49c3.49-2.86,7.15-2.97,11.28-2.39
			c3.32,0.47,7.64-3.41,6.95-6.61c-0.53-2.45,0.45-3.59,1.56-5.25c4.1-6.14,6.01-13.01,0.81-19.84c-1.57-2.06-2.87-4.31-4.43-6.7
			c1.11-0.57,1.92-1.37,2.51-1.23c2.02,0.49,3.96,1.3,5.99,2.01C130.91,103.13,125.36,98.04,122.43,92.54z M173.03,70.75
			c1.53,0.31,3.1,0.54,4.63,0.94c5.04,1.33,8.67-0.46,10.65-5.32c0.49-1.2,0.86-2.48,1.53-3.57c2.33-3.79,2.26-8.63-0.29-12.12
			c-2.53-3.46-8.22-4.24-11.59-1.57c-5.27,4.16-5.69,4.03-7.67-2.42c-0.1-0.32-0.13-0.65-0.24-0.97c-2.54-8.01-5.2-8.7-11.27-2.92
			c-0.21,0.2-0.24,0.6-0.34,0.85c0.04,1.69,2.49,3.1,0.6,4.87c-2.48-0.49-4.83-0.97-7.18-1.4c-7.45-1.34-11.42,2.76-9.82,10.16
			c0.37,1.71,0.85,3.39,1.51,5.98c-1.7-0.79-2.73-0.92-3.02-1.45c-4.52-8.18-4.19-14.89,5.94-18.63c0.62-0.23,1.3-0.47,1.94-0.44
			c3.31,0.18,5.4-1.98,7.87-3.67c2.55-1.75,5.44-3.29,8.4-4.08c4.39-1.17,7.3,0.65,9.09,4.79c0.64,1.48,1.23,2.97,1.78,4.31
			c3.68-0.35,6.8-0.7,9.92-0.91c3.12-0.21,3.58-2.65,4.12-4.88c0.56-2.28-0.51-3.86-2.73-4.61c-0.94-0.32-1.9-0.62-2.86-0.87
			c-5.13-1.34-5.13-1.33-5.22-6.44c-0.12-6.93-4.52-10.57-11.16-8.74c-3.3,0.91-6.39,2.66-9.47,4.23c-1.61,0.82-2.94,2.19-4.52,3.11
			c-2.64,1.54-5.48,0.92-6.89-1.35c-2.85-4.58-4.49-5.34-9.33-3.36c-7.54,3.08-11.68,9.23-13.46,16.84
			c-0.71,3.05-1.5,4.79-4.91,4.94c-4.26,0.19-6.98,3.06-8.74,6.58c-2.4,4.82,0.01,10.89,4.78,13.42c2.18,1.16,4.22,2.64,6.16,4.18
			c4.34,3.43,6.35,8.42,8.62,13.24c0.61,1.29,1.37,3.09,2.46,3.47c6.03,2.07,12.23,3.82,18.19-0.21c2.44-1.65,4.89-1.88,7.58-0.96
			c1.1,0.38,2.22,0.74,3.35,1c4.76,1.07,7.7-0.3,9.62-4.83C171.95,75.84,172.29,73.52,173.03,70.75z M293.37,226.4
			c5.17,4.64,7.42,4.13,9.43-1.86c0.05-0.16,0.1-0.32,0.15-0.48c1.81-5.6,2.45-5.91,8.18-3.95c4.87,1.66,7.6,0.77,10.94-3.28
			c4.05-4.91,4.62-10.06,0.97-15.73c5.63-4.67,7.56-10.95,5.71-17.43c-1.76-6.15-5.79-11.33-11.78-14.98
			c3.16,0.42,6.31,0.83,10.25,1.35c-0.24-3-0.21-5.6-0.72-8.09c-0.77-3.78-3.08-5.23-6.81-4.7c-0.65,0.09-1.3,0.31-1.93,0.52
			c-2.1,0.7-3.55,0.34-5.17-1.55c-2.82-3.28-5.58-3.02-8.25,0.4c-1.53,1.95-2.86,4.08-4.06,6.25c-2.12,3.82-3.62,4.25-7.47,1.86
			c-3.06-1.9-4.83-1.43-6.11,1.93c-0.58,1.51-0.82,3.24-0.81,4.87c0.02,3.75,1.12,4.52,4.91,5.34c2.37,0.51,4.78,1.51,6.79,2.84
			c2.61,1.73,2.31,3.88-0.38,6.05c-6.69-6.39-9.86-6.35-15.7,0.34c1.05,3.19,2.14,6.48,3.25,9.84c-3.44,3.62-6.91,6.83-12.35,6.01
			c-2.24,4.4-2.01,8.71-0.68,12.87c3.47,10.84,14.68,13.27,22.57,5.02c1.07-1.11,2.03-2.52,4.76-2.41
			C296.97,220.73,295.25,223.44,293.37,226.4z M273.03,73.31c-0.48,0.78-0.9,1.29-1.14,1.87c-2.24,5.36-4.58,10.68-6.63,16.11
			c-1.93,5.1-5.03,10.34-5,15.49c0.06,9.08-5.16,16.9-4.78,25.83c0.03,0.6-0.51,1.21-0.76,1.83c-1.84,4.6-3.87,8.96-7.02,12.99
			c-4.38,5.61-7.83,11.95-11.62,18.01c-1.77,2.82-3.96,5.14-7.48,5.09c-3.26-0.05-6.52-0.61-10.18-0.98c0-3-0.45-5.54,0.1-7.85
			c1.06-4.49,2.54-8.9,4.09-13.26c1.06-2.96,2.82-5.68,3.74-8.67c0.93-3.03,2.88-5.51,3.77-8.63c1.29-4.55,3.76-8.75,5.63-13.14
			c0.82-1.93,1.38-3.96,2.17-6.25c-2.34-0.85-4.16-1.51-6.6-2.39c-2.07,4.7-4.1,9.01-5.88,13.42c-3.74,9.24-7.48,18.48-10.95,27.82
			c-1.38,3.72-2.59,7.67-2.89,11.58c-0.35,4.62-2.62,7.14-6.48,8.93c-3.17,1.46-6.2,3.23-9.38,4.64c-5.02,2.23-7.54,6.23-8.8,11.36
			c-2.59,10.57-2.74,21.41-3.48,32.15c-0.74,10.72-0.47,21.51-0.65,32.86c0.75,0.22,2.06,0.61,3.66,1.09
			c0.33-1.64,0.57-2.74,0.77-3.85c0.7-3.72,1.33-7.45,2.08-11.16c0.91-4.51,2.19-8.97,2.83-13.52c1.31-9.38,2.32-18.8,3.42-28.2
			c1.44-12.27,12.82-17.44,23.29-16.69c4.71,0.33,8.56,2.46,12.49,4.63c3.86,2.13,4.8,2.14,7.86-0.83c2.13-2.06,4.04-4.36,5.96-6.63
			c3.43-4.07,8.2-4.98,13.05-5.21c3.83-0.18,5.6,3.03,7.49,5.8c3.93,5.79,7.92,11.55,12.53,18.27c0-1.84,0.23-2.68-0.03-3.33
			c-2.61-6.46-5.24-12.92-7.98-19.33c-2.5-5.85-6.28-9.97-13.2-10.66c-3.74-0.37-4.44-1.85-3.2-5.63c1.5-4.57,3.55-8.96,5.06-13.53
			c1.19-3.59,2.54-7.3,2.7-11.01c0.17-3.82,1.03-7.09,2.97-10.31c2.51-4.17,3.48-8.65,1.45-13.36c-0.86-1.99-0.78-3.83,0.31-5.72
			c0.66-1.14,1.41-2.39,1.55-3.66c0.82-7.46,4-14.05,7.43-20.53C276.67,76.17,275.78,74.71,273.03,73.31z M129.83,119.29
			c-0.61,5.62-0.43,6.04,4.02,7.91c2.14,0.9,4.37,1.6,6.55,2.43c5.59,2.13,10.54,5.18,13.02,10.88c2.84,6.55,6.07,13.06,7.81,19.92
			c4.61,18.13,8.45,36.46,12.76,54.67c0.39,1.66,1.92,3.05,2.92,4.57c1.08-3.43,0.94-6.48,1.55-9.37c1.4-6.68,0.51-12.86-1.48-19.44
			c-4.05-13.34-6.78-27.08-10.44-40.55c-2.8-10.31-6.15-20.48-17.5-25.68c3.06-12.29,10.7-23.1,12.7-36.3
			c-2.37-0.56-4.72-1.12-7.43-1.77c-0.5,1.98-0.87,3.56-1.3,5.12c-1.75,6.39-3.05,12.95-5.39,19.12
			c-3.27,8.64-4.71,12.08-16.92,8.49C130.56,119.25,130.38,119.29,129.83,119.29z M221.48,164.33c5.98,2.87,7.71,2.45,10.43-1.58
			c3.71-5.5,7.54-10.91,11.25-16.4c1.02-1.5,1.74-3.2,2.74-4.71c4.99-7.47,3.95-16.56,6.83-24.23c-4.32-0.79-8.39-1.53-12.67-2.3
			C233.93,131.39,227.75,147.75,221.48,164.33z M149.14,90.04c-5.86-0.35-10.8-0.64-15.74-0.96c-2.48-0.16-3.93,1.15-3.33,3.51
			c0.44,1.73,1.34,3.4,2.33,4.91c1.83,2.8,1.93,5.54,0.45,8.48c-0.95,1.89-1.75,3.86-2.7,5.98c3.57,2.1,6.6,4.39,10.88,3.88
			C144.79,107.47,147.75,98.97,149.14,90.04z M213.23,277.3c5.69-12.34,11.02-23.88,16.35-35.43c-0.3-0.23-0.59-0.47-0.89-0.7
			c-3.72,3.45-7.66,6.7-11.12,10.39c-4.74,5.06-9.14,10.45-13.66,15.72c-1.64,1.91-1.47,4.51,0.06,6.85
			C206.46,277.92,210.26,276.97,213.23,277.3z M163,244.22c0.64,1.65,1.25,3.31,1.93,4.94c2.81,6.72,5.98,13.36,6.66,20.72
			c0.32,3.46,2.35,4.86,5.15,5.87c2.93,1.06,5.12-0.03,7.03-2.29C180.45,261.24,173.84,251.4,163,244.22z M205.02,238.71
			c-0.29-0.15-0.59-0.29-0.88-0.44c-3.96,4.9-8.69,9.28-10.26,15.83c-1.48,6.22-2.87,12.45-4.3,18.65c5.13,3.04,7.27,2.3,8.62-2.97
			c0.7-2.72,1.24-5.48,1.85-8.23c0.89-4.02,2.25-8.01,2.51-12.07c0.18-2.89,0.59-5.52,1.8-8.1
			C204.74,240.57,204.81,239.61,205.02,238.71z M141.57,249.46c6.08,10.36,12.94,18.66,21.83,25.2c0.92,0.68,1.97,1.31,3.06,1.64
			c2.06,0.61,3.81-0.72,3.8-2.69c-0.01-3.61-2.96-7.5-6.38-8.99c-1.78-0.78-3.4-2.05-4.92-3.3c-2.31-1.89-4.26-4.3-6.75-5.87
			C149.1,253.49,146.96,249.84,141.57,249.46z M176.92,247.09c0.28-0.1,0.52-0.12,0.55-0.21c0.17-0.46,0.38-0.93,0.41-1.4
			c0.5-9.08,0.35-17.96-7.13-24.78c-1.33-1.21-2.2-2.92-3.38-4.31c-1.22-1.43-2.57-2.75-3.86-4.11c-0.11,0.13-0.22,0.27-0.34,0.4
			C167.75,224.15,172.34,235.62,176.92,247.09z"/>
	</g>
</g>
</svg>
