<?xml version="1.0" encoding="utf-8"?>
<!-- Generator: Adobe Illustrator 28.2.0, SVG Export Plug-In . SVG Version: 6.00 Build 0)  -->
<svg version="1.1" xmlns="http://www.w3.org/2000/svg" xmlns:xlink="http://www.w3.org/1999/xlink" x="0px" y="0px"
	 viewBox="0 0 400 300" style="enable-background:new 0 0 400 300;" xml:space="preserve">
<style type="text/css">
	.st0{fill:#90AF7C;}
</style>
<g id="Layer_2">
	<path class="st0" d="M304.25,157.86c2.29-7.54,3.63-15.9,3.2-23.72c-0.24-4.35-1.49-8.28-3.73-11.45
		c-3.48-0.67-6.85-1.82-10.35-2.32c-2.87-0.41-5.17-2.62-5.41-5.47c-0.32-0.03-0.64-0.05-0.96-0.08c-0.25-0.63-0.53-1.25-0.68-1.67
		c-2.97-8.37-10.31-14.9-19.81-12.43c-6.12,1.59-10.14,6.01-12,11.37c-2.08-2.88-4.64-5.41-7.72-7.22
		c-0.81-0.48-3.88-1.71-5.87-2.56c0.65-2.98,1.39-5.92,1.61-8.99c0.51-7.22-2.75-14.43-9.06-18.22c-5.72-3.43-12.83-3.76-19.19-2.21
		c-1.99,0.49-3.89,1.27-5.82,1.97c-2.04-1.6-4.08-3.2-6.12-4.8c-3.33-2.61-7.4-3.59-11-2.82c-5.13-0.96-10.36-0.64-15.13,1.97
		c-5.27,2.88-8.54,7.75-10.34,13.37c-0.64,1.98-0.77,4.25-1.63,6.15c0.61-1.35-1.7,1.56-1.09,1.08c-3.48,2.76-7.53,4.66-10.66,7.91
		c-4.37,4.53-6.45,10.14-7.08,16.31c-0.37,3.62,0.11,7.16,0.44,10.73c-3.99,0.29-7.65,2.53-9.01,7.09c-0.02,0-0.04,0.01-0.07,0.01
		c0.44-0.14-1.73-0.12-2.82-0.13c-0.25-0.11-1.98-0.47-2.15-0.51c-7.19-1.93-14.73-4.27-22.21-2.32
		c-8.43,2.19-14.46,8.99-16.02,17.51c-0.53,2.92-0.49,8.43-0.75,10.04c-0.04,0.19-0.09,0.39-0.13,0.58
		c-7.51,0.7-12.07,11.16-7.97,17.34c2.92,4.4,5.37,8.95,6.96,14c1.57,5.02,1.64,10.6,3.82,15.39c3.47,7.62,9.86,10.03,16.4,9.17
		c2.75,3.84,7.99,5.96,12.65,4.66c7.45-2.07,12.48-6.74,18.52-11.25c0.38-0.28,1.59-0.87,2.67-1.45c0.76,3.75,3.57,7.2,6.98,8.57
		c4.75,1.91,12.09,0.63,14.36-4.71c0.72-1.69,1.76-3.13,3.05-4.36c1.07,0.32,2.25,0.51,3.55,0.51c5.03,0,8.34-2.65,9.96-6.16
		c0.39-0.06,0.79-0.1,1.19-0.14c0.11,0.12,0.21,0.24,0.33,0.35c0.78,0.6,1.55,1.2,2.33,1.8c1.79,1.04,3.73,1.56,5.8,1.57
		c1.02-0.14,2.04-0.27,3.06-0.41c1.7-0.48,3.19-1.31,4.5-2.45c6.63,1.55,12.08,4.46,17.89,8.12c7.07,4.45,16.36,7.34,23.98,2.49
		c0.03-3.17,2.27-6.6,6.36-6.64c3.17-0.03,6.17,0.7,9.08,1.92c2.19,0.92,4.52,2.51,6.92,2.69c6.45,0.5,11.44-7.27,12.9-12.59
		c0.61-2.2,2.02-3.38,3.65-3.76c0.07-0.11,0.14-0.24,0.16-0.32c0.21,0.07,0.43,0.13,0.64,0.19c0.92-0.07,1.88,0.09,2.79,0.44
		c1.27,0.06,2.52-0.07,3.61-0.39c12.92-3.81,20.66-17.28,17.02-30.36C305.51,159.95,304.96,158.84,304.25,157.86z"/>
</g>
<g id="Layer_1">
	<g>
		<path d="M141.9,123.37c-0.54-4.45-1.58-8.42-1.37-12.31c0.53-9.58,6.83-15.59,14.33-20.31c2.56-1.61,4.23-3.13,5.07-6.11
			c5.39-18.96,25.77-27.4,43.16-20.11c0.31,0.13,0.68,0.23,0.88,0.46c4.47,4.96,9.55,4.15,15.26,2.34
			c6.25-1.99,12.65-1.09,18.25,2.39c8.5,5.28,10.97,13.29,9.27,22.84c-0.47,2.61-0.99,5.21-1.61,8.42c2.46,1.3,4.93,3.07,7.68,3.88
			c1.37,0.41,3.48-0.59,4.88-1.51c4.59-3.05,9.44-4.57,15.02-4.45c7.52,0.17,16.42,4.67,19.67,14.13c1.19,3.48,4.16,3.65,6.7,4.3
			c5.26,1.34,8.52,4.9,11.3,9.1c3.75,5.67,4.28,11.91,2.01,18.13c-1.81,4.96-4.43,9.62-6.94,14.94c0.83,1.28,1.93,3.09,3.14,4.83
			c2.21,3.19,2.24,6.56,0.76,9.97c-4.82,11.1-13.15,18.18-24.8,21.38c-0.94,0.26-1.9,0.44-2.92,0.67c-0.7,2-1.24,3.92-2.02,5.74
			c-3.04,7.09-8.95,10.21-16.56,8.51c-3.72-0.83-7.34-2.14-10.99-3.26c-1.73-0.53-3.45-1.12-5.15-1.67
			c-4.37,5.48-10.34,8.24-16.07,11.17c-6.58,3.37-11.98,1.18-15.05-5.59c-0.89-1.96-1.52-4.03-2.26-6
			c-4.05-0.6-8.09-1.19-12.77-1.89c-7.59,3.9-9.3,3.82-16.69-1.38c-0.77,1.02-1.43,2.17-2.35,3.06c-2.29,2.22-4.76,4.06-8.29,3.79
			c-3.84-0.3-5.3,0.8-6.44,4.39c-0.1,0.32-0.14,0.65-0.22,0.97c-1.57,6.63-5.98,8.8-12.26,5.53c-4.48-2.34-9.4-4.5-10.89-10.83
			c-2.87,2.52-5.2,4.83-7.81,6.78c-2.63,1.97-5.33,4.06-8.33,5.25c-3.89,1.53-7.92,1.16-10.94-2.33c-1.75-2.03-3.42-2.37-6.09-1.45
			c-9.91,3.41-20.03-2.85-21.46-13.25c-0.54-3.9-0.4-7.92-0.27-11.87c0.06-1.71-0.25-2.86-1.7-3.77c-1.13-0.7-2.33-1.4-3.2-2.38
			c-1.53-1.71-3.26-3.44-4.15-5.49c-2.96-6.79-0.03-18.55,5.76-23.1c2.55-2,3.55-3.85,3.53-7.38c-0.03-7.26,3.91-13.14,9.84-17.04
			c8.55-5.63,18.38-7.42,28.25-5.43C133.26,128.67,137.74,127.3,141.9,123.37z M203.67,169.63c3.98-1.6,7.53-3.34,11.27-4.44
			c3.3-0.97,5.77,0.81,6.81,4.13c0.43,1.37,0.81,2.75,1.27,4.31c1.9-0.27,3.5-0.16,4.79-0.74c3.07-1.37,6.4-1.56,9.51-2.42
			c4.94-1.37,9.69-4.23,11.87-9.17c2.91-6.58,4.09-13.69,3.94-20.93c-0.04-2.13-0.77-3.8-3.36-4.12c-3.85-0.48-4.24-1.44-3.07-5.06
			c1.16-3.6,2.31-7.25,2.93-10.97c1.18-7.1-2.17-10.91-9.49-11.32c-4.16-0.23-5.23-1.99-3.66-5.86c1.05-2.58,2.28-5.15,2.86-7.84
			c1.34-6.21,1.08-12.1-3.75-17.16c-5.26-5.51-14.3-6.62-20.31-2.05c1.29,3.86,1.19,7.67-0.58,11.4c-2.52-3.41-4.97-6.67-7.35-9.97
			c-7.91-10.94-22.99-11.22-33.25-3.21c-3.64,2.84-6.34,6.57-6.32,11.79c1.7,0.08,3.03,0.02,4.32,0.22
			c1.87,0.29,4.65-0.07,4.72,2.53c0.07,2.55-2.68,2.33-4.54,2.81c-4.46,1.16-9.24,1.71-13.29,3.73
			c-8.94,4.45-15.43,12.96-11.54,23.52c0.87,2.36,1.85,3.68,4.33,3.94c3.56,0.38,6.75,1.62,9.45,4.09c1.79,1.64,3.94,2.36,6.44,2.09
			c3.08-0.33,5.52,1,7.39,3.34c3.1,3.89,6.43,7.65,9.12,11.82c3.4,5.26,6.27,10.87,9.47,16.51c0.48,0.06,1.13,0.2,1.78,0.22
			c3.76,0.09,6.4,1.43,6.91,5.62C202.5,167.66,203.31,168.79,203.67,169.63z M181.1,170.24c5.01-4.66,5.21-6.46,2.96-12.42
			c-3.02-7.98-8.67-14.11-13.9-20.53c-1.36-1.66-3.12-3.02-5.64-1.53c-2.8,1.66-5.04,0.65-6.91-1.79c-2.38-3.11-5.89-4.24-9.51-4.88
			c-3.23-0.57-5.22,0.78-6.54,3.89c-1.56,3.68-3.23,4.46-6.98,3.23c-0.79-0.26-1.51-0.73-2.3-0.98c-8.98-2.79-17.79-3.53-26.67,0.84
			c-4.64,2.28-7.04,5.89-8.53,10.45c-1.02,3.12-0.49,5.9,2.14,8.12c1.36,1.15,2.61,2.42,3.87,3.59c-2.95,4.04-3.7,4.31-7.58,3.02
			c-4.54-1.51-8.08,0.83-8.45,5.73c-0.2,2.65-0.12,5.32-0.16,7.98c-0.04,2.98,1.48,5.04,3.91,6.5c1.99,1.2,4.02,2.34,6.08,3.41
			c1.98,1.02,2.84,2.4,1.41,4.36c-3.44,4.7-2.61,9.74-1.26,14.79c1.72,6.45,9.05,9.9,14.73,4.68c3.4-3.13,5.39-2.61,7.87,1.29
			c3.7,5.81,5.77,6.07,10.9,1.36c0.24-0.23,0.46-0.48,0.7-0.71c2.93-2.94,5.74-6.13,10.92-4.57c-0.57-2.3-1.03-4.03-1.44-5.78
			c-0.87-3.76-0.11-7.28,1.83-10.54c1.58-2.65,3.74-4.15,7.07-3.21c1.22,0.35,2.56,0.27,4.05,0.4c0.53-1.79,0.96-3.38,1.46-4.94
			c1.44-4.47,3.31-8.68,6.67-12.12c5.83-5.96,11.55-6.21,17.83-0.66C179.98,169.56,180.42,169.78,181.1,170.24z M241.3,176.97
			c1.28,3.7,2.7,6.9,3.47,10.25c0.81,3.51,0.99,7.15,1.41,10.38c3.1,1,5.78,1.88,8.47,2.72c3.65,1.15,7.29,2.33,10.96,3.41
			c2.03,0.59,4.18,0.51,5.43-1.37c1.66-2.49,3.32-5.26,1.72-8.37c-1.09-2.12-0.91-3.86,0.67-5.44c1.67-1.68,3.55-1.04,5.57-0.51
			c1.85,0.48,4.04,0.86,5.79,0.33c7.7-2.34,13.45-7.16,16.83-14.56c1.2-2.64,0.97-5.23-1.02-7.46c-1.21-1.35-2.5-2.64-3.89-3.8
			c-3.26-2.74-3.4-4.94,0.27-6.92c2.95-1.59,4.43-3.99,5.47-6.8c1.04-2.79,2-5.68,2.47-8.61c1.49-9.18-5.83-17.37-14.72-16.58
			c-2.43,0.21-3.85-0.68-4.51-2.9c-0.33-1.11-0.67-2.28-0.67-3.42c0-4.88-3.51-7.63-6.84-9.81c-5.32-3.47-15.16-1.88-19.68,2.48
			c-0.63,0.61-1.09,1.64-1.2,2.53c-0.56,4.6-1.07,9.21-1.39,13.82c-0.08,1.16,0.27,2.76,1.04,3.51c4.32,4.21,4.89,9.28,3.68,14.76
			c-1.11,5.03-2.54,10-3.66,15.03c-1.03,4.64-3.67,8.16-7.26,11.04C247.02,172.88,244.15,174.86,241.3,176.97z M160.72,214.23
			c1.02-1.79,1.95-3.33,2.79-4.93c0.85-1.62,1.47-3.37,2.43-4.91c2.04-3.3,3.76-3.93,7.55-3.09c0.77,0.17,1.54,0.39,2.48,0.63
			c1.62-1.86,3.23-3.54,4.64-5.37c3.49-4.52,4.09-4.64,8.66-1.05c1.65,1.29,3.25,2.65,4.95,4.03c1.6-1.42,2.81-2.55,4.08-3.6
			c2.84-2.36,5.27-2.61,7.99-0.1c2.48,2.28,4.44,2.51,7.44,0.81c4.65-2.64,6.32-1.47,7.28,3.65c0.75,3.99,1.23,8.29,5.73,10.92
			c3.8-2.42,7.67-4.9,10.74-6.86c0-3.39,0.16-5.82-0.04-8.23c-0.27-3.29-0.43-6.68-1.33-9.82c-1.19-4.15-2.8-4.6-6.69-2.68
			c-2.39,1.18-4.7,2.49-7.11,3.63c-5.35,2.53-7.85,0.85-7.52-5.03c0.17-3.14,0.5-6.27-1.44-9.56c-1.49,1.02-2.93,1.81-4.13,2.88
			c-1.74,1.54-3.23,3.36-4.96,4.91c-1.74,1.56-3.79,1.92-6.04,1.11c-2.22-0.8-2.08-2.66-2.32-4.5c-0.38-2.86-1.01-5.68-1.64-9.11
			c-4.44,3.35-7.38,6.82-10.06,10.63c-3.51,4.98-7.64,4.42-9.99-1.14c-0.98-2.32-1.93-4.61-4.9-5.1c-4.81,3.35-6.43,8.33-7.33,13.68
			c-0.47,2.77-0.66,5.58-1.2,8.33c-0.79,4.09-4.33,5.47-7.91,3.16c-1.19-0.77-2.25-1.74-3.95-3.06c-1.66,7.54,2.7,12.58,4.35,18.03
			C155.97,213.12,158.05,213.61,160.72,214.23z"/>
		<path d="M171.09,110.29c3.93-4.19,5.98-4.13,8.55-0.28c0.55,0.82,1,1.71,1.45,2.58c0.77,1.47,1.8,3.21,0.28,4.52
			c-1.7,1.46-4.03,0.97-5.45-0.39C174.08,114.94,172.78,112.59,171.09,110.29z"/>
		<path d="M195.93,147.87c1.88-3.9,3.81-7.29,6.83-9.88c0.72-0.62,2.03-0.54,3.07-0.79c0.22,1.02,0.85,2.15,0.59,3.02
			c-0.6,2.02-1.45,4.01-2.51,5.83C201.95,149.4,200.97,149.58,195.93,147.87z"/>
		<path d="M207.88,111.6c-0.34,0.95-1.01,2.96-1.79,4.94c-0.65,1.65-2.17,2.35-3.58,1.63c-0.84-0.43-1.52-2.02-1.51-3.08
			c0.02-1.95,0.53-3.91,0.98-5.82c0.44-1.86,1.35-3.47,3.56-3.47C207.3,105.78,208.16,107.56,207.88,111.6z"/>
		<path d="M184.82,91.59c2.03-3.63,5.56-4.28,9.17-4.37c1.02-0.03,2.87,1.14,2.94,1.89c0.11,1.17-0.64,2.92-1.6,3.61
			C192.57,94.71,188.14,94.09,184.82,91.59z"/>
		<path d="M225.43,124.28c3.03-2.9,8.27-2.69,10.5,0.41c1.29,1.79,0.59,3.56-1.61,4.06C231.59,129.36,227.25,127.19,225.43,124.28z"
			/>
		<path d="M221.08,150.44c4.94-3.33,7.14-2.56,9.85,3.16C226.35,155.97,223.23,155.02,221.08,150.44z"/>
		<path d="M154.78,159.12c-5.63,1.39-6.84,0.62-9.78-6.01c0.66-0.77,1.32-1.72,2.16-2.48c1.69-1.53,3.6-1.34,4.68,0.48
			C153.23,153.45,155.19,155.71,154.78,159.12z"/>
		<path d="M125.1,196.39c-1.07,0.86-2.01,2.16-3.18,2.44c-3.16,0.73-8.61-1.19-10.87-3.42C114.69,190.68,120.04,190.88,125.1,196.39
			z"/>
		<path d="M122.53,156.93c3.18-3.05,5.86-5.61,8.5-8.14c3.1,2.7,3.4,4.17,1.7,6.49C130.43,158.43,126.83,159.25,122.53,156.93z"/>
		<path d="M130.88,177.03c2.34-2.21,4.38-4.3,6.62-6.15c0.56-0.47,1.99-0.54,2.58-0.14c0.65,0.44,1.33,1.97,1.04,2.44
			c-1.11,1.78-2.38,3.6-4.02,4.86C135.54,179.24,133.46,179.64,130.88,177.03z"/>
		<path d="M114.11,182.94c-3.09-0.43-4.76-1.55-5.56-3.83c-0.8-2.26,0.22-3.95,2.57-4.22c2.3-0.27,5.97,3.77,5.16,5.93
			C115.9,181.82,114.62,182.47,114.11,182.94z"/>
		<path d="M271.1,132.61c0-3.64-0.13-7.07,0.05-10.49c0.11-2.12,2.54-4.11,4.4-3.78c2.28,0.4,2.71,2.21,2.54,4.14
			c-0.2,2.28-0.41,4.59-0.95,6.81C276.46,132.05,274.68,133.51,271.1,132.61z"/>
		<path d="M274.46,176.35c1.08-3.05,1.95-6.03,3.23-8.81c0.44-0.95,2.28-2.18,2.88-1.92c1.11,0.48,2.59,2.1,2.46,3.03
			c-0.39,2.7-1.08,5.55-2.47,7.84C279.51,178.21,277.14,178.12,274.46,176.35z"/>
		<path d="M256.13,182.82c2.67-4.8,7.41-5.29,10.53-1.21c1.34,1.75,0.43,4.13-1.81,4.37C261.45,186.34,258.33,185.77,256.13,182.82z
			"/>
		<path d="M287.54,140.24c3.45-5.28,6.75-5.79,10.8-1.97C296.5,142.73,292.99,143.44,287.54,140.24z"/>
		<path d="M270.86,151.45c4.06-4.25,5.89-4.1,9.95,0.55C278.31,155.85,275.19,155.75,270.86,151.45z"/>
	</g>
</g>
</svg>
