<?xml version="1.0" encoding="utf-8"?>
<!-- Generator: Adobe Illustrator 28.2.0, SVG Export Plug-In . SVG Version: 6.00 Build 0)  -->
<svg version="1.1" xmlns="http://www.w3.org/2000/svg" xmlns:xlink="http://www.w3.org/1999/xlink" x="0px" y="0px"
	 viewBox="0 0 400 300" style="enable-background:new 0 0 400 300;" xml:space="preserve">
<style type="text/css">
	.st0{fill:#356933;}
	.st1{fill:#667757;}
	.st2{fill:#F1ADC1;}
	.st3{fill:#90AF7C;}
	.st4{fill:#755B43;}
</style>
<g id="Layer_2">
	<path class="st0" d="M106.05,151.32c9.59-2.16,19.43-2.59,29.13-4.02c-2.51-6.3-6.69-10.57-13.14-13.87
		c-2.23-1.14-3.89-3.16-3.93-5.56c-1.39-1.54-3.1-2.81-4.96-3.78c0.17-0.77,0.26-1.57,0.26-2.41c0-5.01-3.65-9.82-8.47-11.14
		c-0.31-0.65-0.64-1.3-0.98-1.94c-2.96,0.52-6.43-0.82-7.43-4.53c-2.09-7.73-2.21-15.69-3.22-23.58c-0.38-0.15-0.78-0.29-1.19-0.4
		c-2.47-0.68-5.16-0.41-7.55,0.58c0.74,1,1.19,2.28,1.13,3.83c-0.4,11.48,8.28,28.34-3.51,36.47c-1.25,2.68-1.66,5.85-0.86,9.53
		c1.03,4.7,4,8.48,8.02,10.84c0.94,4.04,3.92,7.68,8.14,8.81c2.35,0.63,4.72,1.18,7.11,1.67
		C105.05,151.61,105.52,151.44,106.05,151.32z"/>
	<path class="st1" d="M315.35,80.82c-0.75-1.69-2.53-3.47-2.95-5.09c-0.59-2.3,0.2-5.71,0.5-7.99c0.81-6.2-4.76-10.45-10.31-11.22
		c-0.67,1.34-1.79,2.46-3.3,3.04c-0.3,1.29-0.7,2.56-1.27,3.75c-1.1,2.31-3.06,3.77-5.4,3.87c-1.12,0.73-2.48,1.12-3.89,1.05
		c-0.05,0-0.09,0-0.13-0.01c-0.08,0.02-0.17,0.03-0.25,0.05c-0.08,0.03-0.17,0.07-0.29,0.12c-0.02,0.01-0.04,0.02-0.05,0.03
		c0.12-0.02-0.35,0.4-0.39,0.36c-0.05,0.07-0.1,0.14-0.15,0.2c-0.06,0.19-0.24,0.61-0.35,0.78c-0.02,0.09-0.03,0.19-0.05,0.29
		c0.01,0.1,0.01,0.32,0.02,0.54c0.09,0.15,0.32,0.8,0.4,0.95c1.57,2.85-0.04,6.67-2.85,8c-1.58,0.75-3.26,0.72-4.72,0.12
		c-1.15,0.59-2.23,1.33-3.18,2.21c-0.61,0.56-1.16,1.18-1.65,1.82c0.23,0.52,0.41,1.11,0.49,1.77c0.52,4.04,2.48,9.14,6.5,10.9
		c4.85,2.12,5.41,11.27-1.04,11.54c-2.06,0.08-3.89,0-5.82-0.27c-0.85,1.67-2.38,3.01-4.53,3.34c-0.04,0.53-0.08,0.99-0.09,1.28
		c-0.03,1.14-0.16,2.26-0.37,3.36c2.8,2.13,6.44,3.14,9.75,1.83c5.71-2.26,11.37-4.84,14.54-10.46c0.54-0.95,1.01-1.96,1.4-3
		c2.94,0.23,5.87-0.09,8.68-1.16c2.35-0.89,4.18-2.15,5.55-3.75c0.54-0.47,1.77-1.82,2.47-2.52c0.85-0.85,1.75-2.04,2.37-3.09
		C317.27,89.65,317.1,84.77,315.35,80.82z"/>
	<path class="st2" d="M193.43,110c2.58-6.99,5.17-13.97,7.75-20.96c0.59-1.6,0.66-3.27,0.36-4.88c-1.71-0.09-3.56-0.3-4.97-0.91
		c0.09,0.04-0.26-0.05-0.61-0.13c-0.02,0.05-0.05,0.09-0.07,0.15c-1.17,2.79-3.75,5.73-5.32,8.38c-1.82,3.06-3.55,6.13-5.07,9.35
		c-0.33,0.69-0.74,1.27-1.2,1.75c-0.9,1.72-2.27,3.21-4.22,4.33c-1.8,1.03-3.78,1.53-5.82,1.79c-0.67,0.09-1.77,0.38-2.45,0.21
		c-0.03-0.01-0.05-0.01-0.08-0.02c-0.58,2.15-2.12,3.48-3.89,4.05c-0.11,0.3-0.22,0.6-0.33,0.91c-0.58,1.58-1.56,2.49,0.78,0.73
		c-5.32,4.02-8.63,12.83-2.33,18.06c0.7,0.58,0.94,1.2,0.9,1.05c0.83,3.48,0.16,5.67,2.62,8.86c1.85,2.4,4.41,4.19,7.37,4.94
		c1.02,0.26,3.25,0.89,4.25,0.53c0.08-0.03,0.16-0.04,0.23-0.05c3.71,2.54,8.94,4.02,12.98,1.1c13.28-9.62,12.17-26.08,1.46-37.32
		C195.01,111.13,194.23,110.5,193.43,110z"/>
	<path class="st3" d="M202.96,196.76c-0.14,0-0.28,0-0.43-0.01c-8.57-0.65-21.77-6.56-33.1-7.72c-0.15-0.01-0.29-0.01-0.45-0.03
		c-4.93-0.53-9.63,4.76-13.89,6.67c-0.41,0.18-0.81,0.31-1.2,0.41c-4.24,5.25-7.24,11.46-11.94,16.36c-3.87,4.04-9.07,6-13.7,8.89
		c-1.06,0.84-2.17,1.64-3.34,2.4c-1.09,0.71-2.23,1.03-3.32,1.08c3.45,2.96,8.33,4.12,12.84,1.18c4.22-2.75,8.52-5.36,12.9-7.85
		c3.59-1.27,7.12-1.59,9.15,0.52c4.2,4.36,12.15,4.19,16.45,0.14c1.79,0.81,3.99,1.26,5.72,1.35c5.09,0.24,9.83-1.98,12.44-6.51
		c0.11-0.2,0.47-1.03,0.86-2.06c2.94-1.13,5.71-2.53,7.84-4.98C202.23,203.8,203.39,200.19,202.96,196.76z"/>
	<path class="st4" d="M273.05,182.55c-0.91-3.04-2.66-5.15-4.79-6.44c0.37-1.23,0.68-2.49,0.81-3.84c0.43-4.31-1.88-7.63-5.18-9.53
		c0.05-0.38,0.08-0.75,0.11-1.13c-6.25-0.26-13.27-1.68-17.5-6.58c-1.48-1.72-2.35-3.95-3.67-5.8c-0.88-1.24-2.08-2.37-2.89-3.65
		c-0.19-0.24-0.4-0.46-0.62-0.66c-0.7,0.63-1.43,1.04-2.15,1.27c-0.21,0.88-0.3,1.8-0.22,2.74c0.31,3.92,1.3,7.18,3.05,10.7
		c0.02,0.03,0.03,0.06,0.05,0.09c-4.35,4.66-6.28,13.42-5.79,19.31c0.54,6.48,4.6,12,10.36,14.05c0.56,1.95,1.34,3.84,2.35,5.58
		c2.78,1.61,5.37,3.45,7.81,5.58c0.94,0.82,1.9,1.69,2.82,2.59c5.37,1.26,11.18-0.36,14.42-5.45
		C275.52,195.88,274.86,188.56,273.05,182.55z"/>
</g>
<g id="Layer_1">
	<g>
		<path d="M148.84,219.13c-7.66,7.69-16.77,12.03-27.07,14.36c-3.51,0.79-4.91-0.34-5.9-3.3c-1.03-3.07,0.19-4.98,3.08-5.62
			c10.68-2.36,18.1-9.41,25.09-17.11c3.55-3.91,6.78-8.14,10.51-11.85c6.46-6.43,14.28-9.06,23.29-6.76
			c9.78,2.49,19.35,6.04,29.73,5.2c2.62-0.21,3.07,1.5,2.12,3.64c-1.63,3.66-3.21,7.34-7.48,8.82c-0.87,0.3-1.92,0.97-2.25,1.74
			c-1.6,3.75-3.88,6.45-8.19,7.21c-0.89,0.16-1.63,1.87-2.2,2.99c-3.34,6.54-5.81,7.37-12.14,3.69c-2.23-1.29-4.15-1.87-6.3,0.14
			c-5.26,4.94-10.87,3.99-16.49,0.7C152.64,221.8,150.78,220.43,148.84,219.13z M128.03,226.24c0.24,0.43,0.48,0.86,0.72,1.29
			c5.04-3.34,10.29-6.41,15.05-10.1c4.67-3.62,7.05-4.07,12.02-0.79c1.38,0.91,2.91,1.59,4.31,2.48c2.98,1.9,5.49,1.43,8.08-0.94
			c3.46-3.17,7.47-3.22,11.58-1.2c1.01,0.5,1.99,1.06,3.12,1.67c0.57-0.71,1.2-1.15,1.34-1.71c1.05-4.33,4.49-5.3,8.08-6.96
			c3-1.39,2.61-7.31,7.6-7.51c0.16-0.01,0.35-0.08,0.46-0.19c0.81-0.81,1.6-1.63,2.18-2.22c-9.75-2.43-19.1-4.59-28.35-7.12
			c-7.87-2.15-16.22,3.27-20.69,9.11C146.29,211.49,138.78,220.53,128.03,226.24z"/>
		<path d="M230.38,176.6c1.44-3.33,2.96-7.51,5.06-11.38c0.96-1.77,1.02-2.97,0.67-4.93c-0.74-4.17-1.01-8.52-0.77-12.75
			c0.18-3.23,4.07-4.96,7.04-3.45c0.83,0.42,1.43,1.62,1.77,2.59c0.64,1.82,0.97,3.75,1.53,5.6c0.84,2.74,2.73,3.14,5.53,3.67
			c5.53,1.04,10.93,3.14,16.14,5.35c1.36,0.58,2.91,3.5,2.53,4.81c-0.83,2.83,0.44,4.56,1.59,6.66c5.04,9.15,6.49,19.03,4.11,29.04
			c-0.96,4.04-4.4,7.48-8.91,8.72c-1.31,0.36-3.03,0.14-4.3-0.41c-3.31-1.43-7.55-2.4-9.45-4.99c-3.52-4.79-8.69-7.78-12.07-12.56
			c-0.7-0.99-1.77-1.81-2.83-2.43C233.24,187.33,231.87,182.62,230.38,176.6z M249.5,160.7c-0.82,0.52-2.19,1.28-3.44,2.19
			c-1.32,0.97-2.39,2.38-3.81,3.1c-6.87,3.45-9.64,11.31-6.13,17.84c1.41,2.63,5.38,2.86,7.35,0.6c1.13-1.29,3.03-3.43,3.93-3.14
			c5.22,1.66,8.48-0.59,11.38-4.46c0.53-0.7,1.95-0.68,2.61-1.34c1.65-1.65,4.26-3.48,4.3-5.29c0.05-1.95-1.96-4.82-3.84-5.75
			C258.29,162.7,254.17,162.04,249.5,160.7z M266.72,178.19c-2.28,1.23-5.14,2.1-7.04,3.94c-3.12,3.03-5.96,5.65-10.82,4.51
			c-0.92-0.22-2.48,1.22-3.34,2.23c-0.45,0.53-0.38,1.99,0.03,2.7c1.91,3.35,8.28,3.35,10.51,0.11c0.83-1.2,1.72-2.35,3.15-4.31
			c1.71,6.55-2.2,9.15-5.78,12.29c3.45,1.49,6.6,2.5,9.36,4.14c3.95,2.36,7.45,1.61,7.95-2.78
			C271.61,193.41,273.57,185.4,266.72,178.19z M242.37,160.46c1.34-4.39-1.14-7.91-2.62-11.68
			C238.61,153.09,238.91,157.08,242.37,160.46z"/>
		<path d="M79.88,130.52c0.1-7.19,2.51-11.95,6.2-15.89c1.91-2.04,1.93-3.82,1.6-6.23c-1.04-7.72-1.85-15.48-2.76-23.22
			c-0.32-2.75-0.03-5.25,3.51-5.17c2.77,0.06,6.1-0.92,6.75,3.75c0.88,6.23,2.4,12.37,3.49,18.57c0.54,3.06,1.92,4.38,5.21,4.77
			c8.41,1.01,12.44,5.32,13.82,13.74c0.35,2.13,0.65,4.29,1.3,6.33c1.08,3.38,3.12,5.57,7.02,6.1c5.69,0.77,9.98,3.82,11.46,9.63
			c0.43,1.69,0.16,4.19-0.87,5.42c-0.77,0.91-3.27,0.38-5,0.45c-2.72,0.1-5.57-0.31-8.15,0.34c-7.75,1.94-15.35,4.05-23.55,2.74
			c-8.84-1.41-13.09-7.84-17.09-14.61C81.35,134.74,80.47,131.9,79.88,130.52z M130.68,143.76c0.09-0.49,0.18-0.98,0.27-1.47
			c-2.01-1.27-3.92-3.4-6.05-3.65c-8.18-0.95-10.43-6.65-11.79-13.36c-2.16-10.64-3.37-11.94-13.71-13.64
			c-2.73-0.45-3.98-1.62-4.44-4.36c-1.01-6.05-2.27-12.06-3.56-18.06c-0.37-1.71-1.15-3.34-1.74-5c-0.55,0.14-1.1,0.28-1.65,0.42
			c0.95,7.98,1.8,15.98,2.91,23.94c0.46,3.3,0.99,5.89-1.93,8.91c-4.35,4.5-6.9,10.55-1.14,17.38c1.38,1.64,2.45,3.54,3.73,5.28
			c3.14,4.28,7.42,7.1,12.69,6.72C113.1,146.22,121.88,144.83,130.68,143.76z"/>
		<path d="M285.27,103.74c-3.55-4.04-6.44-7.23-9.21-10.53c-2.02-2.41-2.35-7.18-0.59-9.91c2-3.09,4.9-4.86,8.7-4.79
			c0.77,0.02,1.53,0.3,3.09,0.63c-1.87-3.12-4.13-5.39-1.57-8.72c2.18-2.84,4.65-4.11,8.22-3.8c1.4-6.93,6.89-10.28,11.9-13.94
			c2.05-1.5,4.58-0.34,5.08,1.97c0.71,3.31,1.46,6.62,1.92,9.96c0.19,1.42-0.31,2.93-0.5,4.43c5.94,4.29,6.47,5.8,4.19,12.56
			c4.35,2.91,3.51,6.71,2.61,11.33c-1.37,7.03-4.5,11.03-11.83,11.54c-3.31,0.23-6.59,1.02-9.88,1.55c-0.15-0.4-0.3-0.79-0.45-1.19
			c-1.31,1.66-2.57,3.37-3.93,4.98c-4.76,5.6-10.71,8.93-18.18,8.99c-4.17,0.03-4.64-0.73-5.38-5.88c-0.49-3.36,1.36-4.16,4.13-4.92
			C277.45,106.94,281.17,105.27,285.27,103.74z M308.41,84.56c1.07-1.76,1.67-3.08,2.56-4.15c2.78-3.34,2.49-4.59-1.37-6.57
			c-1-0.51-2.54-2.1-2.36-2.47c2.38-4.86-1.77-8.64-1.98-13.24c-2.44,2.84-6.09,4.32-6.57,8.75c-0.35,3.22-2.64,5.27-6.3,5.03
			c-0.87-0.06-1.74,0.08-2.7,0.14c0.17,0.72,0.16,1.09,0.34,1.33c2.18,2.96,1.96,5.81-0.19,8.7c-1.99,2.67-4.33,2.46-7.09,1.37
			c-1.95-0.77-3.81-0.3-3.7,2.28c0.07,1.57,0.41,3.43,1.34,4.6c2.86,3.58,6.05,6.88,9.24,10.42c-0.21,9.39-9.01,9.49-15.08,13.02
			c3.28-0.05,6.65-0.13,9.09-1.67c3.84-2.43,7.02-5.89,10.55-8.83c1.45-1.21,3.64-3.44,4.55-3.04c4.11,1.8,7.39,0.06,10.92-1.36
			c2.65-1.06,6.48-7.47,5.62-10.21c-0.3-0.97-1.27-1.91-2.18-2.46C312.02,85.53,310.66,85.31,308.41,84.56z"/>
		<path d="M166.24,133.93c-1.49-1.06-2.63-1.74-3.62-2.6c-3.15-2.74-3.75-5.74-1.59-9.32c2.05-3.4,4.34-6.67,6.66-9.9
			c2.69-3.73,6.24-6.02,11.04-5.39c2.54,0.33,3.44-1.19,4.52-3.01c3.57-6,7.23-11.94,11-17.81c1.03-1.6,2.55-2.88,3.79-4.25
			c5.94,4.01,6.71,7.29,3.41,12.82c-2.55,4.27-5.11,8.54-7.32,12.23c4.17,4.5,8.28,8.34,11.59,12.78c1.52,2.03,2.06,5.27,1.96,7.92
			c-0.17,4.61-0.87,9.26-1.98,13.73c-0.45,1.8-2.28,4.07-3.96,4.58c-3.18,0.98-5.41,2.67-7.6,5.05c-3.81,4.14-8.14,4.36-13,1.5
			c-1.34-0.79-3.01-1.07-4.56-1.47c-2.08-0.54-4.34-0.62-6.24-1.51c-5.51-2.59-6.95-6.33-5.11-12.23
			C165.53,136.13,165.83,135.21,166.24,133.93z M198.96,88.97c-0.5-0.24-1.01-0.48-1.51-0.72c-3.14,5.34-6.65,10.5-9.29,16.08
			c-2.22,4.69-5.25,7.07-10.4,6.55c-3.1-0.31-4.95,1.43-6.49,3.76c-1.35,2.05-2.62,4.17-4.08,6.14c-2.77,3.72-2.87,5.41,0.95,7.73
			c3.73,2.26,3.99,4.56,2.15,8.21c-1.89,3.74-1.2,5.71,2.52,7.81c1.76,0.99,4.06,1.01,6.09,1.55c1.81,0.48,3.88,0.67,5.32,1.71
			c2.94,2.12,4.99,1.65,7.27-0.96c1.57-1.8,3.47-4.15,5.53-4.52c3.89-0.7,4.35-2.87,4.32-5.96c-0.02-1.48,0.15-2.98,0.37-4.45
			c0.73-5.04-4.76-15.92-9.32-18.36c-4.31-2.31-4.67-3.42-2.17-7.81c2.22-3.89,4.67-7.65,6.84-11.57
			C197.93,92.56,198.34,90.71,198.96,88.97z"/>
		<path d="M261.4,190.91c2.1-2.87,3.57-4.89,5.29-7.24C268.63,188.51,267.62,190.02,261.4,190.91z"/>
	</g>
</g>
</svg>
