<?xml version="1.0" encoding="utf-8"?>
<!-- Generator: Adobe Illustrator 28.2.0, SVG Export Plug-In . SVG Version: 6.00 Build 0)  -->
<svg version="1.1" xmlns="http://www.w3.org/2000/svg" xmlns:xlink="http://www.w3.org/1999/xlink" x="0px" y="0px"
	 viewBox="0 0 400 300" style="enable-background:new 0 0 400 300;" xml:space="preserve">
<style type="text/css">
	.st0{fill:#70BF44;}
</style>
<g id="Layer_2">
	<path class="st0" d="M269.36,212.54c-0.59,0.36-1.18,0.72-1.75,1.1c-0.18,0.12-0.35,0.26-0.53,0.38c-0.23-0.04-0.47-0.08-0.7-0.1
		c-0.46,0.47-0.95,0.91-1.45,1.34c-0.87,0.74-1.81,1.44-2.82,2.03c-0.26-0.83-0.62-1.61-1.05-2.36c-0.85,0.52-1.82,0.83-2.86,0.83
		c-1.06,0-2.1-0.15-3.07-0.44c-1.11,2.25-3.19,4.05-5.7,4.05c-4.07,0-7.81-2.1-8.36-6.53c-0.22-1.77,0.35-3.77,1.45-5.37
		c0.67-1.43,1.85-2.68,3.65-3.51c2.05-0.95,3.5-4.22,4.65-6.34c-2.05,1.78-4.12,3.52-6.26,5.2c-0.36,0.29-0.72,0.58-1.08,0.86
		c2.29-3.43,4.91-6.64,7.83-9.61c3.82-3.89,4.03-8.54,2.26-12.35c-2.14,2.04-4.26,4.1-6.31,6.24c-2.98,3.12-5.9,5.84-9.37,8.41
		c-2.6,1.93-4.79,3.42-5.71,6.65c-0.8,2.8-3.84,4.37-6.72,4.47c-0.15,0.8-0.43,1.58-0.78,2.3c-0.71,1.47-1.66,2.83-2.61,4.15
		c-0.45,0.62-0.9,1.24-1.34,1.86c-0.19,0.27-0.37,0.55-0.55,0.82c-0.03,0.04-0.05,0.08-0.07,0.11c-0.07,0.12-0.14,0.25-0.2,0.37
		c-0.33,0.65-0.94,1.1-1.62,1.18c-0.01,0.13-0.04,0.25-0.05,0.38c-0.08,1.08-1.26,1.83-2.27,1.69c-1.12-0.17-1.76-1.2-1.69-2.27
		c0.21-2.85,1.05-5.69,1.92-8.4c0.67-2.11,1.44-4.25,2.5-6.22c-0.88-1.89-0.92-4.17-0.29-6.37c0.21-0.73,0.47-1.4,0.76-2.06
		c0.19-5.1,2.96-8.78,4.93-13.27c1.78-4.06,2.61-8.26,4.89-12.15c2.77-4.73,5.45-8.94,7.49-14.07c1.77-4.47,4.41-8.44,6.71-12.65
		c0.28-0.52,0.61-0.96,0.96-1.37c-0.05-1.13,0.14-2.22,0.59-3.27c0.33-0.55,0.65-1.1,0.98-1.65c0.13-0.16,0.27-0.32,0.41-0.46
		c0.11-0.33,0.24-0.67,0.42-0.98c3.04-5.38,6.08-10.78,9.5-15.94c2.75-4.15,6.42-8.45,7.52-13.42c0.2-0.89,0.51-1.68,0.91-2.36
		c-0.71-0.77-1.51-1.43-2.37-1.93c-0.87-0.51-1.75-0.87-2.63-1.13c-6,6.48-10.98,13.98-16.32,20.99
		c-4.47,5.88-6.09,13.35-10.6,19.26c-0.4,1.21-0.85,2.4-1.41,3.56c-0.62,1.3-1.46,2.27-2.43,2.96c-1.29,6.2-3.45,12.2-4.78,18.4
		c-2.01,9.4-16.87,7.26-14.84-2.2c1.49-6.96,3.96-13.67,5.2-20.67c-0.02-0.47-0.04-0.94-0.07-1.41c-0.13-2.31-0.87-4.49-2.07-6.32
		c1.86-3.67,3.86-7.27,5.91-10.83c-0.05-0.2-0.12-0.38-0.16-0.59c-0.95-4.87,2.75-10.85,4.15-15.26c0.86-2.71,1.68-5.35,2.76-7.95
		c-0.18-1.52,0.22-3.21,1.04-4.68c-0.12-0.39-0.21-0.8-0.26-1.24c-0.29-2.36,0.82-5.13,2.72-6.81c0.05-1.53,0.56-2.81,1.38-3.81
		c-0.16-1.11-0.08-2.31,0.33-3.58c2.21-6.77,4.86-13.16,8.27-19.4c-0.04-0.21-0.05-0.42,0-0.63c1.32-6.14,4.85-11.71,5.16-18.06
		c0-0.02,0.01-0.03,0.01-0.05c-0.89,0.08-1.78,0.17-2.67,0.33c-0.86,0.16-1.32,0.4-1.96,0.57c0.57,3.58-2.48,8.1-4.02,10.93
		c-2.24,4.12-4.61,8.16-6.84,12.28c-2.27,4.18-3.42,8.8-5.7,12.94c-2.27,4.13-4.24,7.9-5.67,12.43c-1.11,3.51-2.61,6.46-4.35,9.53
		c0.14,0.76,0.17,1.54,0.07,2.3c-0.3,2.27-1.22,4.4-1.29,6.71c-0.05,1.9-1.48,3.7-2.87,4.87c-0.12,0.1-0.24,0.18-0.37,0.27
		c0.18,0.19,0.35,0.38,0.5,0.57c1.09,1.42,1.88,3.84,1.45,5.64c-0.13,0.54-0.19,1.08-0.22,1.62c0.1,1.24-0.08,2.45-0.57,3.6
		c-0.33,0.55-0.65,1.1-0.98,1.65c-1.16,1.63-3.08,2.5-5,2.83c-1.84,0.31-4.08-0.4-5.53-1.53c-1.34-1.05-2.83-3.21-2.83-5
		c0-1.76-0.12-3.63,0.28-5.37c0.02-0.12,0.05-0.24,0.08-0.36c-1.31-1.05-2.24-2.64-2.42-4.85c-0.37-4.48,0.67-8.51,2.43-12.38
		c-0.85-4.06-1.77-8.1-2.75-12.13c-1.73-1-3.09-2.7-3.55-5.17c-0.89-4.78-0.98-10.35-2.98-14.79c-1.81-4.01-4.58-7.54-6.46-11.54
		c-2.19-4.67-3.88-9.55-6.6-13.96c-1.57-2.55-3.31-4.99-5.08-7.42c-1.01-0.01-2.05,0.11-3.12,0.4c-1.08,0.3-2.12,0.79-3.09,1.44
		c3.85,10.94,8.44,21.19,13.29,31.76c5.13,11.18,9.51,23.06,9.56,35.51c0.01,2.57-0.84,5.01-2.58,6.6c0.89,1.69,1.42,3.63,1.8,5.36
		c0.27,1.21,0.45,2.43,0.6,3.66c0.81,1.24,1.54,2.52,2.07,3.9c0.54,1.42-0.52,2.53-1.68,2.7c0,0.13,0.01,0.26,0.01,0.39
		c0,1.09-0.56,2.08-1.74,2.23c-0.98,0.12-2.23-0.66-2.23-1.74c0-2.06-0.1-4.13-0.31-6.18c-1.9-2.84-4.16-5.56-5.05-8.74
		c-2.97-0.74-5.77-3.2-5.78-6.34c-0.01-2.42-0.2-4.79-0.54-7.13c-1.31-2.95-2.64-5.88-4.01-8.81c-2.69-0.86-4.59-3.33-5.26-6.25
		c-1.29-5.58-6.1-10.43-9.36-14.95c-1.64-2.27-3.31-4.52-5.04-6.72c-1.67,0.16-3.48-0.27-5.23-1.47c-0.94-0.64-1.74-1.46-2.38-2.4
		c-0.44-0.65-0.77-1.31-0.99-1.96c-1.85,0.75-3.55,1.92-4.88,3.42c4.25,5.68,8.01,11.76,12.12,17.52
		c4.88,6.84,8.03,14.55,11.05,22.33c6.3,16.26,14.93,32.77,15.66,50.55c3.08,1.76,5.33,4.66,5.74,8.75c0.12,1.16,0,2.21-0.3,3.14
		c1.24,1.94,2.02,4.07,2.58,6.31c0.13,0.5-0.12,1.07-0.41,1.48c-0.31,0.43-0.82,0.67-1.33,0.75c-0.49,0.08-1.09-0.11-1.48-0.41
		c-0.37-0.29-0.55-0.65-0.68-1.06c-1.31-0.37-2.47-1.19-3.44-2.13c-0.09-0.08-0.17-0.17-0.25-0.26c-3.42,1.01-7.49-0.09-9.02-3.71
		c-0.42-0.02-0.42-0.03-1.67,0.05c-0.87,0.06-1.74,0.16-2.6,0.26c-2.45,0.3-4.84,0.7-7.25,0.92c-0.31,1.44-0.55,2.89-0.45,4.25
		c7.27,2.7,13.98,6.72,19.44,12.43c6.99,7.31,15.28,17.77,13.54,28.51c-1.42,8.76-14.07,7.62-14.9-0.03
		c-1.5-0.61-2.83-1.78-3.71-3.62c-0.07-0.05-0.16-0.12-0.27-0.18c-0.1-0.06-1.46-0.64-1.76-0.75c-1.5-0.55-3.03-0.88-4.61-1.17
		c-3.68-0.68-7.43-1.02-11.16-1.22c-4-0.21-6.53,1.54-10.08,3.18c-5.16,2.39-10.8,2.94-16.1,4.8c0.38,1.45,0.7,2.91,0.94,4.38
		c15.59-0.8,29.08,5.3,43.56,10.11c8.13,2.7,19.24,8.62,24.87,16.85c0.53-0.18,1.11-0.31,1.77-0.4c1.09-0.14,2.23-0.19,3.37-0.18
		c1.78,2.89,4.87,4.95,9.31,4.95c3.6,0,6.32-1.37,8.17-3.43c1.4,0.15,2.79,0.3,4.18,0.48c2.68,0.35,5.35,0.75,8.02,1.2
		c1.02-1.31,2.51-2.33,4.52-2.74c1.65-0.34,3.2-0.69,4.69-1.07c0.3-0.37,0.62-0.73,0.97-1.07c3.64-3.51,8.17-4.77,12.43-7.25
		c4.13-2.4,7.6-5.96,11.6-8.61c1.14-0.76,2.53-1.53,3.89-2.38c0.22-1.8,0.07-3.65-0.45-5.38c2.21-0.99,4.48-1.88,6.75-2.73
		C269.08,214,269.23,213.27,269.36,212.54z"/>
</g>
<g id="Layer_1">
	<g>
		<path d="M206.91,247.67c-2.57,2.73-5.46,5.77-9.7,3.45c-3.66-2-7.47-4.1-10.39-6.99c-7.93-7.87-17.08-13.84-27.25-18.13
			c-10.12-4.27-20.57-7.64-31.72-8.04c-4.09-0.14-8.17-0.3-12.25-0.61c-3.09-0.24-5.88-1.18-7.21-4.91
			c13.29-5.11,26.46-10.31,40.93-10c9.34,0.2,17.17,4.74,24.72,9.74c1.47,0.97,2.91,2,4.36,3.01c0.35-0.21,0.69-0.43,1.04-0.64
			c-0.78-2.98-1.4-6.01-2.36-8.94c-1.55-4.74-3.4-9.38-4.96-14.12c-3.58-10.85-11.68-16.48-22.1-19.66
			c-2.35-0.72-6.37-2.16-6.36-3.25c0.02-3.81,4-3.27,6.56-3.68c7.51-1.18,14.94-1.13,21.63,3.38c1.05,0.7,2.29,1.11,4.32,2.06
			c-5.58-22.61-12.69-43.74-20.99-64.6c-8.37-21.03-22.98-37.97-35.46-56.72c2.92-1.98,5.27-1.54,7.7-0.09
			c10.85,6.49,20.04,14.81,26.79,25.5c8.03,12.73,15.73,25.67,23.36,38.64c1.66,2.82,2.41,6.17,3.62,9.26
			c0.62,1.59,1.32,3.15,2.73,4.44c-6.54-35.38-11.83-71.08-31.89-102.06c2.78-3.45,5.59-2.48,7.62-0.4
			c3.79,3.9,7.95,7.81,10.48,12.5c5.78,10.71,11.05,21.75,15.79,32.96c3.27,7.72,5.78,15.85,7.78,24.01
			c2.53,10.28,4.16,20.78,6.26,31.17c0.3,1.49,1.01,2.9,2.09,4.32c10.54-32.44,23.67-63.52,38.93-94.14
			c1.67,1.82,3.13,3.4,4.85,5.27c-0.4,1.61-0.88,3.49-1.41,5.59c-1.1-0.87-2.34-2.23-2.67-2.03c-1.06,0.63-2.15,1.67-2.59,2.81
			c-5.28,13.41-10.48,26.86-15.63,40.32c-4.15,10.84-8.79,21.55-12.18,32.63c-5.11,16.72-7.9,33.96-8.4,51.46
			c-0.15,5.18,0.83,10.4,2.13,15.71c4.33-47.03,13.96-92.52,36.02-134.69c-4.33,12.82-9.1,25.51-12.87,38.5
			c-3.84,13.22-7.02,26.65-9.88,40.12c-2.84,13.39-4.28,27.02-4.24,40.95c9.36-19.13,18.71-38.1,31.45-55.09
			c12.65-16.87,24.64-34.33,40.03-48.87c0.62,0.38,1.24,0.77,1.86,1.15c-0.99,2.5-1.65,5.21-3.03,7.47
			c-14.39,23.51-29,46.88-43.25,70.48c-2.12,3.5-2.56,7.99-3.97,11.96c-1.16,3.26-2.16,6.71-3.98,9.59
			c-9.34,14.75-13.66,31.27-17.42,48.01c-0.17,0.78-0.12,1.6,0.24,2.68c13.64-19.03,29-36.34,46.99-51.03
			c5.33,3.32,5.38,3.35,2.61,7.99c-6.72,11.25-13.52,22.47-20.25,33.71c-0.92,1.54-1.69,3.19-2.53,4.78
			c0.18,0.41,0.37,0.81,0.55,1.22c4.7-1.57,9.36-3.32,14.13-4.65c4.61-1.29,9.32-2.35,14.04-3.09c1.53-0.24,3.27,0.85,4.91,1.33
			c-0.72,1.41-1.09,3.24-2.21,4.17c-6.13,5.09-12.42,9.99-18.7,14.9c-4.06,3.18-7.95,6.68-12.34,9.31
			c-7.63,4.57-15.52,8.75-23.46,12.76C216.49,252.19,212.61,250.99,206.91,247.67z M140.18,64.9c-0.36,0.29-0.72,0.59-1.08,0.88
			c0.39,0.67,0.76,1.34,1.16,2c4.85,7.9,10.6,15.39,14.37,23.77c5.82,12.97,10.59,26.45,15.26,39.9c4.82,13.88,9,27.98,13.47,41.98
			c1.19,3.72,3.9,5.89,8.09,7.75c-0.44-2.26-0.76-3.83-1.04-5.41c-2.33-13.34-8.54-25.61-10.34-39.19
			c-0.84-6.36-4.29-12.46-6.98-18.49c-6.25-14.01-13.06-27.74-22.31-40.08C147.42,73.53,143.73,69.27,140.18,64.9z M199.41,246.27
			c4.97-3.69,6.48-8.93,7.6-14.55c3.73-18.77,7.98-37.4,15.53-55.1c0.51-1.18,0.83-2.45,1.46-4.37c-1.01,0.77-1.33,0.93-1.53,1.18
			c-7.82,9.52-15.1,19.37-19.38,31.11c-2.2,6.03-5.11,11.88-6.6,18.08C194.58,230.55,194.75,238.64,199.41,246.27z M254.23,183.33
			c-0.98,0.06-1.41-0.04-1.54,0.11c-9.36,10.96-19.2,21.56-27.84,33.05c-4.91,6.53-8.04,14.44-11.54,21.93
			c-0.68,1.44,0.05,4.36,1.2,5.58c0.92,0.98,4.01,1.2,5.19,0.39c2.33-1.6,4.53-3.87,5.86-6.36c6.17-11.55,11.97-23.3,18-34.93
			C246.96,196.57,250.55,190.13,254.23,183.33z M195.48,166.75c2.54-9.14,4.54-17.88,2.16-27.11c-2.57-9.96-4.59-20.08-6.46-30.19
			c-4.11-22.16-9.87-43.74-21.1-63.52c-0.46-0.82-1.24-1.45-1.87-2.17c2.44,8.86,5.46,17.21,7.95,25.72
			c3.71,12.71,7.96,25.36,10.32,38.34c3.26,17.88,4.94,36.05,7.39,54.08C194.1,163.56,194.93,165.13,195.48,166.75z M187.44,235.27
			c0.45-0.22,0.89-0.44,1.34-0.65c-0.41-1.17-0.47-2.74-1.28-3.43c-9.73-8.25-18.82-17.52-30.84-22.51
			c-12.38-5.14-23.7-0.05-35.05,4.29C145.7,214.31,168.14,220.06,187.44,235.27z M189.06,223.54c2.19-5.98,4.1-11.07,5.88-16.2
			c0.41-1.19,0.89-2.84,0.4-3.8c-3.06-6.04-5.45-12.78-9.87-17.66c-5.14-5.69-12.06-9.81-18.36-14.38
			c-2.36-1.71-5.17-2.78-8.78-1.19c1.04,0.62,1.54,0.99,2.1,1.23c9.31,4.08,15.54,10.88,18.7,20.6c1.64,5.05,3.96,9.89,5.44,14.98
			c1.26,4.33,1.7,8.89,2.62,13.32C187.36,221.29,188.12,222.03,189.06,223.54z M261.98,216.88c-0.09-0.24-0.18-0.49-0.27-0.73
			c-5.66,1.72-11.23,4.02-17.02,4.95c-3.99,0.64-6.89,1.17-8.06,5.56c-0.86,3.25-2.38,6.34-3.61,9.49c0.44,0.23,0.87,0.47,1.31,0.7
			C243.55,230.2,252.77,223.54,261.98,216.88z M228.76,156.25c0.45,0.34,0.89,0.68,1.34,1.02c2.21-2.72,4.85-5.2,6.54-8.2
			c4.15-7.36,7.82-15,11.79-22.47c2.13-4.02,4.49-7.92,6.74-11.87c-0.36-0.21-0.72-0.41-1.08-0.62
			C244.47,127.45,234.38,140.5,228.76,156.25z"/>
	</g>
</g>
</svg>
