<?xml version="1.0" encoding="utf-8"?>
<!-- Generator: Adobe Illustrator 28.2.0, SVG Export Plug-In . SVG Version: 6.00 Build 0)  -->
<svg version="1.1" xmlns="http://www.w3.org/2000/svg" xmlns:xlink="http://www.w3.org/1999/xlink" x="0px" y="0px"
	 viewBox="0 0 400 300" style="enable-background:new 0 0 400 300;" xml:space="preserve">
<style type="text/css">
	.st0{fill:#70BF44;}
</style>
<g id="Layer_2">
	<path class="st0" d="M309.17,167.74c-9.84,3.13-20.1,6.41-28.63,12.4c-0.23,0.16-0.44,0.33-0.66,0.5c-0.29-0.06-0.58-0.1-0.88-0.13
		c-0.58,0.6-1.19,1.18-1.82,1.73c-1.98,1.72-4.28,3.33-6.8,4.13c-1.02,0.32-2.29-0.4-2.06-1.61c0.05-0.28,0.13-0.56,0.2-0.84
		c-0.76,0.45-1.52,0.9-2.28,1.36c-0.42-0.32-0.85-0.63-1.27-0.95c1.32-0.97,2.63-1.91,3.84-2.8c-0.1-0.32-0.12-0.67,0-1.02
		c1.17-3.23,2.3-6.47,3.65-9.62c1.1-2.57,2.33-5.34,4.16-7.53c1.81-5.2,6.79-8.7,10.32-12.66c4.61-5.18,8.73-10.96,11.2-17.47
		c0.02-0.04,0.04-0.08,0.05-0.12c-3.95-2.21-9.02-2.28-13.21,1.8c-10.91,10.61-21.51,21.74-33.37,31.3
		c-2.14,1.73-4.27,3.48-6.33,5.28c-1.48-0.83-2.96-1.65-4.46-2.44c3.09-8.32,6.44-16.54,10.15-24.62c2.7-5.89,5.54-11.71,8.53-17.45
		c2.62-5.04,5.04-11.14,8.9-15.34c3.34-3.64,4.37-8.97,2.07-13.41c-1.41,1.04-3.17,1.56-5.25,1.26c-3.66-0.54-7.39-4.61-6.32-8.52
		c1.61-5.87,2.48-11.91,5.06-17.47c-2.78-1.96-6.53-2.85-9.91-2.32c-0.09,0.14-0.21,0.28-0.37,0.41c-0.62,0.48-1.24,0.97-1.87,1.45
		c-1.39,3.1-3.58,5.68-6.02,8.09c-3.3,5.6-6.46,11.27-11.47,15.62c-0.33,0.29-0.68,0.38-1,0.35c-0.06,0.37-0.11,0.73-0.15,1.1
		c-0.72,0.95-1.45,1.9-2.19,2.85c0.08-1.15,0.13-2.31,0.16-3.46c0.13-6.46-0.55-12.76,1.56-18.76c1.87-5.34-1.69-11.57-6.66-13.57
		c-0.36-0.14-0.71-0.26-1.07-0.37c-0.38,3.18-2.86,6.49-6.15,6.72c-0.02,0.09-0.03,0.17-0.05,0.26c-1.19,5.25-3.37,10.13-4.26,15.48
		c-0.02,0.1-0.04,0.19-0.06,0.29c0.57,1.24,0.78,2.61,0.45,3.97c-1.97,8.08-2.14,16.53-6.34,23.93c-2,3.53-5.79,5.67-9.86,3.92
		c-3.43-1.48-5.92-6.33-3.92-9.86c3.56-6.28,3.6-13.32,5.27-20.19c0.01-0.05,0.03-0.1,0.04-0.16c-0.5-1.15-0.69-2.53-0.43-4.1
		c0.98-5.9,3.48-11.38,4.56-17.21c0.77-4.11,1.04-8.13,1.8-12.15c-2.51-0.58-5.25-0.43-8.25,0.83c-0.55,0.23-1.06,0.5-1.56,0.78
		c-2.49,6.82-4.95,13.66-6.87,20.66c-0.63,2.27-1.92,4.27-3.77,5.41c-0.14,1.81-0.23,3.53-0.32,5.09c-0.19,3.38-0.38,3.47-3.36,5.28
		c-3.62,2.2-7.11,4.39-10.42,6.98c-0.61,0.74-1.18,1.5-1.74,2.28c-0.22,2.22-1.5,3.83-3.22,4.79c-1,1.57-1.97,3.16-2.97,4.74
		c-0.23,0.88-0.74,1.68-1.15,2.48c-0.22,0.42-0.58,0.67-0.99,0.77c-0.25,0.37-0.5,0.74-0.76,1.11c-0.99,1.39-3.32,0-2.56-1.52
		c0,0,0,0,0,0c-0.04-0.19-0.09-0.38-0.14-0.59c-0.5-2.25-1.53-4.01-2.87-5.31c0.56-1.05,1.1-2.07,1.6-3.04
		c-0.93-0.98-1.64-2.26-1.95-3.87c-1.75-9,2.5-17.26,4.55-25.79c1.83-7.63,1.68-15.69,1.45-23.62c-1.67-0.88-3.5-1.38-5.26-1.38
		c-6.78,0-10.82,5.3-11.5,11.5c-0.78,7.15-1.64,14.27-3.44,21.24c-1.79,6.94-5.04,12.96-7.98,19.43c-0.05,0.11-0.1,0.23-0.15,0.34
		c1.66,1.64,2.46,4.07,2.37,6.59c-0.18,4.93-3.28,11.06-1.26,15.78c1.92,4.5-0.67,8.17-4.2,9.56c0.35,0.92,0.73,1.84,1.18,2.74
		c0,0.02-0.01,0.03-0.01,0.05c-0.51,3.63-0.88,7.27-1.28,10.91c-0.52,1.09-0.79,2.3-0.85,3.54c-2.33,0.66-4.76,1.46-7.04,1.97
		c-2.42-3.66-4.26-7.53-5.62-11.6c-0.28-3.61-1.16-7.1-3.19-10.42c-0.03-0.05-0.07-0.1-0.1-0.15c1.01-10.58,2.5-21.1,4.49-31.56
		c1.05-5.51-1.2-11.18-6.31-13.51c-1.09,8.33-4.48,16.25-7.82,23.89c-3.46,7.91-6.41,15.9-9.27,24.05
		c-0.04,0.12-0.08,0.24-0.12,0.36c0.14,0.8,0.15,1.68-0.01,2.64c-1.59,9.47-4.05,18.01-1.05,27.45c2.81,8.84,5.79,17.21,4.96,26.6
		c3.65,3.41,7.99,6.12,12.11,8.99c1.93,1.34,3.64,3.21,4.72,4.65c3.5,4.66,7.41,8.29,13.56,8.72c7.24,0.51,12.25-1.9,18.82,1.31
		c7.55,3.69,10.43,13.81,20.02,13.43c6.38-0.25,9.1-4.56,12.3-8.96c1.58-2.17,3.34-3.17,6.16-3.54c5.13-0.68,10.88,0.29,16,0.72
		c5.15,0.43,10.29,0.95,15.41,1.64c5.82,0.78,11.61,1.76,17.37,2.86c2.07,0.4,8.11,1.23,8.75,2.11c3.54,4.89,10.07,7.71,15.73,4.13
		c3.21-2.03,5.7-4.73,7.09-8.18c1.75,0.08,3.53-0.27,5.21-1.17c5.33-9.29,12.01-17.87,19.45-25.47
		c8.85-9.04,20.23-15.66,27.46-26.19C315.21,167.08,312.41,166.71,309.17,167.74z"/>
</g>
<g id="Layer_1">
	<g>
		<path d="M220.26,220.8c-8.93,6.57-16.83,4.74-22.96-2.43c-4.99,0.95-9.17,1.62-13.28,2.6c-1.11,0.26-2.28,1.26-2.94,2.24
			c-1.21,1.78-2.01,3.82-3.08,5.71c-3.1,5.48-7.93,7.05-14.28,6.62c-5.09-0.35-7.77-3.1-10.36-6.62c-2.75-3.73-5.45-7.51-8.37-11.55
			c-0.66,0.2-1.63,0.35-2.46,0.77c-13.68,7.02-30.46,0.96-38.48-9.67c-7.78-10.32-11.89-22.07-13.68-34.79
			c-1.47-10.47-1.37-20.92,0.54-31.24c1.62-8.76,2.84-17.63,6.5-25.96c2.97-6.75,5.05-13.88,7.81-20.73
			c1.23-3.05,3.11-5.85,4.74-8.73c0.32-0.57,0.73-1.23,1.27-1.5c2.44-1.2,4.95-2.26,7.67-3.48c1.78,0.67,2.31,2.25,1.92,4.29
			c-2.59,13.33-2.18,26.81-1.84,40.26c0.18,6.95,1.01,13.89,1.62,20.83c0.11,1.27,0.58,2.5,1.21,5.11c1.35-2.5,2.51-3.91,2.9-5.5
			c1.18-4.83,2.37-9.69,2.99-14.61c1.5-11.86,1.88-23.88,5.24-35.46c1.53-5.25,3.16-10.49,5.01-15.63
			c3.38-9.38,6.65-18.81,10.56-27.97c2.24-5.25,5.48-10.1,8.57-14.94c0.99-1.56,2.7-2.94,5.12-2.05c2.49,0.92,3.39,2.73,2.93,5.09
			c-1.87,9.62-0.77,19.48-3.01,29.17c-1.86,8.01-1.87,16.48-2.43,24.76c-0.36,5.29-0.3,10.62-0.3,15.93c0,1.73,0.43,3.45,0.78,6.13
			c3.49-5.53,6.23-10.22,9.32-14.67c3.11-4.49,6.42-8.86,9.91-13.05c3.55-4.27,5.76-9.14,7.57-14.3
			c4.29-12.22,8.56-24.45,13.11-36.57c1.21-3.23,3.33-6.13,5.16-9.1c0.59-0.96,1.45-2.07,2.43-2.41c1.27-0.44,3.01-0.61,4.1-0.05
			c0.77,0.4,1.29,2.29,1.12,3.38c-1.05,6.74-2.45,13.43-3.51,20.17c-2.87,18.23-5.61,36.47-8.42,54.71
			c-0.46,2.96-1.09,5.89-1.44,8.86c-0.18,1.53,0.1,3.11,0.54,4.67c6.63-27.49,16.82-53.16,35.15-75.28
			c1.52,5.25,4.94,9.67,3.09,15.51c-2.19,6.9-3.92,13.97-5.51,21.04c-1.27,5.67-1.26,11.47-0.76,18.46c2.9-3.75,5.07-6.64,7.33-9.45
			c8.4-10.49,16.85-20.93,25.23-31.44c1.32-1.66,2.19-3.69,3.54-5.32c0.9-1.08,2.17-2.11,3.48-2.55c3.06-1.04,4.58,0.23,4,3.41
			c-0.41,2.26-1.48,4.39-2.16,6.6c-2.86,9.33-5.66,18.67-8.53,28c-0.48,1.57-1.19,3.08-1.75,4.63c-0.59,1.62-1.13,3.25-1.25,5.2
			c7.78-4.83,14.16-11.54,22.78-14.6c0.28,0.24,0.56,0.49,0.84,0.73c-0.75,1.31-1.36,2.73-2.29,3.9c-2.47,3.09-4.36,6.3-5.67,10.18
			c-2.13,6.3-5.31,12.26-8.17,18.3c-2.06,4.33-4.18,8.64-6.54,12.81c-5.31,9.38-10.87,18.62-16.14,28.02
			c-1.35,2.41-2.04,5.19-3.49,9c1.61-1.24,2.29-1.72,2.92-2.25c7.01-5.86,13.86-11.93,21.05-17.54
			c9.17-7.16,18.57-14.02,27.99-20.86c2.39-1.74,5.12-3.11,7.86-4.23c0.9-0.36,2.51,0.42,3.47,1.12c0.41,0.3,0.33,1.93-0.09,2.61
			c-3.33,5.33-6.52,10.79-10.31,15.78c-4.07,5.37-8.79,10.24-13.12,15.41c-2.66,3.18-5.8,6.21-7.5,9.87
			c-2.57,5.52-4.11,11.53-5.98,17.36c-0.21,0.67,0.23,1.55,0.48,3.03c3.25-2.86,6.06-5.31,8.85-7.78
			c9.9-8.74,21.56-13.81,34.53-15.48c3.76-0.49,7.83,0.82,11.65,1.76c1.07,0.26,2.28,2.06,2.43,3.27c0.11,0.9-1.19,2.34-2.21,2.95
			c-5.56,3.3-11.4,6.16-16.82,9.67c-6.39,4.13-12.39,8.6-16.8,15.28c-3.51,5.32-9,9.29-13.15,14.24c-4.1,4.9-8.95,9.29-11.53,15.38
			c-2.76,6.52-12.91,11.62-19.92,10.1c-3.17-0.69-5.22-2.82-6.65-5.6c-0.94-1.83-2.17-2.9-4.37-2.32
			c-6.44,1.7-10.93-1.11-14.43-6.25C221.43,221.48,221.07,221.35,220.26,220.8z M148.2,188.26c-3.4,4.78-2.72,9.22-1.67,13.57
			c2.29,9.54,8.47,16.79,14.7,23.92c3.8,4.35,9.98,3.56,12.71-1.57c1.79-3.36,3.02-7.01,4.66-10.45c1.73-3.63,3.09-3.94,6.49-1.84
			c3.66,2.26,6.84,1.46,9.16-2.31c0.52-0.85,1-1.73,1.6-2.51c2.19-2.83,3.68-2.67,5.53,0.35c1.38,2.25,2.74,4.6,4.54,6.49
			c3.6,3.78,6.86,3.89,10.99,0.66c1.3-1.01,2.36-2.33,3.5-3.53c2.86-3.02,4.83-2.7,6.79,1.01c1.16,2.2,2.26,4.47,3.72,6.46
			c1.56,2.13,4.58,2.55,6.71,1.21c1.46-0.92,2.44-3.43,4.51-2.19c1.57,0.93,2.59,2.8,3.82,4.28c0.32,0.38,0.51,0.86,0.79,1.27
			c3.35,4.99,3.35,4.99,9.07,2.65c0.46-0.19,0.96-0.44,1.42-0.41c2.69,0.16,3.22-1.77,3.84-3.74c1.64-5.16,0.79-10.26-0.59-15.24
			c-1.82-6.59-7.33-8.11-12.68-3.73c-0.51,0.42-1,0.88-1.5,1.32c-1.29,1.16-2.61,2.14-4.44,1.1c-1.82-1.04-1.46-2.65-1.37-4.37
			c0.3-5.29,0.69-10.61,0.45-15.9c-0.18-3.91-1.28-7.79-5.02-10.47c-3.93,2.86-6.39,6.54-8.44,10.56c-1.06,2.07-1.69,4.54-3.24,6.13
			c-1.33,1.36-3.68,2.39-5.58,2.38c-2.38-0.01-1.76-2.77-2.29-4.39c-0.2-0.61-0.05-1.32-0.1-1.99c-0.4-5.95-0.65-11.92-1.28-17.85
			c-0.34-3.18-1.35-6.29-2.19-10.05c-1.32,1.23-2.15,1.8-2.71,2.57c-5.09,7.01-9.73,14.26-12.24,22.67
			c-0.47,1.57-0.86,3.42-1.94,4.49c-1.16,1.14-3.05,1.99-4.68,2.09c-2.14,0.14-2.29-1.97-2.57-3.63c-0.56-3.28-1.08-6.56-1.72-9.82
			c-0.98-4.98-1.99-9.98-6.11-13.89c-1.07,0.94-2.04,1.58-2.74,2.44c-7.05,8.65-10.58,18.32-8.58,29.62
			c0.32,1.78,0.51,3.67,0.26,5.44c-0.29,2.03-1.35,3.73-3.79,4c-2.13,0.23-3.3-0.77-4.4-2.5c-1.96-3.06-3.99-6.14-6.43-8.81
			C153.24,191.65,150.66,190.15,148.2,188.26z M154.27,56.76c-0.53,1.17-1.15,2.3-1.59,3.5c-2.47,6.88-4.86,13.8-7.36,20.67
			c-5.54,15.25-8.61,30.97-9.59,47.17c-0.35,5.76-1.87,11.44-2.86,17.16c-0.67,3.9-1.28,7.82-2.05,11.71
			c-0.58,2.91-1.46,5.76-2.02,8.67c-0.37,1.92-0.97,4.03-0.51,5.82c1.31,5.14,2.81,10.27,4.83,15.17c1.13,2.75,3.44,5.02,5.67,8.14
			c0.9-2.19,1.63-3.33,1.83-4.55c0.61-3.76,2.88-6.45,5.83-8.34c2.12-1.36,2.85-2.74,2.81-5.17c-0.19-11.68,0.99-23.22,3.29-34.7
			c0.86-4.31,0.54-8.93,0.26-13.37c-0.43-6.78-1.17-13.54-2.02-20.28c-1.19-9.38,0.49-18.57,1.7-27.77
			C153.51,72.74,155.87,65.06,154.27,56.76z M112.79,94.17c-0.37-0.11-0.74-0.21-1.11-0.32c-1.54,3.93-3.39,7.76-4.56,11.8
			c-3.09,10.66-6.82,21.11-8.71,32.13c-1.57,9.13-1.98,18.11-0.23,27.22c0.62,3.25,1.34,6.65,0.97,9.87
			c-0.46,4.04,0.35,7.62,2.08,11.04c2.09,4.14,4.27,8.27,6.82,12.13c6.7,10.12,15.98,15.25,28.35,13.68
			c1.5-0.19,3.86-0.93,4.11-1.87c0.39-1.49-0.39-3.51-1.22-5c-0.58-1.05-2.05-1.59-3.12-2.37c-1.72-1.26-3.69-2.29-5.12-3.82
			c-3.9-4.17-6.85-8.99-8.57-14.48c-2.13-6.79-4.48-13.53-6.23-20.42c-2.16-8.49-3.08-17.18-3.95-25.94
			c-1.14-11.64-1.19-23.19-0.41-34.79C112.11,100.07,112.49,97.13,112.79,94.17z M223.82,175.74c0.65,0.09,0.9,0.19,0.96,0.12
			c5.59-6.06,13.86-9.94,15.6-19.16c0.14-0.76,0.85-1.41,1.27-2.13c7.17-12.36,14.47-24.65,21.42-37.13
			c2.7-4.85,4.61-10.13,6.88-15.22c-1.37-0.11-2.1,0.19-2.66,0.68c-4.36,3.82-8.82,7.54-12.99,11.56
			c-8.22,7.93-16.5,15.81-24.32,24.12c-6.16,6.54-11.96,13.56-7.97,23.73c0.53,1.36,0.57,2.92,0.76,4.4
			C223.15,169.76,223.48,172.82,223.82,175.74z M194.49,172.59c3.64-3.67,5.81-7.32,7.65-11.15c0.37-0.76,0.03-1.94-0.19-2.87
			c-0.75-3.2-1.61-6.37-2.39-9.56c-1.17-4.77-1.73-9.78-3.58-14.27c-2.85-6.94-4.62-14.04-3.83-21.37
			c1.39-12.87,3.46-25.66,5.31-38.48c0.59-4.04,1.41-8.04,2.13-12.05c-0.36-0.11-0.72-0.21-1.08-0.32c-0.65,1.6-1.37,3.17-1.92,4.8
			c-2.06,6.11-4.26,12.18-6.03,18.38c-2.88,10.04-5.83,20.09-8.04,30.29c-1.58,7.26-2.33,14.75-2.79,22.18
			c-0.29,4.58,0.54,9.26,1.14,13.86c0.14,1.08,1.23,2.76,2.11,2.91c6.49,1.15,8.06,6.29,9.72,11.41
			C193.29,168.16,193.76,170.02,194.49,172.59z M160.83,187.13c0.46-0.84,0.89-1.37,1.06-1.96c2.25-7.86,5.32-15.31,10.35-21.88
			c0.77-1.01,0.95-2.75,0.84-4.11c-0.2-2.47-1.14-4.89-1.22-7.35c-0.55-16.32,1.57-32.33,5.96-48.05c0.59-2.1,0.91-4.28,1.54-7.26
			c-1.18,0.95-1.66,1.16-1.89,1.53c-3.27,5.18-6.93,10.17-9.63,15.63c-3.34,6.77-6.95,13.59-5.87,21.73
			c0.36,2.7,0.03,5.78-0.96,8.31c-2.52,6.44-3.28,13.12-3.86,19.9c-0.54,6.34,0.72,12.91-2.68,18.78
			C156.73,184.1,158.68,185.54,160.83,187.13z M209.75,152.87c2.48-2.49,5.23-4.1,6.24-6.45c4.15-9.65,7.02-19.78,7.22-30.34
			c0.26-13.8,0.94-27.53,3.58-41.11c0.27-1.37,0.28-2.8,0.41-4.2c-1.56,1.51-2.54,3.18-3.26,4.95c-2.68,6.59-5.34,13.18-7.9,19.82
			c-4.02,10.45-6.12,21.34-7.04,32.46c-0.4,4.78,0.16,9.72-0.82,14.35C207.42,145.93,207.9,148.79,209.75,152.87z M291.29,137.74
			c-0.3-0.28-0.59-0.56-0.89-0.84c-1.3,0.82-2.7,1.54-3.9,2.49c-4.29,3.4-8.48,6.91-12.77,10.31c-7.28,5.76-14.52,11.58-21.94,17.15
			c-3.92,2.95-5.6,6.13-3.87,11.12c0.96,2.75,0.78,5.9,1.06,8.88c0.17,1.76,0.25,3.53,0.38,5.48c3.83-0.2,7.09-0.37,10.1-0.53
			c1.76-6.22,3.71-12.06,5.02-18.04c1.22-5.57,3.78-10.32,7.54-14.41c5.39-5.88,11.03-11.53,16.47-17.37
			C289.64,140.75,290.37,139.16,291.29,137.74z M312.35,169.32c-7.08,0.02-12.56,2.02-17.68,4.78
			c-9.88,5.33-17.96,13.02-26.02,20.69c-1.44,1.37-1.56,2.61-1.09,4.42c1.11,4.26,1.98,8.58,3.07,13.44
			C284.15,197.94,295.79,182.03,312.35,169.32z M261.32,74.18c-1.29,0.7-1.67,0.78-1.85,1.02c-8.29,10.51-16.64,20.97-24.75,31.6
			c-1.62,2.12-3.94,4.06-3.58,7.4c0.2,1.88-0.36,3.86-0.63,5.78c-0.42,2.95-1.64,5.86-0.62,9.6c6.35-6.49,12.39-12.34,18-18.58
			c1.66-1.85,2.24-4.75,3.09-7.24c1.91-5.65,3.6-11.37,5.54-17.01C257.84,82.85,259.44,79.05,261.32,74.18z"/>
	</g>
</g>
</svg>
