<?xml version="1.0" encoding="utf-8"?>
<!-- Generator: Adobe Illustrator 28.2.0, SVG Export Plug-In . SVG Version: 6.00 Build 0)  -->
<svg version="1.1" xmlns="http://www.w3.org/2000/svg" xmlns:xlink="http://www.w3.org/1999/xlink" x="0px" y="0px"
	 viewBox="0 0 400 300" style="enable-background:new 0 0 400 300;" xml:space="preserve">
<style type="text/css">
	.st0{fill:#667757;}
</style>
<g id="Layer_2">
	<path class="st0" d="M261.88,196.95c1.4-1.31,3.09-2.27,4.79-3.12c0.81-0.41,1.63-0.78,2.45-1.17c1.6-1.81,3.12-3.69,4.65-5.55
		c0.04-0.05,0.08-0.07,0.12-0.11c-1.05-1.59-2.91-2.47-5.29-1.54c-4.87,1.91-10.01,4.04-14.78,6.69c-0.27,0.05-0.54,0.11-0.82,0.2
		c-11.46,3.77-21.97,13.65-28.45,23.67c-0.9,1.39-1.64,2.82-2.25,4.29c0.02-2.47,0.03-4.95,0.05-7.42
		c0.04-6.66-0.23-12.99,2.49-19.22c2.6-5.98,5.51-11.3,6.08-17.92c0.03-0.34,0.02-0.66,0-0.96c5.41-6.95,9.55-14.93,16.07-20.87
		c0.05-0.25,0.15-0.49,0.29-0.71c0.59-0.9,1.13-1.93,1.66-3.04c0.51-1.08,0.99-2.17,1.51-3.25c0.84-1.75,1.78-3.42,3.03-4.88
		c-0.84-1.01-2.11-1.69-3.82-1.69c-2.98,0-4.63,2.06-4.96,4.35c-1.44-0.27-3,0.04-4.39,1.25c-6.03,5.24-9.98,12.15-14.49,18.63
		c-4.83,6.95-11.67,12.06-16.03,19.39c-1.28,2.15-2.44,4.42-3.5,6.75c-0.24-0.73-0.51-1.47-0.8-2.21c-1.92-4.87-2.8-9.65-1.47-14.52
		c4.06-2.96,4.18-11.63,4.93-16.08c0.69-4.08,1.42-8.17,2.57-12.16c1.31-4.53,3.3-8.58,3.88-13.3c0.04-0.35,0.05-0.67,0.03-0.98
		c0.72-0.64,1.56-1.18,2.57-1.59c4.73-1.91,10.77-1.4,12.78-7.13c1.87-5.36-0.15-11.23,2.1-16.49c2.41-5.66,4.04-9.76,2.83-16.04
		c-1.26-6.5-3.87-12.9-5.88-19.2c-1.8-5.62-9.87-4.14-10.28,0.72c-4.65,0-8.82,3.43-9.49,8.9c-0.46,3.81,0.25,7.8,0.63,11.6
		c0.1,1.02,0.32,2.24,0.71,3.41c-2.16-0.07-4.4,0.98-5.35,3.52c-1.5,4-0.08,7.5,1.25,11.31c1.45,4.13,1.7,8.18,1.14,12.5
		c-0.03,0.27-0.03,0.53-0.01,0.78c-1.99,1.75-3.6,3.92-4.8,6.5c-2.51,5.42-3.58,11.45-5,17.21c-0.18,0.73-0.36,1.46-0.55,2.19
		c-1.12-2.19-2.36-4.34-3.61-6.47c-0.67-3.48-1.32-6.97-2-10.45c-1.32-6.77-2.66-13.53-4.02-20.29c-0.94-4.7-1.44-10.06-3.26-14.67
		c0.49-0.37,0.94-0.85,1.33-1.47c5.43-8.71,8.61-17.29,7.22-27.69c-0.66-4.89-2.12-9.5-4.03-14.04c-0.98-2.32-2.04-4.6-3.18-6.85
		c-0.87-1.72-2.18-3.52-2.54-5.45c-0.06-0.75-0.15-1.51-0.28-2.28c-0.29-1.66-1.24-2.72-2.46-3.28c2.14-6.35-7.9-9.08-10.03-2.76
		c-2.27,6.71-4.22,13.51-5.76,20.43c-1.27,5.68-2.95,11.87-2.3,17.72c0.31,2.8,1.23,5.3,2.71,7.71c1.41,2.3,4.35,4.8,3.58,7.59
		c-0.8,2.93-2.51,4.34-0.93,7.61c1.24,2.56,3.1,2.6,5.14,4.04c3.54,2.5,3.63,10.54,4.42,14.46c1.48,7.32,2.93,14.65,4.36,21.98
		c0.02,0.09,0.03,0.18,0.05,0.27c-1.48,1.48-2.15,3.73-0.83,6.08c0.96,1.72,1.97,3.43,2.98,5.15c1.96,10.27,3.89,20.55,5.76,30.85
		c0.04,0.23,0.1,0.44,0.17,0.64c-4.61-8.21-9.95-16.2-15.62-23.53c-7-9.04-17.92-14.4-24.25-23.89c-3.7-5.54-12.71-0.34-8.98,5.25
		c2,3,4.38,5.57,6.93,7.97c-0.49,1.25-0.4,2.71,0.63,4.2c4.94,7.14,9.91,14.22,14.47,21.55c0.56,1.2,1.11,2.4,1.65,3.6
		c2.01,4.43,4.01,8.88,6.37,13.14c2.74,4.95,6.12,9.63,7.92,15.04c1.29,3.91,1.88,7.98,2.52,12.04c-4.9-5.74-10.76-10-17.41-14.03
		c-8.28-5-17.77-12.82-27.86-12.8c-6.69,0.01-6.71,10.41,0,10.4c4.22-0.01,7.77,2.56,11.29,4.62c0.94,0.55,1.88,1.12,2.82,1.67
		c-0.37,2.35,0.64,4.91,3.58,5.76c5.27,1.53,8.29,6.36,10.91,10.86c3.71,6.38,7.18,12.93,10.75,19.39
		c3.57,6.45,7.17,12.87,10.7,19.34c1.59,2.91,2.91,5.66,3.67,8.9c0.62,2.66,1.21,5.09,3.48,6.87c3.1,2.43,7.38,1.71,8.69-2.3
		c0.45-1.36,0.65-2.77,0.69-4.19c0.88,0.2,1.82,0.15,2.7-0.11c0.63,1.28,1.49,2.43,2.75,3.29c1.31,0.89,2.94,1.29,4.51,1.16
		c2.4-0.2,3.67-1.91,5.78-2.6c3.59-1.19,8.65-0.06,12.4-0.35c4.29-0.32,7.11-2.84,7.89-7.09c0.79-4.25-0.56-8.32-0.64-12.55
		c-0.08-4.44,1.24-8.72,2.45-12.94c1.3-4.53,2.47-8.99,2.95-13.7c0.49-4.78,0.76-8.89,3.53-12.99c2.85-4.21,6.9-7.23,11.36-9.64
		C259.78,199.38,260.67,198.09,261.88,196.95z M216.03,101.92c0.05-0.14,0.09-0.28,0.13-0.42c-0.08,0.64-0.14,1.17-0.16,1.26
		c-0.05,0.35-0.11,0.69-0.16,1.04C215.78,103.12,215.82,102.49,216.03,101.92z M192.41,181.93c-0.37-0.7-0.76-1.39-1.15-2.09
		c0.33,0.4,0.72,0.74,1.16,1C192.41,181.2,192.41,181.56,192.41,181.93z"/>
</g>
<g id="Layer_1">
	<g>
		<path d="M116.98,185.74c4.52-2.14,9.27-0.06,13.88-0.49c4.87-0.45,10.03,0.87,14.89,2.09c4.71,1.19,9.32,2.98,13.76,4.98
			c4.41,1.99,8.54,4.58,13.67,7.38c-2.87-5.54-5.25-10.33-7.82-15.04c-7.71-14.16-15.61-28.21-23.19-42.44
			c-2.84-5.33-5.1-10.99-7.41-16.58c-0.61-1.47-0.43-3.26-0.63-5.04c4.52-0.19,7.04,2.76,10.09,4.49c4.13,2.34,8.07,5.01,12.21,7.33
			c9.59,5.38,17.48,12.63,24.02,21.41c0.73,0.99,1.54,1.92,2.86,3.58c-1.98-9.91-4.13-18.84-5.48-27.89
			c-1.36-9.1-1.93-18.32-2.77-26.73c-3.56-1.98-7.31-3.16-9.73-5.63c-3.26-3.32,0.25-6.61,1.86-9.91c-0.94-0.76-1.81-1.47-2.68-2.17
			c-4.5-3.62-6.96-7.82-5.17-13.97c0.68-2.36-0.01-5.13-0.16-7.71c-0.2-3.55,0.87-6.45,2.61-9.7c2.38-4.44,3.05-9.79,4.52-14.73
			c1.1-3.69,2.15-7.4,3.56-10.96c0.38-0.96,1.91-1.83,3.06-2.07c2.92-0.61,9.28,2.78,10.43,5.64c1.23,3.06,2.28,6.25,2.9,9.48
			c0.35,1.8,0.96,2.93,2.56,3.59c3.2,1.31,4.52,4.2,5.02,7.15c0.83,4.91,0.98,9.94,3.66,14.37c0.29,0.48,0.49,1.1,0.48,1.65
			c-0.03,9.64-0.07,19.34-6.22,27.55c-1.64,2.18-1.92,3.86-1.22,6.61c2.35,9.18,4.08,18.52,6.1,27.79c0.66,3.04,1.52,6.04,3.13,9.21
			c0.48-1.05,1.03-2.07,1.41-3.16c2.02-5.7,3.9-11.45,6.03-17.11c0.79-2.1,1.11-3.77-0.86-5.37c-0.87-0.71-1.49-1.76-2.11-2.73
			c-3.55-5.48-3.6-9.64,0.44-14.68c1.64-2.05,2.14-3.86,1.55-6.27c-1.34-5.44,0.21-10.36,3.33-14.73c3.6-5.05,9-7.9,14.51-10.31
			c2.65-1.16,6.98,0.72,8.26,3.26c2.26,4.5,4.2,9.16,6.42,13.67c2.04,4.15,1.57,8.37,0.91,12.68c-0.59,3.84-0.76,7.75-1.49,11.56
			c-0.45,2.33-1.73,4.5-2.39,6.81c-0.33,1.13-0.41,2.49-0.1,3.61c2.13,7.63-0.9,12.53-8.58,14.27c-3.44,0.78-6.8,2.06-10.06,3.43
			c-0.77,0.32-1.26,1.86-1.48,2.91c-2.24,10.73-4.5,21.45-6.55,32.22c-0.77,4.04-1.02,8.19-1.51,12.29
			c0.38,0.14,0.77,0.28,1.15,0.42c0.63-0.8,1.35-1.54,1.88-2.39c10.64-17.31,24.3-31.84,40.46-44.08c1.51-1.14,2.88-2.53,4.95-1
			c2.19,1.62,1.55,3.59,0.56,5.38c-4.03,7.31-8.14,14.59-12.3,21.83c-4.65,8.11-9.79,15.96-13.98,24.3
			c-3.95,7.87-3.93,16.62-3.93,25.58c0.78-0.33,1.31-0.38,1.48-0.65c6.66-10.57,15.64-18.26,27.2-23.22
			c8.34-3.58,16.33-7.95,24.5-11.94c1.16-0.57,2.37-1.2,3.62-1.37c0.82-0.12,2.16,0.29,2.52,0.9c0.37,0.62-0.05,1.83-0.36,2.69
			c-0.17,0.46-0.84,0.74-1.28,1.1c-11.47,9.28-21.5,19.95-30.97,31.25c-7.04,8.4-9.06,18.17-9.22,28.63
			c-0.13,8.51-0.07,17.02-0.18,25.53c-0.03,2.01-0.14,4.08-0.66,6c-0.48,1.77-1.24,3.69-3.98,2.39c-0.69-0.33-2.04,0.36-2.91,0.87
			c-4.11,2.41-5.15,2.33-8.89-0.44c-0.78-0.58-2.01-0.75-3.03-0.75c-1.7,0-3.4,0.22-5.09,0.47c-0.79,0.12-1.75,0.32-2.26,0.84
			c-3.62,3.67-7.54,4.68-12.03,1.39c-1.25,1.11-2.24,2.14-3.37,2.96c-4.69,3.41-10.93,1.42-12.72-4.01
			c-2.92-8.84-7.56-16.82-12.22-24.8c-3.12-5.35-5.96-10.87-9.1-16.22c-6.14-10.44-12.67-20.67-22.3-28.3
			c-3.91-3.09-8.43-5.49-12.88-7.8C126.65,194.05,121.31,191.04,116.98,185.74z M193.72,178.85c0.94-8,1.91-15.7,2.72-23.41
			c0.16-1.54-0.07-3.18-0.41-4.71c-3.56-15.89-6.99-31.82-10.91-47.63c-0.89-3.58,0.03-6.02,1.68-8.82c1.51-2.57,3.01-5.26,3.8-8.09
			c1.13-4.01,1.88-8.17,2.25-12.32c0.19-2.17-0.14-4.91-1.36-6.55c-1.99-2.67-2.28-5.39-2.46-8.46c-0.3-4.92-1.23-9.67-7.53-10.43
			c-0.72-6.08,0.68-13.07-7.71-16.02c-0.83,3.26-1.55,5.99-2.22,8.74c-1.04,4.3-1.97,8.62-3.08,12.9c-0.3,1.15-0.78,2.61-1.65,3.17
			c-1.68,1.08-1.77,2.41-1.67,4.06c0.18,3.17,0.62,6.38,0.29,9.5c-0.68,6.55-0.02,8.26,5.59,11.52c4.27,2.48,4.39,3.16,1.23,6.73
			c-3.38,3.81-2.95,5.7,2.03,6.59c3.19,0.57,4.54,2.24,4.95,5.03c0.93,6.26,1.61,12.56,2.62,18.81c1.41,8.79,2.88,17.58,4.59,26.31
			c1.4,7.17,4.24,14.2,3.48,21.58C189.46,172.05,191.48,175.24,193.72,178.85z M221.01,266.38c0.1-2.12,0.22-3.4,0.21-4.68
			c-0.08-17.17-0.26-34.34-0.25-51.51c0.01-11.71,2.08-22.91,8.48-33.05c5.77-9.13,11.32-18.4,16.94-27.63
			c1.22-2,2.3-4.08,3.44-6.12c-0.28-0.21-0.57-0.43-0.85-0.64c-1.24,0.88-2.67,1.58-3.71,2.66c-7.02,7.26-14.33,14.28-20.79,22
			c-5.15,6.15-9.9,12.85-13.58,19.94c-3.07,5.91-4.53,12.71-6.29,19.22c-0.68,2.52-0.47,5.38-0.22,8.04
			c0.39,4.01,1.26,7.96,1.76,11.96c0.82,6.57,1.61,13.15,2.22,19.75c0.63,6.85,0.99,13.72,1.54,20.58c0.09,1.19,0.51,2.35,0.78,3.52
			c1.15-0.6,2.5-0.99,3.4-1.85C215.95,266.83,217.17,263.98,221.01,266.38z M202.11,201.59c0.35-2.4,0.68-3.86,0.74-5.32
			c0.06-1.57-0.21-3.16-0.22-4.74c-0.19-20.91,5.62-40.67,11.68-60.36c0.33-1.07,1.42-2.27,2.45-2.7c3.4-1.42,6.88-2.77,10.45-3.67
			c2.84-0.71,3.4-2.47,3.03-4.78c-0.22-1.37-0.98-2.69-1.66-3.95c-1.76-3.27-1.39-4.74,1.46-6.86c1.01-0.76,2.17-1.98,2.33-3.12
			c0.83-5.93,1.42-11.9,1.94-17.86c0.11-1.24-0.16-2.66-0.7-3.79c-1.84-3.89-3.69-7.8-5.89-11.5c-1.86-3.12-4.62-3.34-7.6-1.07
			c-1.27,0.96-2.49,1.97-3.8,2.87c-4.35,2.96-5.34,7.25-4.8,12.12c0.14,1.28,0.52,2.54,0.88,3.78c0.71,2.44,0.31,4.21-1.89,6
			c-4.39,3.57-4.75,6.28-1.49,10.97c2.38,3.42,2.6,6.8,1.47,10.57c-2.07,6.89-4.49,13.71-6,20.72c-2.06,9.54-4.3,19.19-4.81,28.88
			c-0.55,10.54,0.8,21.18,1.34,31.77C201.04,199.9,201.37,200.23,202.11,201.59z M145.38,132.07c-0.27,0.26-0.54,0.51-0.81,0.77
			c0.99,2.2,1.83,4.5,3.01,6.6c5.41,9.68,11.05,19.24,16.36,28.98c6.15,11.26,11.93,22.71,18.08,33.97
			c7.82,14.33,15.02,28.9,18.83,44.89c0.85,3.58,0.87,7.36,1.63,10.96c0.58,2.76-0.39,5.96,2.3,8.89c0.33-1.31,0.73-2.07,0.66-2.78
			c-0.93-9.45-1.73-18.92-2.93-28.34c-2.66-20.8-7.95-40.88-16.98-59.91c-5.51-11.61-10.92-23.18-21.25-31.58
			C158.36,139.73,152.31,135.23,145.38,132.07z M132.1,190.97c1.3,0.68,2.62,1.32,3.88,2.05c4.59,2.66,9.52,4.88,13.65,8.13
			c10.25,8.05,17.03,18.9,22.91,30.34c3.48,6.76,6.44,13.84,10.46,20.26c3.62,5.78,6.72,11.64,8.9,18.09
			c0.98,2.9,3.28,4.63,7.46,4.23c0.17-1.97,0.85-4.1,0.44-6.01c-1.65-7.71-3.43-15.41-5.56-23.01c-2.89-10.3-6.83-20.2-12.48-29.35
			c-0.52-0.85-1.07-1.72-1.75-2.44c-5.51-5.8-12.21-9.98-19.01-14.05C152.19,193.95,142.63,191.2,132.1,190.97z M225.98,263.63
			c2.76,1.78,5.03,3.25,7.48,4.83c2.25-1.89,5.2-2.82,5.16-7.02c-0.1-10.06,0.41-20.13,0.72-30.19c0.19-6.08,2.21-11.6,5.53-16.62
			c6-9.04,13.13-17.12,21.04-24.52c0.88-0.83,1.66-1.76,2.49-2.65c-0.16-0.27-0.32-0.54-0.48-0.82c-1.98,0.67-4,1.25-5.94,2.03
			c-2.54,1.03-4.95,2.37-7.51,3.31c-11.06,4.06-18.16,12.47-24.01,22.08c-2.67,4.38-4.82,9.02-4.42,14.6
			c0.42,5.73-0.02,11.52-0.05,17.28C225.96,251.98,225.98,258.02,225.98,263.63z"/>
	</g>
</g>
</svg>
