<?xml version="1.0" encoding="utf-8"?>
<!-- Generator: Adobe Illustrator 28.2.0, SVG Export Plug-In . SVG Version: 6.00 Build 0)  -->
<svg version="1.1" xmlns="http://www.w3.org/2000/svg" xmlns:xlink="http://www.w3.org/1999/xlink" x="0px" y="0px"
	 viewBox="0 0 400 300" style="enable-background:new 0 0 400 300;" xml:space="preserve">
<style type="text/css">
	.st0{fill:#356933;}
</style>
<g id="Layer_2">
	<path class="st0" d="M305.3,121.35c-0.78-2.85-4.36-5.42-7.38-4.19c-2.41,0.98-4.76,1.65-7.37,1.66c-2.68,0.01-5.32-1.13-7.98-0.61
		c-0.38,0.08-0.75,0.18-1.1,0.3c-2.11-1.74-4.76-2.86-7.4-2.74c-2.28-1.34-5.13-1.86-8.43-0.99c-9.27,2.44-18.92,6.04-26.94,11.4
		c-0.27,0.18-0.51,0.37-0.77,0.55c0.26-1.26,0.53-2.51,0.82-3.76c0.83-3.55,1.74-5.15,4.43-7.62c3.45-3.18,6.92-6.36,8.97-10.68
		c0.85-1.78,1.31-3.69,1.37-5.56c1.4-1.14,2.72-2.36,3.94-3.7c1.31-1.44,2.24-3.13,2.77-4.91c1.2-0.52,2.22-1.36,2.72-2.44
		c1.31-2.84,2.88-5.19,5.06-7.36c5.48-5.46-3-13.94-8.49-8.49c-0.75,0.75-1.46,1.52-2.15,2.33c-1.86-1.07-4.03-1.45-6.19-0.78
		c-1.25,0.39-2.31,1.15-3.09,2.13c-0.14,0.01-0.28,0.01-0.42,0.03c-3.84-0.92-7.74,0.45-10.95,3c-7.37,5.87-14.43,12.32-20.46,19.57
		c-5.82,7.01-8.65,14.42-9.23,23.23c-8.5-16.79-24.27-29.98-40.49-39.84c-0.64-0.39-1.31-0.7-1.98-0.94
		c-0.17-0.54-0.34-1.07-0.51-1.61c-1.91-5.91-7.97-9.73-14.15-8.03c-5.8,1.59-9.95,8.21-8.03,14.15c1.58,4.9,3.36,9.88,3.44,15.07
		c0.09,5.68-0.14,11.39,1.62,16.88c3.22,10.06,10.27,18.27,18.25,24.97c4.96,4.17,10.65,8.04,15.26,12.78
		c-1.66-0.6-3.38-1.09-5.19-1.42c-7.34-1.36-15.93-1.17-23.08,1.12c-4.47,1.43-7.71,4.3-9.53,7.84c-3.49,1.98-6.9,4.12-9.51,6.83
		c-2.37,2.46-3.94,5.43-4.94,8.68c-0.7,2.28-0.69,4.3-1.67,5.69c-2.21,3.14-2.03,7.28-0.39,10.68c-0.62,0.65-1.16,1.4-1.58,2.29
		c-1.24,2.63-1.25,6-1.65,8.85c-0.5,3.61-1.01,7.23-1.51,10.84c-0.45,3.23,0.79,6.41,4.19,7.38c2.8,0.8,6.93-0.98,7.38-4.19
		c0.47-3.36,0.93-6.71,1.4-10.07c0.22-1.55,0.43-3.1,0.65-4.65c0.04-0.27,0.07-0.53,0.11-0.8c1.6-0.62,2.96-1.83,3.62-3.36
		c3-0.71,5.72-2.65,7.64-5.38c1.34-1.9,2.28-4.15,2.91-6.39c0.25-0.9,0.38-1.84,0.59-2.75c0.05-0.22,0.17-0.59,0.3-0.97
		c0.25-0.2,0.52-0.4,0.75-0.54c0.77-0.47,1.53-0.93,2.3-1.39c2.57,4.49,7.83,6.3,13.03,5.36c10.15-1.83,20.84-0.08,29.99,4.6
		c3.6,1.84,7,1.83,9.8,0.67c1.9,0.34,3.89,0.22,5.75-0.4c2.78,2.91,6.85,4.51,10.94,2.95c1.38,0.63,2.92,0.98,4.62,0.98
		c4.17,0,8.5-2.7,10.46-6.52c3.91-4.23,7.8-8.7,10.4-13.84c1.73-3.43,2.61-6.77,3.51-10.44c0.67-2.71,1.94-4.5,3.64-6.8
		c5.82-7.91,12.7-17.54,22.07-21.46c1.22-0.51,2.36-1.16,3.39-1.91c1,0,2.01-0.23,2.92-0.74c1.47-0.82,2.93-1.63,4.4-2.45
		c1.31-0.73,2.13-1.7,2.56-2.77c3.48,0.01,6.91-0.54,10.38-1.95C304.11,127.51,306.23,124.73,305.3,121.35z"/>
</g>
<g id="Layer_1">
	<g>
		<path d="M119.24,236.61c-0.5-1.95-1.27-3.68-1.36-5.44c-0.66-12.82-0.23-25.53,4.27-37.8c1.02-2.78,1.33-5.8,2.23-8.63
			c2.82-8.85,8.03-16.29,13.81-23.46c6.18-7.67,14.69-9.85,23.78-11c1.23-0.16,2.47-0.26,4.78-0.5c-2.33-2-3.77-3.56-5.5-4.68
			c-9.21-5.93-13.9-14.96-17.1-24.95c-3.95-12.33-5.41-24.92-3.97-37.89c0.8-7.21-0.21-14.3-4.4-20.53
			c-1.18-1.76-2.34-3.41-0.36-5.22c2.02-1.85,4.34-2.54,6.78-0.79c1.48,1.06,3.23,2.04,4.18,3.5c6.01,9.21,15.78,13.38,24.51,19.11
			c8.72,5.72,16.92,12.29,24.91,19c3.72,3.12,6.4,7.48,9.84,11.63c5.2-12.07,14.05-20.95,23.66-29.26c5.33-4.6,11.4-7.81,18.21-8.75
			c7.52-1.04,15.21-1.37,22.81-1.2c5.22,0.12,5.62,1.78,2.83,6.18c-6.76,10.65-13.36,21.4-20.21,32c-2.5,3.87-5.5,7.42-8.27,11.12
			c0.27,0.37,0.54,0.74,0.81,1.11c2.04-1.13,4.06-2.31,6.14-3.37c6.2-3.16,12.26-6.87,19.65-6.24c1.97,0.17,4.01,0.37,5.86,1.01
			c10.53,3.66,21.38,4.76,32.44,4.44c2.07-0.06,4.52-0.77,5.56,2.02c1.16,3.13-1.11,4.79-3.2,5.99c-6.77,3.9-13.68,7.54-20.55,11.26
			c-4.96,2.69-9.97,5.31-14.9,8.05c-8.72,4.84-14.63,12.37-19.38,20.87c-5.4,9.68-10.63,19.45-15.8,29.25
			c-3.23,6.11-9.5,6.76-14.93,7.33c-8.11,0.85-16.46,0.62-24.57-0.33c-5.02-0.59-10.05-2.85-14.59-5.28
			c-7.79-4.17-15.63-5.19-24-2.54c-0.79,0.25-1.68,0.67-2.42,0.51c-6.57-1.41-9.76,3.28-12.77,7.5
			c-5.98,8.37-11.47,17.1-17.25,25.61c-2.45,3.61-4.2,8.18-9.87,7.99C120.43,234.2,119.91,235.61,119.24,236.61z M209.39,186.05
			c0.21-1.73,0.71-3.48,0.58-5.18c-1.21-15.91-1.74-31.92-4.05-47.67c-1.91-13.04-7.85-24.93-18.18-33.59
			c-7.87-6.61-16.56-12.26-25.07-18.05c-4.61-3.14-9.62-5.7-14.8-8.72c-0.15,3.08-0.1,5.74-0.44,8.34
			c-1.8,14.04,0.29,27.62,5.2,40.73c2.57,6.86,6.35,13.04,12.59,17.6c11.78,8.6,24.3,16.46,32.64,28.99
			c0.08,0.12,0.48,0.01,1.28,0.01c-5.28-11.37-10.73-22.35-17.73-32.48c-4.82-6.97-9.89-13.77-14.64-20.78
			c-1.36-2.02-1.99-4.54-2.95-6.83c0.54-0.25,1.09-0.51,1.63-0.76C183.48,131.64,201.66,155.54,209.39,186.05z M267.89,76.35
			c-5.18,0-9.09,0.03-13-0.01c-8.65-0.09-16.58,2.25-22.99,8.06c-5.64,5.11-11.68,10.22-15.79,16.48
			c-4.58,6.98-9.39,14.88-4.38,24.04c0.31,0.56,0.42,1.27,0.48,1.93c0.75,8.07,1.07,16.21,2.28,24.22
			c1.94,12.9,2.24,25.73,0.5,38.65c-0.21,1.53,0.61,4.49,1.32,4.61c1.94,0.33,4.23-0.18,6.09-1c0.9-0.39,1.33-2.18,1.69-3.43
			c3.75-13.17,6.31-26.56,6.01-40.31c-0.27-12.61,3.07-23.87,10.77-33.94c6.05-7.92,11.88-16.02,17.58-24.19
			C261.63,86.9,264.36,82.03,267.89,76.35z M237.23,149.58c7.04-8.83,14.3-16.42,24.17-20.98c-2.77,4.22-6.21,7.74-9.45,11.44
			c-8.55,9.76-17.38,19.39-18.43,33.32c-0.12,1.64-0.74,3.24-1.1,4.87c-1.14,5.13-2.27,10.26-3.43,15.54
			c1.97-0.38,3.63-0.46,5.08-1.05c1.38-0.56,3.06-1.37,3.72-2.56c2.97-5.38,5.69-10.91,8.37-16.44
			c8.83-18.23,21.4-32.72,40.23-41.26c5.82-2.64,11.31-6.01,16.87-9c-0.25-0.67-0.29-0.95-0.37-0.96c-0.98-0.16-1.97-0.39-2.96-0.39
			c-8.97-0.01-17.45-2.26-25.8-5.3c-1.99-0.73-4.22-1.46-6.27-1.28c-10.21,0.9-19.25,4.79-27.06,11.44
			c-0.73,0.62-1.38,1.49-1.71,2.37C236.75,135.65,236.2,142.15,237.23,149.58z M187.42,167.05c-5.36-6.64-10.21-11.6-18.8-11.97
			c-10.98-0.48-20.16,1.57-27.46,10.66c-10.03,12.48-14.82,26.85-17.05,42.34c-0.53,3.69-0.84,7.41-1.25,11.12
			c4.24-5.05,7.52-10.25,11.05-15.28c8.51-12.12,16.96-24.28,30.54-31.6c5.96-3.21,11.75-6.25,18.82-4.97
			C184.33,167.54,185.49,167.21,187.42,167.05z M159.04,187.81c1.28-0.16,1.92-0.15,2.49-0.33c11.21-3.52,22.06-3.53,32.41,2.89
			c1.24,0.77,2.98,0.74,4.65,1.12c-0.5-10.79-3.64-14.98-13.42-17.45C176.02,171.73,166.32,174.76,159.04,187.81z"/>
	</g>
</g>
</svg>
