<?xml version="1.0" encoding="utf-8"?>
<!-- Generator: Adobe Illustrator 23.0.1, SVG Export Plug-In . SVG Version: 6.00 Build 0)  -->
<svg version="1.1" xmlns="http://www.w3.org/2000/svg" xmlns:xlink="http://www.w3.org/1999/xlink" x="0px" y="0px"
	 viewBox="0 0 595.3 841.9" style="enable-background:new 0 0 595.3 841.9;" xml:space="preserve">
<style type="text/css">
	.st0{fill:#F3D0E5;}
</style>
<g id="Layer_2">
	<g>
		<image style="overflow:visible;" width="248" height="186" xlink:href="A8FD474F.png"  transform="matrix(1 0 0 1 176 321.8898)">
		</image>
	</g>
	<path class="st0" d="M271.9,371.5c-1-1.4-2.3-2.3-3.8-3c-0.3-0.1-0.6-0.3-1-0.4c0.5-1.5-1.6-6.1-2.3-7.1c-1.8-2.9-4.9-4.6-8.3-4.6
		c-0.4,0-1.6,0.3-2.8,0.9c-0.7-0.9-1.6-1.8-2.2-2.5c-4.5-5.2-11.1-1.4-12.3,3.9c-0.7,0.2-1.3,0.5-2,0.9c-2.7,1.6-4.4,4.9-6.2,7.4
		c-1.3,1.8-1.3,4.1-0.6,6.1c-2.6,0.2-6.2-1.5-8-1.5c-6.2,0-10.4,5.9-14.5,9.8c-6.9,6.8,3.7,17.4,10.6,10.6c1.5-1.5,3.2-3.7,5-5.2
		c1.4,0.3,2.9,0.9,4.3,1c1.6,0.1,3.2,0.1,4.8-0.1c1.1,3.2,3.3,5.6,7.7,6.6c1.3,0.3,6.4,0.7,8.6-0.1c1.1,1.7,2.5,3.1,4.3,4
		c6,2.9,12-1.7,11.1-8.1c0.1,0,0.2-0.1,0.3-0.1c1.3-0.2,3.1-1.4,4.2-2.2c2.8-2.1,4.8-5,5-8.6C274.2,376.5,273.6,373.8,271.9,371.5z"
		/>
	<path class="st0" d="M366.9,364.2c0.1-3.8-2.3-7.7-7.2-7.7c-0.8,0-1.5,0.1-2.2,0.3c-0.5-3.2-2.9-6.1-7.1-6.1c-2.9,0-4.9,1.3-6,3.2
		c-5.2-3.6-12.6,1-11.5,8.2c0,0.1,0,0.1,0,0.1c-0.1,0-0.2-0.1-0.4,0c-1.2,0.3-2.8-0.1-4-0.3c-4.3-0.7-7.8,1.2-9,5
		c-5.1-4.4-15-0.4-12.2,7.3c0.2,0.4,0.3,0.8,0.4,1.1c-1.5,0.9-2.6,2.2-3.4,4.2c-1.3,3.5-0.3,7.6,2.5,10.2c0.9,0.8,2.3,1.2,3.2,1.9
		c0.1,0.2,0.2,0.5,0.3,1c0.8,2.9,2.3,5.7,4.6,7.5c1.2,1,2.5,1.6,4.1,2c1.6,0.4,4-0.2,5.4,0.4c0.7,0.3,1.8,1.5,2.7,1.9
		c1.6,0.7,3.2,1.2,5,1.2c3.4,0,6.6-1.7,8.5-4.5c0.9-1.4,1.2-2.9,1.4-4.4c0.5-0.2,1.1-0.4,1.6-0.7c1.7-1,3.1-2.6,4-4.4
		c1.6-3.4,0.8-6.5,0.7-10.1c3.2-0.2,5.2-2,6.2-4.3c0.5-0.4,0.9-0.9,1.2-1.4c0.1,0,0.1,0,0,0c0.1,0,0.3-0.1,0.4-0.1
		c0.2,0,0.9,0.1,1.2,0.1c0.5,0.2,1.5,0.6,0.3,0c3.5,1.7,8.3,1.1,10.3-2.7C369.2,370.4,369,366.5,366.9,364.2z"/>
	<path class="st0" d="M268,420.3c-0.3,0.1-0.6,0.2-0.9,0.2c-0.6-1-1.4-1.9-2.5-2.6c-1.1-2.2-3.2-3.8-6.4-3.8c-3.9,0-6.3,2.5-7,5.5
		c-1.4,0.2-2.8,0.5-4.3,0.7c-6.7,1.1-6.7,10-2.1,13.4c0.3,1.3,0.3,2.9,0.8,4.2c1.6,4.5,6.1,5.8,9.7,4.8c3.3,4.5,11.7,4.9,13.4-2.1
		c0.8-3.1,2.3-5.1,5-6.7C281.3,429.8,276.2,418.1,268,420.3z"/>
	<path class="st0" d="M395.8,414.4c-0.8-1.5-1.7-2.6-3.1-3.6c-1-0.7-2.9-1.1-3.6-1.8c-0.3-0.3-1-4-1.3-4.9c-1.1-3.2-3.5-5.6-6.7-6.5
		c-2.5-0.7-5.8-1.3-9-0.7c-2.4,0.4-4.8,2.9-5.2,5.2c-0.2,1.2-0.3,2.3-0.3,3.4c-2.3,0.9-4.3,2.4-5.4,4.9c-1.9,4.7,0.4,8.6,4.1,11.5
		c0.3,0.2,0.5,0.4,0.8,0.6c-3.6,5.5,2.8,14.5,10,10.7c1.1,1.1,2.3,2,4.3,2.4c3.6,0.8,7.2-0.7,9.6-3.4
		C393.8,427.9,398.6,420.1,395.8,414.4z"/>
	<g>
		<image style="overflow:visible;" width="192" height="139" xlink:href="A8FD474D.png"  transform="matrix(1 0 0 1 209 392.8898)">
		</image>
	</g>
</g>
<g id="Layer_1">
	<g>
		<path d="M210.1,447.2c-9.4-6-10.9-16.8-3.9-25.7c1.6-2.1,3.5-4,5.5-6.1c-0.7-1.5-1.6-2.9-2.1-4.4c-1-3.2-1.3-6.5,0-9.7
			c0.8-2.1,0.9-3.8-1.1-5.3c-2.3-1.8-3-4.2-2.2-7.1c0.2-0.8,0.1-1.9-0.2-2.8c-1.7-5.1-0.3-7.9,4.8-9.5c0.8-0.2,1.6-0.4,2.8-0.7
			c0.3-3,1.8-5.8,5-6.4c2.8-0.5,5.8-0.1,8.4-0.1c1.9-3.1,3.4-6.8,6-9.5c3-3.1,6.9-5.5,10.6-8c2.9-1.9,5.8-0.7,8.4,1
			c2,1.3,3.7,2.6,6.3,1.4c0.9-0.4,2.6,0.2,3.7,0.8c2.3,1.3,4.4,3,6.9,4.8c0.7-0.9,1.7-1.9,2.6-3c4.2-5.5,6.9-5.4,11,0.5
			c0.3,0.4,0.6,0.8,1.2,1.4c0.9-1,1.7-1.9,2.6-2.8c3-3.1,4.9-3,7.6,0.5c0.4,0.5,0.8,1,1.4,1.7c0.8-0.4,1.5-0.8,2.2-1.2
			c4.1-2.6,6.8-2.3,10,1.3c1.2,1.4,2.2,2.9,3.2,4.2c3.1,0,6,0,9.2,0c5.6-3.9,5.8-3.9,12.5-2.6c0.3-1,0.7-2.1,0.9-3.1
			c1.2-4.8,4.2-6.8,8.8-5.4c2,0.6,3.3,0.5,5.1-0.6c5.3-3.4,8.5-2.4,11.6,3.2c0.2,0.3,0.4,0.5,0.8,0.9c1.8,0.3,3.8,0.4,5.7,0.9
			c2.9,0.7,3.7,1.5,3.8,4.3c0.1,1.7,0.4,3.1,1.3,4.6c1.7,3,1,6.2-0.8,9c-1.4,2.2-3.3,4-5.3,6.4c0.8,0.4,1.5,1,2.2,1.2
			c0.8,0.1,1.6-0.2,2.5-0.3c5.2-0.3,7.9,0.8,8.9,5.8c1.1,5.3,3.5,9,7.8,11.8c0.7,0.4,1.4,1.1,1.7,1.8c1.6,4.4,5.4,6.4,8.9,8.9
			c3.4,2.4,4.4,5.5,3.3,9.6c-1.4,5.1-2.8,9.9-8.6,11.9c-2.3,0.8-3.3,4.5-2.4,6.9c1.1,2.8,2.1,5.6,3.3,8.3c2.1,4.4,1.8,8.9-0.5,13
			c-1.3,2.3-4,3.7-6.8,6.1c-0.3,3.5-0.4,8.3-4.4,11.5c-4,3.2-8.8,2.1-13.5,1.6c-1,1.8-0.7,3.4-0.1,5.2c1.6,4.7-1.5,13.3-5.8,15.8
			c-1,0.6-2.5,0.5-3.7,0.2c-1.2-0.3-2.2-1.3-3.5-2.1c-1,1.8-1.9,3.3-2.9,4.9c-5.2-0.4-1.9-6.4-5.8-8.1c-1,0.8-2.4,1.8-3.4,2.9
			c-1,1.1-1.7,2.5-2.5,3.7c-0.8,1.2-1.1,3.1-3.2,2.4c-1.9-0.6-1.4-2.4-1.5-3.8c-0.1-1.1-0.1-2.3-0.2-3.5c-2.1-0.4-2.8,1.1-3.7,2.2
			c-0.7,0.9-1.3,1.9-1.9,2.9c-0.8,1.4-2.1,1.9-3.3,1.2c-0.8-0.5-1.5-1.7-1.7-2.7c-0.6-2.9-0.5-6-1.4-8.8c-1.3-4.3-4.3-4.8-7.5-1.5
			c-1.5,1.5-2.5,3.5-3.6,5.3c-1,1.6-1.7,3.4-4.4,2.4c-0.5-3-0.9-6.1-1.4-9.2c-0.1-0.7,0.1-1.4-0.2-2c-0.7-1.5-1.2-3.4-2.4-4.1
			c-2-1.1-3.5,0.8-4.5,2.2c-1.9,2.7-3.7,5.5-5.1,8.5c-0.8,1.5-1,3.1-3.5,3.6c-2.7-3.9-1-9-3.1-13.5c-0.8,0.6-1.8,0.9-2.1,1.6
			c-1.6,3.1-3,6.3-4.4,9.4c-0.3,0.7-0.2,1.8-0.7,2.3c-0.6,0.7-1.5,1.2-2.4,1.3c-0.5,0-1.3-0.9-1.6-1.6c-0.5-1.4-0.7-2.9-1.1-4.3
			c-0.3-0.9-0.8-1.7-1.4-3.1c-2.3,3.3-2.8,6.3-2.4,9.7c0.5,3.9-0.8,5-4.5,3.7c-5.2-1.8-10.3-3.7-15.4-5.7c-3.9-1.5-6.6-4.4-8.6-8
			c-0.6-1.1-1.3-2.3-2-3.4c-3.9-0.9-8.2,1.2-11.5-2.4c-2.7-2.9-6-5.5-5.2-10.3c-5.7-1.5-10.7-3.8-13-9.4
			C208,457.9,208.7,452.6,210.1,447.2z M246,395.5c-5.1,3.7-9.2,1.3-13.1-2.5c-0.4-0.4-0.7-0.8-1.1-1.1c-3.1-2-6.3-2.9-9.9-1.3
			c-6.4,2.8-10.3,9.8-9.1,16.7c0.5,3.3,2,5.9,5.4,7.1c0.8,0.3,1.6,0.9,2.3,1.3c-1,2.4-2.7,2.4-4.4,2.1c-2.1-0.4-3.6,0.4-4.8,1.9
			c-1.5,2-3.4,3.8-4.3,6c-2.1,4.8-2.4,9.7,0.8,14.3c2.1,3,3.4,3.3,7.1,2c1.6-0.5,3.3-1.9,4.9,0.1c-0.2,2.6-2.4,3-4,4.1
			c-1.1,0.8-2.5,1.9-2.9,3.1c-1.1,3.9-1,7.9,0.8,11.7c2.3,4.9,6.5,7.2,12,6.9c0.6,0,1.2,0.3,2.1,0.5c-2.6,4.6-0.5,7.8,2.7,10.7
			c2.5,2.4,5.2,2.4,8.2,1.1c0.3-1.6,0.4-3.2,0.8-4.6c1.1-3.8,3.2-4.7,6.8-2.7c1.4,0.8,2.7,1.5,4.3,2.5c-0.2-3.4-0.8-6.3-0.5-9
			c0.3-3.6,1.3-7.1,4.1-9.9c2.2-2.2,4.8-1.4,7.5-1c0.4-2.1,0.7-3.9,0.9-5.2c-2.9-1.8-5.5-3.5-8.2-5c-0.7-0.4-1.5-0.5-2.3-0.5
			c-4.7,0-6.5-1.6-7.1-6.2c-0.2-1.3-0.3-2.6-0.4-3.8c-0.8-0.4-1.3-0.8-1.9-1.1c-3.9-2.3-4.7-5.1-2.8-9.2c1.3-2.7,3.4-4.8,6.4-5.1
			c3.3-0.3,5.2-2.1,7.2-4.5c3.7-4.4,8.5-3.7,11.4,1.2c0.3,0.5,0.6,1.1,0.9,1.5c9.8,0.2,12.5,2.3,14.7,11.7c5.2,1.4,6.9,6.2,9.5,10.9
			c2-2.8,3.4-5.3,5.2-7.3c2.4-2.7,4.9-5.5,7.9-7.5c4-2.7,8.1-1.3,10.3,3.1c0.7,1.5,1.4,3.1,1.4,4.7c0.1,5.1-0.2,10.3-0.3,15.4
			c0,0.9,0,1.7,0,3.5c1.2-1.5,1.7-2.3,2.3-3c2.8-2.8,5.3-6,8.4-8.4c3.1-2.4,5.9-1.3,7.8,2.1c1.7,3,1.9,6.3,1.9,9.7
			c0,2-0.5,4.2,0.5,6.2c2.4-1.1,4.4-2.3,6.6-2.9c3.2-0.8,5.2,0.6,5.7,3.9c0.3,2,0.1,4,0.2,6c0.1,1.2,0.3,2.5,0.5,4.4
			c1.3-1,2.1-1.5,2.8-2.1c0.9-0.7,1.7-1.6,2.6-2.3c3.9-2.8,7.1-2.1,9.6,1.9c0.4,0.7,0.7,1.5,1.1,2.2c2.1,4.2,7.9,6.6,12.2,4.9
			c0.9-0.3,1.7-1,2.3-1.8c1.8-2.6,1.7-6.5-0.1-9.3c-0.6-0.9-1.2-1.9-1.7-2.7c1.3-3,3.2-1.9,5.2-1.4c4.2,1,5.9-0.2,6.6-4.5
			c0.9-5.8-1.8-10.7-4.8-15.3c-0.5-0.8-1.9-1.1-2.9-1.6c-2.3-1-4.6-1.9-7.1-2.9c-5.1,2.3-8.6,1.2-10.8-4.2c-1.1-2.8-1.1-6.1-1.7-10
			c0.1,0.1-0.5-0.5-1-1.2c-4.4-5.7-4.4-8,0.5-13.4c0.5-0.6,1.2-1.1,1.8-1.7c0.4-0.5,1-1,1.1-1.5c1.1-4.7,4.5-7.1,8.7-8.8
			c0.9-0.4,2.1-1.4,2.2-2.3c0.8-5.8-4.1-9.6-9.5-7.3c-1.3,0.5-2.6,1.2-4.4,2c-0.4-2.7-0.5-4.9-1-6.9c-0.6-2.4-2.3-3-4.1-1.6
			c-3.1,2.4-6.1,4.7-6.3,9.5c-0.2,5-2.1,9.5-7.4,11.4c-1.4,0.5-2,1.4-2.4,2.8c-1.9,6-7.7,7.9-13.1,4.4c-1.4-0.9-2.6-2-4.1-3.1
			c-0.8,0.3-1.6,0.6-2.3,0.8c-3.1,1-5.6,0.1-7.6-2.3c-1.1-1.4-2.1-3-2.7-4.7c-0.9-2.7-1.9-4.9-4.5-6.7c-3.8-2.6-5.2-7.1-3.9-10.4
			c1.1-2.7,3.2-5,1.7-8.3c-0.3-0.6,0.6-1.8,1.1-2.7c0.8-1.3,1.6-2.5,2.6-3.9c-1.1-1.6-2-3.1-3.2-4.5c-2.7-3.1-4.3-3-6.6,0.3
			c-0.6,0.8-0.9,1.9-1.6,2.5c-0.6,0.6-1.7,0.7-2.4,1c-2.4-2-1.5-5.8-4.4-7c-3.5,2.1-2.4,7.6-7,8.6c-3-2.8-1.7-8.2-6.8-10
			c-1.1,2-2.7,3.9-3.2,6c-0.6,2.3-4.8,2.8-2.8,6.3c0.5,0.2,1.2,0.3,1.8,0.5c4.4,2,5.7,4,4.8,8.7c-0.9,5.2-2.8,10-7.7,12.8
			c-1.5,0.9-2.5,1.9-3,3.7c-1.7,5.9-6.4,8-11.9,5.3C250.7,398.5,248.5,397,246,395.5z M243.6,476c-1.6,6.2,0.8,12.8,6.5,16.4
			c4.9,3.1,10.6,4.3,16.5,5.8c0.8-5.7,0.9-11.3,6.9-14.5c1.5,1.9,2.9,3.8,4.5,5.8c1.1-1.9,1.9-3.5,2.9-5c1-1.5,2.1-3.1,3.4-4.3
			c2.3-2,4.4-1.5,5.5,1.3c0.8,2.1,1,4.4,1.6,7.1c0.9-1,1.5-1.7,2.1-2.4c1.6-1.7,3-3.7,4.7-5.2c4.5-3.9,8.4-2.5,9.8,3.3
			c0.5,2,0.8,4.1,1.3,6.4c2.2-1.7,4-3.5,6.1-4.7c4.3-2.5,7.7-1.4,9.7,3.2c0.9,2,1.4,4,2.2,6.2c2.1-1.3,4-2.6,6-3.7
			c1.9-1.1,3.5-0.9,4.5,1.3c0.2,0.5,0.7,0.9,1.3,1.5c3.9-3.4,7.8-5.7,11.4-0.3c1.4-0.4,2.5-0.6,3.5-0.9c1.5,1,3,2,5,3.3
			c0.5-0.8,0.8-1.4,1.1-2c1.7-3.3,4.9-6.3,1.3-10.3c-0.3-0.4,0.2-1.5,0.4-2.3c0.6-3.7,0.5-7.3-0.9-10.8c-1.8-4.5-3.9-5-7.4-1.8
			c-0.6,0.6-1.1,1.2-1.7,1.8c-1.6,1.3-2.7,4.1-5.1,3.3c-2.8-1-1.8-4-2-6.1c-0.2-3.1,0.1-6.3-1.4-9.3c-3.1-0.8-4.7,1.2-6.1,3.3
			c-0.9,1.2-1.5,2.6-2.2,3.9c-0.8,1.2-1.8,2-3.8,1.1c0-1.9-0.1-4,0-6.2c0.1-2.7,0.5-5.3,0.5-8c-0.1-4-0.5-8-4.8-10.7
			c-1.4,1.2-3,2.1-4,3.6c-2.7,3.8-5.2,7.7-7.6,11.6c-1.2,1.9-1.9,4.3-5,4.8c-0.1-1.2-0.5-2.3-0.4-3.4c0.5-4.5,1.1-8.9,1.7-13.4
			c0.6-4.8,0.7-9.7-1.2-14.3c-1.8-4.5-5.1-5.5-8.4-2c-6.4,6.7-11.7,14.1-12.3,23.8c-0.1,1.5-0.4,3-0.9,4.4c-0.2,0.6-1.3,0.9-2.9,2
			c0.3-3.8,0.6-6.5,0.7-9.3c0.2-5.2,0-10.4-3.2-14.8c-2.5-3.5-5-4-7.7-0.8c-3,3.5-5.6,7.4-7.8,11.5c-2.9,5.5-3.1,11.4-0.6,17.3
			c0.8,1.8,1.1,3.7,1.6,5.5c-1.7,0.9-3,1.5-3.7-0.4c-0.4-1.1-0.6-2.3-1.2-3.3c-1.7-2.9-3.1-6.3-7.2-7.3c-2,2.1-3.2,4.5-3.1,7.2
			c0.1,3.5,0.6,6.9,1.2,10.3c0.3,1.9,1.6,3.7,0.1,6C250.3,482.1,247.9,476.9,243.6,476z M264.4,372.6c0.7-11.5,0.2-12.7-6.5-14.9
			c-1.3,1.1-2.6,2.2-3.9,3.3c-1.3-1.7-2-3-3.1-4c-1.2-1.1-2.7-2.1-4.2-2.5c-2.7-0.8-4.1,0.6-3.2,3.4c0.6,1.8,0.3,2.8-1.8,3.7
			c-0.6-0.4-1.3-1.2-2.2-1.5c-1-0.3-2.4-0.4-3.2,0.1c-5.5,3.1-6.2,10.4-1.6,14.7c0.5,0.4,0.9,0.9,1.3,1.3
			c-4.5,9.2-2.3,15.5,6.1,18.2c1.4-0.9,1.2-2.2,0.6-3.5c-0.8-1.8,0-2.8,2-3.5c1,1.1,1.9,2.2,3,3.2c2.3,1.9,4.5,3.8,7,5.5
			c1,0.7,2.5,1.1,3.7,1.1c3,0.1,4.4-2.4,3-5.1c-0.6-1.1-1.5-2.1-2.2-3.1c1.9-1.8,1.9-1.8,4.1-1.3c3.3,0.8,5.1,0.2,6.7-2.7
			c1.1-1.8,1.9-3.9,2.4-6c1-4.1-0.9-6.4-5.1-6.4C266.4,372.6,265.6,372.6,264.4,372.6z M313.7,390.3c-1.3,6,0.7,9.6,5.6,10.7
			c0.9-1.7,1.7-2.6,3.5-4.1c0.7,0.9,1.3,1.9,2.1,2.6c1.7,1.6,3.4,3.2,5.3,4.5c1.6,1.1,3.5,1.5,5.1,0.1c1.6-1.4,1.2-3.3,0.3-5
			c-0.4-0.7-0.9-1.3-1.3-1.9c0.9-2.3,2.1-2.5,4.1-1.7c2.3,0.9,4.6,1.1,6.2-1.4c2.1-3.1,2.2-6.9-0.3-9.7c-1.8-2.1-4.4-3.6-7-5.6
			c0-0.1,0-0.7,0.1-1.4c0.7-5.9-2.9-12.2-8.3-14.5c-0.7-0.3-1.6-0.5-2.4-0.5c-2.7-0.2-3.3,0.5-4.2,3.4c-0.3,1.1-1.3,1.9-2,2.9
			c-6.5-5-10-4.2-13.3,2.4c0.8,1.4,1.5,2.8,2.3,4.3C302.4,380,303.3,386.3,313.7,390.3z M386.1,409.3c-0.3-0.8-0.6-1.5-0.6-2.1
			c-0.2-4-2.8-6.3-5.6-8.4c-2.7-2-5.7-1.7-8.6-0.5c-2.7,1.1-3.3,3.1-2.1,5.7c0.7,1.5,1.7,2.8,2.6,4.2c-2.7,3.7-4.7-0.1-6.8-0.4
			c-4.3,3.4-4.7,5.2-1.5,8.9c1.3,1.5,2.9,2.6,4.4,3.8c-3.3,5.8-2.3,9.7,3.1,12.3c1.2-1.4,0.5-4.1,3.4-4.7c0.6,0.8,1.2,1.8,2,2.5
			c1.6,1.4,3.3,2.8,5.1,3.8c0.8,0.4,2.3,0.2,3.1-0.3c0.5-0.3,0.5-1.9,0.2-2.7c-0.5-1.4-1.3-2.7,0.3-4.2c2.7-0.3,6.2,1.6,8.1-1.5
			c1.5-2.4,2.3-5.5,2.8-8.4C396.6,413.3,392.5,410.1,386.1,409.3z M340.7,353.9c-3.4-0.5-4.8,1.1-5.5,3.6c-0.8,2.7-0.5,5.2,1.8,7.2
			c2.2,2,4.9,4.1,4.7,7.3c-0.4,4.8,2.5,7.2,5.8,9.5c9.8-7.2,9.8-7.2,15.8-6c3.1-2.2,4.5-5,3.5-8.8c-1.3-0.4-2.5-0.8-3.7-1.2
			c0.8-2.3,1.5-4.2,2.2-6.1c-4.5-2.9-7.1,0.2-10.1,2.8c-0.5-1.2-1.1-2.1-1-2.9c0-1.1,0.6-2.2,0.7-3.4c0.2-3.4-2.2-5-5.1-3.3
			c-1.7,1-3.1,2.4-4.5,3.8c-2,2-2.7,1.9-4-1C341.2,355,341,354.5,340.7,353.9z M252.9,420.8c-0.9,0-2.1-0.1-3.2,0
			c-3,0.3-5.2,1.7-6.9,4.3c-1.2,1.9-1.7,3.9-0.3,5.5c0.9,1,2.9,1.2,4.5,1.3c1.2,0.1,2.4-0.4,4.7-0.9c-3.1,4.2-6.1,7.5-1.1,11.3
			c0.7-0.5,1.3-1,2-1.4c0.7-0.4,1.4-0.7,2.3-1.1c1.2,1.4,2.2,2.7,3.2,3.9c2.6,3.2,6,2.9,8-0.6c2.1-3.7,5-7,7.8-10.3
			c2.9-3.4,2.9-7.4-0.4-10.6c-1.9-1.9-4.5-2.2-6.8-0.6c-0.9,0.6-1.7,1.6-2.6,2.3c-1.3,0.9-2.8,0.1-2.8-1.5c0-1,0.3-2,0.3-3
			c0-1.9-0.2-3.7-3.1-4.6C256.9,416.5,255.2,418.4,252.9,420.8z M207.8,383.3c1.6,1,2.8,1.8,4.1,2.7c-1.1,2.1-2.1,3.9-3.1,5.7
			c3.3,3.2,3.4,3.3,6.1,0.8c3.9-3.7,8.3-6,13.8-5.8c0.3,0,0.6-0.3,1.1-0.6c0.1-1.2-0.1-2.8,0.5-4.1c1.7-4-0.4-6.2-3.2-8.2
			c-4-2.9-6.5-2.6-10.3,1.5c0.6,1.5,1.2,3.1,2.1,5.2C214.6,380.1,210.3,377.9,207.8,383.3z"/>
		<path d="M327.1,426.8c0.2-0.8,0.3-1.8,0.8-2.6c4.8-8.2,15.3-10.5,23.2-5.1c2,1.4,2.3,3,0.8,5c-3,4-7.1,6-11.9,6.5
			C335.4,431.1,330.6,431.3,327.1,426.8z M329.8,425.6c5.5,3.8,13,3,17-1.6c-2.8-1.4-5.5,2-9.2,0c2.5-0.7,4.2-1,5.8-1.6
			c1.7-0.7,4,0.4,5.3-1.8C341.6,417.4,336.2,418.8,329.8,425.6z"/>
		<path d="M306.3,399.8c-2.7,0.6-4.4,2.8-6.6,4.4c-5.6,4-11.9,5.5-18.8,3.3c-1.4-0.5-2.7-1.1-4-1.6c0.7-5.8,6.5-11,12.4-10.8
			c3.4,0.1,6.8,1.3,10.1,2.2C301.8,397.9,304,399,306.3,399.8z M297.8,401.3c-1.4-0.4-2.8-0.5-3.2-1.1c-1.7-2.4-1.6-2.5-2.3-2.6
			c-4.8-0.6-9.6,2.3-11.6,7C286.2,407.2,292.6,406.2,297.8,401.3z"/>
		<path d="M220.6,458.5c0.6-1.7,1.2-3.2,1.6-4.7c1.3-5.2,4.8-8.2,9.9-9.4c3.6-0.8,7.1,0.2,10.7,1.6c-1.5,5.1-5.4,7.6-9,10.4
			C229.7,459.5,225.1,458.1,220.6,458.5z M226.2,455.8c5.6-0.3,10.2-3.6,11.7-8.2c-4.3-1.2-6.4-0.9-9.4,1.8
			c-0.5,0.4-1.2,1.4-1.2,1.5C229.4,453,226.2,453.9,226.2,455.8z"/>
		<path d="M375.2,450.2c-4.3,2.5-8.6,3.1-13.2,2.3c-4.1-0.7-7.5-2.5-9.3-6.6c-1.2-2.8-0.8-4,2-4.9c7.2-2.4,14.3-1,18.6,6.2
			C374,448.1,374.6,449.1,375.2,450.2z M371,447.8c-5.7-5.7-11.2-6.6-16.3-3.1c3,4.1,7,5.7,12,5.3
			C368.3,449.9,368.2,447.2,371,447.8z"/>
		<path d="M239.5,416.5c-5.2-0.9-9.4-2.7-12.5-6.4c-1.5-1.9-2.6-4.2-3.7-6.4c-0.9-1.8-1.7-3.8-2.5-5.6c0.9,0.1,2.3,0.5,3.7,0.3
			c6-0.7,11.5,1.9,13.9,7.3C239.9,409,241.4,412.4,239.5,416.5z M238.2,413.2c-1.6-6.4-4.2-10.6-10.1-12.1c-0.9,1.1-1.7,2-2.6,3
			C228.2,409,231.9,412,238.2,413.2z"/>
		<path d="M281.3,390.2c-6-8.2,0-18.4,10.9-21C294.2,379.2,290.2,386.9,281.3,390.2z M286.6,374c-5.1,4.9-5.9,7.7-3.6,12.8
			c4.4-1.8,6.9-6.2,6.9-11.9C288.8,374.6,287.8,374.3,286.6,374z"/>
		<path d="M314.4,479.1c1.8-3.9,3.6-7.7,5.5-12c1.2,3.6,0,10.7-2,12.8c-0.5,0.5-1.8,0.3-2.8,0.5
			C314.8,479.9,314.6,479.5,314.4,479.1z"/>
		<path d="M303.3,447.9c0.7,0.8,1.3,1.3,1.2,1.6c-0.3,2.9-0.6,5.9-1.1,8.8c-0.1,0.6-1.6,1.3-2.3,1.2c-0.6-0.1-1.5-1.4-1.4-2.1
			C300.2,454.2,300.9,451,303.3,447.9z"/>
		<path d="M281.1,445.7c1.8,3.4,2.1,7.1,1.7,10.9c-0.1,0.6-1.1,1.7-1.4,1.6c-0.8-0.3-2-1-2-1.6c0-3.6,0.3-7.2,0.5-10.8
			C280.2,445.7,280.7,445.7,281.1,445.7z"/>
		<path d="M348.3,486.6c1.2-5.5,3.9-8.2,8.9-8.6c-2.1,3-3.8,5.8-5.8,8.3C350.9,486.8,349.4,486.5,348.3,486.6z"/>
		<path d="M262.5,471.9c2.6,3,3,6.5,3.2,10c0,0.6-0.8,1.2-1.3,1.8c-0.7-0.6-1.9-1-2-1.7c-0.5-2.9-0.7-5.8-1-8.7
			C261.4,472.9,262,472.5,262.5,471.9z"/>
		<path d="M276.1,476.1c-1.8-4.3-2.5-7.9-1.3-12.4c2.7,3.4,3.1,6.7,3.6,9.8C278.5,474.1,277.3,474.9,276.1,476.1z"/>
		<path d="M329.1,481.3c-0.3-3.8,1.9-5.9,4.2-8.4c2.8,2.1,0.3,4,0,5.8C333,480.3,332.3,482.4,329.1,481.3z"/>
		<path d="M294.7,466c0.3,0.7,1,1.4,1,2.1c0,1.8,0,3.6-0.4,5.3c-0.5,1.9-2,1.7-3.8,0.9c0.2-1.3,0.4-2.6,0.7-3.8
			c0.3-1.2,0.7-2.4,1.1-3.7C293.7,466.5,294.2,466.2,294.7,466z"/>
		<path d="M245.1,375.6c0.2-4.7,3-7.4,6.8-6.4c4,1,5.6,6.1,3.1,9.7c-2.8,3.9-5.5,4.7-8.2,2.2C245.5,380,245,378.3,245.1,375.6z
			 M254.2,376.7c-0.9-2.4-1.4-5-4.1-4.7c-1.3,0.1-2.8,1.8-3.4,3.1c-0.8,1.8,0.7,3.3,4,4.7C251.8,378.9,252.8,377.9,254.2,376.7z"/>
		<path d="M329.8,385.5c-0.8,1.1-1.7,3.3-3.4,4.7c-0.7,0.6-2.9,0.2-4-0.4c-2.9-1.6-4.2-6-3.1-9.2c0.5-1.6,2.9-2.9,4.9-2.7
			C327,378.2,329.9,381.6,329.8,385.5z M327.7,383.9c-0.1-1.8-2.6-4.1-4.5-4.1c-1.6,0-2.7,1.6-2.5,3.6c0.2,2.1,2.3,4.5,4,4.5
			C326.3,388,327.8,385.8,327.7,383.9z"/>
		<path d="M379.6,411.2c2.9,1.2,4.9,2.8,5.2,5.9c0.3,3.2-2,6.6-4.6,6.6c-2.7,0.1-4.8-2.4-5.2-5.6
			C374.6,414.4,376.3,412.4,379.6,411.2z M376.8,416.1c-0.1,3.2,1.2,5,3.1,5.3c1.5,0.2,3.1-1.3,3.1-3.1c0.1-2.1-2.1-4.8-3.8-4.3
			C378.2,414.3,377.3,415.6,376.8,416.1z"/>
		<path d="M260.4,436.7c-0.5-0.2-2.2-0.4-3.5-1.2c-1.8-1.1-2.2-3.4-1.2-5.2c1-1.9,4.2-2.8,7.1-2c2.3,0.6,4,2.9,3.8,5.1
			C266.5,435.6,264.9,436.7,260.4,436.7z M263.9,433.1c0.1-1.6-1.5-3.2-3.2-3.3c-1.6-0.1-2.6,0.6-2.6,2.3c0,1.9,1.3,2.5,2.9,2.7
			C262.4,435,263.6,434.6,263.9,433.1z"/>
	</g>
</g>
</svg>
