<?xml version="1.0" encoding="utf-8"?>
<!-- Generator: Adobe Illustrator 23.0.1, SVG Export Plug-In . SVG Version: 6.00 Build 0)  -->
<svg version="1.1" xmlns="http://www.w3.org/2000/svg" xmlns:xlink="http://www.w3.org/1999/xlink" x="0px" y="0px"
	 viewBox="0 0 595.3 841.9" style="enable-background:new 0 0 595.3 841.9;" xml:space="preserve">
<style type="text/css">
	.st0{fill:#F0E85A;}
	.st1{fill:#7BBE75;}
</style>
<g id="Layer_2">
	<path class="st0" d="M356.8,350.5c-1.5-8.1-4.7-13.8-11.2-18.9c-1.3-1-2.7-1.1-4-0.7c-5.8-4.2-13-7-20.7-8.7
		c-0.4-0.9-1.2-1.6-2.5-1.9c-5.3-1.4-10.7-2.1-16.1-2.1c-0.3,0-0.5,0-0.8,0.1c-1.1-0.2-2.1-0.4-3.2-0.5c-6-0.8-11.8-0.4-17.7,0.8
		c-1.6,0.3-2.5,1.3-2.8,2.5c-2.8,0.6-5.5,1.4-8,2.8c-0.9,0.1-1.8,0.4-2.6,1.1c0,0,0,0-0.1,0.1c-0.2,0.1-0.3,0.2-0.5,0.3
		c-0.4,0.3-0.8,0.5-1.2,0.7c-0.8,0.5-1.6,0.9-2.4,1.2c-0.8,0.3-1.4,1.1-1.7,2c-2.5,2.2-3.6,6-3,9.4c0.9,4.6,4.4,8.9,7.7,12.5
		c1.4,2.4,3.4,4.7,5,6.5c4.9,5.6,11,10,17.6,13.3c3.1,1.5,6-1.1,6.1-3.7c0.5-0.6,1-1.8,1.3-2c2.2-1.3,7.6,0.4,9.7,1.2
		c3.5,1.4,6,4,9,6.1c13.2,9.2,29.1,1.8,39.8-7.5c0.9-0.8,1.3-1.9,1.1-3C357.4,358.6,357.6,354.6,356.8,350.5z M299.5,339.9
		c-1.6,0.6-3.2,1-4.9,1.2c-3.4,0.4-6.9-0.1-10.1-1.3c-0.1-0.1-0.2-0.3-0.3-0.4c-2-2.2-4.8-3.5-6.9-5.6c-0.6-0.7-0.9-1.4-1.2-2.3
		c-0.2-0.6-0.5-1.1-0.8-1.6c5-2.3,11.6-2.5,17.5-2.4c1.5,2.2,3.7,3.4,5.4,5.4c1.6,1.8,2.6,4,3.2,6.3
		C300.4,339.5,299.5,339.9,299.5,339.9z M331.3,355.2c-0.4,0-0.8-0.1-1.2-0.1c-0.3,0-0.6-0.1-0.9-0.1c-0.5-0.5-1.1-1-1.9-1.2
		c-3.8-1.1-7.4-2.7-10.9-4.7c0.3-4,9.6-7.6,15.2-9.6c1.1,0.4,2.3,0.7,3.6,0.7c0.5,0,0.9-0.1,1.3-0.2c1.7,0.6,3.4,1.3,5,2.1
		c1.5,1.9,2.7,4.1,3.6,6.4c-0.4,0.2-0.9,0.5-1.2,1C340.7,353.2,335.9,354.2,331.3,355.2z"/>
	<path class="st1" d="M341.7,449.2c-0.9,0.5-2.1,0.9-3.3,1.5c-0.4-0.2-0.9-0.2-1.4-0.2c-2.2,0-3.5,1.5-3.8,3.2
		c-0.6,0.2-1.2,0.4-1.7,0.9c-6.3,5.7-13,10.8-20.1,15.4c1.3-3.5,2.8-7,4.9-10.2c0.8-1.2,0.8-2.4,0.3-3.4c2-1.6,3.7-3.4,5-5.9
		c0,0,0,0,0-0.1c3.7-1.3,3.3-7.8-1.4-7.8c-1.6,0-2.8,0.8-3.3,1.9c-0.9,0.2-1.7,0.8-2.2,1.9c-2.6,4.8-8.2,6.8-12.1,10.4
		c-4.6,4.3-7.5,10.5-9.9,16.2c-0.7,1.6-1.3,3.2-1.8,4.8c-0.3-1.3-0.8-2.6-1.4-4c-3.3-7.3-6.9-14.7-11.9-21
		c-5.2-6.7-11.7-11.9-18.3-17.1c-0.6-0.5-1.3-0.8-1.9-0.9c-0.3-0.7-0.5-1.4-0.7-2.1c-1.4-4.9-9.1-2.8-7.7,2.1
		c3.3,11.5,13.2,18.2,18.7,28.4c3.4,6.3,3.5,13.4,3.3,20.4c-0.2,7.3-0.6,14.6-0.9,21.9c-0.1,3.4,4.6,5.4,6.8,2.8
		c2.7-3.1,6.1-2.6,9.2-4.8c0.1-0.1,0.2-0.1,0.2-0.2c-0.1,3,0,6,0.2,9c0.4,5.1,8.4,5.1,8,0c-0.1-1.2-0.2-2.4-0.2-3.6
		c1.8,1,4.4,0.6,5.5-1.4c5.4-9.8,6.8-21,9.8-31.7c1,1.6,3.1,2.6,5.3,1.4c1.6-0.8,3.3-1,5-1.1c0.6,1.2,1.7,2.1,3.5,2.1
		c2.2,0,3.5-1.5,3.8-3.1c0.1-0.1,0.3-0.1,0.4-0.2c3.5-1.8,5.8-6.1,8.1-9.2c0.7-0.9,0.9-1.9,0.7-2.7c1.2-1.3,2.1-2.9,2.4-4.8
		c0-0.1,0-0.2,0-0.3c1.5-0.7,2.2-2.3,2.1-3.9c1-0.5,1.9-1,2.9-1.5C346,451.4,344,448,341.7,449.2z"/>
	<g>
		<image style="overflow:visible;" width="129" height="137" xlink:href="55024BC3.png"  transform="matrix(1 0 0 1 175 420.8898)">
		</image>
	</g>
	<g>
		<image style="overflow:visible;" width="125" height="122" xlink:href="55024BC1.png"  transform="matrix(1 0 0 1 271 430.8898)">
		</image>
	</g>
	<g>
		<image style="overflow:visible;" width="131" height="93" xlink:href="55024BC7.png"  transform="matrix(1 0 0 1 218 480.8898)">
		</image>
	</g>
</g>
<g id="Layer_1">
	<g>
		<path d="M334.7,434.6c0.7,1.8-0.8,2.6-1.8,3.7c-2.8,3.3-6,6.3-8.4,9.8c-3.1,4.5-5.5,9.3-7.9,14.3c3.5-1.2,5.6-4.2,8.5-6.1
			c3-1.8,5.9-3.8,8.9-5.5c3.2-1.8,6.4-3.6,9.7-5.2c3.1-1.5,6-3.5,10.6-3.8c-7.5,7.1-13.6,14.2-17.6,23.6c1.9-0.2,3.3-0.8,4.5-0.5
			c1.2,0.3,2.1,1.6,3,2.3c3.8-1.5,7.8-3.1,11.7-4.7c0.6-0.2,1.2-0.5,1.9-0.6c5.9-1.1,8.5,1.7,7.4,7.5c-0.7,4.1-2.7,7.5-4.9,10.8
			c-1,1.5-2.1,3-3.1,4.3c0,0.5-0.1,0.9,0,1.1c3.4,5.7,2.2,10.9-2.2,15.4c-8.4,8.6-17.4,16.4-28.8,21c-0.6,0.2-1.2,0.7-1.8,0.9
			c-4.2,1.4-6.1,4-5.7,8.6c0.2,2-0.6,4.3-1.4,6.2c-0.6,1.4-1.9,2.5-3,3.9c-1.3-0.5-2.2-0.9-3.1-1.3c-3.2-1.2-4.8-0.5-6.4,2.6
			c-1.1,2.2-1.1,2.2-3.2,3.4c-0.6-2-1.3-3.9-1.8-5.6c-5.2-0.6-5.6,4.6-8.8,6.3c-2.7-2.2-0.9-6.7-4.7-8.1c-4.4,0.9-3.5,6.8-7.4,8.7
			c-2.9-2.2-1.6-6.9-5.4-9.1c-1.1,1.8-2.1,3.4-3.1,5.1c-0.5,0.9-0.7,1.9-1.3,2.7c-1.2,1.7-2.9,1.8-4,0c-0.8-1.3-1.3-2.7-2-4
			c-0.4-0.7-0.9-1.3-1.4-2.1c-2.3,0.4-2.7,2.3-3.6,3.8c-1.9,3.3-3.6,3.8-6.8,1.7c-1.5-1-2.7-2.4-3.9-3.8c-3.2-3.9-5.9-8-5.7-13.5
			c-9.6-4.4-18.1-10.2-24.8-18.2c-9.7-11.5-14.5-24.9-13.8-40.1c0.1-2.8,0.8-5.6,1.8-8.2c1.8-4.4,5.1-5.1,8.6-1.9
			c2.4,2.2,4.5,4.8,6.9,7.5c0.9-4.4,1.5-8.6,2.6-12.7c0.6-2.4,1.6-4.7,2.8-6.9c1.4-2.4,3.4-2.6,5.4-0.6c1.5,1.5,2.8,3.3,3.9,5.2
			c1.6,2.9,3,5.9,4.5,8.9c0.7,1.4,1.3,2.9,2.3,5.2c0.8-1.5,1.2-2.3,1.6-3.1c0.5-1,0.9-2.2,1.5-3.1c2.2-3.3,5.1-3.5,7,0
			c2.2,4.1,3.9,8.4,5.8,12.7c1.1,2.6,2.1,5.2,3,7.5c2.5,0.6,4.6,1,6.6,1.5c1.6-7,0-15.8-4.2-21.6c-4.2-5.8-8.7-11.4-11.9-17.8
			c-3.4-7-5.7-13.5-6.9-21.6c0.9,0.2,1.9,0.1,2.2,0.5c2.8,5,7.6,7.9,11.8,11.3c8.9,7.2,16.9,15.3,23.8,24.5c0.2,0.2,0.6,0.3,1.2,0.5
			c1.5-3.7,2-7.1-0.5-10.6c-1.7-2.3-3.2-4.6-4.9-6.9c-0.9-1.2-2-2.3-1.2-4c0.8-1.8,2.5-1.3,3.9-1.4c0.8-0.1,1.6-0.2,2.8-0.4
			c0.8-4.1,1.7-8.1,2.2-12.1c0.1-1-1-2.3-1.8-3.3c-1.5-2-3.4-3.7-4.6-5.8c-1.4-2.4-0.1-4.2,2.7-4.3c4.2-0.2,4.2-0.2,5.1-4.1
			c0.2-0.8,0.4-1.6,0.6-2.3c-2.3-4.8-8-5.5-10.8-9.8c1.7-3.7,5.8-2.7,8.7-4.5c0.1-5.2-4.6-7.1-7.1-10.5c-2.5,0.7-4.9,1.5-7.3,2
			c-3.9,0.7-5.1-0.4-5.3-4.3c0-1,0-2,0-3.4c-1.7,0.4-3,0.7-4.4,1c-1,0.2-1.9,0.5-2.9,0.6c-6.3,0.7-7.8-3.2-5.9-7.5
			c0.7-1.5,1.1-3.1,1.7-4.9c-1.8-1.2-3.4-0.2-5.1,0.1c-3.8,0.7-7.2,0.3-9.8-3.2c-1.4-1.8-1.8-3.5-0.6-5.5c2.8-4.8,6.1-9.1,12.2-11.3
			c-2-1.1-3.4-2-5-2.7c-4.4-2.2-7.5-5.5-9.2-10.1c-1.8-4.7,1-9.3,6-9.7c2.8-0.2,5.6,0.2,8.4,0.5c1.4,0.1,2.8,0.5,5,0.9
			c-1.2-2.3-2.2-3.8-2.8-5.4c-1-2.6-2.1-5.3-2.5-8c-0.4-2.5,0.7-3.8,3.3-4c1.9-0.1,4,0,5.9,0.6c5.4,1.6,10.5,4,15.3,8.1
			c0.2-1.3,0.5-2.2,0.5-3c0-4.3,1.7-8.1,3.7-11.8c0.6-1.1,1.6-2.1,2.7-2.9c3.4-2.7,5.9-2.6,8.7,0.6c2.2,2.5,3.8,5.4,5.5,8.3
			c0.7,1.2,1.2,2.6,2.2,4.5c1-1.9,1.6-3.1,2.3-4.3c1.3-2.3,2.5-4.7,4.2-6.8c3.3-4.1,8.3-3.8,11.3,0.5c1.9,2.8,3,5.9,3.1,9.4
			c0.1,1.6,0.1,3.3,0.3,5.8c1.7-1.5,2.9-2.6,4.1-3.6c4.1-3.6,8.8-6.1,14.5-5.4c1.4,0.2,3,0.7,4.1,1.5c1.4,1,2.2,2.5,1.6,4.4
			c-0.9,2.8-1.9,5.6-3,8.8c1.8-0.3,3.7-0.6,5.5-0.7c4-0.4,7.9-0.9,11.9-0.9c6,0,8.2,4.1,5,9.4c-0.9,1.4-1.9,2.7-3.2,4.5
			c1.1,0.3,2,0.5,2.8,0.6c2.8,0.2,5.6,0.4,8.4,0.6c0.7,0,1.3,0.1,2,0.2c5.3,1.3,6.6,5.1,3,9.2c-1.4,1.6-3.1,2.9-5,4.6
			c0.9,0.8,1.8,1.5,2.5,2.2c3.6,3.5,3.5,9.1-0.4,12.1c-2.1,1.6-4.5,2.8-7,4.3c0.6,0.9,1.2,1.8,1.8,2.7c2.2,3.8,1.5,7.2-2.4,9.4
			c-1.9,1.1-4.3,1.6-6.5,2.1c-1.4,0.3-2.9,0.1-4.8,0.1c0,2.3,0.1,4.1,0,5.8c-0.4,4.9-4.2,7.8-9,6.7c-1.8-0.4-3.5-1.2-5.1-2
			c-1.5-0.7-2.8-1.7-4.6-2.8c-0.7,1.9-1.2,3.7-1.9,5.3c-1.8,4-4.6,4.6-7.9,1.8c-1.5-1.3-2.6-3-3.8-4.6c-1.3-1.7-2.4-3.5-3.8-5.4
			c-1.1,1.3-1.9,2.3-2.8,3.2c-1.4,1.5-2.9,2.5-5.2,2.2c-3.1-0.3-5.3,1.7-7.4,3.6c-0.8,0.7-1.4,2-1.5,3.1c-0.2,2.5-0.1,4.9-0.1,7.5
			c2.3,2.3,6.8-1.4,8.9,3.3c-1,0.8-2,1.9-3.2,2.6c-3.7,2.4-6.7,5.2-7.2,10.1c-0.3,2.7-1.8,5.3-1.4,8.6c2.1,0.5,4.3,1.1,6.9,1.7
			c-2,2.6-3.8,4.7-5.3,7c-1.1,1.8-2.4,3.8-2.6,5.8c-0.8,6.2-1.1,12.5-1.7,19.1c0.8-0.7,1.8-1.3,2.4-2.1c4.8-6.5,11.4-10.6,18.2-14.5
			C322.8,440.8,328.7,437.8,334.7,434.6z M303.7,366c0.8-0.1,1.4-0.1,2.1-0.3c4.3-0.8,4.8-0.5,6.2,3.9c0.2,0.6,0.4,1.5,0.8,1.7
			c3.2,1.8,5.8,4.8,10.2,4.7c5.2-0.1,10.2-0.6,15.3-1.8c5.5-1.3,10-4.1,14.1-7.9c3.4-3.1,4.6-7.2,4.3-11.2
			c-0.7-10.2-5.1-18.4-14.2-23.7c-3.1-1.8-6.4-3.5-9.7-5.1c-6.5-3.3-13.6-4.9-20.7-6.6c-6.1-1.5-12.2-0.7-18.4-1
			c-9.5-0.5-18.1,2.4-26.3,6.5c-7.5,3.7-9.2,9.8-6.7,16.5c0.9,2.5,2.1,4.9,3.7,7c2.5,3.3,5.1,6.7,8.3,9.2
			c5.6,4.5,10.9,9.8,18.5,10.7c1.5-1.6,2.8-3.3,4.4-4.8c2.8-2.6,4.4-2.4,7,0.5C303,364.9,303.3,365.5,303.7,366z M208.4,461.8
			c-0.5,1.2-1.2,2.4-1.5,3.6c-1.3,6.1-1.1,12.3,0.2,18.3c4.5,19.7,17.4,32.3,35,41c1.6,0.8,3.1,1.8,4.7,2.7c0.8,0.5,1.6,0.9,2.2,1.3
			c1.1-3.2,1.7-6.4,3.1-9.1c2.4-4.7,4.2-5.2,9.1-3.7c7.1-7.3,8.1-16,5.5-25.4c-0.5-1.8-0.9-3.9-2.8-5c-1.4,0.5-2.7,0.9-4.3,1.5
			c-1.7-4.1-3.2-7.8-4.7-11.4c-1.6-3.8-3.3-7.6-5-11.4c-0.4-0.9-1.3-1.6-2.3-2.7c-2.3,4.6-3.4,8.8-2.5,13.4c0.6,2.9,1.3,5.8,2,8.7
			c0.3,1.3,0.6,2.6,0.6,3.9c0,1.3-0.7,2.2-2.7,1.9c-2-6.6-3.9-13.5-6.2-20.2c-2.3-6.9-5.4-13.5-10.2-19.2c-0.5,0.4-0.9,0.5-1,0.8
			c-3.3,7.9-4.4,16-1.1,24.2c1,2.5,2.2,4.8,3.1,7.3c0.8,2,0.4,2.4-2.3,3.1c-0.5-0.8-0.9-1.7-1.5-2.5c-3.8-5.7-7.5-11.4-11.5-16.9
			C213.2,464.2,211.6,462.1,208.4,461.8z M305.4,518.7c10.3-4.7,9.9-3,14,3.1c3.9-1.9,8.3-2.9,12-5.5c4.5-3.2,9-6.3,13.2-9.8
			c3.1-2.5,5.8-5.5,8.4-8.5c2.2-2.6,3.1-5.7,1.2-9.3c-2.7,0.8-4.3,5-8.2,2c2-1.9,3.8-3.6,5.6-5.3c5.2-4.7,8.7-10.4,10.1-17.4
			c0.5-2.7-0.8-4.1-3.3-3.1c-4,1.6-8.1,3.2-11.6,5.5c-2.8,1.9-5,4.8-7.4,7.3c-1.5,1.6-2.9,2.9-5.4,0.8c1.3-2.8,2.6-5.6,4.3-9.4
			c-1.6,0.8-2.2,1.1-2.7,1.4c-4.1,3.2-7.6,6.9-9.9,11.7c-1.8,3.9-3.8,7.7-5.9,11.5c-1.1,2.1-1.6,2-4.2,0.5
			c1.2-5.5,4.1-10.6,4.1-16.7c-4.4,2.4-5.6,3.1-7.5,6.8c-2.4,4.7-4.2,9.7-6.3,14.6C303.1,505.7,304.2,512.1,305.4,518.7z
			 M280.5,438.8c1,1.6,1.6,2.8,2.5,3.8c3.7,4.6,4.9,9.6,3.2,15.4c-1,3.5-0.5,6.8,1.7,9.9c0.9,1.2,1.6,2.5,2.8,4.5
			c1-2.6,2.2-4.4,2.4-6.4c0.7-6.4,2.2-12.7,2.2-19.3c0-4.8,0.7-9.6,3.4-13.9c0.5-0.7,0.9-1.5,1.5-2.5c-1.9-0.3-3.3-0.5-5.2-0.8
			c1-3.6,2.2-6.9,2.8-10.3c1-5.4,3.2-9.7,8.3-12.3c0.2-0.1,0.3-0.5,0.5-1.1c-2.4-0.5-4.8-1-7.6-1.6c0.2-2.8,0.5-5.6,0.5-8.4
			c0-4.7,2.3-7.4,6.6-8.8c1.6-0.5,3.2-0.8,4.8-1.3c2.5-0.6,4.1-2.2,4.8-4.6c0.8-2.8-1.1-5.4-4-5.5c-0.8,0-1.5,0.3-2.4,0.5
			c-0.8-2.6,1-6-2.3-7.4c-2.6,0.7-3,4.4-6.2,3.9c-0.2-4.6-0.2-4.6-2.8-7c-2.2,1.4-3.3,3.6-4.5,5.7c-1.7,2.8-2.3,2.9-5.1,1.3
			c-0.4-0.3-0.8-0.6-1.2-0.8c-1.7-0.9-3.3-0.6-4.4,0.9c-1.1,1.4-1,2.8,0.3,4c0.7,0.7,1.4,1.4,2.1,2.1c2.4,2.3,3.7,4.9,4,8.3
			c0.3,4.8,0.1,5.2-4.9,5.9c-0.2,0-0.4,0.4-0.9,0.8c1,0.5,1.8,0.9,2.6,1.4c4.5,2.4,5.6,4.9,4.5,9.8c-0.3,1.1-0.6,2.3-0.7,3.4
			c-0.2,2.6-1.2,4.4-4.2,4.6c-0.6,0-1.1,0.4-2.2,0.8c2,2.1,3.6,3.8,5.2,5.5c-0.6,5.5-1.3,10.8-1.8,16.1c-0.2,1.8-1.2,2.7-2.6,3.2
			C283.3,438.7,282.3,438.6,280.5,438.8z M282.7,508.4c-3.6,2.4-4.3,3.4-4.9,6.9c-0.3,1.8-0.5,3.6-0.8,5.4c-0.2,1.2-0.9,2.1-2.4,1.8
			c-2.3-3.6,0.4-9.2-4.9-12.1c-3.5,3-5.4,6.6-5.8,11.1c-0.2,2.1,0,4.3,0,6.5c0,1.5-0.6,2.6-2.7,2.6c-0.3-0.9-0.7-1.9-1-3
			c-0.6-2.2-1-4.5-1.7-6.7c-0.2-0.8-1.1-1.4-1.7-2.1c-3.3,4.3-4.3,7.4-3.6,12.8c0.4,3,0,6.5,3.5,8.2c4.6-3.3,5.6-5.4,11.4,1.7
			c0.8-1.1,1.6-2.1,2.4-3.1c3.2-4,5.5-4,8.7,0c0.4,0.5,0.7,1.1,1,1.5c0.8-0.4,1.1-0.6,1.3-0.8c6.2-5.6,6.5-5.6,11.6,0.7
			c0.7-0.3,1.5-0.6,2.2-1c2.5-1.4,5-2.7,8-1c0.6,0.3,1.7,0.1,2.3-0.3c2.7-1.7,5.5-1.9,9-0.8c1.2-5,1.3-9.6,0.1-14.3
			c-0.1-0.3-0.2-0.6-0.4-0.9c-1.2-2.1-2.7-2.5-4.4-0.9c-1.4,1.3-2.6,3-3.6,4.7c-1,1.7-2.1,2.9-4.5,2.1c-1.4-5.4,1.2-11.3-2.5-16.6
			c-4.2,2.6-6.5,6.3-8,10.6c-0.3,0.9-0.6,1.9-0.9,2.8c-0.7,1.8-2,2-3.7,1.3c-0.2-3.1-0.2-6.1-0.7-9
			C285.1,513.7,285.4,510.4,282.7,508.4z M251.1,430.9c-0.3,0.3-0.5,0.6-0.8,0.8c3.2,7.9,7.2,15.3,12.8,21.8
			c4.9,5.7,8.5,11.9,7.9,19.8c-0.1,1.3,0.2,2.6,0.3,4c0.5,5.3,1.7,10.6,1.2,15.8c-0.5,4.2,0.4,8.2,0.4,12.3c0,2.4,1.4,3.4,4.1,3.6
			c0.5-4.9,0.7-9.5,1.4-14c0.8-4.7,0.9-9.2,0-13.9c-0.4-2.3-0.3-4.6-0.3-7c0-2.1,0-4.2,0.1-6.3c1.6,6.1,2,12.2,2.9,18.2
			c1,6.3-1.3,12.4-0.4,19c1.4-0.2,2.7-0.4,4.2-0.6c2-9.6,3.6-19.1,3.2-28.8c0-0.7-0.1-1.4-0.3-2c-3.8-7.9-7.2-16.1-13.8-22.3
			c-5.7-5.3-11.4-10.7-17.2-16C255.1,433.7,253,432.4,251.1,430.9z M322,445.5c-0.2-0.2-0.4-0.4-0.6-0.6c-1.9,1.2-3.9,2.4-5.8,3.6
			c-12.1,7.4-20,17.8-23.1,31.8c-0.8,3.5-0.7,7.3-1.2,10.9c-0.7,5.3-1.7,10.5-2.4,15.7c-0.4,2.9-0.1,5.8,0.7,8.9
			c2.5-1.8,3.5-3.7,3.7-6.5c0.3-5,0.7-10,1.7-14.8c1.4-6.6,3.5-13.1,5.3-19.7c0.2-0.8,0.7-1.5,1.1-2.2c-1.7,11.8-5.3,23.2-4.8,35.3
			c2.8,0.5,3.6-1.2,4.2-3.3c0.9-3.2,1.6-6.5,2.9-9.5c3.2-7.3,4.9-15.1,6.9-22.8c1.4-5.6,3-11.2,6-16.3
			C318.4,452.5,320.1,448.9,322,445.5z M343,449.9c-0.5-0.2-0.6-0.4-0.7-0.4c-11.4,5.2-20.6,13.1-28.3,22.8
			c-1.2,1.5-1.4,3.2-0.5,4.9c2-0.9,3.8-1.7,5.6-2.5c2.5-1.1,3.8,1.1,5.9,2.1c2.4-3,5-5.8,7.1-9c3.5-5.4,6.8-11,10.1-16.5
			C342.4,451,342.7,450.4,343,449.9z M286.1,295.8c-3.5,1.2-4.3,4.1-5.3,7c-1.7,4.9-0.1,9.4,1.5,14.5c4.9-1.9,9.9-0.7,14.7-2.4
			C294.2,307.6,292.8,300.2,286.1,295.8z M309,297c-4.4,5.3-7.7,11-6.9,18.6c4.8,0.4,9.2,0.8,13.9,1.2c0.3-5,0.6-9.6-0.9-14.1
			C314.1,300,312.7,297.6,309,297z M255.9,338.2c-0.5-4.9,1.7-8.1,4.4-11.4c-4.6-2.6-9.3-3.4-14-3.9c-3.3-0.4-5.8,0.9-7.1,4
			C242.1,334.1,248.2,336.4,255.9,338.2z M253.8,307.8c1.5,5.8,4.7,10.1,8.1,14.3c0.6,0.7,2.2,1.1,3,0.8c3.7-1.5,7.3-3.4,11-5.1
			C271,310.9,260.2,305.9,253.8,307.8z M350.5,332.6c4.3-2.9,8.1-5.8,10.2-10.3c0.4-0.9,0.1-2.1,0.1-3.1c-9-1.1-18,0.9-23.6,5.3
			C341.6,327.2,345.9,329.8,350.5,332.6z M263,353.6c-1.8-2.9-3.4-5.4-4.9-8c-1-1.6-2.2-1.6-3.8-1.2c-4.9,1.4-8.5,4.5-11,8.7
			c-0.6,1-1.2,2.5-0.9,3.6c0.5,1.7,2.1,2.5,4,2.3C252,358.1,257.6,356.8,263,353.6z M375.3,335.6c-3.5-2.1-7.8-2.5-15.9-1.8
			c-2.3,0.2-4.5,0.4-6.1,2.3c2.2,3.5,4.2,6.9,6.4,10.5C365.8,344.3,371.9,342.2,375.3,335.6z M321.7,318.5c3.7,1.3,7,2.5,10.2,3.6
			c3.7-4,7-8.6,7.8-11.7c0.3-1.2,0.6-2.9,0-3.7c-0.6-0.7-2.4-0.8-3.5-0.6C329.3,307.7,325,312.1,321.7,318.5z M348,374.7
			c-4.3,1.7-8.8,1.4-14,3.6c2.7,2.4,4.6,4.2,6.8,5.8c2.1,1.6,4.4,2.9,7.1,3.1c3.2,0.2,4.3-0.7,4.2-3.8
			C352.1,380.1,350.5,377.4,348,374.7z M256.1,370.1c4.8,1.2,12.7-2.6,16-8.2c-0.9-0.7-2-1.6-3-2.4c-1.1-0.9-2.2-1.8-3.2-2.7
			C258.3,361.8,256.9,363.8,256.1,370.1z M360.1,350.5c0.3,2.1,0.6,3.7,0.8,5.3c0.4,3.7,2.7,5.2,6.1,3.8c1.8-0.8,3.5-1.9,4.9-3.3
			c2.2-2.1,1.2-7.1-1.5-7.4C367,348.5,363.4,348.1,360.1,350.5z M330.9,391.5c1.2-2.7,2.3-6,1.9-7.3c-0.5-1.8-1.2-3.8-2.3-5.3
			c-1.2-1.7-3-0.5-4.6-0.2c-1.3,0.3-2.5,0.3-3.8,0.5C323,384.1,326.1,388.5,330.9,391.5z M353,371.9c3.6,3,7.2,3.7,11.2,1.9
			c2.1-0.9,2.9-3.1,1.5-4.8c-1.6-1.9-2.9-4.3-5.3-5.4C357.8,366.4,355.6,369,353,371.9z M281.3,368.9c-0.8-0.5-1.6-1.1-2.4-1.7
			c-2.4-1.9-3.3-1.9-5.4,0.4c-2,2.3-3,5-3.5,8.4c1.4-0.1,2.8,0.1,3.5-0.4C276,373.6,279.5,372.7,281.3,368.9z"/>
		<path d="M349,347.3c-7.8,9.8-25.6,11.7-35.1,0.3c4.3-4,9.4-6.5,15.1-7.8c4-0.9,8.1-0.3,11.5,1.6
			C343.5,342.9,347.6,343.3,349,347.3z M343.5,346.6c-5.4-7.7-18.8-5.8-25.4,1.4C327.8,354.8,338.8,354.2,343.5,346.6z"/>
		<path d="M304.1,341.2c-4.7,1.8-9.3,2.1-13.6,1.4c-7.2-1.1-11.7-6.3-16.2-12.1c0.8-0.9,1.4-2,2.3-2.3c6.7-2.3,13.2-2.7,19.5,1.5
			C300,332.2,302.1,336,304.1,341.2z M286.1,338l-0.2-0.1c4.1,2.9,9.3,3.1,13,0.4c-3.8-8.5-12.9-11.9-21.7-7.7
			C279.5,334,282.2,336.6,286.1,338z"/>
		<path d="M327.3,350.3c-0.1-1.5-0.3-3.2-0.4-4.9c0.3-0.1,0.5-0.2,0.8-0.3c0.8,1.1,1.5,2.2,2.2,3.2c3-0.2,1.5-3.1,3-4.2
			c2.1,0.7,2.5,1.3,2,3.3C334.3,350,333.4,351.6,327.3,350.3z"/>
		<path d="M286.1,338c-0.6-1.3-1.3-2.6-2-4.3c1-1,2-1.9,3.7-3.5c0,2.3,0,3.5,0,4.5c2,1.2,3.5-3.2,5.2,0c-1.1,3.8-4.2,3.1-6.9,3.2
			L286.1,338z"/>
	</g>
</g>
</svg>
