<?xml version="1.0" encoding="utf-8"?>
<!-- Generator: Adobe Illustrator 23.0.1, SVG Export Plug-In . SVG Version: 6.00 Build 0)  -->
<svg version="1.1" xmlns="http://www.w3.org/2000/svg" xmlns:xlink="http://www.w3.org/1999/xlink" x="0px" y="0px"
	 viewBox="0 0 595.3 841.9" style="enable-background:new 0 0 595.3 841.9;" xml:space="preserve">
<style type="text/css">
	.st0{fill:#F0E85A;}
	.st1{fill:#F3D0E5;}
</style>
<g id="Layer_2">
	<g>
		<image style="overflow:visible;" width="470" height="262" xlink:href="FBBE8C2.png"  transform="matrix(1 0 0 1 66 156.8898)">
		</image>
	</g>
	<path class="st0" d="M130.4,276.3c-1.2-1.7-3.1-2.8-5.8-2.8c-5.5,0-7.9,4.9-7.1,9.1c-0.8,4.2,1.6,9,7.1,9c2.7,0,4.6-1.2,5.8-2.8
		C134.4,285.9,134.4,279.1,130.4,276.3z"/>
	<path class="st0" d="M175.7,227c-0.7,0-1.4,0.1-2.1,0.3c-0.6-0.2-1.3-0.3-2.1-0.3c-9.7,0-9.7,15,0,15c0.7,0,1.4-0.1,2.1-0.3
		c0.6,0.2,1.3,0.3,2.1,0.3C185.3,242,185.3,227,175.7,227z"/>
	<path class="st0" d="M258.1,266.8c-0.6-3.1-3-5.7-7.1-5.7c-8.1,0-9.4,10.5-4,13.9c0.6,3.1,3,5.7,7.1,5.7
		C262.2,280.7,263.5,270.2,258.1,266.8z"/>
	<path class="st0" d="M413.1,291.6c-1.8,0-3.3,0.5-4.4,1.4c-7.3,2.2-6.5,14.7,2.3,14.7c1.8,0,3.3-0.5,4.4-1.4
		C422.7,304,421.9,291.6,413.1,291.6z"/>
	<path class="st0" d="M437.9,246.6c-0.1,0-0.2,0-0.2,0c-0.8-0.3-1.8-0.5-2.9-0.5c-9.7,0-9.7,15,0,15c0.1,0,0.2,0,0.2,0
		c0.8,0.3,1.8,0.5,2.9,0.5C447.5,261.6,447.5,246.6,437.9,246.6z"/>
	<path class="st0" d="M456.4,350.2c1.4-0.2,2.8-0.4,4.2-0.4c2.3,0,4.5,0.5,6.5,1.3c0.2-0.2,0.4-0.4,0.5-0.6c6.5-2,6.5-12.3,0-14.3
		c-1.2-1.4-3-2.4-5.5-2.4c-5.7,0-8.1,5.3-7,9.6C454.6,345.7,455,348.3,456.4,350.2z"/>
	<g>
		<image style="overflow:visible;" width="195" height="150" xlink:href="FBBE8C6.png"  transform="matrix(1 0 0 1 152 524.8898)">
		</image>
	</g>
	<path class="st1" d="M311.9,544.5c-9.7,0-9.7,15,0,15C321.6,559.5,321.6,544.5,311.9,544.5z"/>
	<path class="st1" d="M327.9,567.2c-9.7,0-9.7,15,0,15C337.6,582.2,337.6,567.2,327.9,567.2z"/>
	<path class="st1" d="M186.5,557.2c-0.6-2-1.8-3.3-3.4-4.5c-1.5-1.1-3-2.2-4.5-3.2c-1.5-1.1-4.1-1.2-5.8-0.8
		c-1.7,0.5-3.6,1.8-4.5,3.4c-0.9,1.7-1.4,3.8-0.8,5.8c0.6,2,1.8,3.3,3.4,4.5c1.5,1.1,3,2.2,4.5,3.2c1.5,1.1,4.1,1.2,5.8,0.8
		c1.7-0.5,3.6-1.8,4.5-3.4C186.7,561.2,187.1,559.1,186.5,557.2z"/>
	<path class="st1" d="M171.7,592.6c-1.4-1.3-3.3-2.3-5.3-2.2c-1.9,0.1-4.1,0.7-5.3,2.2c-0.9,1-1.7,2.1-2.6,3.1
		c-0.7,0.7-1.2,1.5-1.6,2.4c-0.5,0.9-0.7,1.9-0.6,2.9c0,1.8,0.8,4,2.2,5.3c1.4,1.3,3.3,2.3,5.3,2.2c1.9-0.1,4.1-0.7,5.3-2.2
		c0.9-1,1.7-2.1,2.6-3.1c0.7-0.7,1.2-1.5,1.6-2.4c0.5-0.9,0.7-1.9,0.6-2.9C173.9,596.1,173.1,593.9,171.7,592.6z"/>
</g>
<g id="Layer_1">
	<g>
		<path d="M224.8,626.5c-3.5,2.2-5.4,5.3-6.9,8.6c-0.8,1.7-1.4,3.4-2,5.1c-0.4,1.4-1,2.5-2.7,2.3c-1.7-0.2-2-1.4-2.1-2.9
			c-0.1-1.9,0.2-4-1.5-5.6c-3.3,1.9-3.6,5.5-5.3,8.4c-0.6,0.1-1.3,0.4-1.9,0.2c-8.2-3.1-15.8-7.1-21.1-14.4
			c-0.3-0.4-0.6-0.8-0.8-1.2c-1.2-1.8-1.9-3.6-0.4-5.5c1.6-2,3.5-3.7,6.3-3.2c1.4,0.2,2.8,0.6,4.7,1c0-1.4-0.1-2.4,0-3.3
			c0.2-2.4-0.9-3.6-3.2-4.2c-3.8-1-7.5-2.5-11.3-3.7c-1-0.3-2.3-0.3-3.3,0.1c-1.7,0.6-3.3,1.5-5,2.2c-3.4,1.4-7.1,0.5-9.4-2.4
			c-2.5-3.1-3.4-6.9-3.4-10.8c0-2.4,0.8-4.5,3.3-5.7c1.5-0.7,2.7-1.9,4.1-2.8c3.9-2.6,7.7-2.1,10.4,1.7c1.7,2.4,3,5.1,4.6,8
			c4.9,1.5,10.3,3.2,15.7,4.7c2.2,0.6,5.2-1.3,5.7-3.6c0.4-2.3,0.6-4.6,0.9-6.9c0.4-2.4-0.8-4.2-2.4-5.7c-4.4-4.4-8.7-8.7-13.1-13
			c-0.7-0.7-1.6-1.3-2.2-2.1c-2.1-2.9-4.8-4.1-8.5-4.2c-6.1-0.2-8.2-2.9-7.8-9.1c0.1-1.5,0.4-3,0.9-4.4c1.6-5.2,6.6-8.6,11.7-7.5
			c2.9,0.6,5.4,2.4,6.8,5.4c1.3,3,1.6,6.1,1.4,9.3c-0.2,2.4,0.7,3.9,2.6,5.5c4.4,3.5,8.6,7.4,12.9,11.1c0.9,0.7,1.7,1.5,2.8,2.5
			c2.4-1.9,4.7-3.8,7-5.7c-0.8-3.7-3-6.4-5.2-9.1c-1.5-1.8-3.2-3.4-4.9-5c-8.9-8.3-11.5-19.7-7-30.9c2.8-7.1,8.1-11.7,14.8-14.8
			c2.7-1.3,4.9-2.6,6.2-5.3c1.5-3,2.5-6.2,2-9.6c-0.1-0.5-0.2-1-0.3-1.5c-3.5-13.1,4.2-26.2,14.2-31.9c6-3.4,12.4-5.6,19.2-6.5
			c2.6-0.4,4-1.3,5.3-3.7c1.6-3,4.1-5.6,6.2-8.3c1.9-2.5,4.3-4.7,5.8-7.4c3.7-6.6,0-13.3-7.5-14.1c-5.3-0.6-10.7-0.7-15.9-1.8
			c-7.8-1.6-15.6-3.4-23.1-5.9c-8.1-2.7-11.8-9.4-12.7-17.5c-0.4-3.7,0.6-7.5,1-11.9c-0.8-1-2.7-1.2-4.5-1.3c-2.3-0.2-4.7-0.2-7-0.2
			c-6.4-0.1-11.7-2.4-15-8.2c-2.3-4-4.8-8-6.5-12.3c-2.3-5.6-6.3-9.7-11-13.6c-6.6,2.6-13.3,5-20.7,3.2c-1.2,1.8-2.3,3.5-3.4,5.2
			c-4.2,6.5-13.2,8.9-20.2,5.9c-4-1.7-5.4-5.2-7.2-8.5c-0.6-1.1-1-2.4-1.5-3.9c-1.8,0.7-3.3,1.3-4.7,2c-3.2,1.5-6.6,1.4-9.8,0.8
			c-3.6-0.7-5.7-3.3-6.5-6.8c-0.8-3.5-0.3-7,0.5-10.4c2.1-8.3,5.9-15.9,10.2-23.2c-1.2-1.8-3.1-1.3-4.6-1.4c-4.5-0.3-8.5-1.9-12-4.5
			c-6.7-5.1-9.4-11.9-7.5-20.2c3.4-14.5,11.4-26.1,22.8-35.4c2-1.7,4.2-3.2,6.3-4.9c0.1-0.1,0.1-0.3,0.4-1c-0.7-0.6-1.8-1.1-2.5-2
			c-1.9-2.3-4.1-4.5-5.5-7c-4.6-8-4.6-14.9,2.9-23.2c5.4-6,12.3-10.2,19.8-13.2c8.8-3.5,18-5.9,27.6-6.3c3.8-0.2,7.6,0.2,11.9,0.4
			c0.1-0.2,0.5-0.9,0.6-1.6c0.5-6.5,4.6-10.2,10-12.6c5.2-2.3,10.8-3.1,16.6-2.5c12.1,1.2,23.4,4.6,34.1,10.5
			c0.6,0.3,1.2,0.5,1.8,0.8c0.1,0,0.3,0,0.6-0.1c0.2-0.3,0.7-0.6,0.8-1c2.6-7.3,8.6-9.2,15.4-9.7c7.5-0.5,14.5,1.8,21.3,4.5
			c7.8,3.2,14.9,7.3,19.4,13.8c5.3-0.2,9.9-0.7,14.5-0.4c9.3,0.6,17.3,7.4,20,16.3c0.6,2.1,1.2,4.1,1.8,6.2c0.1,0.3,0.5,0.5,1,0.9
			c1.6-1.2,3.3-2.4,5.1-3.6c3.6-2.4,7.2-4.8,10.9-7.1c1.7-1,3.6-1.8,5.5-2.3c4.9-1.5,9.6-1,13.8,2.9c5.2-4.4,11-7.5,17.4-9.6
			c12.7-4.2,25.2-3.8,37.5,1.6c10,4.4,15,13.2,13.9,24.5c1.1-0.1,2.2-0.2,3.2-0.4c8-2.1,16.1-2.6,24.1-0.3
			c7.7,2.2,13.2,7.1,15.5,14.9c0.8,2.5,0.9,5.2,0.9,7.9c0.1,2.6,0.8,4.5,3.1,5.8c1.2,0.6,2.1,1.6,3.2,2.4c5.4,3.8,7.3,8.8,5.7,15.6
			c2.4,0.5,4.8,1,7.2,1.3c5.9,0.9,11.1,3.3,15.6,7.3c4.5,4,6.2,9.1,6.1,15.1c-0.1,6.8-2.8,12.2-7.3,16.9c-0.7,0.7-1.3,1.5-2.3,2.7
			c2.8,1.6,5.4,3,7.9,4.4c6.1,3.4,10.5,8.1,12.3,15c2.1,7.6,1.5,14.5-4.2,20.4c-11,11.3-24,18.9-39.7,21.4c-2.1,0.3-4.3,0-6.7,0
			c-0.1,4.1-1.2,7.9-4.7,10.4c-1.9,1.4-3.7,2.9-5.9,3.7c-6.5,2.4-13.3,3-20.1,1.2c-5.1-1.3-8.7-4.7-11.8-9.2
			c-6.3,1.9-12.7,2.6-18.6-1.9c-0.8,1-1.5,1.7-2,2.5c-4.2,7.3-10,13.5-16.1,19c-6.3,5.6-14.2,8.2-22.7,4.6
			c-3.6-1.6-7.1-3.7-10.5-5.7c-2.6-1.5-5.1-3.2-8.8-3c-1,6.3-2,12.6-5.8,18.1c-3.7,5.5-8.9,9.3-14.4,12.9c0.4,2.2,0.7,4.2,1,6.1
			c0.5,3-0.5,5.6-2.4,7.8c-2.9,3.3-6.3,5.9-10.5,7.3c-2,0.6-3.5,1.6-4.5,3.6c-6.2,12.1-16.3,19.2-29.2,22.2
			c-5.9,1.4-9.1,5.1-11.7,9.9c-0.8,1.4-1,2.8-0.1,4.2c3.6,6.3,2.7,12.4-0.5,18.5c-0.9,1.8-1.5,3.7-2.6,5.4c-2,3-4.2,5.8-6.6,9.2
			c1,1.4,2.3,3.3,3.8,4.9c6.6,6.7,8.8,15.1,9.7,24c0.3,2.7,0.8,4.5,3.3,6.1c4.8,3,5.5,8,5,13.2c-0.2,1.8-0.6,3.5-0.9,5.5
			c3.5-1.4,6.4-2.4,9.2-3.7c0.8-0.4,1.5-1.2,2-2c3.6-5.8,7.1-11.6,10.9-17.9c-0.3-0.5-1-1.6-1.6-2.7c-1.7-3.2-1-6.1,1.9-8.3
			c1-0.8,2.2-1.4,3.1-2.3c3.9-4,10.7-3.1,13.7,1.7c4.4,6.9-0.7,13-6.2,15.1c-3.5,1.3-5.5,3.3-7.1,6.3c-2.3,4.1-4.8,8-7.1,12
			c-1.6,2.9-1.5,3.2,1.3,6.1c3.8-2.6,7.6-5.3,11.5-7.8c2.4-1.5,4.1-3.3,4.7-6c0.3-1.1,0.6-2.3,1.3-3.2c3.1-4.4,5.7-6.8,11.5-3.8
			c6.7,3.5,8.9,6.5,4.1,15.3c-2.8,5.1-5.3,6.3-9.6,5.2c-1.8-0.5-3.4-1.8-5.4-2.9c-3.6,2.9-7.3,6-11.1,8.9c-4.3,3.3-5.9,7.4-4.4,13.1
			c3.5-0.8,6.9-0.4,9,2.8c1.5,2.2,2.9,4.6,3.3,7.2c1,5.4,0.2,10.7-3.1,15.2c-1.2,1.7-3,3.4-4.8,4.1c-7.1,2.4-11,7.7-13.5,14.3
			c-0.5,1.4-0.4,3.6-2.8,3.4c-2.4-0.2-2-2.3-2.1-3.9c-0.3-2.9-0.7-5.7-4.6-7c-1.5,1.3-3.3,2.8-4.9,4.4c-1.4,1.4-1.4,1.5-4.5,0.9
			c0.6-5.6,4-11.4-0.1-17.1c-3.7-0.1-5.6,2.3-7.5,4.6c-1.3,1.6-2.5,3.2-5.2,1.7c1.4-7.8,6-15.4,3.7-24.5c-4.1,1.7-7.1,3.9-9.3,7.1
			c-1.3,1.9-2.3,4-3.5,6.1c-0.5,0.9-0.8,1.9-1.5,2.5c-0.7,0.5-1.8,0.9-2.6,0.7c-0.5-0.1-1.2-1.1-1.3-1.8c-0.2-2-0.2-4-0.1-6
			c0-2.7-0.4-5.2-2-8.1c-1.8,1-3.5,1.6-4.8,2.7c-4.4,3.6-8.1,7.9-10.2,13.4c-0.7,1.9-1.3,3.8-2.3,5.5c-0.5,0.8-1.8,1.5-2.7,1.5
			c-1.4,0-1.7-1.3-1.6-2.6C225.6,630.2,226.5,628.5,224.8,626.5z M243.3,472.7c-3.7,2.8-4.5,2.9-7.2-0.3c-1.2-1.4-2.7-2.3-4.3-1.5
			c-2.2,1-4.3,2.4-5,5.7c2.3,0.2,4.3,0,6.1,0.5c2,0.6,3.8,1.8,6.2,2.9c2.6-2.5,5.6-4.9,8-7.8c1.9-2.3,2.3-5.1,0.1-8
			c-1,0.4-1.9,0.9-3.2,1.4c0.8,2.4,3.1,4.7-0.1,6.6c0.9-2.9-0.6-4.6-2.9-6.3c-1.9,0.9-3.8,1.8-5.9,2.8c1.7,2.1,3,3.7,4.2,5.2
			C240.9,473.5,242.1,473.1,243.3,472.7z M305.1,451.8c-2.9,4.3-2.8,4.8,1.7,6.9c0.2,0.1,0.6-0.1,1.5-0.1c0.8-1.3,1.8-2.9,2.9-4.7
			c-1.8-0.9-3.1-1.5-4.4-2.2c1.8,0.2,3.6,0.4,5.5,0.5c2.6,0.2,4.8-0.6,6.4-2.7c-2.2-2.8-3.2-3.3-6.5-4.3c-2-0.6-3,0.7-4.5,1.3
			c-1.9,0.7-4.1,1.1-6.2,1.3c-3.6,0.3-5,1.5-5.5,5.1c-0.4,2.7,0.4,5,2.6,6.6c1.5,1,2.3,2.2,2.7,3.9c0.1,0.6,1,1.1,1.8,2
			c1.3-1.8,2.3-3.2,3.3-4.5C300.7,455.6,300.7,454.9,305.1,451.8z M113.1,313.1c-0.7,0.9-1.1,1.5-1.6,2.1c-2,2.2-4.3,4.2-6,6.6
			c-3.7,5.3-6.4,11.3-8.2,17.6c-0.9,2.8-1.4,5.9-1.4,8.8c-0.1,5.4,3.5,8.2,8.9,7.1c2.1-0.4,4.1-1.3,6-2.4c1.7-1,3.2-2.4,4.7-3.7
			c1.1-1,2.2-1.5,3.6-0.2c-0.2,0.8-0.3,1.8-0.6,2.7c-1,4.1,1.5,10.4,5,12.6c6.3,4,14.9,0.3,16.5-7c0.3-1.3,0.4-2.5,0.6-3.9
			c0.9-0.2,1.6-0.5,2.2-0.4c1.1,0.1,2.3,0.4,3.4,0.6c7.9,1.4,14.8-1,21.2-5.4c6-4.1,7.4-10.4,7.7-17c0.5-8.4-0.8-16.6-3.3-24.6
			c-0.3-0.9-0.4-1.8-0.6-3.3c6,2.9,5.2,9.3,7.9,13.5c9.9-5.2,11.3-13.4,9.2-23.3c3.6-0.6,7.3,0.7,10-1.9c2.5-2.4,4.6-5.1,7.1-7.9
			c1.7-0.3,3,0.5,4.5,2c4.3,4.4,9.4,6.6,15.8,5.4c5.4-1,10.8-1.6,16.2-2.4c0.5-0.1,0.9,0.2,1.5,0.3c-0.7,0.8-1.4,1.5-2,2.2
			c0.2,0.6,0.4,1,0.6,1.5c2.5,5.3,6.7,9.1,11.7,11.9c3.7,2,7.5,0.4,11.2-0.3c0.3-0.1,0.7-0.1,1-0.1c1.8,0.1,3.7-0.6,5.9,0.6
			c-2.4,1.1-4.2,1.9-5.8,2.6c-0.1,0.5-0.2,0.7-0.2,0.8c2.5,5.4,5.2,10.6,10.6,13.8c0.5,0.3,0.9,0.8,1.2,1.3c2.1,3.7,5.6,4.3,9.4,4.2
			c1.7,0,3.3-0.5,5-0.4c2.5,0,5.1-0.5,8.3,0.7c-2.6,1.1-4.4,1.8-7,2.8c1.6,1.5,2.7,3,4.2,3.9c4.4,2.5,9.6,1.9,13.3-1.8
			c3.4-3.3,5.7-7.3,7-11.9c0.2-0.8-0.2-1.8-0.3-2.3c-4.3,0.2-8.3,0.4-12.3,0.6c-5.4,0.3-9.9-2.4-14.7-4.3c-1.4-0.5-2.6-2.1-3.4-3.5
			c-4.8-8.6-4.7-17.1,0.5-25.5c1.6-2.5,3.5-4.9,5.3-7.4c-0.9-1.9-1.7-3.7-2.6-5.4c-1.6-3.1-1.8-6.4-0.8-9.7c2.1-7,5.7-12.7,12.5-16
			c2.2-1.1,4.5-2.2,6.8-3.1c2.1-0.8,3.4-1.9,3.2-4.3c-0.3-3.1,0.6-6.1,2.4-8.5c1.8-2.4,1.7-4.5,0.6-7c-0.4-1.1-0.7-2.2-1-3.3
			c-2.1-9.1-8.2-14.4-16.8-16.7c-3.9-1-8.2-1.5-12.1,1c-3.4,2.2-3.5,2.2-5.9-1.1c-2.9-4-6.3-7.5-10.7-9.6
			c-5.2-2.5-10.6-4.7-16.1-6.7c-4.4-1.6-9.2-1.7-13.8-1.2c-6.9,0.8-9.7,5.7-7,12.2c0.2,0.5,0.4,0.9,0.6,1.4c0.6,1.2,0.5,2.3-0.7,3
			c-1.2,0.8-2.2,0.3-3.1-0.5c-1.7-1.6-3.3-3.4-5.2-4.6c-10.8-7-22.8-10.7-35.5-12.2c-4.5-0.5-9,0.2-13.2,1.9
			c-5.5,2.2-8,6.2-7.7,12.1c0.1,1.3,0.3,2.7,0.3,4c-0.1,3-1.9,4-4.2,2.2c-2.6-2-5.4-3.6-8.6-3.5c-4.8,0.1-9.6,0.4-14.3,1.2
			c-10.9,2-21.2,5.6-29.9,12.9c-3.1,2.6-5.8,5.4-7.5,9.2c-1.3,2.8-2,5.6-0.8,8.7c2.8,7.3,7.1,13.1,15,15.6c1,0.3,2,0.9,3.1,1.3
			c-1.6,2.4-1.6,2.6-3.8,2.5c-3-0.2-5.7,0.7-8,2.4c-3.1,2.2-6.2,4.5-8.9,7.2c-8,8.1-14.1,17.3-16.4,28.6c-1.6,7.8,1.7,14.5,8.6,18.5
			c5.2,2.9,10.7,3.5,16.4,2.2C109.4,312.4,110.9,311.5,113.1,313.1z M296.3,274.7c3-0.7,4.9-4.2,9.3-3c-1.3,1.3-2.1,2.3-3,3.1
			c-1.6,1.4-3.7,2.4-5,4.1c-2.7,3.6-5.2,7.3-7.5,11.2c-3.9,6.6-2.4,13.1,0.9,19.5c0.4,0.8,1.2,1.8,2.1,2.1c4.4,1.5,8.4,4,13.2,4
			c4.2,0,8.3-0.4,12.3-1.7c1.2-0.4,2.8-0.6,3.7-0.1c3.5,2.1,6.3,1,9-1.3c-0.1-3.2-3.3-6.3,0.6-9.6c0.7,1,1.4,1.9,1.9,2.8
			c1.6,2.7,2.9,5.7,4.9,8c1.7,1.9,4.2,2.9,6.4,4.4c6.2,4.3,12.6,6.5,20.1,3.2c2.5-1.1,5.3-1.7,7.9-2.5c0.1,0.2,0.2,0.4,0.3,0.7
			c-1.6,1.5-3.1,3-4.7,4.5c4.9,5.5,8.5,6.7,14.8,4.7c2.5-0.8,4.9-2,7.4-2.9c3.4-1.2,6.6-3,11-3.4c-2,1.6-3.4,2.6-4.9,3.7
			c0.2,1.7,0.5,3.2,0.6,4.6c0.1,5.1,2.2,9.7,3.9,14.3c1.2,3.1,3.5,4.4,6.7,4c1.8-0.2,3.6-0.7,5.3-1.1c1.6-0.3,3.1-0.7,4.6-1.1
			c0.2,0.3,0.3,0.7,0.5,1c-1.4,1-2.8,2.1-4.3,3c-4.1,2.3-8.5,2.2-13,1.2c-1.1,2.5-1.3,4.9-0.4,7c1.3,3.3,5.1,3.1,8.3,5.1
			c-3.6,1.2-3.8,3.5-3.5,6.1c0.6,5.6,3.3,10.1,7.7,13.5c2,1.6,4.4,2.4,7,1.5c2.8-1,5.6-1.9,8.4-2.9c1.3-0.5,2.6-1,4-1.6
			c0.1,0.2,0.3,0.4,0.4,0.6c-0.8,1.1-1.6,2.2-2.4,3.3c1.2,2.7,2.9,4.6,5.1,6.3c5.9,4.4,12.5,3.7,19.1,2.4c3.3-0.6,5.7-2.5,8-4.8
			c1.8-1.9,2.6-3.8,1.4-6.3c-0.4-0.9-0.8-1.9-1-2.8c-0.1-0.9-0.3-2.4,0.2-2.7c0.8-0.5,2.1-0.4,3.2-0.4c0.5,0,0.9,0.5,1.4,0.6
			c2.8,0.4,5.7,1.3,8.3,0.9c14.2-2.4,26.3-9.1,36.3-19.5c2.2-2.3,4-5,4.2-8.3c0.5-9.2-2.1-17.2-10.5-22.2c-3.5-2.1-7.4-3.6-11.1-5.5
			c-1.1-0.5-2.1-1.2-3.9-2.2c5.2-2,8.3-5,10.8-8.9c7.3-11.7,1.3-26.5-12.2-29.3c-4-0.8-8.2-0.8-12.4-1.1c-1.2-0.1-2.4-0.3-4.2-0.5
			c2.1-4,3.6-7.4,2.4-11.4c-1.3-4-4.4-5.9-8-8.1c-1.2,2.7-2.1,5.2-3.3,7.5c-1.3,2.4-2.4,5.1-6.3,5.6c0.8-1.7,1.3-2.8,1.9-3.9
			c3-6.1,4.7-12.5,3.9-19.3c-1.1-9.6-7-16.4-14.9-18.1c-8.3-1.8-16.6-1.7-24.1,3c-1.7,1-3.3,1.8-5.1,0.6c-1.7-1.2-0.4-2.7-0.2-4.1
			c1-6.5,0.5-12.6-4.4-17.7c-2.7-2.8-5.8-5.1-9.4-6.4c-10-3.6-20.2-4-30.4-0.8c-7.4,2.3-14.3,5.5-18.4,12.7
			c-0.3,0.5-1.1,0.6-2.4,1.3c-0.4-0.7-0.8-1.4-1.2-2.1c-3.8-5.6-6.4-6.5-12.6-4c-0.9,0.4-1.8,0.8-2.7,1.3
			c-7.2,3.7-13.4,8.7-19.1,14.4c-2.8,2.9-4.3,6.3-3,10.6c1,0.2,1.9,0.4,2.9,0.4c1.2,0,2.3-0.4,3.5-0.5c0.8-0.1,1.6,0.1,2.5,0.1
			c-1.1,0.9-2.2,1.3-3.2,1.6c-6.2,1.9-12.5,3.5-18.1,6.9c-4.9,2.9-7.8,7-9.9,12.1C291.9,266.8,293,270.9,296.3,274.7z M247.8,408.8
			c-1.7-14.7,3.9-20.9,13.5-23.9c5.2-1.7,9.7-4.4,13.6-8.1c2.2-2.1,3.7-4.6,4.5-7.6c1.3-4.8,1.4-9.5-0.1-14.2
			c-1-3.1-1.2-6.2-0.5-9.4c1.1-4.8,1.9-9.7,3-15c-1.7-0.7-3.4-1.4-5.5-2.2c-0.9,2.2-1.7,3.8-2.1,5.6c-1,4.7-1.8,9.5-2.5,14.2
			c-0.2,1.1-0.3,2.4,0.1,3.4c2.2,4.7,2.1,9.6,2,14.6c0,2.3-0.5,4.4-2,6c-2.3,2.4-4.7,4.6-7.4,6.5c-3.9,2.7-8.6,3.4-13.2,4.1
			c-4.4,0.6-8,2.6-10,6.6c-1.6,3.2-2.9,6.7-4.2,10.1c-0.4,1.1-0.5,2.4-2.8,1.9c0.1-2.6,0.3-5.3,0.4-7.9c-1.4-1.7-3-3.3-4.1-5.1
			c-5-8.3-4.1-13.1,0.3-18.3c0.8-0.9,1.5-1.8,2.2-2.7c4.2-5.8,9.1-11.2,11.1-18.2c1.5-5,2.9-10.1,1.3-15.6
			c-0.9-3.2-0.9-6.9-0.6-10.3c0.4-5.5,2.3-10.3,6.7-13.9c0.2-0.2,0.1-0.6,0.3-1.5c-1.2,0.3-2.5,0.1-3.1,0.7c-2.2,2-4.4,4.1-6.1,6.6
			c-2.7,4-3.7,8.5-1.9,13.3c0.8,2.2,1.3,4.4,1.7,6.7c1.1,5.8-3.1,9.9-8.8,8.4c-1.7-0.5-3.4-1.4-4.9-2.4c-4.7-3.2-9.3-6.4-14.7-8.3
			c-1.7-0.6-3.6-2.3-4.2-3.9c-1.8-4.5-3.6-9.1-0.9-14.2c2.9-5.5,6.6-10.3,10.6-15.1c1-1.2,2.7-2.1,2.2-4.1c-5.1-1.5-5.7-1.4-8.3,2.6
			c-2.2,3.3-4,6.9-6,10.3c-2.1,3.5-3.1,7.3-4,11.2c-1,4.2,0.4,7.4,2.7,10.6c3.8,5.2,9.3,7.8,14.7,10.9c3.2,1.8,6.3,3.7,9.3,5.8
			c5.3,3.9,5.6,8.3,1.2,13c-3.9,4.1-7.8,8.2-13.1,10.7c-1.8,0.8-2.9,2.1-2.5,4.3c0.1,0.5-0.4,1.1-0.7,2c-4.3-1.9-8.3-0.8-12.3,0.4
			c-5.7,1.8-11,0.2-14.5-4.6c-2.2-3.1-4.3-6.4-5.4-10c-1.9-5.7-5.3-9.8-10.5-13c-1.2,1-2.5,2-4.2,3.4c7.5,4,10.7,10.5,13.8,17.2
			c1,2.1,2.2,4.1,3.4,6.1c2.1,3.7,5.3,6,9.4,6.7c2.9,0.5,5.9,0.7,8.9,0.9c7.4,0.3,13,3.7,16.6,10.2c0.3,0.5,0.2,1.3,0.3,2.8
			c-2.7-2.5-4.7-4.3-6.8-6.3c-2.2,3.5-1.7,6.8-0.9,10c1.9,8.3,6,14.8,15.1,16.6c1.1,0.2,2.2,0.7,3.3,1c6.2,1.3,12.3,2.7,18.5,3.7
			c4.4,0.7,8.9,0.7,13.4,1.1c6.5,0.7,14.1,8.4,9.7,15.9c-1,1.7-1.6,3.7-2.8,5.2c-2.4,3-5.1,5.7-7.7,8.5c-1.5,1.6-2.9,3.1-3.2,6
			c4.6-0.7,8.8-1.3,13-2c-6,4.9-13.6,4.7-20.6,6.9c1.7,4.9,0,8.7-3.1,12.1c-1.5,1.6-3.1,3-4.7,4.5c-3.4,3.1-6,3.5-9.8,1
			c-1.5-1-2.8-1.5-4.6-1.5c-1.8,0-3.6-0.3-5.3-0.4c-3.1,5.1-4.2,10.3-2.8,15.9c0.8,3.4,0.9,6.9,0,10.4c-0.3,1,0,2.1,0,3.7
			c2.1-1.1,3.7-1.9,5.2-2.7c-2.5,5.8-8.5,7.2-13.2,10.9c2.1,2.8,4,5.2,5.8,7.7c2,2.6,3.4,5.4,1.8,8.7c-0.4,0.9-0.6,1.9-0.8,2.6
			c1.3,1.8,2.4,3.5,3.5,5.1c2.1,3.2,1.7,6.2-0.2,9.4c-1.9,3.1-4.9,4.7-8.3,4.7c-3.8,0-5.4,1.8-6.1,5c2.1,3.2,4.5,6,5.9,9.3
			c1.6,3.7,4.4,5.9,7.3,9c1.5-3.2,2.7-5.9,4.1-8.5c4.4-8.5,10.7-15.2,19.2-19.8c1.3-0.7,2.7-1.2,4.2-1.6c2.4-0.6,4.4,0.3,5.3,2.6
			c0.9,2.3,1.7,4.7,1.9,7.1c0.2,3.6-0.2,7.2-0.4,11.5c2.6-2.1,4.7-3.9,6.9-5.4c2.4-1.7,5-3,7.5-4.5c-0.9-9.1-3.1-17.3-8.9-24.3
			c-2.3-2.8-4.5-5.7-6.9-8.9c4.4-4.3,10.3-7.6,10.8-14.8c-2-0.5-4.1-0.6-5.7-1.6c-4.8-2.9-9.4-6.2-13.9-9.5c-2.4-1.7-2.7-3.7-0.9-6
			c1.5-1.9,3.5-3.6,5.4-5.1c1.7-1.3,3.4-2.4,3.8-4.9c0.1-1.1,1.3-2.4,2.4-2.9c3.1-1.5,6.6-3.4,10-2.5c5.3,1.4,9.6-0.6,14.2-2.3
			c0.9-0.3,1.9-0.5,2.9-0.8c5.7-1.9,11.2-4.1,15.9-8.4c-1.5-2.5-2.5-5.3-4.4-7.1c-4.2-3.8-3.4-8.1-1.9-12.4c1.4-3.9,4.9-4.7,8.6-4.7
			c2,0,3.6-0.3,4.9-1.9c1.2-1.5,2.6-1.7,4.4-1.1c3.9,1.2,8.1,1.6,10.6,5.2c3.5-2.6,3.6-5.6,2.6-9.2c-1.2-4.4-0.7-5.3,3.1-7.8
			c5.2-3.4,9.6-7.7,12.7-13.2c2.3-4.2,3.8-8.6,4.5-13.9c-2.8,0.8-5.1,1.5-7.3,2.2c-0.3-0.5-0.7-0.9-1-1.4c0.7-0.2,1.4-0.3,1.9-0.7
			c6.1-4.5,13.9-4.1,21.1,0.2c2.9,1.7,5.8,3.3,8.6,5.1c6.4,4,13.7,1.3,18.8-3.2c6.2-5.5,11.7-11.9,17.4-17.9
			c0.9-0.9,1.5-2.1,2.3-3.3c-1-1.4-1.9-2.6-2.8-3.9c-3.7,2.2-6.2,5.3-8.2,8.8c-2.3,4-5.6,7-9.3,9.6c-3.5,2.5-7,4.5-11.5,2.7
			c-0.7-0.3-1.6-0.1-2.5,0c-2.3,0.1-4.1-0.8-5.9-2.2c-2.8-2.1-5.6-4.2-8.6-5.9c-5.8-3.3-11.8-4.5-17.8-0.3c-0.2,0.1-0.6-0.1-1.2-0.2
			c0.8-1.1,1.6-2.1,2.4-3.2c-0.7-1.6-1.4-3.1-1.9-4.6c-1.1-3.1-0.4-6.3,2.3-7.9c3.9-2.5,8.1-4.7,13-4.6c2.5,0.1,5,0.2,7.5-0.1
			c2.1-0.2,4.4-0.5,6.2-1.4c8.1-4.2,16-8.8,24.1-13.1c3.3-1.7,5.5-4.1,6.8-7.8c-0.7-0.8-1.5-1.8-2.4-2.7
			c-14.4,13.5-14.7,13.6-24.4,13.3c-0.2-0.4-0.5-0.9-0.6-1.3c-1.7-6.7-5.7-11.4-12.2-14c-2.1-0.8-4-2.3-5.6-3.9
			c-3.7-4-5.9-8.8-6.5-14.3c-0.3-2.5-0.4-2.5-3.5-3.2c-0.1,3-0.6,6-0.2,8.9c1,8.5,6.3,13.8,13.9,16.8c4.1,1.6,6.4,4.5,8.3,8.1
			c2.5,4.7,0.9,10.7-6.4,10.5c-3.2-0.1-6.4-0.2-9.5,0.1c-2.4,0.2-5,0.8-7.1,1.8c-3,1.5-5.7,3.4-8.3,5.4c-5,3.7-8.7,8.4-8.5,15
			c0.1,4,0.8,7.9,1.3,11.8c1.1,7.5-3.9,13.9-11.3,14.6c-2.3,0.2-4.7,0.2-7,0.1c-2.5-0.1-4.4,1-6.1,2.8c-2.1,2.3-2.5,5-2.8,7.8
			c-0.3,3.1-1.2,5.7-4.5,7.7c0-6,2.6-11.8-1.7-17c-5.9,5.5-9.7,5.2-14.3-0.7c-0.5-0.6-1.1-1.3-1.8-1.6c-5.9-2.7-5.9-2.7-6.1-9.7
			c-1.7-0.1-3.5-0.4-5.3-0.4c-3.3,0-6.7,0.3-10,0.1C253.4,405.7,250.5,405.5,247.8,408.8z M250.1,552.1c-2.8,0.2-5.1,1.5-7.2,3.1
			c-8.1,5.8-13.5,13.7-16.8,23c-1.3,3.7-2.2,7.6-3.1,11.5c-0.5,1.9-1.4,2.5-3.4,1.9c-0.1-1.1-0.3-2.2-0.3-3.3c-0.1-1.3,0-2.7-0.1-4
			c-0.2-2.8-1.3-5.4-4-6.4c-2.6-0.9-4.5,1-6,2.7c-3.6,4.1-6,8.9-6,14.4c0,3.9,0.8,7.9,1.3,11.8c0.2,1.8,0.6,3.6,0.6,5.4
			c0,0.7-1.1,1.4-1.7,2.1c-0.7-0.6-1.7-1-1.9-1.8c-0.6-1.5-0.6-3.3-1.2-4.8c-0.3-0.9-1.2-1.6-1.9-2.6c-6.6,7.8-2.8,14.9,0.5,21.8
			c-2,2.1-3.4,1.7-5.3,0c-2.2-2-4.8-3.5-7.4-4.9c-0.7-0.4-1.9,0.3-3.1,0.5c3.6,7.5,10.8,13.1,18.9,15.1c2.8-3.4,5.1-7.9,11.4-8.7
			c0.3,0.6,0.9,1.8,1.5,3c4.8-4.5,7.6-11,15-9.2c2.6-3,4.8-6,7.5-8.3c2.4-2.2,5.3-4,8.3-5.4c3.5-1.6,5.5-0.3,6.8,3.4
			c0.5,1.5,0.8,3.1,1.3,5.1c1-1,1.6-1.7,2.3-2.4c3.1-3.1,6.5-5.7,10.8-6.8c3-0.8,5,0.5,5.2,3.6c0.1,3.1-0.2,6.3-0.5,9.4
			c-0.1,1.8-0.5,3.5-0.8,5.6c1.5-0.4,2.4-0.7,3.3-0.9c5.1-0.8,7.5,0.7,8.7,6.4c0.2,1.1-0.1,2.3-0.1,3.5c0,0.9,0.1,1.8,0.1,3.1
			c4.7-2.1,8.3-0.5,11.5,2.6c0.7-0.9,1.1-1.4,1.5-1.9c2.4-3.6,5.2-6.2,9.7-7.1c2.1-0.4,4.3-2.1,5.6-3.8c3.5-4.5,3.3-13.3,0.2-18
			c-2.8-4.1-6.3-4.1-9.2,0c-0.6,0.8-0.9,1.9-1.6,2.5c-0.7,0.6-1.8,0.8-3.2,1.4c0.3-1.4,0.2-2.1,0.5-2.7c2.5-4.7,2.9-9.9,2.5-15
			c-0.3-4.9-1.7-9.5-5.5-13c-3.2-3-5.3-3.2-8.9-0.8c-3.6,2.3-6.2,5.5-8.1,9.3c-0.8,1.5-1.5,3-2.5,4.3c-0.8,1-1.9,1.3-3-0.2
			c0.5-1.1,0.9-2.3,1.5-3.5c2.5-5.1,4.3-10.5,5.1-16.1c0.3-2.4,0.1-5-0.6-7.3c-1.4-4.4-5.8-6.2-10.1-4.4c-3.8,1.5-6.8,4.2-9.1,7.5
			c-1.4,1.9-2.5,3.9-3.7,5.9c-1,1.7-2.3,2.7-4.7,2.1c0.4-2.3,0.8-4.3,1.3-6.4c1.1-5,1.8-10.1,1.6-15.3
			C253,556.4,252.5,553.9,250.1,552.1z M323,318.4c-0.2,0.4-0.9,1.1-0.9,1.8c-0.2,5-3.4,8.6-5.9,12.5c-3.2,5-9.8,7.7-16.2,6.1
			c-3.8-1-7.2-2.6-9.6-5.8c-1.3-1.9-2.9-2.7-5.4-1.3c-1.6,5.9-2.7,12.1-2.6,18.4c0,1.6,0.2,3.4,0.9,4.9c3.1,7,0.2,20.3-6.5,25.5
			c-4.2,3.3-8.5,6.3-13.8,7.7c-2.2,0.6-4.3,1.8-6.3,2.9c-4.9,2.6-6.1,7-5.9,12.7c1.9,0.1,3.6,0.7,5,0.3c6.6-2.1,13.5-1.8,20.3-2
			c3.1-0.1,6.4,0.2,9.2,1.3c5.6,2.1,9.9,6,12.5,11.6c0.5,1,1.2,1.9,2,3.1c4-4.2,8.8-4.8,13.9-4.7c1,0,2,0,3-0.2
			c0.8-0.2,1.7-0.4,2.2-1c3.1-3.1,5.1-6.6,3.8-11.2c-0.5-1.9-1.2-3.8-1.4-5.8c-0.9-8.9,1.8-16.5,9.4-21.7c3.7-2.5,7.9-4.1,11.8-6.3
			c2.8-1.6,5.8-2.1,9-2.2c2.8-0.1,5.5-0.1,8.3,0.2c2.3,0.3,3.5-0.9,3.4-3.2c-0.1-3.8-1.7-6.7-5.1-8.6c-1.7-0.9-3.5-1.8-5.3-2.7
			c-9.5-4.4-13.2-12.1-12.8-22.2c0.1-2.4,1.2-5.2,0.3-7.2c-0.9-2-3.6-3.3-5.5-4.8c-0.2-0.2-0.6-0.2-0.4-0.2
			C330.5,317,327,317.6,323,318.4z M174.6,348c0.6,0.7,0.8,1.1,1.1,1.2c4.6,2.8,7.4,6.7,9,12c1.1,3.6,3.3,6.9,5.6,9.9
			c2.6,3.6,6.4,4.3,10.6,2.7c2.3-0.9,4.8-2.2,7.1-2.1c4,0.2,6.8-2.1,9.6-4c4.2-2.9,8.1-6.3,11.9-9.8c2.2-2.1,2.2-3.7,0.5-6.3
			c-1-1.5-2.3-2.8-3.8-3.9c-2.5-1.7-5.1-3.1-7.7-4.5c-4.8-2.6-9.6-5.3-13.5-9.2c-5.1-5.1-7.2-11-4.7-18.1c2-5.9,4.5-11.4,8.7-16.1
			c1.8-2,3.6-4.1,5.6-6.5c-2.8-1.7-5.2-3.2-7.6-4.7c-3,4.4-6.6,7.2-11.4,8.2c-1.7,0.4-2.4,1.6-2.3,3.4c0.1,1.3-0.1,2.7-0.1,4
			c-0.2,4.6-1.9,8.4-5.4,11.3c-1.9,1.6-4,3-6,4.4c-1.5,1-2.3,2.1-2.1,4.1C180.4,332.5,179.6,340.6,174.6,348z M236.5,389.5
			c0.4-0.4,1-0.8,1.4-1.3c3.2-4.9,7.7-7.6,13.5-8.5c2.1-0.3,4.2-1,6.2-1.7c11.1-3.8,15.2-12,11.5-23.1c-1.4-4.1-1.4-8.2-0.6-12.3
			c1.2-5.6,2.8-11.2,4.1-16.6c-4-5.6-8.1-11.3-12.4-17.3c-1,0.4-2.2,0.7-3.3,1.3c-8,4.2-9.9,12.7-8.4,21.1
			c1.2,6.4,0.3,12.5-0.9,18.5c-0.8,4.1-3.4,7.9-5.6,11.5c-2.4,3.8-5.3,7.2-8,10.8C229.4,378.2,230.2,383.8,236.5,389.5z
			 M395.3,359.3c-4,2-8.1,4.3-12.4,6.1c-1.6,0.7-2.8,1.6-4,2.7c-4.9,4.2-10.2,7.5-17.1,6.7c-2.5-0.3-5-0.3-7.5,0
			c-4.8,0.6-9.2,2.4-12.6,6.1c0.7,2.6,1.3,4.8,1.9,7c3.3,0.2,6.3,0,9.2,0.6c6.1,1.2,11.7,3.7,16.5,7.8c3,2.5,6.8,3.3,10.3,1.8
			c4.4-1.9,8.5-4.8,11.1-9c2.7-4.3,5.6-8.3,9.7-11.3c1.4-1,1.6-2.2,1.4-3.9c-0.3-2.9-0.3-5.8-0.5-8.7
			C399.6,363.4,397.6,361.4,395.3,359.3z M246.7,305.6c-3.1-4.1-5.9-7.9-8.8-11.7c-0.5-0.6-1.4-1.3-2-1.2c-3.7,0.4-7.6,0.4-10.2,4.1
			c-3.6,5.2-7.7,10.1-11.3,15.2c-1.4,2-2.5,4.3-3.3,6.7c-1.5,4.3,1,10.5,5,11.5c5.6,1.5,10.2,4.8,14.8,8c1.7,1.2,3.6,2.1,5.4,3
			c2.2-2,2.8-3.9,2.2-6.2c-0.5-1.8-0.8-3.6-1.4-5.3c-2.4-7.2-0.7-13.4,4.4-18.9C243.2,309.1,245,307.4,246.7,305.6z M350.1,325.8
			c0,1.3-0.2,2.5,0,3.5c1,4.1,3.2,7.6,6.1,10.7c1.7,1.8,3.5,3,6,3.1c3.1,0,5.4,1.6,7.2,3.9c2.2,2.9,4.2,5.9,6.5,9.2
			c2.7,0.7,5.6-0.1,7.9-2.1c3.6-3.1,7.1-6.5,10.5-9.9c0.6-0.6,1.1-1.8,0.9-2.6c-0.8-4.2-1.8-8.4-2.7-12.8c-2,0.8-3.8,1.5-5.7,2.3
			c-8.1,3.3-15.5,2.7-22-3.8c-0.8-0.8-2.3-1.2-3.5-1.3C357.9,325.7,354.2,325.8,350.1,325.8z M202.6,523.2c0.9,0.9,1.7,1.5,2.3,2.2
			c0.7,0.9,1.1,2.1,1.7,3c0.5,0.8,1.2,1.6,1.9,2.2c2.5,2,2.5,2,1.2,4.6c-1.7,3.4-1.5,4.3,1.3,6.9c1,0.9,1.9,1.7,2.9,2.7
			c-1.3,2.3-2.9,3.4-5.2,3.9c-3.1,0.7-5.4,2.4-6.5,6c1.1,1,2.3,2,3.8,3.3c2.2-3.8,5.3-5.4,9.2-5.4c0.8,0,1.7-0.3,2.4-0.5
			c2.9-1.1,4.5-4.4,3.3-7.3c-0.6-1.5-1.5-3.1-2.7-4.1c-2.2-1.8-2.7-3.6-1.3-6c1.7-3.1,0.7-5.7-1.7-8c-1-1-2-2.2-2.7-3.5
			C209.7,518.4,207,518.3,202.6,523.2z M209.3,532.6c-2.2-1-3.9-2-4.4-4.5c-0.2-0.9-1.9-2-2.9-2c-1,0-2.3,1.3-2.7,2.3
			c-3.2,7-3.2,14.1-0.1,21.2c0.4,1,1.3,1.8,2.4,3.2c2.3-4.7,7.7-4.4,10.9-7.6C206.9,540.2,206.9,540.2,209.3,532.6z M268.4,505.7
			c-2.9-1.2-5.4-2.3-7.9-3.4c-0.8-0.3-1.6-0.4-2.4-0.6c-3.3-0.7-3.5-1-3.7-5c2.5-1.5,5.9-1.7,6.9-5.1c0.9-2.9,2.6-4.5,5.7-4.5
			c2.2,0,3.3-1.2,3.4-3.6c-4.1-1.8-7.8-0.5-11.4,1.3c-0.4,0.2-0.9,0.7-0.9,1.1c-0.6,3.8-3.6,5.3-6.4,7.2c-2,1.3-4.2,2.8-4.1,6.1
			c3.9,2.6,8,4.9,11.8,7.8c2.6,2,5.1,2.8,8.4,2.1C268.1,507.7,268.3,506.5,268.4,505.7z M167.7,591.7c-3.8,0.1-6.1,3-8.7,5.1
			c-0.2,0.2-0.2,0.6-0.3,0.9c-0.6,3.1,1.4,7,4.2,8.3c0.7,0.3,1.7,0.8,2.3,0.5c3.4-1.3,6.8-2.5,8.2-6.5
			C175,595.4,172.6,591.7,167.7,591.7z M184.6,562.1c1.1-5.3-0.9-9-6-10.8c-2-0.7-6.8,0.7-7.6,2.4c-1.2,2.4-2.1,5.1-0.9,7.6
			c1.3,2.6,4.1,1.4,6.3,1.7c0.5,0.1,1-0.1,1.5-0.2C180.1,562.6,182.3,562.3,184.6,562.1z M327.1,582.8c3.4-2.3,6.3-4.6,6.1-9.1
			c-0.2-4.7-4.5-5.1-7.2-6.9C318.9,572.6,320.3,576.5,327.1,582.8z M276.5,405.4c-0.5,1.2-1.1,2-1.3,3c-0.6,2.5-0.2,3.7,2.2,4.1
			c2.9,0.6,4.6,1.9,5.9,4.5c1.3,2.5,3.9,2.4,5.7,0.2c0.9-1.1,1.5-2.5,2.4-3.9C287.5,408.5,282.8,405.7,276.5,405.4z M318.9,552.2
			c-0.4-1.2-0.6-1.8-0.9-2.4c-1-2.7-3-5.1-5.8-4.4c-2.6,0.7-4.8,3.2-7.1,5c-0.3,0.3-0.3,1.3-0.1,1.9c0.9,2.7,2.7,4.7,5.3,5.5
			c2.4,0.8,4.5-0.7,6.1-2.4C317.4,554.5,318.1,553.4,318.9,552.2z M255.1,498.6c3.9,1.6,7,2.9,10.2,4c0.7,0.2,1.8-0.5,2.9-0.8
			c-1.2-4.3-3.2-8.2-1.3-12.3c-1.9-1.1-3-0.4-3.5,1c-1,2.9-3.2,4.5-5.6,5.9C257,496.8,256.5,497.4,255.1,498.6z M180.7,566.2
			c7.4,6.9,14.2,13.3,21.4,20c0.2-1.2,0.7-2.1,0.4-2.6c-0.6-1.2-1.4-2.2-2.3-3.2c-3.5-3.5-7.2-6.9-10.6-10.5
			C187.4,567.6,184.9,566.3,180.7,566.2z M295.9,579.2c0.2,0.1,0.5,0.2,0.7,0.3c3.7-5.4,7.4-10.8,11-16.3c0.3-0.5-0.2-1.4-0.3-2.2
			c-0.7,0.1-1.9,0-2.1,0.4c-3,4.9-5.9,9.9-8.8,15C296,577.3,296.1,578.3,295.9,579.2z M176.1,604.8c5.3,1,10.2,3.2,15.9,3.4
			c-0.3-0.7-0.3-1.2-0.5-1.3c-4.5-1.7-8.9-3.5-13.4-5.1C176.7,601.4,176,602.5,176.1,604.8z M305.9,589.9c2.2-1.7,4.5-3.3,6.6-5.1
			c2.1-1.8,4.9-2.9,6.7-6C314.7,579.8,308.3,584.9,305.9,589.9z"/>
		<path d="M124.9,294.1c-5-0.2-7.9-2-9.7-5.7c-1.6-3.4-0.6-6.4,1.4-9.3c0.9-1.3,1.8-2.7,2.2-4.3c1.2-3.8,4.1-5.4,7.5-3.2
			c3.2,2,6.2,4.5,8.7,7.3c3.3,3.7,2,8.3-2.5,10.8c-1.1,0.6-2.2,1.5-3.3,2.1C127.6,292.9,125.9,293.7,124.9,294.1z M121.9,274.6
			c0.5,3.6-0.6,5.8-2.9,7.5c-1.3,1-1.4,2.6-0.8,4.1c1.5,3.8,6.5,5,9.6,2.3c1.1-0.9,2.3-1.8,3.5-2.6c2.3-1.5,2.6-2.9,0.6-4.8
			c-2.2-2-4.5-3.9-6.8-5.8C124.5,275,123.5,275,121.9,274.6z"/>
		<path d="M253.1,282.7c-2.4,0.4-4.1-0.8-5.4-3.1c-0.9-1.5-2.1-2.9-3.4-4.2c-4.1-4.3-4-6.9,0.3-10.8c1-0.9,2-1.8,2.8-2.8
			c3.5-4.3,6.8-3.1,9.8-0.4c2.1,2,3.9,4.6,5.1,7.3C265,274.8,259.7,282.7,253.1,282.7z M244.5,269.9c0.9,1.1,1.8,2.1,2.7,3.1
			c0.9,1.1,2,2.1,2.8,3.3c1.7,2.7,3.4,3.2,6.7,1.8c2.4-1,4-4.3,3-6.5c-1.1-2.4-2.5-4.7-4.1-6.7c-1.8-2.4-4.2-2.2-6.3,0
			C247.8,266.4,246.4,267.9,244.5,269.9z"/>
		<path d="M163.2,234.7c0-2.9,1-4.9,3.7-6.1c1.6-0.7,3.1-1.8,4.5-2.9c4-3,7.5-2.5,10,1.8c1.1,1.9,2.3,3.7,3.1,5.6
			c0.5,1,0.8,2.4,0.4,3.3c-1.3,3-2.6,6.2-5.4,8.2c-2.2,1.6-3.9,1.5-6.3-0.3c-1-0.8-2.1-1.5-3.3-1.8
			C165.3,241.8,163.1,239.2,163.2,234.7z M166.5,233.5c0.7,5,0.7,4.9,4.8,5.5c1.2,0.2,2.5,0.7,3.4,1.5c2.4,1.8,3.3,1.7,5.1-0.7
			c2.7-3.6,0.9-6.6-0.9-9.6c-1.8-3.1-3.9-3.4-6.2-0.6c-1,1.2-1.9,2.1-3.5,2.3C168.3,232.1,167.4,233,166.5,233.5z"/>
		<path d="M258.6,243.1c-0.2-1.4-0.4-2.1-0.3-2.7c1.4-4.2,8.5-7.2,12.4-5.4c3,1.4,3.7,3.3,2.1,6.7c-0.4-0.2-1-0.3-1.3-0.6
			c-3.1-3.4-5.3-3.6-8.9-1c-0.7,0.5-1.2,1.2-1.9,1.7C260.4,242.2,259.8,242.4,258.6,243.1z"/>
		<path d="M204.2,213c-3.7-6.3-3.7-6.3-11.2-6.2c-0.8,0-1.6-0.1-2.8-0.3c0.4-1.2,0.4-2.3,0.9-2.8c1.4-1.3,9.4-1.3,11-0.1
			C204.6,205.6,205.5,208.9,204.2,213z"/>
		<path d="M158.9,298.9c-4.9-6.6-4.4-5.5-11-3.7c-1.4-2-0.4-3.3,1.2-4.4c2.8-1.8,6.7-1.4,9.2,1C160.8,294.2,161,295.9,158.9,298.9z"
			/>
		<path d="M231,221.6c-0.8-0.2-1.5-0.4-2.1-0.5c-3.4-0.6-3.6-0.4-4,3c-0.2,1.5-0.1,3-1.9,3.5c-2.3-2.7-2.3-6.2-0.1-8.8
			c1.6-2,5.3-2.6,7.7-1.4C232.3,218.4,232.2,219.7,231,221.6z"/>
		<path d="M200,226.4c0.3,1.7,0.6,2.6,0.6,3.6c0,2.3,0.8,4.2,2.4,5.8c0.6,0.6,1.4,1.2,1.5,1.9c0.2,0.8,0,2-0.4,2.6
			c-0.3,0.4-1.7,0.5-2.2,0.2c-2.8-1.7-3.6-4.6-4.4-7.4C196.8,230.7,197,228.5,200,226.4z"/>
		<path d="M291,231.6c-0.1-2.8-3.7-5,0.2-7c4.8,5.2,3.8,10.7-2.3,12.8c-0.6,0.2-1.5-0.2-2.3-0.3c0.2-0.9,0-2.1,0.6-2.6
			C288.3,233.3,289.7,232.5,291,231.6z"/>
		<path d="M240.8,248.3c-0.2,2.9-1.2,3.9-3.2,3.3c-3.6-1.1-6.4-3.2-7.9-6.8c-0.7-1.7-0.2-2.8,1.5-3.8
			C233.7,244.2,235.8,248,240.8,248.3z"/>
		<path d="M148.4,341.1C142,340,142,340,138,344c-0.4-1.2-1-2.3-0.8-3.2c0.2-1,0.8-2.3,1.6-2.9c2.5-2,5.4-2.4,8.4-1.1
			C149.1,337.7,149.2,339.1,148.4,341.1z"/>
		<path d="M105.6,280.4c-2,0.8-4.1,1.6-6.3,2.4c-0.2,1.7-0.4,3.1-0.6,4.9c-1-0.1-2,0.1-2.4-0.3c-0.6-0.6-1-1.7-1-2.6
			c0-4.1,4.8-8.2,8.9-7.6C105.9,277.4,106.1,278.6,105.6,280.4z"/>
		<path d="M155.4,320c1.5,0.9,2.9,2.2,4.5,2.7c1.7,0.5,3.5,0.4,5.3,0.5c-0.1,3-0.9,4.2-3.3,4.1c-2.9,0-5.5-0.9-7.5-3.2
			C153.3,322.8,153.3,322.8,155.4,320z"/>
		<path d="M257.8,207.4c2.6,3.2,2.9,8,0.6,9.8c-1.4,1.2-3.5,1.7-5.4,2.1c-0.9,0.2-1.9-0.5-3.1-0.9c0.9-2.1,1.9-3,3.7-3.4
			c3.1-0.6,3-0.8,3.3-4.2C257.1,209.9,257.4,209,257.8,207.4z"/>
		<path d="M278.1,289.8c-0.8-0.4-1.3-0.6-1.6-0.9c-3.2-2.8-3.2-2.8-6.7-0.9c-1.3,0.7-2.4,1.2-3.1-0.6c2.9-4.3,7.1-5.9,10.2-4
			C279.3,284.9,279.7,286.7,278.1,289.8z"/>
		<path d="M214.6,251.2c4.4,6.8,2.4,11.5-5.8,13.2c-0.2-0.7-0.9-1.5-0.7-2.1c0.3-0.8,1-1.7,1.8-2.1c1.2-0.7,2.6-1.1,3.6-1.5
			C214.6,256,211.5,253.5,214.6,251.2z"/>
		<path d="M186.7,275.5c-4.8-4.1-4.8-4.1-9.9-3.2c-1.2-1.8-0.5-3.1,1.2-4c2.6-1.4,8.2,0.4,9.6,3C188.2,272.6,188,273.4,186.7,275.5z
			"/>
		<path d="M143,221.9c3.9,1.5,4.4,4.9,4.7,8.1c0.3,2.8-1.2,4.7-4,5.4c-2-2.4-2-2.4,0.7-5.3C145.4,227.2,140.5,225.7,143,221.9z"/>
		<path d="M138.1,307.7c1.8,5.4-2.4,10.8-6.6,10c-0.9-0.2-2.1-1.3-2.2-2c-0.1-0.8,1.3-2.4,1.8-2.3c3.4,0.6,4.7-1.5,6-4
			C137.5,308.8,137.8,308.2,138.1,307.7z"/>
		<path d="M116.5,336.4c-0.7-1-1.4-1.6-1.4-2.2c0.1-1.1,0.3-2.3,1-3.2c1.7-2.3,6.4-2.8,8.6-1c0.6,0.5,0.8,1.7,0.8,2.5
			c0,0.4-1.1,1.2-1.4,1.1C120.8,331.8,118.6,333.7,116.5,336.4z"/>
		<path d="M165.6,256.6c1,2.1,0.3,3.5-1.3,3.9c-2.6,0.7-4.2,1.7-3.6,4.8c0.1,0.6-0.9,2-1.5,2.1c-1.4,0.2-1.9-0.9-2.1-2.2
			C156.6,260.9,159.9,257.5,165.6,256.6z"/>
		<path d="M130.3,233.4c1.6,1.6,1.5,3.4-0.1,3.8c-2.5,0.8-3.3,3-4.8,4.5c-2,0-2.5-1.1-2.1-2.6C124.4,235.8,126.6,233.8,130.3,233.4z
			"/>
		<path d="M475.1,343.6c-0.1,6.6-4.2,10.1-9.6,9.1c-2.2-0.4-4-0.6-6.1,0.3c-3,1.3-6.2-0.9-6.4-4.1c-0.1-1.6,0.4-3.3,0.8-4.9
			c0.5-1.9,1.2-3.8,1.6-5.7c0.6-2.8,2.4-4.5,5-5c2.8-0.6,6-1.3,8.3,1.6c0.9,1.1,2,2.3,3.2,3C474.5,339.5,475.2,341.9,475.1,343.6z
			 M461.9,346.8c1.6,1.1,2.8,2,4.1,2.6c0.8,0.3,2,0.4,2.8,0c3.2-1.6,3.9-5.9,1.4-8.4c-1.6-1.6-3.4-3.1-5.1-4.6
			c-2.1-1.7-5.7-0.8-5.9,1.7c-0.2,2.8-1.5,4.9-2.8,7.2c-1.2,2.1-0.9,2.7,1.9,4.5c0.5-0.4,1-0.8,1.5-1.2
			C460.4,348.2,461,347.7,461.9,346.8z"/>
		<path d="M422.9,299c0.1,5.2-2.9,8.6-7.5,8.8c-2.3,0.1-4.3,0.3-6.6,1.5c-3.6,1.9-8.5-2.4-7.3-6.4c1.1-3.7,2.8-7.4,4.9-10.7
			c1-1.6,3.5-2.1,5.4-3.1c0.3-0.1,0.7-0.1,1,0c1.1,0.6,2.5,1,3.2,1.9C418.4,293.7,423.7,294.3,422.9,299z M410.5,304
			c1.4,0.4,2.4,0.8,3.6,1c2.6,0.3,4.5-1.2,5-3.7c0.6-2.6-0.4-4.5-2.6-5.6c-1.8-1-3.5-2.2-5.4-3.5c-0.7,0.8-1.6,1.5-2.2,2.4
			c-0.7,1.1-1,2.6-1.8,3.4c-1.1,1.1-3.3,1.3-2.8,3.5c0.4,1.6,1.3,3,2.1,4.4c0.2,0.3,0.8,0.4,1.3,0.6
			C408.4,305.8,409.3,305,410.5,304z"/>
		<path d="M447,254.8c0,1.5-0.8,4-2.5,6.1c-2.3,2.8-4.5,3.5-7.9,2.3c-1.6-0.6-3-0.8-4.7-0.6c-3.2,0.5-5.8-2.3-5.3-5.5
			c0.4-2.8,1.1-5.5,1.8-8.2c0.8-3,6.2-5.8,9.2-5c0.9,0.3,1.9,0.7,2.8,1C444.8,246.2,446.9,248.9,447,254.8z M439.9,261.4
			c0.9-1.3,1.7-2.2,2.3-3.2c1.9-3.2,1-7.9-2-9.8c-3.7-2.4-6-1.7-8.8,2.5c-0.2,0.3-0.4,0.5-0.6,0.8c-2.6,2.8-1.6,5.4,0.5,8.3
			C434.1,258.1,436.7,259.1,439.9,261.4z"/>
		<path d="M381.1,283c-1.1,2.6-2.5,4.9-3,7.4c-0.5,2.5-0.1,5.2-0.1,7.7c-1.6,1.2-2.6,0.1-3.3-1c-2-3.3-0.4-11.8,2.6-14.3
			C378.4,281.9,379.5,281.6,381.1,283z"/>
		<path d="M383.7,220.1c1-1.5,2.4-1.3,3.3-0.3c2.3,2.6,4.6,4.2,8.1,2.2c0.5-0.3,1.7,0.6,2.5,0.9c-0.3,0.9-0.5,1.9-1.1,2.5
			c-1.5,1.5-3.5,1.8-5.6,1.3C388.2,226,385.3,223.4,383.7,220.1z"/>
		<path d="M461.7,306.7c-4.1,2.2-7.9,4.3-12.2,6.6c-0.4-0.3-1.3-1-2.1-1.7C452.1,305.3,458,303.3,461.7,306.7z"/>
		<path d="M498.5,350.2c-1.1,0.6-1.8,1-2.5,1.4c-2.1,1.1-2.6,2.8-1.8,5c0.4,1.1,0.5,2.4,0.7,3.9c-4.2-1.6-4.9-2.8-4.9-6.8
			c0.1-2.8,1.5-4.4,4.7-5.4C496.3,347.8,496.7,348,498.5,350.2z"/>
		<path d="M339.1,273.2c3.9-0.9,6.5,0,7.6,2.8c0.7,1.9,0.9,4.1,1,6.2c0,0.7-0.8,2-1.4,2.1c-0.7,0.1-1.6-0.8-2.4-1.3
			c-0.2-0.2-0.4-0.6-0.4-0.9C342,276.8,341.6,276.1,339.1,273.2z"/>
		<path d="M477.2,314.4c3.1-2.9,3-6.5,3.1-9.7c2-1.1,3.7-0.6,3.7,1.2c0,2.7-0.3,5.6-1.2,8.2C482.1,316.4,480.8,316.3,477.2,314.4z"
			/>
		<path d="M434.9,361.8c-1.8,1.3-3,1-4,0c-1.8-1.6-2.6-8.3-1.1-10.3c0.4-0.5,1.4-1,2-0.9c1.3,0.2,2.1,1.2,1.7,2.5
			C432.3,356.3,433.6,358.9,434.9,361.8z"/>
		<path d="M310.1,299c-0.9-0.6-2.4-1-2.6-1.7c-0.4-1.7-0.7-3.7-0.2-5.2c0.6-1.8,2-3.3,3.3-4.7c0.4-0.4,1.7,0.1,2.7,0.3
			C312.3,291.3,311.3,294.7,310.1,299z"/>
		<path d="M351.2,252.5c-3.9,0.2-6.4,1.9-8.5,4.3c-0.5,0.5-2,0.8-2.5,0.5c-0.6-0.3-1-1.8-0.7-2.5c1.5-3.9,6.9-6,10.8-4.3
			C350.5,250.6,350.6,251.3,351.2,252.5z"/>
		<path d="M405.6,274.1c-4.3,1.7-7.9-0.4-12.2-7c1-1.3,2.5-1.5,3.4-0.4c2.3,2.9,5.5,4.7,8.5,6.6
			C405.5,273.3,405.5,273.8,405.6,274.1z"/>
		<path d="M403.6,245.3c-0.3,0.2-0.6,0.5-0.8,0.5c-3.2-0.1-5.7,0.9-7.5,3.8c-1.1,1.7-1.4,1.5-4.1-0.7c2-3.4,4.7-5.7,8.9-5.8
			C402.2,242.9,402.2,243,403.6,245.3z"/>
		<path d="M368.7,242c3.5-0.5,5.4,1.1,6.8,3.5c0.8,1.4,1.3,3,1.7,4.6c0.2,0.6-0.3,2-0.6,2c-0.9,0-1.8-0.2-2.7-0.6
			c-0.3-0.2-0.6-0.8-0.6-1.3c-0.4-2.6-1.8-4.6-3.6-6.4C369.2,243.6,369.1,242.9,368.7,242z"/>
	</g>
</g>
</svg>
