<?xml version="1.0" encoding="utf-8"?>
<!-- Generator: Adobe Illustrator 23.0.1, SVG Export Plug-In . SVG Version: 6.00 Build 0)  -->
<svg version="1.1" xmlns="http://www.w3.org/2000/svg" xmlns:xlink="http://www.w3.org/1999/xlink" x="0px" y="0px"
	 viewBox="0 0 595.3 841.9" style="enable-background:new 0 0 595.3 841.9;" xml:space="preserve">
<style type="text/css">
	.st0{fill:#A7C5E9;}
   
</style>
<g id="Layer_2">
	<g>
		<image style="overflow:visible;" width="294" height="193" xlink:href="ABF47D1F.png"  transform="matrix(1 0 0 1 188 318.8898)">
		</image>
	</g>
	<path class="st0" d="M200.9,373.2c-2.6-3.3-1.7-7.2-5.3-10.3c-2.9-2.5-6.7-5.2-10.3-6.5c-4.1-1.5-6.7,0.1-7.8,2.8
		c-0.9-0.4-1.8-0.7-2.7-0.9c-0.3-0.1-0.7-0.1-1-0.1c0-0.1,0-0.1,0-0.2c-0.7-2.2-2.6-3.8-4.7-4.4c-2-0.6-4.2-0.4-6.1,0.4
		c-5.6-1.9-12.1,1-14.7,6.3c-0.8,1.7-1.2,3.5-1.2,5.3c-2.1,0.6-4,1.4-5.3,3.3c-3,4.4-0.8,9.1,1.2,13.3c1.1,2.3,0.9,4.9,2.6,6.8
		c1.7,2,4.5,3.2,6.6,4.6c0.6,0.4,1.2,0.7,1.7,1.1c0.2,0.3,0.4,0.6,0.7,0.9c3.8,3.7,8.6,5.3,13.7,4.4c8.1,4.1,16.5,9.7,23.1,1.8
		c1.8-2.1,3.2-5.5,3.7-9c1.6,0.4,3.4,0.1,4.6-1.5C204.6,385.1,205.8,379.4,200.9,373.2z"/>
	<path class="st0" d="M388.5,376.2c-1.9-5-8-12.5-14.3-10.1c-2.6,1-3.3,4.2-5.1,5.6c-0.3,0.1-0.6,0.2-0.9,0.3
		c-0.2,0.1-0.3,0.2-0.5,0.3c-0.9,0-2.3-0.4-3.1-0.3c-1.4,0.2-2.6,0.7-3.6,1.8c-0.8,0.9-1.3,2.1-1.3,3.3c-0.1,2.1,0.6,1.5-0.8,2.4
		c-1.3,0.8-3.9,0.8-5.4,1.3c-1.2,0.5-2.4,1.1-3.5,1.8c-5,3.3-7.5,9.8-4.6,15.4c1,2,2.5,3.3,4.3,4.2c-1.3,4.1,0.2,8.8,3.6,11.4
		c0.5,1.3,1.1,2.5,2,3.4c2.8,3.1,7.5,6,11.1,8c2.6,1.5,6,2.1,8.1-0.5c2.5-3,0.6-6.3-1-9.2c-2.8-4.9-4.4-10-5.2-15.5
		c-0.1-0.8-0.4-1.4-0.8-1.8c2.2-2.7,3.9-6.1,5.4-9.3c0.1,0,0.2,0,0.4,0c1.1,0,1.9-0.4,2.6-0.9c2.2,1.7,5.4,2.6,8.4,2.1
		C390.9,389,390.3,381,388.5,376.2z M372.3,379c0.3,0.1,0.7,0.2,1.1,0.3c0,0.1-0.1,0.2-0.1,0.3c-0.4-0.2-0.8-0.4-1.3-0.4
		C372.1,379.1,372.2,379.1,372.3,379z"/>
	<path class="st0" d="M434.8,380.9c-0.1-0.2-0.2-0.3-0.3-0.5c-0.8-1.3-2-1.9-3.1-1.9c-0.1-0.2-0.3-0.3-0.4-0.5
		c-0.4-0.7-0.8-1.5-1-2.3c-0.5-1.7-0.6-3.5-1.7-5c-0.8-1.2-1.9-2-3.3-2.4c-0.3-0.1-1.7-0.3-2.8-0.3c0-0.5-0.1-1-0.2-1.3
		c-0.4-1.4-1.2-2.6-2.4-3.4c-2.2-1.3-5.8-0.8-7.1,1.6c-0.4-0.2-0.8-0.5-1.3-0.7c-1.3-0.6-2.6-1-4-0.9c-3.4,0.3-5.8,3.3-7.2,6.2
		c-1.4,2.9-2.2,6.9,0.5,9.2c2.2,2,5.3,1.4,7.6,0.1c0.2,0.7,0.6,1.4,1.2,2.1c0.2,0.2,0.3,0.3,0.5,0.5c0.3,0.8,0.8,1.6,1.9,2.1
		c3.3,1.6,6.6,3.3,9.9,4.9c2.6,1.3,5.4,3.1,8.4,2.7c4-0.5,5.3-3.8,5.2-7.2C435.5,382.9,435.4,381.8,434.8,380.9z"/>
</g>
<g id="Layer_1">
	<g>
		<path d="M148,409.2c2.4-2.9,4.7-5.7,7-8.5c-2.2-2.9-4.3-5.6-6.6-8.5c-5.2-0.3-7.4-2-6.9-9.1c-7.3-5.7-4.8-14.5,2.1-18.6
			c1.6-7.8,6.5-12.2,14.4-12.7c6.4-0.4,12.7,0.1,18.1,4.2c5.8-4.2,11.1-2,16.4,0.9c5.3,2.9,9.1,6.8,8.6,12.5c2.2,2.7,4.1,4.8,5.7,7
			c1.5,2.2,1.6,4.7,0.5,7.1c-1.5,3.2-2.8,6.4-4.5,9.5c-0.7,1.3-1.8,2.7-3,3.3c-3.1,1.5-4.2,4.1-4.7,7.1c-0.5,2.6-2,4-4.6,4.5
			c-5.8,1-11.2,1.1-15.8-3.4c-1.4-1.4-4-1.3-5.8,0.7c-3.9,4.2-8.8,7.7-10.4,13.7c0.8,0.8,1.6,1.5,2.7,2.4c-1.8,0.9-3.2,1.7-4.7,2.5
			c-0.7,6.8-0.8,13.3,5.3,18.1c2.1-0.3,3.6-3.6,6.3-0.7c-0.9,1.5-1.9,3-2.8,4.5c2.7,4.4,7.7,6.4,14.2,5.8c1.1-2.1,2.3-4.2,3.5-6.4
			c3.4,1.7,1.5,4.3,1.7,7c6.3-0.1,12.7,0.6,18.9-0.3c6.7-1,13.3-2.7,20.4-4.2c-0.4-1.4-0.7-2.8-1.2-4.1c-1.2-3.2-2-6.3-0.8-9.7
			c0.3-0.9-0.3-2.2-0.6-3.2c-0.8-2.3-2.1-4.6-2.6-7c-1.1-5-0.8-9.7,4.8-12.5c-0.9-2-1.7-3.8-2.4-5.6c-3-7.3-2.5-9.1,4.2-13
			c2.6-9.3,3.3-9.8,14.7-10.8c1.4-9.7,7.3-14.6,17.4-14.9c4.9-12,14.1-15.4,26.4-12.8c2-3.6,4.7-6.7,8.9-7.3c3.4-0.5,7-0.5,10.4-0.1
			c3.9,0.5,7.6,2.2,11.7,0.6c1.2-0.4,2.9,0.2,4.3,0.6c4.1,1.3,8.2,2.7,12.3,4c6.9-3.7,7.5-3.6,18.4,4.5c0.3,0,0.7,0,0.9-0.2
			c6.5-3.4,9.7-2.6,13.9,3.5c1.4,2,2.7,4.2,4.2,6.5c1.8-0.9,3.3-1.7,5-2.4c5.7-2.4,10-1.5,13.6,3.5c2.1,2.9,3.4,6.5,5,9.7
			c0.5,1,0.9,2,1.4,2.9c1.9-0.1,2.7-1,2.9-2.5c0.2-1.6,0.6-3.3,0.7-4.9c0.4-4.8,3.2-7.9,7.1-10.2c3.1-1.9,4.3-1.7,7.8,0.6
			c1.6-0.7,3.2-1.7,4.9-2.3c3.7-1.3,5.1-0.5,6.1,3.3c0.2,0.8,0.3,1.6,0.5,2.5c1.9-0.3,3.5-0.6,5.1-0.7c3-0.1,4.3,1.2,4.2,4.3
			c0,1.6-0.3,3.3-0.5,4.8c0.4,0.4,0.5,0.8,0.8,0.9c5.1,1.7,5.8,2.7,4.8,7.9c-0.5,2.7-2,5.7-1.3,8.2c0.6,2.2,3.5,3.8,5.4,5.6
			c2.9,2.7,4.5,6.2,5.7,9.8c1.2,3.3,2.6,6.2,4.6,9.2c5.1,7.4,5.6,13.5-4.7,19.2c-3.7,2.1-6.7,4.2-9.4,7.5c-4.1,5-9.7,8.5-16.3,10
			c-2.6,0.6-5.2,1-7,3.3c-0.3,0.4-0.8,0.8-1.2,0.8c-6.7,0.1-8.9,6.9-14.5,9.1c4.6,3.5,11.5,2.2,14.4,7.9c-0.6,3.7-4.2,2.1-6.4,3.3
			c1.1,2.2,2.1,4.2,3.2,6.4c-4.3,4.9-7.9,0-11.9-0.6c-0.2,2.8-0.3,5.5-0.5,8.4c-3.9-0.5-6.1-2.6-7.9-4.9c-2.5-3.3-5.8-4.3-9.6-4.1
			c-3.3,0.1-6.6,0.4-10,0.4c-2,0-4.5,0.3-5.8-0.8c-3.9-3.4-9.6-2.5-13.4-6c-0.9-0.8-2.9-0.8-4.3-0.5c-2.6,0.7-4.8,0.1-7.2-0.8
			c-1.3-0.5-3-0.7-4.2-0.3c-4.6,1.5-9.1,1.5-13.9,0c0.5,2.7,1,5.3,1.5,8.2c1.8,0.7,3.9,1.6,6.2,2.6c-0.9,3.9-3.8,4.4-6.7,5.4
			c0.3,0.9,0.8,1.7,0.9,2.6c0.4,3-1.5,5.1-4.5,5.2c-0.8,0-1.7,0-2.5-0.2c-4.5-1.1-9-2.1-13.4-3.6c-6.7-2.2-13.6-2.7-20.6-2.8
			c-6-0.1-11.9-1.2-17.9-1.9c-1.5-0.2-2.9-0.6-4.4-0.8c-6.5-0.8-8.6-4.5-5.7-10.3c0.1-0.3,0.3-0.6,0.4-0.8c-3.7-2.8-7.3-5.6-11-8.2
			c-0.6-0.4-1.6-0.6-2.4-0.5c-5.4,0.5-9.1-2.4-12.5-6.1c-0.4-0.5-0.9-1-1.3-1.5c-0.1-0.1-0.3-0.1,0,0c-10.1,1.7-19.7,3.4-29.3,5.1
			c-3.2,0.6-6.7-0.2-9.2,3.2c-2.2-2.7-4.9-2.7-7.8-2.8c-3-0.1-6-0.6-8.8-1.4c-2.3-0.7-4.1-0.7-6,0.9c-1.1,0.9-2.4,2.1-4.1,0
			c0.4-0.9,0.9-2,1.6-3.5c-6.3-3-11.9-7.1-15.8-12.6c-5.8-8.1-10.2-16.9-7.1-27.3c1.1-3.8,2.7-7.4,4.3-11.6
			c-0.8-1.4-1.9-3.2-3.5-5.9c1.8,0.6,2.7,0.9,3.5,1.2C146.1,408,146.9,408.6,148,409.2z M317.3,413.8c11.5,5.7,13.3,9.4,9.8,21
			c4.7,4.9,4.3,10.2,0.6,15.7c-1.3,1.9-2.4,3.9-3.7,6c3.5,3.8,3.9,8.3,3.7,12.9c4.8,2.5,4.7,2.5,8.1-1.2c0.6-0.7,1.8-1,2.7-1.4
			c2.7,5.4,4.2,6,7.8,3.2c0.9-0.7,1.5-2.1,1.6-3.3c0.2-1.4-0.2-3-0.5-4.4c-0.8-4,0.7-7.4,3.1-11.5c0.2,1.7,0.6,2.4,0.4,3.2
			c-1.1,6.5,0,12.6,3,18.4c0.5,1,0.9,2.3,1.7,2.8c5,2.8,10,5.9,16.3,5.2c3.5-0.4,7-0.1,10.5-0.3c3.3-0.2,5.7,0.8,7.7,3.5
			c1.2,1.7,2.6,3.7,5.4,4.6c-0.5-2.9-0.8-5.3-1.2-7.8c4.5-1.2,7.4,2.8,11.5,2.6c-0.4-3.6-3.7-4.6-6.3-7c3.1-0.7,5.6-1.3,8.7-2
			c-1.3-1-2-1.7-2.8-2c-5-2.1-10.1-4.2-15.1-6.3c-2.9-1.2-3.2-1.7-3.1-5.1c0.6,0.4,1.3,0.6,1.7,1c2.5,2.4,5.3,2.1,7.7,0.3
			c2.4-1.7,4.4-4,6.5-6.1c0.9-0.9,1.7-1.8,2.5-2.7c0.9,0.4,1.3,0.6,1.8,0.8c3.3,1.8,3.3,1.8,5.9-0.8c0.9-0.9,1.8-2.4,2.9-2.6
			c5.1-0.9,7.9-5.2,12-7.7c1.7-1,1.8-2.5,1-4.3c-1-2.2-1.7-4.7-2.7-6.9c-0.5-1.1-1.6-1.9-2.3-2.7c-2.1,0.1-3.6,1.8-5.5,0.4
			c6.1-3.2,7.7-2.7,10.1,3.5c0.2,0.5,0.4,0.9,0.6,1.4c0.8,1.6,2.1,2.4,3.7,1.8c3.8-1.4,8.1-1.7,11.1-4.3c-0.6-3.5-1.1-6.6-1.7-9.8
			c0.2,0,0.4-0.1,0.6-0.1c1.2,2.4,2.4,4.9,3.9,7.9c3-2.9,4.1-5.6,3.2-9c-0.3-1.1-0.8-2.9-1.4-3c-2.7-0.3-2.5-2.4-3.2-4.1
			c-1.5-3.7-3.1-7.4-5.1-10.8c-2.4-4.1-5.8-7.6-10.2-9.2c-7-2.5-14.2-4.4-21.8-6.8c-1.1-1.1-1.4-3.8-4.2-4.5
			c-0.4,0.8-0.6,1.4-0.9,1.9c-1.8,2.9-2.8,3-5.2,0.4c-0.6-0.7-1.3-1.2-2.2-2c-2.7,3.3-5.4,6.2-7.7,9.3c-1.5,1.9-2.8,3.1-5.4,1.8
			c-1.1-0.5-2.5-0.1-3.5-0.1c-1.8-1.2-1.7-3.8-4.2-3.6c-1.4,2.4-1.4,2.4-0.9,8.1c-1.5,0.4-3,0.7-4.9,1.2c1.1,5,1.5,9.9,3.3,14.3
			c1.5,3.7,4.5,6.7,6.9,10c-0.1,0.3-0.2,0.7-0.4,0.9c-1.6,0.9-3.2,1.8-4.8,2.6c-6,2.9-10.7,2.2-15.5-2.5c-1.7-1.6-3.2-3.4-4.8-5
			c-3.8-3.8-6.4-8-6.5-13.5c0-1.3-0.6-3.2-1.5-3.9c-5-3.7-5.7-11.5-1.5-17.5c3-4.2,7.1-6.4,11.6-7c1.2-2,2-4.1,3.4-5.3
			c1.3-1.2,3.4-1.7,5.4-2.6c-3-4.9-4.7-10.2-10-12.7c-0.6,0.3-1,0.4-1.2,0.6c-0.5,0.6-1,1.3-1.5,2c-2.5,3.9-2.9,3.8-5.9,0.6
			c-2.4-2.5-5.2-4.6-8-6.7c-1.3-1-2.8-1.2-3.9,0.5c-1.6,2.7-3.8,2-6.1,1.1c-3.7-1.5-7.4-2.9-11.2-4.2c-0.9-0.3-2.3-0.8-2.8-0.4
			c-2.4,2.1-4.8,0.6-7.2,0.2c-2.8-0.4-5.5-1.3-8.3-1.7c-6.7-1.2-10.2,1.1-11.8,7.8c0,0.1-0.2,0.2-1,0.9c-0.8-0.1-2.2,0-3.6-0.3
			c-1.6-0.3-3.2-0.9-4.8-1.2c-8.9-1.5-15,4-16.4,10.3c-0.3,1.4-0.9,2.8-1.5,4.8c-4.4-1.2-8.6-2-12.6,1.4c-4.4,3.8-2.9,8.3-2.3,13.2
			c-2.3-0.2-3.9-0.3-5.5-0.4c-1-0.1-1.9-0.5-2.9-0.6c-5.2-0.5-7.5,1.8-7,6.9c0.1,1,0.4,2,0.5,2.9c0.4,2.4-0.5,3.4-2.9,3
			c-1.2-0.2-2.4-0.7-4-1.1c-1.5,7.2,4,11.9,5.9,18c-2.6,0.2-4.7,0.4-6.8,0.5c-2.2,6.9,1.5,12.1,4.7,17.6c-3.3,2.8-2.4,6.1-0.9,9.4
			c0.7,1.5,1.5,3.1,1.5,4.7c0,5,2.5,9.2,4.1,13.7c0.3,0.9,0.9,1.8,1.6,2.5c3.4,3.4,7.1,5.5,11.9,2.5c3.2,3.9,6.1,7.5,10.8,8.9
			c4.8,1.5,9.1,0.4,13-2.6c1.5,1,2.7,1.9,3.9,2.7c3.9,2.4,8.1,3.8,12.7,3.9c2.1,0,4.3-0.2,5.6-2.4c2.1-3.6,2.2-3.6,5.5-0.9
			c3.3,2.6,6.9,3.3,10.7,1.7c2.9-1.2,5.6-2.9,8.4-4.3c1-0.5,2-0.9,3.1-1c3.6-0.4,5.6-3.2,4.3-6.5c-1-2.6-2.3-5-3.7-8
			c1.9-3.2,4.1-6.9,6.1-10.7c1.5-2.7,1.7-5.4-0.4-8c-1.4-0.6-3.9,1.4-4.3-1.9c3.1-3.7,5.3-8.1,3.4-13.2c-2-5.5-7-5.9-12.3-5.3
			c0.1-1.5-0.1-2.5,0.2-3.4c0.5-1.9,1.4-3.7,1.8-5.7c1.2-5.6-1.6-9.1-7.2-9.2c-3.6,0-6.9,0.7-10.1,2.4c-1.9,1.1-3,0.6-3.7-1.6
			c5-3,10.3-4.1,15.8-3.3c5.6,0.7,8.8,4.7,8.7,10.4C318,409.5,317.6,411.4,317.3,413.8z M151.7,389.8c1,5.3,4.8,8.4,10,9.5
			c4,0.8,8.3,2.8,12.2-0.9c1.2-1.1,2.4-0.2,3.1,1.3c0.7,1.4,1.1,3.6,2.3,4c2.9,1.2,6.1,1.8,9.2,0.6c1.1-0.4,2.3-1.5,2.6-2.5
			c0.8-2.5,1.1-5.1,1.7-7.7c5.1-0.6,5.1-0.6,7.5-5.6c0.9-1.9,2-3.8,2.9-5.8c0.5-1.2,0.8-2.5,0.9-3.8c0.2-1.9-0.6-3.6-2.3-4.7
			c-1.8-1.2-2.6,0.9-3.9,1.3c-0.3,0.1-0.6,0-1-0.1c-2.6-1.8-0.9-3.8-0.4-5.8c1.2-4.5,0.6-6.5-3.2-8.9c-2.4-1.4-5-2.6-7.7-3.3
			c-3.9-1-5.8,0.3-7.2,4.1c-0.4,1-0.7,2.1-1.1,3.2c-2.3-0.6-2.9-2.2-2.9-3.9c0.1-3-1.9-4.2-4.3-4.7c-4.1-0.8-8.2-1.9-12.3-0.6
			c-2.3,0.7-4.7,1.6-6.6,3.1c-3.8,2.9-3.8,4.3-1.6,8.8c0.1,0.2-0.1,0.6-0.1,1.1c-0.4,0.2-0.8,0.5-1.2,0.5c-4.7-0.1-6.6,1.5-7.1,6
			c-0.3,2.9,0.2,3.7,3.1,4.7c1,0.3,2,0.8,3,1.2c-0.8,2.2-1.5,4.1-2.4,6.4C147,388.3,148.9,388.9,151.7,389.8z M386.8,388.2
			c0.7-2.6,1.9-4.7,1.7-6.7c-0.6-5-2.5-9.6-6.1-13.4c-3.2-3.4-7.5-3.5-10.3,0.2c-2.1,2.8-4.1,4.4-7.7,4.3c-2.7,0-3.8,1.7-3.5,4.4
			c0.1,1.4,0.6,2.8,1,4.4c-3.3,1-6.1-2.4-9.3-0.2c-2.7,1.9-5.3,3.8-6.3,6.8c-1.2,3.8-1.8,7.8,1.9,10.9c0.9-0.4,1.7-0.7,2.4-1.1
			c1.3-0.6,2.6-0.7,3.6,0.5c1.1,1.4,0.5,2.6-0.7,3.4c-2,1.4-1.9,3.4-1.7,5.4c0.4,3.6,2.3,6.5,4.6,9.2c1.5,1.7,3.3,3.2,4.8,4.9
			c4.4,4.9,8.1,5.5,13.5,1.6c-6-5.1-6.7-12.3-7.7-19.4c-0.5-3.5-1.2-7.4,2.5-10c0.5-0.4,0.5-1.5,0.8-2.3c1.3-3.3,4-4.8,7.5-4.2
			C380.8,387.5,383.7,387.8,386.8,388.2z M165.3,403.4c-1.1-0.3-1.7-0.4-2.3-0.6c-3-1.4-5.3-0.7-7.3,2.1c-2.5,3.7-5.6,7-7.8,10.9
			c-6.2,10.7-5.2,21.2,1.9,31.2c2.9,0.2,2.9,0.2,5.1,1.7c-0.6,0.9-1.2,1.8-1.8,2.8c8.3,8.6,18.2,12.7,30,12.7
			c11.2,0,22.2-1.5,33.2-3.4c3.3-0.6,6.8-1.3,9.9-3.6c-0.9-1.9-1.7-3.6-2.7-5.5c-5.2,1.1-9.9,2.1-14.6,3c-2.4,0.5-4.9,1-7.4,1.1
			c-7.5,0.2-15,0.5-22.5,0c-7.2-0.5-14.2-2.3-18.3-9.3c-0.7-1.1-1.9-1.9-2.7-3c-2.3-3.1-5-6.1-5.2-10.1c-0.3-6.2,0.1-12.4,3.8-17.7
			C159.5,411.7,162.2,407.8,165.3,403.4z M315.9,476c-2,0.9-3.9,1.6-5.6,2.5c-4.7,2.4-9.3,3.3-14.3,1c-0.9-0.4-2.3-0.5-3.2-0.1
			c-7.7,3.6-14.9,1.9-22-1.7c-0.9-0.4-1.9-1.2-2.7-1.1c-2.9,0.4-5.9,0.9-8.7,1.9c-2.1,0.8-3.4,2.8-3.3,5.2c0.1,2.1,1.8,3.2,3.7,3.4
			c8.1,0.8,16.2,1.7,24.3,2c6.3,0.2,12.6,0.8,18.7,2.5c2.7,0.8,5.5,1.1,8.2,1.8c2.6,0.7,5.2,1.6,8,2.4c0.6-4.1-3.9-3.5-4.8-6.2
			c2.5-3.1,6.8-0.5,10.4-3.1c-3.5-0.9-6.9-0.5-8.4-4.1C318.9,480.4,318.4,478.3,315.9,476z M418.3,362.5c-2.4,2-3.9,3.2-5.2,4.5
			c-1.3,1.3-2.2,3.5-4.3,2.5c-0.9-0.5-1.1-2.5-1.7-3.8c-0.1-0.3-0.4-0.5-0.6-0.8c-5.8,2.5-7.7,7.5-5.8,14.7
			c6.3-2.5,7.3-2.1,12.2,4.9c6.2,1.8,12.3,3.5,18.7,5.3c1.3-3.8,2.7-6.9,2.1-10.5c-2-0.3-3.9-0.6-5.8-0.8c0.2-3.6,0.3-6.5,0.5-9.3
			c-0.6-0.2-0.9-0.5-1.2-0.4c-1.1,0.4-2.2,0.8-3.2,1.2c-3.6,1.4-4.4,0.9-4.8-2.8C418.9,366.1,418.7,365,418.3,362.5z"/>
		<path d="M402.4,407.8c-3.2-0.1-6.1-0.3-9.9-0.5c1.9-1.7,3.3-2.4,4.9-2.5c2.6,0,4.3-1.2,5.9-3.1c2.8-3,6.1-3.9,9.9-1.7
			c1.7,1,3.5,1.8,5.2,2.9c0.6,0.4,1.4,1.6,1.2,1.9c-1.7,2.6,1.2,3.8,1.8,5.6c-1.4,0.7-2.9,1-3.7,2c-4.8,5.8-12.9,3.4-14.6-2.9
			C403,409.1,402.7,408.7,402.4,407.8z M408.2,402.3c-4.2,3.7-4,5.6,0.4,8.5c0.4-1.5-1.8-3.5,1-4.7c0.5,0.9,0.9,1.7,1.4,2.5
			c0.5,0.8,1,1.5,1.6,2.3c3.3-3.4,3.2-5.1-0.2-6.9C411.2,403.4,409.7,402.9,408.2,402.3z"/>
		<path d="M413.2,425.3c1.2,6.3,1.2,6.3,3.5,8.5c-2.4,0.7-3.8,0.2-4.9-1.8C410.5,429.8,411,427.4,413.2,425.3z"/>
	</g>
</g>
</svg>
