<?xml version="1.0" encoding="utf-8"?>
<!-- Generator: Adobe Illustrator 23.0.1, SVG Export Plug-In . SVG Version: 6.00 Build 0)  -->
<svg version="1.1" xmlns="http://www.w3.org/2000/svg" xmlns:xlink="http://www.w3.org/1999/xlink" x="0px" y="0px"
	 viewBox="0 0 595.3 841.9" style="enable-background:new 0 0 595.3 841.9;" xml:space="preserve">
<style type="text/css">
	.st0{fill:#BAE0E4;}
</style>
<g id="Layer_2">
	<g>
		<image style="overflow:visible;" width="385" height="208" xlink:href="27CAB1D4.png"  transform="matrix(1 0 0 1 137 305.8898)">
		</image>
	</g>
	<g>
		<image style="overflow:visible;" width="161" height="159" xlink:href="27CAB1D5.png"  transform="matrix(1 0 0 1 98 294.8898)">
		</image>
	</g>
	<path class="st0" d="M140.6,374.3c-2,0.2-3.8,0.3-5.6,0c0-2-1.1-4-3.1-4.7c-0.1-4.1-6.5-6.9-9.5-2.4c-0.5,0.7-1.1,1.6-1.7,2.5
		c-2.7,0.9-5.1,2.4-7.8,3.9c-1.8,1-3.9,1.4-5.7,2.3c-2.3,1.2-4.2,3.1-5.9,5c-2.5,2.7-1.6,7.4,2.2,8.4c1.9,0.5,3.7,0.6,5.5,0.4
		c0.5,1.2,1.6,2.3,3.2,3c4.4,1.8,10.2,5.4,15.1,5.1c0.1,0,0.2,0,0.3,0c0.8,0.8,1.9,1.3,3.4,1.3c3.3,0,4.9-2.6,4.8-5.2
		c0.1-0.3,0.1-0.5,0.1-0.8c0.1-1.2,0.2-2.4,0.3-3.6c2.2-0.8,3.2-3,3.1-5.1c0.5,0,0.9-0.1,1.4-0.1C146.9,383.6,147,373.6,140.6,374.3
		z"/>
	<path class="st0" d="M342.6,539.3c-3.5-3.2-7.4-4.3-11.9-5.4c-5.4-1.4-9.4-4.8-13.3-8.7c-0.3-0.3-0.7-0.6-1.1-0.8
		c0.4-0.6,0.8-1.2,1.1-1.9c0.9-2.1,1.5-4.3,2.2-6.5c2.2-2,3.6-4.8,3.8-8c0-0.4,0-0.7-0.1-1c1.6-2.8,3.3-5.6,1.8-8.8
		c-1.7-3.4-5.1-3.7-8.5-4.1c-2-0.2-3.9-0.7-5.8-1.3c-2.3-2.2-5.2-3.6-8.3-4.3c-2.8-2-5.7-4.8-9.1-5.3c-4.7-0.7-10.1,2.7-14.3,4.3
		c-0.6,0.2-1.1,0.6-1.5,0.9c-1,0.2-2,0.7-2.7,1.4c-0.9,0.9-1.5,2.3-1.5,3.5c0.1,1.3,0.5,2.6,1.5,3.5c1,0.9,2.2,1.5,3.5,1.5h0.4
		c1.2,0,2.4-0.5,3.3-1.3c-0.5,2.6,0.4,5.4,3.2,7.2c3.3,2.2,10.5,2.1,11,6.7c0.4,4.1-0.9,9.2-3.9,12.1c-1.5,1.5-1.7,3.8-0.9,5.6
		c-2.7,0.8-5.6,1.3-8.2,1.8c-6.5,1.2-13.2,1.7-19.8,0.6c-5.2-0.9-7.9,5.5-5.2,8.4c-0.2,0.1-0.4,0.2-0.7,0.3
		c-3.4,1.5-6.2,4.7-8.9,7.2c-4.8,4.3,2.3,11.3,7.1,7.1c1.2-1.1,2.5-2.6,3.9-3.6c0.8,0.9,2,1.4,3.6,1.3c12-1.1,24.8,2.7,35.5-4.7
		c1.2-0.8,1.8-1.9,2.1-3c0.5-0.3,1.1-0.7,1.6-1.1c0.9-0.7,1.5-1.5,1.8-2.3c4.9,4.6,13.4,5.9,18.6,1.4c3.9,1.7,9.5,1.7,12.7,4.6
		C340.3,550.7,347.4,543.7,342.6,539.3z"/>
	<path class="st0" d="M238.6,507.9c-0.7-1.4-1.7-2.6-2.9-3.6c-0.6-0.5-2.8-1.5-3-2c-0.5-0.9,0-3.2-0.3-4.3c-0.4-1.6-1.3-3.1-2.7-4.1
		c-2.8-2.1-6.8-1.8-9.8-3.4c-5.7-3-10.8,5.7-5,8.6c0.4,0.2,1.9,1,3.6,1.7c-1.3,1-2.3,2.3-2.9,3.8c-2.3,0-3.7,1.4-4.3,3
		c-3.3,0.5-6.5,1.6-9.6,2.9c-0.8-1-2-1.7-3.7-1.7c-3.3,0-5,2.7-4.8,5.3c-1,0.4-2,0.7-3,1c-5.2,1.5-10.7,1.8-15.7,4.1
		c-0.3,0.1-0.5,0.3-0.8,0.4c-0.7-0.5-1.6-0.8-2.7-0.8c-2.6,0-4.2,1.7-4.7,3.7c0,0,0,0,0,0c-3.3,0.8-5.9,2.3-8.4,4.6
		c-0.5,0.5-0.9,1-1.1,1.6c-0.4,0.1-0.7,0.2-0.9,0.2c-2.4,0.8-4.7,2.1-6.3,4.1c-4.1,5.1-2.1,11.4,0.4,16.7c1.5,3.2,4.6,3.1,6.8,1.5
		c0.2,0.8,0.5,1.5,0.8,2.2c0.5,1.1,1.9,2,3,2.3c0.8,0.2,1.7,0.2,2.6,0c-0.4-1.4-0.4-2.9,0-4.4c-1.2-4.1,1.3-9.7,7-9.7
		c0.6,0,1.1,0.1,1.6,0.2c0.8-0.2,1.3-0.3,1.6-0.3c3.8-1,7.7-1.8,11.6-2.5c0.5-0.1,0.9-0.2,1.2-0.4c1,0.5,2.1,0.8,3.3,1
		c3.6,0.4,7.4,0.1,10.9-0.7c0.1,0,0.2-0.1,0.3-0.1c0.5,1.7,1.9,3.3,3.5,3.6c1,0.2,2,0.4,3,0.6c-0.1,0.2-0.3,0.5-0.5,0.8
		c-1.4,2.2-0.5,5.6,1.8,6.8c0.6,0.3,1.2,0.5,1.8,0.6c0.6-0.3,1.2-0.5,1.9-0.6c0.7-1.2,1.6-2.1,2.8-2.8c0.1-0.1,0.1-0.2,0.2-0.2
		c0.3-0.7,0.6-1.3,1.1-1.8c0.2-1.2,0.7-2.3,1.4-3.3c0-1.5,0.5-3,1.3-4.3c-0.3-1.9-1.6-3.6-3.6-4.1c-0.3-0.1-0.6-0.1-0.9-0.1
		c0.1-0.4,0.2-0.9,0.3-1.4c0.2-2.1-0.6-4.1-2.1-5.5c1.3-0.3,2.6-0.7,3.8-1.2c2.9-1.1,6-2.9,7.9-5.5c1,0.8,2.1,1.4,3.4,1.4h0.4
		c1.3,0,2.6-0.6,3.5-1.5c0.3-0.3,0.6-0.7,0.8-1.1c1.9-0.1,3.7-0.9,5.2-2.5C239.8,514.3,240,510.8,238.6,507.9z"/>
</g>
<g id="Layer_1">
	<g>
		<path d="M343.3,550.2c-2.3,1.1-4.4,0.9-6.2-0.7c-5.8-5.4-12.5-5.7-19.6-3.7c-4.3,1.2-8.5,1.3-12.3-1c-2.8,2-5.3,3.9-7.9,5.7
			c-5.5,3.7-11.6,4.9-18.1,4.1c-3.5-0.4-6.9-1.1-10.3-1.6c-5.7-0.8-10.9,0.4-15.7,3.4c-1.7,1.1-3.3,2.2-5,3.3
			c-1.5,0.9-3.1,1.3-4.9-0.3c0.3-1.3,0.4-3,1-4.4c2.2-4.6,4.6-9.2,6.9-13.8c1.1-2.2,2.2-4.5,3.2-6.7c2.3-5.1,6-6.9,11.7-5.9
			c3.6,0.6,7.2,1,10.8,1.3c0.9,0.1,1.9-0.5,2.8-0.9c2.4-1.1,4.7-2.5,7.2-3.3c3.1-1,4.4-3.4,5-6.3c0.7-3.5,1-7.1,1.6-11
			c-2.1-0.6-4.5-1.5-7-2c-3.6-0.7-5.6-2.6-5.5-6.5c0-0.6-0.3-1.2-0.5-2.1c-1.6,0.6-2.9,1.2-4.3,1.6c-3.9,1.2-6.2-0.6-5.8-4.7
			c0.1-1.1,0.4-2.2,0.7-3.9c-2.1,0.4-3.9,0.5-5.6,1c-7.7,1.9-15.5,2.3-23.3,2.6c-3.3,0.1-4.9,1.3-5.7,4.3c-0.3,1.2-0.8,2.5-1.4,4.1
			c5.8,0.2,6.1,5.6,8.8,8.7c1.1,1.4,0.3,3.6-1.6,4.6c-2.6,1.4-4.6,3.1-6.4,5.4c-0.6,0.8-2,1.1-3,1.3c-2.6,0.5-5.3,0.8-8.2,1.2
			c-0.3,0.9-0.6,2-0.9,3.1c-3.1,1.9-6.3,0.3-10-0.1c2.1,3.7,6,5.9,5.2,10.2c-0.5,2.6-0.7,5.4-2,7.6c-2.7,4.5-6,8.4-12.5,7.9
			c0.3-2.1,0.8-3.9,0.9-5.8c0.2-3.3-1.3-5-4.6-5.2c-2-0.1-4,0.2-6,0.1c-2.6-0.1-5.2-0.6-7.9-0.8c-1.6-0.1-3.3-0.2-4.9,0.1
			c-4.1,0.7-8.1,1.7-12.2,2.4c-1.4,0.3-3,0.2-4.6,0.3c-4.3,4.6-0.5,10.4-1.7,16.5c-2.8-2.5-4.9-4.3-6.9-6.1
			c-0.2,0.2-0.6,0.4-0.7,0.6c-0.9,1.5-0.9,4.2-3.3,3.7c-1.3-0.2-2.4-2-3.3-3.3c-1.7-2.4-3.2-5-4.7-7.6c-2.1-3.6-1.1-12.1,1.7-15.2
			c0.4-0.5,1-1,1.6-1.1c3-0.6,4.8-2.9,7.1-4.5c3.1-2.2,6.2-4.5,9.4-6.6c2.4-1.6,5.1-2.3,8-2.5c3.1-0.2,6.2-0.8,9.4-1.1
			c4.1-0.4,7.7-1.7,10.4-5.1c1-1.2,2.7-1.8,4.2-2.4c1.4-0.5,2.9-0.8,4.4-1c3.8-0.5,7.5-1.1,10.8-3.5c0.9-0.6,2.1-0.8,3.2-1.1
			c0.9-2.4,0.7-4.2-1.6-5.6c-2.9-1.7-3.3-4.8-4-8c-27.2-9.5-39.2-31.5-46.9-58c-8.8-5.4-15-14.7-22.5-22.7c-2-2.1-3.8-4.6-5.3-7.1
			c-1.1-1.7-2.7-1.8-4.3-2.1c-12.3-2.5-23.9-6.8-35.1-11.6c-1.2-1.9-0.3-3.3,0.8-4.3c2.8-2.5,5.6-5.2,8.8-7.3
			c4.2-2.9,8.8-5.4,13.2-8c2.5-1.6,5.1-3,7.5-4.8c0.9-0.7,1.5-2.1,2-3.3c1.7-4.3,3.2-8.7,4.9-13c0.7-1.7,1.5-3.5,2.7-4.8
			c5.1-5.4,10.3-10.6,17.5-13.6c5.9-2.5,11.3-6.2,16.7-9.6c7.2-4.5,15-7.1,23.4-7.7c6-0.4,12,0,18-0.1c4.2,0,8.3-0.7,12-2.8
			c4.9-2.7,5.5-4.5,3.1-9.7c-0.6-1.3-1.6-2.5-2.3-3.8c-2.7-4.6-0.7-8.7,4.5-9.6c0.3-0.1,0.7-0.1,1-0.1c3.4,0,6.7,0.4,10.2-0.8
			c1.8-0.6,4.4,1,6.6,1.1c2.1,0.1,4.7-1.1,6.3-0.3c2.9,1.5,5.5,1.2,8.5,1.1c4.3-0.2,7.1,2.3,8.5,6.8c1.6,0.7,3.4,1.2,5,2.1
			c2.6,1.4,3.1,2.8,1.5,5.3c-1.4,2.2-3.3,4.1-5,6.1c-0.6,0.8-1.4,1.5-2.2,2.3c2.2,4.7-1.2,7.7-3.7,11c-0.5,0.6-1.4,1.2-2.1,1.2
			c-2.8-0.1-4.5,1.8-6.7,3c-5,2.7-9.9,5.5-15.1,7.6c-5.5,2.3-11.5,1.6-17.3,0.9c-5.6-0.7-11.2-1.8-16.8-2.3
			c-2.9-0.2-5.9,0.5-9.2,0.9c1.3,4.2,4.6,6.4,6.6,9.6c1.9,3.1,4.4,5.8,6.5,8.8c2.2,3,4.2,6.2,6.1,9c6.2-0.1,11.9-0.8,17.4,1.5
			c6.5-4.8,13.4-9.1,21-12.2c1.7-0.7,3.4-1.4,5.2-1.6c3.3-0.4,4.6,1.5,3.3,4.5c-0.6,1.5-1.4,3-2.4,5.2c1.5-0.5,2.3-0.7,3-1.1
			c5.8-3.7,11.8-6.8,18.6-8.1c1.1-0.2,2.3-0.5,3.4-0.5c3.5,0.1,4.8,1.4,5.3,5.1c0.1,0.5,0.2,0.9,0.3,1.3c3.5-0.2,7-0.5,10.4-0.6
			c1.3,0,2.9,0.3,3.7,1.1c2.2,2.4,4.4,2,7.2,1.2c2.3-0.6,4.9-0.6,7.4-0.4c4.3,0.5,5.2,1.7,5.2,6.2c0,0.5,0.2,0.9,0.3,1.2
			c4-0.9,7.8-1.9,11.7-2.6c1.7-0.3,3.6,0,5.4,0.2c3,0.2,4.9,1.8,5.4,4.9c0.1,0.6,0.6,1.1,0.9,1.8c2.4-0.7,4.6-1.4,6.8-2
			c5.4-1.4,7.3-0.5,10.4,4.4c2.9-0.6,6-2,9-1.8c2.8,0.2,5.4,2.1,8.7,3.5c5.5-3.4,11.8-7.1,17.9-11c16.6-10.5,33.7-20.1,51.3-28.9
			c2.7-1.4,6-1.9,9.1-2.4c2.9-0.4,4,1.8,4.2,4.6c4.8-0.8,7.6,1.7,10,4.9c1.6,2.1,3.7,3.3,6.2,3.9c1.3,0.3,2.5,0.8,3.8,1.2
			c2.8,0.8,4.6,2.7,5.4,5.4c0.8,2.8,2.1,4.8,5,5.6c1.8,0.5,2.3,1.9,1.9,3.5c-0.9,3.7-0.2,7.7-2.3,11.2c-0.3,0.5-0.4,1.3-0.4,1.9
			c-0.1,7.5-3.8,12.4-10.4,15.5c-1,0.5-2,1.3-2.5,2.2c-2.2,3.6-5.4,5.8-9.1,7.5c-7.4,3.4-14.8,6.7-22.2,10.1
			c-3.8,1.7-7.6,3.4-11.4,5c-13.5,5.6-27.1,11-40.5,16.8c-12.5,5.4-24.8,11.3-36.6,18.1c-6.2,3.6-12.5,6.8-18.1,11.3
			c-3.7,3-8.5,4.5-12.7,6.8c-4.7,2.5-9.2,5.4-13.9,7.8c-6.5,3.4-13,6.5-20,9.9c1.8,2.6,3.9,4.5,6.9,5.1c5.1,0.9,9.6,2.9,13.2,6.6
			c1.6,1.6,3.5,1.6,5.5,1.7c4.7,0.3,5.7,2.3,3.9,6.5c-1,2.4-2.3,5.3-1.7,7.5c0.9,3.3-1,5-2.7,7.3c0.3,0.9,0.7,1.9,1.1,3.2
			c-1.1,1.3-2.2,2.7-3.4,4.1c0.1,0.3,0.1,0.7,0.2,0.9c2.7,3.9,5.6,6.8,11,7.1c3.2,0.2,6.2,2.9,9.2,4.7c3.5,2.1,4.1,5.5,3.2,9.2
			C344.5,547.2,343.8,548.7,343.3,550.2z M470,336.2c-2.2,0.4-4.3,0.5-6.1,1.2c-6.6,2.3-12.8,5.5-18.6,9.5c-4.5,3.1-9.2,6-13.8,9
			c-7.1,4.6-14.9,8.2-21.2,14c-0.8,0.7-2.2,0.8-3.3,1.1c6.4-5.6,13.1-10.6,20-15.2c10.8-7.1,21.1-15.1,33.1-20.4
			c1.1-0.5,2.3-1,1.7-2.5c-0.5-1.5-1.8-1.3-2.9-0.9c-2.5,0.9-5.1,1.6-7.4,2.9c-12.1,6.6-24.3,13-36.2,20
			c-10,5.9-19.7,12.5-29.4,18.8c-1.8,1.2-3.3,1.5-4.8-0.2c-0.4-0.5-1.1-0.7-1.6-1.2c-2.5-2.7-5.2-2.7-8.5-1.2
			c-6.6,2.9-7.4,2.5-10.7-4.2c-3.1-0.1-6.3,0.7-8.9,2.4c-3.5,2.2-6.2,1.2-9.2-1c0.3-0.9,0.7-1.7,0.8-2.4c0.6-3.1-0.2-4.2-3.4-3.6
			c-3.6,0.7-7.1,1.8-10.5,2.8c-1.9,0.6-3.7,1.4-5.5,2.2c-2.2,0.9-3.8,0.2-5-1.4c0.2-3,3.7-4.9,1.8-8.1c-0.6-0.1-1.1-0.2-1.6-0.3
			c-4.5-0.2-8.4,1.6-12.3,3.6c-2,1-3.9,2-5.9-0.2c0.5-1.5,1-3,1.6-4.6c-2.2-0.9-4.1-0.6-6,0.2c-2.5,1-4.9,2.1-7.4,3.1
			c-1.7,0.7-3.5,1.3-5-0.9c1.1-2.6,2.1-5.2,3.5-8.5c-1.9,0-3.1-0.2-4.1,0c-2.9,0.8-5.9,1.4-8.5,2.9c-5.2,2.9-10.2,6.3-15.2,9.5
			c-2.2,1.4-3.9,1.7-4.9,0.6c-1.4-1.5-0.1-2.8,0.4-4.1c1.2-2.6,2.5-5.2,3.8-7.8c-11,3-19.7,9-27.7,16.8c3.4,2.7,3.7,6.2,3.8,9.8
			c0.1,2.4-0.5,4.2-2.7,5.3c-2.8,1.4-5.5,2.9-8.4,4.5c0.2,0.5,0.4,1.2,0.6,1.8c0.3,0.8,0.7,1.5,1,2.3c1.2,3.4,1.1,3.7-1.6,5.9
			c-4.5,3.4-9.5,5.4-15.1,6.1c-1.4,0.2-2.7,0.7-4.3,1c0.5,1.7,0.8,2.8,1.1,3.9c0.8,3,0.7,3.5-2.2,4.4c-2.7,0.8-5.5,1.5-8.2,1.7
			c-4,0.3-8,0-12,0c-1.1,0-2.2,0.3-3.1,0.5c-0.8,3.6,1,7-1.2,10.6c-3.7-0.6-7.5-1.2-11.7-1.9c0.6,6-0.2,11.6,2.3,16.8
			c1.7,3.6,3,7.4,4.8,11c1.3,2.6,2.6,5.2,4.8,7.5c1.5-2.1,2.6-4,4.1-5.6c2.5-2.7,5.3-2.5,7.7,0.3c0.7,0.8,1.3,1.8,2.2,2.8
			c0.9-0.7,1.5-1.2,2.2-1.7c5-3.9,8.6-2.5,9.9,3.7c0,0.2,0.1,0.3,0.1,0.5c-0.2,2.9,1.1,4.4,4,5.4c3.4,1.2,4.4,3.6,3.7,7.1
			c-0.2,1.3-0.7,2.5-0.7,2.8c1.5,2.5,3.3,4.3,3.4,6.1c0.1,2.1-1.4,4.2-2.3,6.4c6.2,2,12.2,3.1,18.3,3.6c14.2,1.2,28.3,0,42-4
			c11.2-3.2,22.3-6.6,32.6-12c3.1-1.6,6-3.4,9.2-5.2c-1.2-1.9-2.3-3.6-3.3-5.3c-1-1.7-2-3.5-2.7-5.3c-1.9-5.1-0.3-7.2,5.3-7.6
			c0.3,0,0.5-0.4,1-0.7c0.1-0.4,0.3-1.1,0.6-1.7c0.9-2.1,1.6-4.4,2.9-6.3c2.1-3.1,4.5-3.1,6.8-0.2c0.6,0.7,1.1,1.4,1.7,2.2
			c1.2-0.9,2-1.8,3-2.4c3.9-2.4,5.7-1.8,7.3,2.6c0.2,0.4,0.4,0.9,0.5,1c2.2,0.4,4.4,0.3,5.8,1.3c1.3,1,1.7,3.2,2.6,5
			c1.2-0.7,2.3-1.3,3.5-2c16.9-9.6,33.8-19.2,51.9-26.6c22.6-9.2,45.3-18.2,67-29.6c2.2-1.2,4.5-2.3,6.5-3.6c1-0.6,1.6-1.8,2.9-3.4
			c-8.9,0.4-15.7,4.4-23.1,6.1c-0.6-2.2,0.8-2.6,2-3c8.5-2.8,17-5.7,25.6-8c2.8-0.7,5-1.3,6.4-3.9c1.2-2.3,2.9-4.4,2.6-7.4
			c-0.1-1.4,0.5-2.8,0.9-4.2c0.9-2.8,1.9-5.6,0.4-9.1c-7.7,3.2-15.3,6-22.6,9.5c-7.3,3.4-14.2,7.7-22.1,9.6
			c13.7-7.9,28-14.7,42.4-21.5c-0.8-1.5-1.4-2.5-1.9-3.5c-0.6-1.2-1-2.5-1.6-3.6c-1.5-2.8-5.2-4.3-8-2.9c-7,3.5-14,7-20.7,11
			c-12,7.1-23.8,14.6-35.7,21.9c-1,0.6-2.2,1.6-4,0.2c19.1-11.8,38-23.4,57.2-35.2C474,340.6,472.2,338.5,470,336.2z M200.1,402.3
			c7.7-1.9,16.1-1.5,21.7-8c-0.7-1.8-1.5-3.5-2-5.2c-0.8-2.6,0.2-4.3,2.8-5.3c2-0.8,4.2-1.4,5.8-2.7c3.9-3.2,3.1-8-1.2-10.5
			c-0.6-0.4-1.2-0.9-1.9-1.3c1.8-2,3.3-3.7,5.2-5.9c-1.6-0.6-2.6-1.3-3.6-1.3c-2.8-0.2-5.7-0.2-8.5-0.4c-1.5-0.1-3.2-0.1-4.3-0.9
			c-5-3.3-10.2-6.7-12.7-12.4c-2-4.8-5.1-8.3-9-11.6c-5.3-4.4-11.4-6-17.8-7c-2.7-0.4-5.6-0.4-8.3,1.1c-0.8,0.5-1.9,0.5-2.9,0.8
			c-4.6,1.3-9.4,2.2-13.9,3.8c-7.6,2.8-12.6,8.3-15.2,16.1c-1.4,4.1-3.4,7.9-5.1,11.9c1.3,1.7,2.9,3.6,4.1,5.8
			c1.4,2.5,3.3,3.4,6.1,3.5c3.5,0.1,6.9,0.5,10.4,0.9c1,0.1,1.9,0.9,2.8,1.4c-3.1,4.9-3.4,5.1-10.4,9.7c-2.8,1.9-4.9,4.3-5,8
			c0,2.4-0.2,4.8-0.3,8.2c3.6,3.7,7.8,8.2,12.1,12.6c4.2,4.5,7.5,9.9,13.5,13.2c0.2-2.6,0.4-4.7,0.6-7.4c2.4,0.5,4.2,1,6.1,1.2
			c2,0.2,3.9,2,6.5,0.5c-0.2-1.7-0.5-3.5-0.6-5.3c-0.3-3.6,1-4.7,4.6-4.5c5,0.3,10,0.4,15,0.5c2.2,0,4.2-0.5,5.9-1.6
			C200.7,407.7,200.4,405.2,200.1,402.3z M340.5,547.1c0.5-0.7,1.3-1.3,1.2-1.8c-0.3-2.6-0.5-5.3-3.1-7c-3.5-2.4-7-4.3-11.4-4.7
			c-1.9-0.2-4.5-0.7-5.3-2c-1.6-2.7-4.3-3.9-6.9-5.7c1-1.9,2-3.6,2.9-5.2c-0.7-0.7-1.2-1.3-1.7-1.8c0.8-3.2,4.9-4,5.5-7.6
			c-1.1-0.2-1.9-0.3-2.6-0.6c-0.7-0.3-1.3-0.8-1.7-1.1c0.1-1.7,2.8-1.5,1.9-3.8c-0.3-0.7,1.6-2.2,2.4-3.3c0.8-1.1,1.7-2.3,2.7-3.7
			c-4.8-0.2-5.9-0.7-9.4-3.5c-1.6-1.2-3-2.7-4.8-3.6c-2.7-1.4-5.6-3.3-8.6-0.3c-0.4,0.4-1.5,0-2.4-0.1c0.1-1.3,0.3-2.2,0.4-3.2
			c-1-0.8-2.2-1.5-3.1-2.5c-2-2.2-4.1-2.2-6.7-1.1c-3.1,1.3-6.3,2.2-9.4,3.3c-4.6,1.5-5.4,2.6-5.3,8.1c1.6-0.5,3.1-1.2,4.7-1.6
			c4-1,5.3,0.1,5.2,4.3c-0.1,3.6,0,3.7,3.5,4.9c2.3,0.8,4.6,1.6,6.9,2.3c2,0.6,2.7,1.9,2.5,3.7c-0.6,3.7-0.9,7.6-2.1,11.1
			c-1,3-2.2,6.3-5.7,7.7c-3.4,1.4-6.7,2.7-10.2,3.9c-1.3,0.5-2.9,0.6-4.3,0.5c-3.9-0.5-7.8-1.3-11.7-1.7c-3-0.4-4.6,1.1-5.8,5
			c3,1.1,6.6,0.6,9.2,3.1c0.5,0.5,1.9,0,2.9,0c2.4,0,4.9,0,7.4,0c-0.2,0.6-0.2,1.1-0.3,1.2c-4.3,2.2-8.9,2.5-13.4,0.8
			c-4.1-1.6-7.7-1.2-9.9,2.4c-2.1,3.4-3.6,7.2-5.4,10.9c1.6-0.1,2.6-0.6,3.6-1.2c4-2.3,8.2-3.5,12.9-3.2c5.3,0.4,10.6,0.8,15.9,1.2
			c5.2,0.4,9.9-0.8,14.2-3.8c2.5-1.7,5-3.3,7.3-5.2c1.8-1.5,3.5-1.9,5.4-0.5c2.4,1.7,4.9,1.5,7.6,0.9c5.8-1.3,11.6-1.2,17.2,0.6
			C335.2,544,337.6,545.6,340.5,547.1z M205.8,509.6c-1.8,0.3-3.4,0.7-5,0.9c-3.1,0.4-5.7,1.5-7.6,4.1c-0.7,1-2,1.8-3.2,2.1
			c-4.8,1.2-9.7,3-14.6,3.1c-7.2,0.1-12.2,3.8-17.2,8c-2.2,1.8-4,3.9-6.7,5c-2.1,0.9-3.4,2.7-3.6,5c-0.5,4.8,0.4,9.1,4.1,13.4
			c0.4-1.8,0.6-3,0.9-4.2c0.4-1.6,0.7-3.3,1.5-4.7c2.5-4.3,6.4-7.3,10.7-9.3c2.6-1.2,5.7-2.3,8.7-1.1c2.8,1.2,4.8,0.4,6.8-1.4
			c1.4-1.2,2.8-2.3,4.8-1c0.1,0.6,0.2,1,0.3,1.5c0.6,6.1,2.4,7.7,8.6,7.7c1.8,0,3.6-0.3,5.4-0.5c6.5-0.7,10.3,3.2,9.5,9.8
			c-0.1,0.4,0.2,0.9,0.4,1.9c1.3-1.3,2.3-2.3,3.3-3.4c4.2-4.9,4-9.9-0.6-14.5c-0.9-0.9-2-1.8-2.7-2.9c-1.5-2.3-0.8-4.5,1.8-5
			c2.3-0.4,4.8-0.1,7.8-0.1c0.6-3.5,3.6-3.4,6.8-3.1c1.2,0.1,2.4,0.1,3.5-0.1c1.1-0.2,2.3-0.5,3.1-1.2c2.2-1.9,4.2-4,6.4-6.1
			c-0.6-1.1-1.7-2.2-1.9-3.4c-0.4-2.1-1.5-3-3.4-3.7c-4.1-1.4-6-4.5-6.1-8.8c0-1.1,0-2.3,0-3.7c-4.7-0.9-9-2.2-13.9-2.1
			c1,2.8,1,2.8,3.2,4.7c3.2,2.8,3.1,5.7-0.4,8.1c-0.8,0.6-1.7,0.9-2.6,1.4c-1.6,0.8-3.3,1.6-4.9,2.4c0.6,1.3,1,2.4,1.5,3.6
			C207.6,514.2,207.5,510.8,205.8,509.6z M163.6,326c3.8-0.2,7.6-0.1,11.3-0.7c6.1-0.9,11.6,0.5,16.7,3.4c1.6,0.9,2.9,0.9,4.7,0.6
			c4.2-0.6,8.6-1.3,12.8-1.1c5.9,0.3,11.9,1.2,17.8,2.1c6,0.9,11.6-0.3,16.9-2.9c5.2-2.5,10.5-5,15.5-7.9c1.9-1.1,3.5-3.1,4.6-5.1
			c0.5-0.9-0.5-2.7-0.7-4.1c-0.1-0.3,0.1-0.6,0.2-1c2.5-3.6,6.4-6.1,8.2-11.1c-3.4-0.8-6.5-1.6-9.7-2.4c0.5-1.7,0.8-2.9,1.2-4.4
			c-1.5-0.6-2.8-1.2-4.6-1.9c0.3,3.8-2.9,4-4.5,5.7c-3.4,3.9-3.4,3.9-7.9,1.8c-0.4-0.2-1-0.1-1.4-0.1c-2.4,3.6-2.3,4.8,0.6,7.1
			c2.4,1.9,4.9,3.8,7.7,5.9c-1.7,1.1-2.9,2.2-4.4,2.9c-7.6,3.6-15.2,7.4-23,10.7c-7.2,3.1-14.9,3.3-22.5,1.6
			c-10.5-2.5-21.1-2.5-31.7-2.5C168.6,322.7,165.9,323.2,163.6,326z M239.6,287.7c-2.3,2.9-4.7,4-8,1.5c-1.5-1.2-3.6-0.4-4.9,1.2
			c-1.4,1.6-0.6,3,0.5,4.5c1.3,1.9,2.7,3.8,3.5,5.9c1.7,4.1,0.4,7.5-3.3,9.7c-3.5,2-7.1,3.8-11.1,4.1c-3.6,0.3-7.3,0.5-10.9,0
			c-5.5-0.7-10.9-0.3-16.4,0.2c-4,0.4-10.4,2.8-13.1,5.2c2,0,3.6,0.1,5.3,0c8-0.5,16,0.3,23.7,2.1c5.7,1.3,11.3,1.1,16.7-0.8
			c7.6-2.7,15.1-6,22.6-9c1-0.4,1.9-1.1,3.3-2c-1.8-1.4-3.3-2.4-4.6-3.6c-1.4-1.4-3-2.8-3.6-4.6c-1.7-4.6,0.8-7.9,5.7-8
			c1.5,0,2.9,0.3,4.4,0.4c0.2-0.2,0.5-0.4,0.7-0.7c0.8-1.2,2-2.5,0.6-4c-1.4-1.6-2.8-0.6-4,0.2c-1.9,1.2-3.4,0.9-4.9-0.6
			C241.2,288.8,240.4,288.4,239.6,287.7z M208.1,485.6c4.8-4.5,4.5-5.5-1.9-7.7c0.7-1.5,1.4-2.9,2-4.5c1.7-4.5,0.6-6.2-4.1-6.7
			c-0.9-0.1-1.9-0.3-2.8-0.5c-0.7-3.5,0.9-7.3-2.6-10.4c-1.4,1.6-2.6,3.1-3.8,4.6c-2.4,2.9-3.8,2.7-5.3-0.6
			c-0.8-1.7-1.8-3.4-3.1-5.9c-1.5,2.3-2.7,3.8-3.7,5.5c-1.4,2.4-1.3,4.8,0.4,7C190,475,197.8,482.1,208.1,485.6z M146.5,377.2
			c-4.1-0.8-7.3-1.6-10.5-2.1c-2.2-0.4-3.6-1.3-4.3-3.5c-0.5-1.4-1.2-2.8-2.1-3.9c-1.7-2.4-3-2.6-5.4-0.8
			c-6.2,4.4-12.4,8.8-18.6,13.4c-2.1,1.5-3.9,3.4-5.8,5.1c1.1,1.9,2.3,2,3.7,1.5c0.9-0.3,1.9-0.7,2.7-1.3c2.3-1.7,4.6-1.9,6.9-0.3
			c2.1,1.5,3.8,0.8,5.4-0.5c3.5-2.8,7-3.6,10.4-0.7c2.4-0.9,4.6-2.7,6.3-2.3C140,382.8,142.3,379.4,146.5,377.2z M341.2,450
			c-2.2-0.2-4.4-0.4-6.4-0.5c-0.7-1.8-1.1-3.1-1.7-4.8c-0.9,0.6-1.4,1-1.8,1.4c-0.5,0.4-0.9,1-1.4,1.4c-2.4,2.1-3.9,1.9-5.7-0.6
			c-0.7-1-1.4-2-2.2-3.1c-3.5,3.4-1.8,8.5-4.8,11.9c-1.5-0.3-3.1-0.6-5.1-0.9c0.4,5.7,3.8,9.3,7.1,13c6.2-3,12.1-5.9,17.9-8.7
			C341.5,457,342,456.1,341.2,450z M106,388.7c9.1,4,18,7,27.1,9.5c1.1-1.3,2.2-2.5,1.5-4.1c-1-2.4,0.1-4.2,1.4-6
			c0.4-0.5,0.5-1.1,0.8-1.7c-1.5-0.9-2.7-0.9-3.8,0.2c-1.9,1.8-3.9,1.5-5.9,0.5c-1-0.5-2.1-1-3.3-1.6c-1.5,1.1-3.1,2.1-4.5,3.2
			c-2.1,1.6-4.2,1.7-6.4,0.2c-0.8-0.5-1.7-1-2.6-1.5C108.7,386.5,107.5,387,106,388.7z M162.2,556c-0.2-2.3-0.4-4.2-0.6-6.2
			c-0.4-4.1,1.7-7.6,5.5-8.7c4.3-1.2,8.6-2.2,12.9-3.3c1.2-0.3,2.2-0.7,1.8-1.8c-3.7-0.4-7.1-1-10.4-1c-2,0-4.2,0.7-6.1,1.5
			c-1.6,0.7-3,2-4.5,3.1C154,544.5,154.4,551.2,162.2,556z"/>
		<path d="M285.6,379.1c8.2-4.4,16.1-6,22.4,2.8c2.5-0.3,4.6-0.7,6.7-0.9c3.4-0.5,6.4,0.4,8.6,3c2.3,2.6,4.6,2.4,7.6,1.4
			c6-1.9,12.1-3.4,18.2-5.1c3.8-1,7.3-0.5,10,2.3c0.6,0.1,0.9,0.2,1.2,0.1c4.1-1.8,7.8-1.4,11.8,0.7c3.4,1.7,7.2,2.4,10.8,3.7
			c1,0.4,2,0.9,3.5,1.5c-1,1.2-1.5,2.3-2.3,2.9c-2.4,1.7-4.9,3.4-7.6,4.8c-2.7,1.5-3.5,3.5-2.3,7.3c0.4,1.2,1.2,2.4,1.9,3.5
			c1.6,2.8,2,5.5-0.1,8.3c-0.7,0.9-0.9,2.4-0.8,3.6c0.3,4.4-1.1,6.9-5.4,9c-3.5,1.7-6.8,1.2-9.6-1.4c-1-0.9-1.8-2-2.8-3.1
			c-0.5,0.2-1.2,0.3-1.7,0.6c-2.6,1.3-4.9,0.4-6.8-1.4c-2-1.9-2.3-4.3-1.5-6.9c0.2-0.8,0.6-1.6,1-2.3c1.1-1.8,0.9-3.5-0.3-5.3
			c-2.5-0.1-4.5,1.5-6.7,2.6c-13,6.4-25.9,12.9-38.9,19.3c-4.6,2.3-9.5,4.1-14.2,6.2c-2.1,0.9-4.1,2-6.3,3.1
			c0.3,1.4,0.6,2.5,0.7,3.6c0.2,1.2,0.4,2.3,0.3,3.5c-0.2,1.6,0,4-1,4.7c-3.4,2.4-3.3,7.4-7,9.2c-2,0.9-4.5,0.9-7.2,1.4
			c-4.9,4.5-6.8,5.3-14.1-0.4c-0.4,0.1-0.8,0.2-1.3,0.3c-3.9,1.7-6.4,1.2-8.4-2.3c-1.3-2.2-2-4.8-3.1-7.8c-1.7,0-3.7-0.1-5.6,0
			c-8.3,0.7-14.6-3.1-19.3-9.3c-3.8-4.9-6-10.7-7.4-16.7c-0.4-1.6-0.4-3,1.4-4c2.2,0.7,2.6,2.5,3.2,4.5c1.6,5.6,3.7,11.1,7.6,15.6
			c3.6,4.2,7.7,6.8,13.7,6.8c8.5,0,16.5-1.9,24.4-4.4c6.6-2.1,12.9-5.2,19.5-7.4c14.1-4.6,27.4-11.1,40.7-17.5
			c16.3-7.8,32.5-16,48.8-24c2.8-1.4,5.8-2.4,8.7-3.7c0.9-0.4,1.6-1,2.9-1.9c-3.9-1.5-7.3-2.8-10.7-4.1c-0.9,0.8-1.7,1.9-2.8,2.4
			c-8.2,3.7-16.4,7.2-24.6,10.8c-7.9,3.4-15.9,6.7-23.9,10c-1.6,0.7-3.2,1.8-5.5,0.2c15.8-8,32.4-13.3,47.6-21.3
			c-0.1-0.7-0.1-0.9-0.2-1c-3.9-4.2-8.3-3.9-13.5-2.3c-12.5,3.9-25,8-36.9,13.5c-1.5,0.7-3,1.4-4.6,1.8c-0.8,0.2-1.7-0.4-3.7-1
			c8-3.5,14.9-6.5,21.8-9.6c-2.4-4.5-4.1-5.4-8-4.6c-0.3,0.1-0.7,0.2-0.9,0.3c-4.6,2.3-8.1,1.9-10.5-3.3c-1.2-2.5-4.1-2.8-6.6-2
			c-2.5,0.7-5,1.8-7.4,2.9c-3.6,1.6-4.4,1.4-6.7-1.7c-0.3-0.4-0.6-0.8-0.8-1.2c-1.5-3.1-4.1-3.6-7.2-3c-2.4,0.5-4.8,0.8-7.3,0.7
			c2.7-3.3,6.2-3.9,10-3.8C280.9,373,283,376.2,285.6,379.1z M373.3,412.2c0.4-5.1-2.8-6.6-6.3-8.1c0.6-0.9,1-1.6,1.6-2.2
			c1-1.1,1.8-2.3,0.5-3.4c-0.7-0.6-2.3-0.7-3.1-0.3c-4.7,2.3-9.4,4.8-14.1,7.2c1,2.8,1.8,5.3,2.6,7.7c-4.6,2.7-4.9,4.7-1,8.2
			c1.7-1,3.4-2.1,5.4-3.3c0.8,1.1,1.4,1.8,1.9,2.6c0.5,0.8,0.9,1.8,1.5,2.6c1.9,2.7,3.4,3.2,5.8,2.1c3.3-1.5,4.3-3.4,3.3-6.6
			c-0.4-1.3-0.8-2.5-1.3-3.9C371.2,413.8,372.3,413,373.3,412.2z M277.7,440.9c-10.6,3.5-21.1,6.9-31.6,10.3c0,4.5,0.2,4.9,3.4,7.8
			c1.4-1.3,2.7-2.6,4.1-3.9c3.7,1.4,4.1,6.2,8.6,6.5c0.7-1.4,1.6-2.9,2.6-4.9c1.3,0.3,2.7,0.6,4.1,0.9c4.1,0.9,5.3-0.3,4.9-4.6
			c-0.3-2.8,0-3,2.9-2.8c0.6,0,1.2-0.1,1.9-0.1C279.3,446.8,279.8,443.8,277.7,440.9z"/>
		<path d="M420.4,404.4c10.9-4.1,21.8-8.3,32.8-12.3c0.1,0,0.4,0.4,0.7,0.8c-0.2,0.3-0.3,0.9-0.6,1c-10.8,4-21.6,7.9-32.5,11.8
			C420.7,405.3,420.5,404.9,420.4,404.4z"/>
		<path d="M174.3,351.2c-0.1,1.6-0.3,3.2-0.4,4.8c-0.4,8.3-6.9,11.9-14.2,7.7c-1.7-1-3.5-2-5.3-2.6c-1.5-0.4-3.2-0.1-4.8-0.1
			C156.1,353.9,168,349,174.3,351.2z M171.2,352.8c-6.7-0.8-11.7,1.7-16.7,6.3c3.2,0.7,5.6,1.2,8.2,1.7c-0.1-1.9-0.2-3.2-0.3-4.8
			c4.2-0.7,2.9,3.7,5.1,4.8C170.3,359.3,171,356.6,171.2,352.8z"/>
		<path d="M118.7,376.2c2.2-3.2,4.7-4.2,8-3.9C124.1,376.5,123.2,377,118.7,376.2z"/>
	</g>
</g>
</svg>
