<?xml version="1.0" encoding="utf-8"?>
<!-- Generator: Adobe Illustrator 23.0.1, SVG Export Plug-In . SVG Version: 6.00 Build 0)  -->
<svg version="1.1" id="Layer_1" xmlns="http://www.w3.org/2000/svg" xmlns:xlink="http://www.w3.org/1999/xlink" x="0px" y="0px"
	 viewBox="0 0 595.3 841.9" style="enable-background:new 0 0 595.3 841.9;" xml:space="preserve">
<g>
	<path d="M384.9,367.8c-2.3,1.9-4.6,3.7-6.8,5.7c-1.4,1.3-2,3.1-1.5,5c2.1,7.6,1.5,15.2,0.4,22.8c-0.1,0.6,0.1,1.3,0.1,2.1
		c0.7,0.2,1.4,0.5,1.9,0.4c6-1.6,11.5,0.2,17.1,2c12.6,3.9,17.1,18.3,13.3,28.4c-0.4,1.1-0.9,2.1-1.3,3.1c0.8,1.8,1.5,3.5,3.8,3.5
		c1.6,0,3.3,0,4.6,0c2.7,3.5,0.4,6.5,0.3,9.9c4.9,1.2,6.8,4.2,4.8,9.2c0.9,1,1.6,1.8,2.4,2.6c1.4,1.4,2,2.9,1.2,5
		c-1.4,3.5,0.8,6.8,1.3,10.1c0.1,0.9,2.2,2,3.5,2.3c3.2,0.6,5.5,1.9,6.8,5c0.4,1,1.8,1.7,2.9,2.4c3.5,2.5,7.2,4.9,8.3,9.5
		c0.2,0.9,0.6,1.9,0.5,2.9c-0.2,2.9-2.6,4.3-5.3,3.2c-0.9-0.4-1.7-1-2.6-1.5c-0.7-0.4-1.4-0.8-2.3-1.3c-0.2,4.6,2.9,10.2-3.8,12.6
		c-4.6-1.4-5.8-6-9-8.9c-1.2,4.2,0.8,9-3.2,12.1c-2.8-1.2-4.3-3.3-5.4-5.8c-1.2-3.1-2.5-6.2-4.1-9.1c-1.6-2.9-3.1-3-5.4-0.5
		c-1.3,1.5-2.4,3.2-3.6,4.8c-0.9,1.2-1.7,2.3-2.5,3.4c-3.6-2.1-4-2.8-3.3-6c1.5-6.7,4.4-12.5,10.4-16.4c0.4-0.3,0.9-0.5,1.4-0.9
		c-1.1-2.8-1.9-5.3-3-7.6c-2.7-5.7-5.6-11.3-8.5-17c-1.1-2.1-2.4-4-5.3-5.1c-3.9,4.3-8.6,7.8-15.4,7.6c0,2.8,0.1,5,0,7.1
		c-0.6,10.8-6.2,18-15.9,22.2c-5.6,2.4-11.5,3.2-17.6,2.4c-1.7-0.2-3.5,0-5.7,0c1.6,2.9,3.2,5.2,4.4,7.7c3.5,7.5,2.4,10.4-5.7,13.7
		c-1.5,0.6-3.2,1.2-4.8,1.2c-6.4,0.1-11.6,3.7-18.4,5.7c1.7,0.9,2.4,1.4,3.2,1.6c2.2,0.6,4.5,1.1,6.7,1.8c1.9,0.6,3.9,1.1,5.5,2.2
		c4.3,3.1,8.7,5.9,13.6,8c2.9,1.3,2.7,1.7,2.3,5.9c-1.5,0-3.1,0-4.8,0c1.7,4.4,1.7,4.4-1.2,6.7c-3-1.5-5.9-2.9-9.2-4.6
		c-0.2,2.4-0.4,4.5-0.6,7c-1.3-0.7-2.1-1.1-2.9-1.6c-1-0.5-2-1.5-3.1-1.5c-4.4,0-7.1-2.6-9.3-5.8c-1.2-1.7-2.5-2.3-4.5-2.6
		c-2.6-0.3-5.2-1.3-7.8-1.6c-3.8-0.4-6.4-2.5-8.7-5.3c-2.3-2.7-3.6-9.6-1.8-12.6c2.2-3.5,4.6-6.9,8.3-9.2c5.9-3.7,11.8-7.4,18-11.4
		c-1.5-2.2-3.1-4.4-4.6-6.5c-16.5,1.2-30.3-3.5-40.9-15.1c-3.2,1.8-6,3.4-8.7,5.1c-0.8,0.5-1.7,1.2-2.1,2c-2.7,6.2-5.3,12.5-8,19
		c3.1,3.1,6.1,6.2,9.3,9.1c3,2.7,4.6,6,5.3,9.9c0.5,2.6,1.1,5.2,1.6,7.8c0.1,0.8,0,1.7-0.3,2.4c-2.2,4.3-5,8.2-10.4,8.1
		c-4.4-0.1-8.1,1.8-11.9,3.4c-2.4,1-4.6,2.5-6.4,4.7c-2.2,2.7-4.9,4.9-7.2,7.1c-3.7,0-4.3-2.4-4.7-5.3c-3.4,1.2-6.6,2.2-9.7-0.8
		c0.9-1.6,1.8-3.3,2.7-5c-2.5-1.8-6.7,1-8.3-3.4c8-9.1,18.6-13.3,30.4-15.7c0.2-3.9-1.9-7.2-3-10.8c-0.2-0.6-1.3-0.9-2-1.4
		c-1.6-1.2-3.4-2.2-4.8-3.5c-2.1-2-2.9-4.5-1.2-7.2c4.7-7.7,5.2-16.7,8-25.1c0.3-0.8,0.2-2.1-0.3-2.8c-1.3-2.1-2.9-3.9-4.4-6.1
		c-0.8,0.7-1.4,1-1.8,1.5c-5.5,5.3-11.4,5.5-17.3,0.7c-3.3-2.7-5.8-5.9-7.6-9.8c-0.7-1.6-1.6-3.2-2.4-5c-2.1,0.6-3.9,1.6-5.8,1.5
		c-3.3-0.1-6-1.6-8-4.3c-3-4-4.3-9-3.8-16c-1,0.5-1.9,0.8-2.5,1.4c-2.9,3-5.7,6-8.5,9.1c-2.2,2.5-4.2,5.1-6.7,8.1
		c1.1,1.4,2.2,3,3.7,4.3c3.9,3.3,4.4,7.9,5.3,12.6c-6-0.3-9.7-4.8-14.9-6.6c-3.9,5-7.9,9.9-10.4,15.8c-4.9-0.7-6.1-2.1-5.3-6.2
		c0.1-0.6,0.5-1.2,0.6-1.9c0.1-0.4,0-0.9-0.1-1.7c-3.8,1.7-6.6,5.5-11.5,4.8c0.2-5.3,4-8.7,5.9-13.5c-4.9,1.2-8.5,4.9-13.4,5.2
		c-1.5-2.8-0.7-5.4,1.1-7.4c4.4-4.9,8.3-10.4,15.7-11.4c2.2-0.3,4.2-1.8,6.3-2.8c0.1-1.9,0.3-3.7,0.4-5.6c1.7-0.8,3.3-1.5,5.2-2.4
		c-0.9-2.1-1.7-4-2.5-5.8c2.4-3.2,6.2-3.6,9.4-5.6c-0.4-3.6,1.8-5.3,5.2-6.2c1.7-0.5,3.4-1.3,5.5-2.2c-0.2-1.8-0.4-3.6-0.6-6
		c3.8-2.7,8.5-3.9,13.3-4c0.1-0.8,0.3-1.1,0.2-1.4c-4.7-10.2,5.1-21.8,13.3-24.4c1.6-0.5,3.1-1,5-1.6c0.6-3.3,0.9-6.8,1.9-10
		c1-3.1,2.9-5.9,4.5-9.2c-2.8-0.9-5.8-1.6-8.6-2.9c-2.7-1.2-5.2-2.9-7.6-4.7c-2.4-1.8-5.3-3.3-6.4-6.4c0.4-0.4,0.7-0.9,0.8-0.8
		c5.5,1.4,10.9,0.2,16.3-0.6c7.8-1.2,15.3-0.8,22.2,3.3c0.4,0.2,0.9,0.2,1.8,0.3c-0.1-3.7-2.7-6-3.5-8.7c-4-1.2-7.6-2.2-11.6-3.4
		c0.2-0.1-0.2,0-0.4,0.2c-2.2,1.7-4.4,3-7.3,2.1c-3.1-1-5.8-2.8-7.4-5.6c-1.9-3.2-1.3-6.8-0.5-10.2c0.6-2.4,0.8-4.2-0.5-6.5
		c-2.4-4,0-7.7,2.1-11c1.2-1.9,2.9-3.6,4.4-5.4c3-3.6,6.7-3.8,10.9-2.3c0.3-0.1,0.6-0.1,0.9-0.2c2-1,3.7-3.1,6.4-1.9
		c3.9,1.7,7.9,3.5,9.1,7.9c1.2,4.1,2.4,7.5,6.4,9.9c3.2,1.9,3.9,10.8,1.8,14c-1.4,2.1-3.2,3.8-6,3.9c-1.3,0-2.5,0.3-4.1,0.5
		c1.7,5.6,4.9,10.1,7.3,15.3c11.8-0.8,21.2,4.6,30.2,11.9c0.3-0.7,0.6-1.2,0.8-1.8c1.8-6.1,5.4-11.1,10.7-14.6
		c2.8-1.8,3.6-4,3.2-7.1c-0.7-5.2-1.1-10.6-4.3-15.3c-1,0-2-0.1-3,0c-4.7,0.5-7.5-2.1-9.3-6c-0.7-1.5-1.3-3-2-4.6
		c-0.7-0.1-1.4-0.3-2-0.4c-6.5-0.8-10.3-7-7.6-13.1c1.1-2.4,3-4.4,4.4-6.6c1-1.5,2-3,2.7-4.6c0.9-2.3,2.3-4.1,4.7-4.7
		c4.9-1.3,9.8-1.9,14.5,1c1.6,1,3.1,1.7,5.1,1.3c1.2-0.2,2.7,0.2,3.8,0.8c7.1,3.7,10.1,13.5,6.6,20.6c-0.2,0.4-0.4,0.9-0.6,1.3
		c3.2,9.3,1.7,11.9-9,14.6c0.6,3,1.2,6,2,10.1c1.3-1.9,2.2-3,2.9-4.2c3.7-6.6,9.1-10.8,16.6-12.5c3.7-0.8,7.2-2.4,11.2-3.7
		c0.7,4.7-1.6,8.6-3.3,12.7c-1.7,4.3-4.9,7.3-9.3,10.7c8.6,0.9,15.3,3.5,20.9,8.5c5.6,5,8.5,11.7,10.8,19c2-0.9,3.5-1.6,4.5-2
		c0.5-6.7,1-13,1.6-19.8c-0.6-0.4-1.9-1-3.1-1.9c-2.9-2.2-5.4-5-5-8.7c0.4-4.5-1.4-8-3.8-11.5c1.5-4,3.2-7.8,7.5-9.6
		c0.7-0.3,1-1.3,1.5-1.9c3.2-3.8,6.9-4.8,11.6-2.8c1.9,0.8,3.6,1.4,5.6,0.1c1.8-1.2,3.5-0.6,5,0.7c6.1,5.6,11.2,11.7,5.7,22.1
		c0.4,2.3,0.9,4.4,0.9,6.6c0.1,3.9-2.1,6.8-6,7.4c-3.2,0.5-6.6,0.3-10.5,0.4c-2.5,5.3-2.7,11.4-3.2,17.9c6.1,1.5,11.7,3.8,16.1,8.8
		c4.2-3.9,7.4-8.9,13.4-10.5c-1-4.8,0.2-8.7,4.6-11c1.2-0.6,2.5-1,3.8-1.2c2.4-0.2,4.5-0.6,6.5-2.2c2-1.6,4.2-0.8,6,0.5
		c2,1.5,3.7,3.3,5.9,5.4c2.8,0.1,6.3-0.2,8.7,2.7c2,2.4,4.9,4.2,5.7,7.4c1.3,5.4-1.5,11.8-6.7,15.4c-2,11.2-10.4,16.3-19.7,8.2
		c-3.6,1.8-7,1.1-9.8-1.8c-3.1-3.2-5.2-6.9-4.3-11.7c0.2-0.9,0.3-1.9,0.4-2.8C385.6,368.2,385.3,368,384.9,367.8z M339.6,369.1
		c-0.5-1.7-1-3.6-1.5-5.6c-1.7-7.3-5.6-13.2-11.6-17.5c-5.2-3.8-10.9-6.7-17.5-6c-6.7,0.7-13,2.7-18.8,6.2
		c-7.4,4.5-12.6,10.7-13.8,19.7c-0.2,1.6-0.6,3.2-0.9,4.6c-1.7,0.5-2.8,0.5-3.6-1.1c-0.6-1.3-1.5-2.6-2.5-3.7
		c-5.3-5.8-12-9.6-19.5-11.5c-3.3-0.8-7.1-0.8-10.4,0c-8,1.8-14.8,5.8-20,12.4c-5,6.4-7.2,13.4-4.3,21.4c0.2,0.6,0.2,1.3,0.3,1.9
		c-4.3,3.1-4.7-2.4-7.2-3c-5.3,0.9-9,3.9-11.8,8.3c-4.2,6.7-3.7,12.3,1.8,18c1.8,1.9,3.7,3.7,5.4,5.5c-0.2,0.5-0.2,0.7-0.3,0.8
		c-3.5,4.4-7.7,8.3-7.8,14.6c0,0.6-0.7,1.1-1,1.6c-3.1,5.8-2.7,11.5,0.7,17c0.8,1.2,2,2.3,3.3,3c2.8,1.8,5,1,6.4-2
		c0.4-0.9,0.5-2,1-2.8c0.4-0.8,1.2-1.3,2.1-2.3c0.7,1.2,1.3,2,1.6,2.9c0.5,1.6,0.6,3.3,1.1,4.8c2.2,6,5,11.7,10.8,15.1
		c4.8,2.9,9.2,1.4,11.3-3.8c0.3-0.9,0.5-1.9,0.4-2.9c-0.2-1.5,0.5-2.2,1.7-2.6c1.5-0.5,2.1,0.6,2.7,1.7c1.2,2.2,2.3,4.4,3.7,6.5
		c2.1,3.4,4.8,6.4,8.2,8.6c3.3,2,6.8,3.5,10.9,2.8c6.2-1.1,7.9-3.7,6.2-9.8c-0.4-1.4-0.8-2.7-1.2-4.1c3.2-1.2,3.3-1.2,4.4,0.4
		c0.6,0.8,1.1,1.7,1.6,2.5c6.7,10.7,16.2,17.5,28.6,19.8c4.4,0.8,8.9,1.3,13.3-0.4c3-1.1,3.5-2.5,2.5-5.4c-0.8-2.1-1.7-4.2-2.6-6.2
		c1.4-1.6,2.7-2,4.1-0.7c1.1,1,2.2,2.1,3.3,3.1c8.5,7.7,18.4,11.8,30,11.1c11.9-0.7,22.5-7.9,23.3-23.1c0.2-3.1,0-6-3-7.9
		c-0.5-0.3-0.7-1.4-0.9-1.9c1.4-1.6,3.1-1.7,4.3-0.8c3.7,3,7,1.4,10.1-0.6c9.2-5.9,15.9-13.9,20.7-23.7c4.5-9.3-1.6-22.2-11.2-25.2
		c-6.5-2-12.9-3.4-19.3,0.2c-1.2,0.7-2.6,0.9-3.2-0.2c0.8-6.6,1.9-12.9,2.2-19.1c0.5-8.5-2.5-15.6-9.4-20.9c-7-5.3-13.4-5.4-20.5,0
		C342.5,369.7,341.3,370.2,339.6,369.1z M309.3,523.8c1-0.6,2-1.4,3-1.7c7.7-2.1,14.3-6.7,22.1-8.8c7.2-2,7.9-4.8,4-11.3
		c-1.6-2.7-3.1-5.5-4.8-8.1c-0.4-0.6-1.2-1.1-1.9-1.5c-3.4-1.7-6.8-3.4-10.3-5.1c-1.3,1.7-2.7,3.6-4.1,5.4c1.6,2.6,3.1,4.9,4.5,7.2
		c-3.1,4.3-3.1,4.3-6.8,6.5c-1.7,1-3.5,2-5.1,3.1c-5.1,3.3-10.6,6.2-14,11.7c-2.6,4.2-2.4,8.6,1,12.1c1.6,1.7,3.7,2.2,5.8,2.6
		c3.3,0.6,6.5,1.4,9.8,1.8c2.6,0.3,4.1,1.7,5.5,3.7c1.5,2.1,3.6,3.8,5.5,5.6c1.3,1.2,2.8,1.2,4.4,0.3c-1-2.1-1.9-4-3-6.2
		c4.8-0.9,7.8,2.4,12.1,3.8c-1.6-3.6-0.1-5.4,3.4-7.1c-3.4,0.1-5.7-0.7-7.4-2.6c-3.8-4.1-8.6-6-14.1-6.8
		C315.3,528.2,311.9,527.1,309.3,523.8z M180.9,416.4c0.3,1.1,0.5,1.9,0.7,2.7c0.7,3.3,0.3,4-2.8,5.3c-1.5,0.6-3.2,0.9-4.7,1.7
		c-1,0.5-2.5,1.6-2.4,2.2c0.7,3.9-2.2,4.3-4.7,5.2c-1.8,0.7-3.9,0.9-4.8,2.9c1.1,1.8,2.1,3.5,3.3,5.5c-1.4,0.8-2.5,1.4-3.7,1.9
		c-1.1,0.6-2.3,1.1-3.3,1.6c0.4,5.3-1.3,8.3-5.6,8.3c-6.7,0-11,4.1-15.7,7.6c-1.9,1.4-3.4,3.5-3.3,6.6c5.5-1.6,9.6-7,16.3-4
		c-2.5,3.7-4.8,7.1-7.1,10.6c2.3,0.2,3.7-1,5-2.2c1.9-1.8,3.8-3.8,5.8-5.5c0.6-0.5,1.7-0.2,2.6-0.3c0,0.8,0.1,1.6-0.2,2.2
		c-1.2,3.1-2.5,6.1-3.7,9.2c-0.3,0.7,0.2,1.7,0.5,3.4c1-1.5,1.6-2.3,2.1-3.1c2.3-3.3,4.4-6.6,6.8-9.8c1.4-2,3.3-2.6,5.7-1.4
		c2.2,1.1,4.4,2.2,6.7,3.2c0.9,0.4,2,0.5,3.1,0.8c0.1-6.6-6.1-8.9-8.2-13.7c4.7-9.5,10.7-17.9,20.1-23.5c1.2-0.7,2.3-1.9,3.1-3.1
		c2.4-3.7,4.7-7.6,6.8-11.1c-2.1-1.8-4.2-3.7-6.4-5.6C189.1,413.6,185,413.7,180.9,416.4z M224.2,550.1c4.3,0,7.2-2,9.9-4.2
		c2.5,1.3,1.7,2.9,0.8,4.3c-0.6,1-2.2,1.5-1.3,3.8c3.1-2.8,6-5.2,8.8-7.8c4.4-4.1,9.2-7.2,15.4-7.1c2.4,0,4.1-1.1,5.5-2.9
		c1-1.3,1.8-2.7,2.5-3.7c-0.6-2.5-1.2-4.6-1.6-6.7c-0.8-3.8-2.3-7.2-5.3-9.9c-3.3-3-6.4-6.2-9.6-9.2c1.6-3.7,3.4-7.1,4.6-10.7
		c1.1-3.5,3.3-6.8,3.3-10.3c-4.2-1.6-8.1-3-12.3-4.6c-0.6,1.9-1.4,3.9-1.8,5.9c-1.2,5.7-2.7,11.3-5.3,16.5c-2.1,4.3-1.9,4.7,2.1,7.8
		c1.6,1.2,3.9,1.9,4.7,3.4c1.8,3.5,2.9,7.4,4.1,11.2c0.2,0.6-0.2,1.9-0.7,2.2c-1.7,1-3.5,2.2-5.5,2.5c-7.7,1.2-14.6,4.2-21.1,8.4
		c-1.3,0.8-2.8,1.7-3.3,3.6c3.6,0.6,6.8,0.5,9.6-1.9c1-0.8,2.2-1.2,3,0.1c0.8,1.2,0.2,2.2-0.8,3c-0.4,0.3-0.8,0.6-1.1,1
		C227.2,546.6,225.7,548.4,224.2,550.1z M421.4,511.4c1.2-4.3,0.8-7.6-0.1-10.9c-0.2-0.9,0.4-2.2,1-3c0.9-1,2.2-0.6,3,0.4
		c1.7,2,3.4,4.1,4.9,6.2c1.2,1.7,2.3,3.5,5,4.6c0.2-1.4,0.7-2.5,0.5-3.4c-0.7-2.2-1.7-4.3-2.5-6.5c-0.3-0.8-0.9-1.5-1-2.2
		c-0.1-0.9,0-2.2,0.6-2.7c0.5-0.5,1.9-0.6,2.6-0.3c2.1,0.9,4.1,2.2,6.1,3.3c0.8,0.4,1.6,0.9,2.4,1.3c-1.1-3.9-2.9-7-6.8-8.4
		c-1.3-0.5-3.4-1.7-3.4-2.4c0.2-3.2-1.8-3.4-4-3.7c-1.9-0.3-3.9-0.7-5.9-1.1c-2.3-2.2-0.1-6-2.6-8.2c0.2-2.9,0.5-5.8,0.7-8.6
		c-1.5-0.7-2.6-1.2-3.9-1.8c0.2-1.9,0.4-3.5,0.5-5.1c0.3-2.7,0.1-2.9-2.6-3.9c-2.8-1.1-3.3-1.7-2.7-4.3c0.5-2.1,1.3-4.1,0.5-6.2
		c-2.8-0.6-5.5-1.2-8.4-1.8c-2.3,2.8-4.9,6.1-7.7,9.5c8.3,9.9,11.6,21.8,14.2,33.9c-2.6,2.9-5.5,5.5-7.6,8.6c-2,3-3.8,6.3-3.4,10.3
		c1-0.7,1.5-1.7,2.2-2.5c1.6-1.8,3.1-3.9,5.1-5.3c3.5-2.5,5.6-2.2,7.7,1.6c1.7,3,2.7,6.4,4,9.6C420.3,509,420.7,509.8,421.4,511.4z
		 M225.1,302.9c-0.5,0.7-0.9,1.3-1.2,1.8c-1.9,2.6-2,2.6-4.8,1.1c-1-0.5-2-1.2-3.1-1.5c-1.6-0.5-4,0.8-3.6,2.2
		c0.7,2.7-0.7,3.3-2.7,3.6c-3.1,0.4-3.1,3.1-3.7,5.2c-0.5,1.8,0.4,3.1,2.3,3.8c0.8,0.3,1.3,1.5,2.1,2.5c-2.1,1.7-5.1,1.9-5.1,4.8
		c0,2.3-0.4,4.8,0.4,6.8c1.6,4.5,6.1,6.3,10.9,4.9c0.8-1.5-0.4-3.8,2.3-4.7c0.5,0.4,1.1,1,1.8,1.4c2.3,1.3,4.5,2.7,7,3.7
		c2,0.7,3.6-1.1,3.1-3.1c-0.2-0.8-0.5-1.6-1-2.3c-1.3-2.1,0-3,1.7-3.9c3.3,1.7,6.7,2.7,10.4,1.2c2.1-7.3,0.3-10.4-7.6-14.4
		C233.8,308,232.8,306.5,225.1,302.9z M401,377c1.4,2.3,2.4,4.7,4,6.4c3,3.1,7.2,2.3,8.9-1.6c0.8-1.8,1.4-3.6,0.9-5.8
		c-0.8-3-0.4-3.6,2.5-3.8c2.3-0.1,3.2-1.1,3.9-3c1.9-5.1,1-8.1-3.5-12.3c-1.9-1.7-3.8-2.5-6.3-1.7c-1.1,0.4-2.2,0.5-3.6,0.7
		c-0.8-3.4-2.2-6.1-5.5-7.7c-1.8,1.6-3.9,2.8-6.6,2c-0.7-0.2-1.6,0.1-2.4,0.3c-3.7,0.6-5,2.2-4.1,5.8c0.6,2.4,1.8,4.6,2.8,6.8
		c0.4,0.9,0.8,1.7,1.2,2.4c-3.7,3.4-4.7,6.4-2.8,10.2c1.1,2.1,2.9,4,4.6,5.7c0.5,0.5,1.8,0.3,2.6,0.3
		C398.6,379.9,397.5,376.5,401,377z M271.4,306.6c1.8,6.1,1.6,12.9,9.1,14.1c1.8-1.2,1.4-2.4,1.1-3.8c-0.4-1.5,0.6-2.5,2.3-3
		c0.9,0.7,1.9,1.6,3,2.2c1.9,1,3.8,2.1,5.9,2.6c1.2,0.3,3-0.3,4.1-1.1c1.5-1.2,1-3,0.2-4.6c-0.7-1.3-1.4-2.5-2-3.7
		c0.4-0.7,0.6-1.2,0.9-1.6c3.3-4.4,3.5-7.2,0.5-11.8c-1-1.5-2.1-3-3.3-4.3c-1.2-1.2-2.6-2.2-4.4-1.3c-1.8,0.9-3.2,0.1-4.5-1
		c-3.3-3-7.3-2.8-11.3-2.5c-2.5,0.2-3.5,2-2.6,4.2c0.4,1,1.1,2,1.6,2.8c-1.4,3.9-4,0.8-6.1,1.2c-1,1.3-2.1,2.6-2.9,4
		c-1.8,3.3-0.6,7.8,2.7,9.4c0.9,0.4,2.2,0.2,3.3-0.1C269.7,308.3,270.2,307.6,271.4,306.6z M354.6,333.4c0.2,0.1,0.3,0.1,0.4,0.2
		c0.5,0.5,1,0.9,1.4,1.4c3,4.3,7.4,4.6,12,4c1.8-0.2,2.8-1.3,2.6-3c-0.2-1.6-0.7-3.2-1.3-4.7c-0.6-1.3-1.6-2.4-2.7-4
		c1.7-1.2,3.3-2.3,4.8-3.4c0.5-6.5-2-11.4-7.3-14.4c-2.4,4-2.4,3.9-6.1,1.3c-1.1-0.8-2.3-1.4-3.5-1.8c-1.6-0.5-3.3-0.9-4.4,1.3
		c0.5,1.8,1,3.6,1.4,5.3c-3,3.4-4.8-0.6-7.5-0.9c-0.8,1.4-1.7,2.7-2.6,4.3c1.7,2.3,3.2,4.4,4.8,6.6c-3,5.8-1.3,10.5,5.1,12.7
		C352.6,336.7,351.4,333.6,354.6,333.4z M310.7,325.5c-4,4.5-8.8,8.1-12.7,13c13.7-0.2,24.7-13.7,22.9-22.2
		c-4.2,1.4-8.5,2.6-12.6,4.2c-1.7,0.6-3.2,1.7-4.6,2.9c-3.6,3-6.2,6.9-8.1,11.2c-0.3,0.8-0.4,1.7-0.9,3.5c3-3.1,5-5.7,7.5-7.8
		C304.7,328.2,307.2,326,310.7,325.5z M231,353.2c-2.1-0.9-3.7-1.8-5.4-2.3c-4.4-1.2-8.8-1.2-13.3-0.6c-5.2,0.7-10.4,1.1-15.7,1.7
		c0,0-0.1,0.4,0,0.6c4.9,4.7,10.5,8.1,17.3,9.1c3.5,0.5,6.7-0.6,9.1-4c-4.5-1.4-9-0.6-12.7-3.1c3.4,0,6.7,0.5,10.1,0.5
		C223.8,355,227.4,355.9,231,353.2z M352.5,362.3c0.5-4.2,0.9-7.6,1.4-10.9c0.5-3.5,1.3-6.9,1.9-10.4c-2.9,0.4-4.2,2-4.7,4.3
		c-0.7,3.2-1.5,6.5-1.7,9.7C349.2,357.3,349.1,359.9,352.5,362.3z M289.8,342c2.2-0.6,2.4-1.9,2.2-3.3c-0.6-3.9-1.2-7.9-2-11.8
		c-0.3-1.4-0.9-2.9-1.6-4.2c-0.6-1.1-1.7-1.9-3.4-1.3C286.7,328.3,288.2,335,289.8,342z M385.3,361.8c-6.5,2.1-11.2,7.3-10.7,11.6
		c3.4-2.6,6.9-5.3,10.3-7.9C386.1,364.5,386.5,363.4,385.3,361.8z M234,338.9c-2,1.9-2.5,3.2-1.5,5c1.1,1.9,1.9,3.8,3,5.7
		c1.3,2.3,1.5,2.3,4.6,0.4C238.2,346.4,236.2,342.8,234,338.9z"/>
	<path d="M309.4,422.8c1.4,0.3,2.9,0.8,4.3,0.9c6.2,0.4,11.1,3.3,15.1,7.9c3.5,4,6.8,8.1,10.4,12.5c-1.1,0.6-2,1.5-2.9,1.6
		c-5,0.5-9.9,0.8-14.9,1.2c-4.1,0.3-7.3-1.9-10.9-3.9c-8.9,5.9-17.4,5.4-24.9-2.2c-0.7-0.2-1.1-0.4-1.3-0.3
		c-6.7,2.4-13.1,0.3-19.6-1.1c-3.1-0.7-6.1-1.4-9.4-2.2c2.1-4.5,6.8-6.1,10.2-9c3.8-3.2,8.4-4.9,13.1-5.8c4.5-0.8,9.2-0.6,14.3-0.8
		c-0.4-2.8,2.7-4.7,1.7-7.7c-0.1-0.3,0.3-0.9,0.6-1.3c2.7-2.7,8.6-2,10.9,1.3c0.9,1.3,2.3,2.5,2.8,3.9
		C309.4,419.3,309.2,421,309.4,422.8z M293.7,424.8c0-0.3-0.1-0.5-0.1-0.8c-4.3,0-8.7-0.6-12.9,0.1c-7.2,1.3-12.6,6.3-18.2,10.7
		c-0.1,0.1-0.1,0.3-0.1,0.7c2.4,0.5,4.8,1,7.1,1.6c9.1,2.4,16.7-0.5,23.4-6.4c0.5-0.5,0.8-1.3,1.2-2.1c-3.1-1.4-6,2-8.9-0.3
		c1.6-0.7,3-1.2,4.4-1.8C291,426,292.3,425.4,293.7,424.8z M333.3,442.6c-1.4-1.6-3-3.3-4.4-5.1c-1.9-2.3-3.7-4.6-5.7-6.8
		c-4.2-4.6-9.1-5.8-16.1-4c4.5,3.1,10.1,4.1,14.1,9.5c-5.8-2.3-10.1-5.5-15.5-6.4C310.5,442.9,320.8,446.9,333.3,442.6z M304,413.7
		c-4.7-1.2-4.7-1.2-7.3,0.5c0.6,0.9,1.2,1.8,1.8,2.7c-1.2,1.1-3.8,1.2-2.7,4.2c1.6,0.5,3.4,1,5.2,1.7c3,1.2,2.9,1.2,5.5-1.3
		c-0.2-1.5-0.4-2.9-0.6-4.2c-1.1-0.3-2-0.6-2.9-0.9C303.4,415.5,303.6,414.8,304,413.7z M294.2,435.7c3.5,0,6.5,0,9.8,0
		c-0.3-2.9-1.1-5.1-3.3-7.3C298.6,430.9,296.6,433.1,294.2,435.7z M300.1,444.7c3.5-0.5,4-0.8,4.7-3.6c0.3-1.2,0-2.4,0-4.1
		c-1.9,0.4-3.3,0.8-4.7,1.1C300.1,440.6,300.1,442.6,300.1,444.7z M296.6,445.4c1-2.7,1.8-4.8,1-7.3c-1.2-0.1-2.2-0.2-4.1-0.3
		C294.6,440.6,292.3,443.6,296.6,445.4z"/>
	<path d="M314.2,397c1.2-2.3,3.1-4.1,5.5-5.3c4.9-2.6,11.2,0.7,12.1,6.3c0.2,1.3-0.2,2.5-1.5,2.7c-0.8,0.1-1.9-0.4-2.4-1
		c-0.8-1-1.2-2.3-2-3.4c-1.8-2.8-4.5-3.3-7.2-1.4c-1.3,0.9-2.5,2-3.7,3C314.7,397.5,314.4,397.3,314.2,397z"/>
	<path d="M274.8,394.7c1.9-2.4,3.8-3.3,6.2-3.8c4.3-0.7,8.9-1,12.4-4.4c0.4-0.4,1.5-0.5,1.8-0.2c0.5,0.5,0.9,1.5,0.7,2.1
		c-0.5,1.9-1.9,3.1-3.8,3.5c-1.8,0.4-3.6,0.8-5.4,0.8c-3.4,0-6.6,0.1-9.6,1.9C276.8,394.9,276.2,394.7,274.8,394.7z"/>
	<path d="M280.4,404c1.3,1.9-0.7,4.6,2.5,5.7c0.9-1.8,1.8-3.6,2.7-5.4c2.9,0.3,3,0.4,2.7,2.4c-0.4,2.7-1.8,4.6-4.3,5.7
		c-2.6,1.1-5.1-0.5-5.2-3.4C278.8,407.9,279.1,406.8,280.4,404z"/>
	<path d="M288.6,447.4c2.9,1.5,5.7,3.2,8.8,4.4c3.4,1.4,6.2-1.2,9.5-2.9c-2.4,4.4-6.2,5.9-10.6,4.3
		C293.1,452.2,290.2,450.6,288.6,447.4z"/>
	<path d="M315.4,409.9c0.6,2.1,1,3.6,1.3,4.8c3.2,0.4,1.6-5.6,5.8-3.2c-0.2,2-1.3,3.6-2.7,4.9c-0.8,0.7-2.1,1.2-3,1
		c-1.5-0.3-2.6-1.6-2.5-3.3C314.3,412.9,314.9,411.7,315.4,409.9z"/>
	<path d="M219.9,316.9c2.3,0.1,4.9,2.7,4.9,4.8c0,2.4-1.9,4.3-4,4.2c-2.1-0.1-4.6-3.2-4.6-5.8C216.2,318.4,218,316.8,219.9,316.9z"
		/>
	<path d="M409,367.4c-0.1,1.6-1.5,3.1-2.9,3c-2.5-0.3-4.9-1-6.3-3.4c-1-1.7-0.8-4.2,0.6-5.5c1.5-1.4,3.1-0.7,4.6,0.2
		C407.2,363,408.9,364.7,409,367.4z M401.6,362.5c-0.1,4,1.1,5.8,3.9,6.3c1.3,0.2,2.4-0.9,1.9-2
		C406.2,364.3,404.6,362.4,401.6,362.5z"/>
	<path d="M276,300.4c1.4-1.9,3-3.1,4.9-2.4c1.4,0.5,2.9,1.6,3.8,2.8c1.6,2.1,0.7,5.2-1.5,6.4c-1.7,1-4.3,0.2-5.5-1.9
		C276.9,303.7,276.5,301.9,276,300.4z M284,303.9c-0.1-2.3-2.4-4.6-3.9-4.1c-0.7,0.2-1.5,1.3-1.5,2.1c-0.1,2.2,2,4.2,3.7,3.7
		C283,305.3,283.5,304.3,284,303.9z"/>
	<path d="M357.7,319.7c2,0,3.7,1.3,4.6,3.8c0.9,2.3,0.5,4.1-1,5.4c-1.5,1.3-4.1,1.2-5.2-0.7c-0.9-1.6-1.5-3.6-1.7-5.5
		C354.3,321,356,319.7,357.7,319.7z M358.3,321.3c-1.7,0.9-2.4,2-2,3.4c0.3,1,1,2.1,1.8,2.9c1.1,1,2.8,0.3,2.9-1.2
		C361.2,324.1,360.4,322.4,358.3,321.3z"/>
</g>
</svg>
