<?xml version="1.0" encoding="utf-8"?>
<!-- Generator: Adobe Illustrator 28.2.0, SVG Export Plug-In . SVG Version: 6.00 Build 0)  -->
<svg version="1.1" xmlns="http://www.w3.org/2000/svg" xmlns:xlink="http://www.w3.org/1999/xlink" x="0px" y="0px"
	 viewBox="0 0 400 300" style="enable-background:new 0 0 400 300;" xml:space="preserve">
<style type="text/css">
	.st0{fill:#BCAFB3;}
	.st1{fill:#3E3E3E;}
	.st2{fill:#70BF44;}
</style>
<g id="Layer_2">
	<path class="st0" d="M71.22,167.35c-0.05-0.02-0.1-0.08-0.1-0.31c0-0.06-0.01-0.13-0.02-0.19c-1.01,0.77-1.98,1.61-2.88,2.5
		c0.85-0.46,1.66-0.96,2.39-1.57C70.97,167.48,71.14,167.38,71.22,167.35z"/>
	<path class="st0" d="M366.96,125.01c-0.6-5.94-1.87-11.81-3.83-17.36c-3.95-11.18-9.57-21.17-16.27-30.71
		c-3.78-2.51-8.96-3.14-12.93-5.19c-0.4-0.2-0.77-0.44-1.13-0.69c-1.01,0.12-2.09-0.05-3-0.34c-1.49-0.48-2.62-1.7-3.34-3.05
		c-0.71-1.34-0.73-3.26-0.21-4.66c0.41-1.12,1.09-1.91,1.94-2.57c0.01-0.18,0.03-0.37,0.03-0.55c0.01-0.95,0.31-1.81,0.79-2.55
		c-0.17,0.09-0.31,0.2-0.5,0.28c-5.66,2.58-12.08,0.04-16.63-3.66c-2.46-2-4.37-4.41-5.85-7.21c-1.55-2.93-1.69-3.89-4.63-5.17
		c-2.4-1.05-3.51-3.04-3.64-5.1c-1.16-0.76-2.34-1.5-3.54-2.2C286.87,30,279,26.59,271.09,23.54c-13.85-5.33-28.72-7.86-43.51-8.69
		c-0.82-0.05-1.63-0.02-2.43,0.03c-18.69-2.76-37.28-2.43-56.28,0.36c-0.44,0.06-0.89,0.17-1.33,0.29
		c-5.57-0.49-11.29,0.78-16.66,2.97c-3.36,0.59-6.5,1.86-9.28,3.66c-6.22,0.73-12.48,4.08-16.95,8.9c0.12,0.08,0.24,0.14,0.35,0.23
		c1.03,0.79,1.91,1.84,2.96,2.59c0.14,0.1,0.22,0.18,0.26,0.24c0.16-0.01,0.35-0.02,0.62-0.02c3.26,0.02,5.69,3.54,5.41,6.54
		c-0.32,3.43-3.3,5.43-6.54,5.41c-0.78,0-1.49-0.09-2.15-0.24c-0.32,0.38-0.67,0.73-1.05,1.07c-3.33,2.95-7.92,3.81-12.22,4.24
		c-0.12,0.91-0.45,1.77-1.04,2.47c-1.71,2.04-3.67,3.28-6.19,4.08c-0.25,0.18-0.52,0.34-0.8,0.48c-1.47,0.7-3.03,1.2-4.64,1.34
		c-1.84,1.68-3.78,3.27-5.86,4.57c-1.02,0.64-2.07,1.2-3.1,1.82c-1.01,0.62,0.29,0.21-0.7,0.48c-0.01,0.01-0.02,0.02-0.04,0.03
		c-1.14,1.89-3.09,3.12-5.58,2.89c-2.5-0.23-5-2.4-5.42-4.95c-0.27,0.16-0.54,0.31-0.8,0.47c-1.93,1.19-3.64,2.54-5.16,4.01
		c-0.01,0.71-0.16,1.46-0.49,2.25c-2.04,4.91-5.34,8.95-7.98,13.46c0.03,0.76-0.05,1.53-0.28,2.28c-1.3,4.44-2.57,8.89-4.39,13.16
		c-0.34,0.79-0.81,1.48-1.39,2.07c-1.17,4.91-2.22,9.85-3.12,14.82c-0.86,4.72-0.84,9.32,0.22,13.57c1.36-1.6,3.27-2.8,5.18-3.82
		c8.76-4.68,15.69,0.29,22.47,5.85c1.74,1.43,2.38,3.28,2.27,5.07c0.77,1.84,0.54,4.03-0.54,5.87c-2.57,4.4-7.38,7.16-12.4,7.77
		c0.54,0.13,1.09,0.34,1.64,0.64c6.47,3.59,10.8,12.76,8.12,19.9c-2.55,6.79-10.36,8.51-15.96,11.85c-1.42,0.85-2.76,1.02-3.94,0.72
		c0.08,0.44,0.13,0.9,0.11,1.39c-0.27,8.02,4.3,15.44,8.12,22.2c4.06,7.19,7.91,14.43,12.78,21.12
		c5.02,6.89,10.71,13.42,17.28,18.88c5.37,4.47,11.17,8.37,16.75,12.55c2.36,1.3,4.73,2.57,7.11,3.8c5.98,3.1,11.89,5.76,18.13,7.49
		c0.57-1.33,1.57-2.46,2.9-3c1.29-0.53,2.64-0.92,3.99-1.29c0.39-0.11,0.78-0.21,1.17-0.32c0.17-0.06,0.35-0.13,0.52-0.2
		c0.55-0.22,1.09-0.35,1.64-0.42c0.65-2.03,2.19-3.59,4.2-4.09c1.31-0.64,2.85-0.92,4.53-0.94c1.18-0.02,2.24,0.45,3.11,1.19
		c0.73-0.14,1.45-0.17,2.15-0.06c2.36-1.16,5.66-0.64,7.27,1.48c1.13,1.5,2.22,3.07,2.95,4.78c0.42-0.24,0.83-0.49,1.25-0.73
		c1.14-0.65,2.5-1.41,3.15-2.78c1.02-2.15,2.93-3.69,5.16-3.9c1.76-1.09,4.03-1.28,6.24,0.29c1.03,0.73,2.03,1.5,3.02,2.28
		c2.21-1.19,5.04-1.13,7.15,1.34c2.6,3.04,5.13,6.15,7.47,9.4c0.78-0.65,1.74-1.14,2.88-1.33c1.18-1.93,2.9-3.57,5.02-4.42
		c2.33-0.94,4.74-0.85,7.21-0.84c2.1,0.01,3.74,1.39,4.65,3.15c2.91,0.46,5.29,3.55,4.89,6.48c0,0.03,0,0.05,0,0.08
		c0.03,0.07,0.07,0.14,0.11,0.2c2.34,0.7,4.83,1.15,7.54,1.5c1.99,0.25,4,0.35,6.03,0.32c0.31-0.12,0.63-0.23,0.98-0.32
		c1.87-0.44,3.71-0.97,5.58-1.39c5.68-2.93,11.93-3.73,18.15-4.84c1.12-0.59,2.21-1.21,3.27-1.86c1.3-0.8,2.52-1.73,3.65-2.74
		c2.33-0.88,4.66-1.78,6.97-2.72c8.92-3.62,17.85-7.17,26.06-12c2.53-2.38,4.47-5.34,7.29-7.45c1.9-1.42,6.99-3.05,7.92-5.33
		c0.89-2.19-1.7-6.8-2.18-8.99c-0.74-3.4-0.67-6.83,0.78-10.03c0.2-0.45,0.45-0.85,0.71-1.23c0.19-2.44,1.63-3.92,3.44-4.51
		c0.48-0.53,1.04-1,1.71-1.34c0.46-1.04,1.16-1.99,2.12-2.67c-0.17-1.07-0.07-2.23,0.27-3.16c0.59-1.59,1.67-2.47,3.05-3.34
		c2.32-1.47,5.36-2.1,8.11-1.88c0.04-0.05,0.09-0.11,0.13-0.17c-1.72-3.48-3.03-7.43-2.67-11.3c0.53-5.71,4.67-8.57,9.64-9.4
		c-1.12-2.1-2.2-4.33-2.47-6.72c-0.37-3.26,0.57-6.04,2.22-8.82c0.23-0.38,0.49-0.71,0.79-1c0.2-1.35,1.07-2.59,2.05-3.49
		c1.19-1.1,2.87-1.48,4.45-1.4c0.11,0.01,0.22,0.02,0.33,0.04c0.75-1.6,1.46-3.25,2.1-4.92c-0.26-1.53,0.16-2.91,1-4
		c-0.1-1.07-0.2-2.15-0.16-3.26c0.07-2.39,0.65-4.7,1.06-7.04c0.85-4.92,2.31-9.82,1.59-14.83
		C366.59,126.77,366.68,125.84,366.96,125.01z"/>
	<path class="st1" d="M132.68,36.09c-4.94-4.07-11.15-5.63-17.22-2.94c-2.24,0.99-3.73,2.98-5.84,3.37
		c-1.87,0.34-4.19-0.38-5.63-1.71c-0.47-0.82-1.08-1.59-1.84-2.27c-0.97-0.86-2.06-1.36-3.17-1.57c-2.54-6.9-13.42-4.03-12.51,3.13
		c-0.23,0.13-0.46,0.27-0.68,0.42c-2.42,1.63-4.29,4.1-5.28,6.83c-0.51,1.42-0.76,2.86-0.92,4.36c-0.06,0.56-0.49,4.19,0.13,3.76
		c-3.41,2.34-4.45,7.07-1.32,10.21c0.13,0.13,0.28,0.25,0.41,0.38c0.26,1.35,0.77,2.71,1.33,4.09c1.33,3.28,4.32,5.51,8,4.54
		c2-0.53,3.85-2.35,4.56-4.45c4.59-0.78,9.37-3.24,12.8-5.7c4.76-3.41,8.58-8.39,14.67-9.23c1.38-0.19,2.5-1,3.31-2.1
		c1.49-0.11,3-0.11,4.58-0.01C133.46,47.54,137,39.64,132.68,36.09z"/>
	<path class="st1" d="M349.69,51.29c-3.01-3.82-7.21-5.82-11.61-5.76c0.5-3.51-1.59-7.77-3.71-10.87c-1.89-2.77-4.03-3.95-6.84-5.54
		c-0.4-0.73-0.87-1.43-1.43-2.05c-1.02-1.21-1.94-2-3.39-2.69c-6.64-3.16-13.09,1.14-17.56,5.88c-0.29-0.04-0.59-0.06-0.9-0.06
		c-7.71,0-8.32,11.04-1.81,12.77c0.54,0.23,1.14,0.39,1.81,0.45c-0.01,0.75,0.13,1.57,0.48,2.45c2.51,6.24,7.17,10.78,13.99,11.95
		c2.7,0.46,7.04,0.81,9.53-0.62c0.32,1.06,0.84,2.4,0.74,2.46c-4.36,2.76-4.24,10.79,1.55,11.88c0.76,0.14,3.77,0.56,6.46,1.11
		c0.95,1.25,2.4,2.13,4.36,2.27c2.59,4.45,10.4,5.15,11.86-1.21C354.95,66.21,354.65,57.58,349.69,51.29z"/>
	<path class="st1" d="M366.26,192.13c0.09-0.46,0.15-0.91,0.2-1.37c-2.45-1.6-2.79-5.21-1.32-7.88c-0.23-0.38-0.49-0.73-0.78-1.03
		c0.29-0.18,0.58-0.36,0.86-0.55c2.32-1.5,4.64-3.01,6.95-4.51c2.94-1.91,4.16-5.76,2.33-8.89c-1.66-2.84-5.67-4.16-8.61-2.49
		c-1.22-2.83-4.74-4.39-7.68-3.58c-2.99,0.82-4.7,3.51-4.71,6.39c-0.25,0.37-0.47,0.91-0.63,1.25c-0.73,1.53-1.17,2.96-1.37,4.64
		c-0.37,3.09,0.38,6.39,2.76,8.27c-0.24,0.29-0.46,0.61-0.64,0.95c-0.34,0.05-0.67,0.13-1,0.26c-2.45,0.97-5.42,1.67-7.3,3.62
		c-2.07,2.14-2.14,4.96-2.25,7.75c-0.12,3.08,0.46,5.65,2.8,7.79c-0.59,0.44-1.11,0.94-1.63,1.42c-6.11,0.1-10.7,7.4-14.22,11.72
		c-2.2,2.7-3.83,5.34-4.12,8.89c-0.31,3.84,1.3,7.41,1.33,11.19c0.05,5.26,5.4,7.66,9.78,5.61c6.47-3.02,12.58-4.76,15.69-11.6
		c2.76-6.08,7.95-10.37,7.24-17.67c-0.09-0.96-0.44-1.91-0.95-2.78c0.71-1,1.27-2.11,1.74-3.27c3.34-1.26,6.02-3.93,6.44-7.83
		c0.2-1.82-0.28-3.63-1.2-5.17C366.09,192.88,366.19,192.52,366.26,192.13z"/>
	<path class="st1" d="M237.47,280.16c-0.36-1.45-0.98-2.46-2.04-3.5c-0.96-0.93-1.57-1.06-1.72-1.34c-1.47-2.64-1.22-4.94-4.1-6.81
		c-5.99-3.89-14.48,3.17-19.54,6.05c-0.1,0.05-0.18,0.11-0.27,0.17c-2.44-3.37-4.77-7.35-8.23-9.75c-1.15-0.8-2.37-1.52-3.74-1.93
		c-0.99-0.19-1.98-0.34-2.98-0.45c-0.26-0.01-0.47-0.01-0.66-0.01c-2.85-1.85-5.02-3.18-8.65-1.78c-2.98,1.15-5.22,3.84-7.29,6.44
		c-1.18-0.69-2.2-1.52-3.52-2.29c-0.88-1.87-2.75-3.24-5.64-3.17c-6.11,0.15-12.59-1.98-16.53,4.49c-0.48,0.79-0.81,1.56-1.03,2.31
		c-0.81-0.18-1.66-0.28-2.59-0.32c-8.36-0.36-8.35,12.64,0,13c-2.09-0.09,0.04,0.97,0.92,1.8c1.02,0.97,2.22,2,3.42,2.75
		c2.53,1.58,5.5,2.4,8.48,2.3c3.17-0.11,6.11-1.57,9.27-1.6c1.45-0.01,2.85,0.28,4.26,0.59c0.85,0.19,1.7,0.4,2.54,0.64
		c0.77,0.41,1.29,0.57,1.58,0.5c0.69,1.82,2.1,3.32,4.04,3.92c1.07,1.53,2.78,2.56,5.06,2.45c6.85-0.34,17.82,0.67,22.12-5.15
		c1.23,0.72,2.47,1.13,3.93,1.35c3.56,0.54,7.32,0.14,10.87-0.35C231.06,289.69,239.43,287.96,237.47,280.16z"/>
	<path class="st1" d="M76.15,179.39c0.78-0.61,1.57-1.21,2.32-1.85c0.34-0.29,0.66-0.6,0.98-0.9c0.13-0.18,0.27-0.35,0.4-0.53
		c0.69-0.96,1.6-1.63,2.59-2.04c0.48-1.79,0.43-3.78,0.43-5.74c0-1.22-0.3-2.26-0.77-3.12c0.04-1.51-0.45-3.08-1.71-4.49
		c-0.49-0.55-0.95-1.12-1.39-1.7c-0.47-3.52-3.01-6.79-6.65-7.31c-0.56-0.08-1.11-0.08-1.64-0.05c1.74-0.47,3.41-1.01,4.89-1.37
		c5.54-1.34,11.48-3.58,10.79-10.45c-0.63-6.31-5.86-8.16-10.31-11.39c-1.81-1.31-3.18-3.01-5.48-3.57
		c-3.57-0.87-6.79,0.7-9.82,2.37c-4.98,2.75-10.39,5.97-12.66,11.44c-1.83,4.41-2.09,10.81-0.3,15.27c1.02,2.55,2.86,4.63,5.3,5.91
		c0.98,0.52,2.03,0.87,3.1,1.14c-0.04,0.51-0.04,1.03,0,1.57c0.06,0.78,0.27,1.5,0.58,2.17c-0.58,0.67-1.04,1.49-1.32,2.51
		c-0.84,3.09-0.41,5.88,0.81,8.4c0.7,1.87,1.81,3.56,3.55,4.89c0.01,0.01,0.02,0.01,0.03,0.02c0.24,0.25,0.49,0.49,0.74,0.73
		c1.48,1.4,3.15,1.91,4.73,1.81c1.44,0.32,3.04,0.21,4.61-0.51c1.5-0.69,2.63-1.83,3.63-3.12C74.46,179.51,75.31,179.5,76.15,179.39
		z"/>
	<path class="st2" d="M121.23,26.79c-0.38-2.56-0.77-5.06-0.86-7.65c-0.03-0.86-0.53-1.46-1.17-1.75c0.16-0.61,0.33-1.22,0.53-1.82
		c0.82-2.45-3.04-3.5-3.86-1.06c-0.85,2.54-1.32,5.22-1.4,7.89c-0.02,0.67-0.01,1.34,0.02,2c-0.01,0-0.02,0-0.03,0.01
		c-0.07-0.58-0.23-1.16-0.47-1.7c-0.82-1.89-1.68-3.77-2.53-5.65c-0.71-1.59-3.28-1.1-3.66,0.48c-0.43,1.81-0.99,3.59-1.68,5.31
		c-0.54-0.51-0.92-1.21-1.55-1.61c-0.9-0.56-2.1-0.49-2.88,0.25c-0.66,0.62-0.98,1.56-1.22,2.4c-0.87,3.07-0.31,6.59,1.61,9.15
		c2.08,2.78,5.81,3.74,8.92,2.04c1.33-0.73,2.42-1.95,3.04-3.32c0.29-0.65,0.48-1.3,0.61-2c0.06-0.34,0.12-0.67,0.2-1
		c0.01-0.05,0.04-0.12,0.08-0.2c0.15,0.74,0.39,1.45,0.86,1.91c0.99,0.99,2.65,0.68,3.75,0.06
		C120.95,29.74,121.46,28.31,121.23,26.79z"/>
	<path class="st2" d="M321.49,17.95c-0.11-0.11-0.23-0.21-0.36-0.31c0.43-0.82,0.57-1.78,0.25-2.7c-0.27-0.77-0.84-1.32-1.66-1.43
		c-0.72-0.1-1.67,0.24-1.99,0.95c-0.3,0.68-0.58,1.39-0.72,2.13c-0.23,0.48-0.27,1.03-0.06,1.53c0.01,0.1,0.04,0.21,0.06,0.31
		c-0.47-0.01-0.94,0.01-1.41,0.01c-0.08-0.65-0.17-1.29-0.25-1.94c-0.11-0.82-0.42-1.49-1.23-1.83c-0.75-0.32-1.59-0.15-2.18,0.41
		c-0.81,0.77-1.19,1.82-1.36,2.9c-0.06,0.4-0.11,0.81-0.21,1.21c-0.01,0.02-0.01,0.05-0.02,0.07c-0.06-0.1-0.11-0.21-0.18-0.31
		c-0.31-0.45-0.71-0.84-1.1-1.22c0.02,0.02-0.02-0.03-0.07-0.08c0.35-0.73,0.18-1.69-0.4-2.26c-0.58-0.58-1.72-0.83-2.42-0.31
		c-1.84,1.35-3.35,3.06-4.3,5.16c-0.47,1.04-0.83,2.11-1.01,3.24c0,0.03-0.01,0.06-0.01,0.09c-0.19-0.24-0.38-0.48-0.56-0.72
		c-0.19-0.25-0.44-0.48-0.73-0.66c0.47-0.89,0.55-2.02-0.06-2.85c-0.64-0.87-1.73-1.31-2.74-0.72c-0.57,0.33-0.97,1.05-1,1.74
		c-0.04,0.03-0.09,0.05-0.13,0.08c-0.58,0.41-1.03,0.89-1.31,1.55c-0.46,1.09-0.55,2.43-0.73,3.59c-0.37,2.3,0.14,4.61,1.96,6.21
		c0.88,0.77,2.06,1.48,3.26,1.48c1.58,0,2.59-1.37,2.58-2.86c0-0.29-0.04-0.58-0.09-0.87c0.81,0.2,1.62-0.09,2.21-0.67
		c0.26,0.1,0.53,0.17,0.77,0.17c0.77,0,1.29-0.41,1.73-0.99l2.12-2.82c0.67-0.89,1.46-1.77,2.04-2.73c0.02-0.03,0.03-0.05,0.04-0.08
		c0.01,0,0.01,0.01,0.01,0.02c0.77,0.7,2.08,0.83,2.83,0c0.09-0.1,0.16-0.22,0.25-0.33c0.8,0.37,1.71,0.32,2.57,0.32
		c0.87,0,1.75,0,2.62-0.01c1.11,0,2.28,0.09,3.13-0.77C322.65,20.64,322.47,18.94,321.49,17.95z"/>
	<path class="st2" d="M360.29,38.77c-1.14,0-1.77,0.78-1.9,1.66c-0.11,0.04-0.23,0.08-0.33,0.14c-0.13,0.1-0.27,0.21-0.4,0.31
		c-0.14,0.14-0.25,0.3-0.34,0.46c-0.04,0.09-0.1,0.17-0.15,0.25c-0.03,0.03-0.06,0.06-0.09,0.09c-0.11,0.07-0.22,0.13-0.33,0.2
		c-0.11,0.07-0.22,0.16-0.32,0.24c-0.07,0.05-0.14,0.11-0.21,0.17c-0.12-0.81-0.09-1.66,0.1-2.49c-0.05,0.03-0.1,0.05-0.15,0.09
		c-0.98,0.65-1.46,1.69-1.96,2.71c-0.53,0.15-1.06,0.28-1.6,0.38c0.19-0.14,0.39-0.26,0.57-0.4c3.23-2.56,4.89-6.58,5.46-10.57
		c0.32-2.24-2.27-3.44-3.66-1.54c-0.34,0.47-0.68,0.94-1.03,1.41c-0.03-0.8-0.24-1.61-0.49-2.47c-0.12-0.41-0.15-0.82-0.12-1.23
		c1.08-0.83,1.93-1.86,2.18-3.34c0.27-1.57-1.35-3.31-2.94-2.26c-1.19,0.79-2.13,1.86-2.7,3.14c-0.23,0.12-0.46,0.24-0.68,0.35
		c-1.41,0.73-2.76,1.47-3.97,2.51c-1.07,0.92-1.94,2.05-2.54,3.3c0.16-1.52,0.32-3.04,0.31-4.53c0-0.24-0.04-0.45-0.1-0.64
		c0.57-0.66,1.15-1.29,1.73-1.92c1.75-1.88-1.07-4.72-2.83-2.83c-2.6,2.79-5.31,5.85-6.05,9.72c-0.82,4.25,0.43,8.43,1.8,12.43
		c0.49,1.44,2.7,1.95,3.55,0.76c1.52,1.87,3.63,3.47,5.68,4.62c0.52,0.29,1.07,0.51,1.63,0.66c0.33,0.57,0.89,0.99,1.64,1
		c0.6,0,1.18-0.14,1.72-0.37c1.52-0.52,2.82-1.58,3.82-2.84c0.32-0.4,0.6-0.81,0.87-1.23c0.52-0.08,0.9-0.34,1.17-0.69
		c0.08-0.01,0.17-0.01,0.25-0.03l0.48-0.2c0.23-0.14,0.41-0.32,0.57-0.53c0.05-0.03,0.1-0.06,0.15-0.09
		c0.29-0.17,0.56-0.38,0.81-0.6c0.26-0.22,0.46-0.52,0.66-0.79c0.2-0.29,0.33-0.62,0.46-0.94c0.02-0.06,0.02-0.13,0.03-0.19
		C362.83,41.95,362.59,38.77,360.29,38.77z"/>
</g>
<g id="Layer_1">
	<g>
		<path d="M240.12,281.43c-0.54,3.95-2.68,6.82-6.13,8.05c-4.47,1.6-8.99,3.5-13.94,3.06c-2.75-0.25-5.49-0.66-8.47-1.03
			c-2.2,2.53-5.39,2.97-8.66,3.22c-4.08,0.32-8.17,0.5-12.22,1.06c-3.94,0.55-7.14-0.8-9.81-3.4c-1.61-1.56-3.2-2.8-5.45-3.14
			c-0.94-0.14-1.9-0.43-2.75-0.86c-1.3-0.67-2.53-0.52-3.82-0.07c-1.02,0.35-2.08,0.58-3.11,0.91c-5.81,1.87-10.67,0.07-14.91-3.91
			c-1.07-1.01-2.08-1.83-3.54-2.3c-3.61-1.16-6.08-3.39-5.99-7.57c0.01-0.6-0.08-1.2-0.15-2.03c-0.88-0.43-1.81-0.95-2.78-1.36
			c-16.02-6.84-30.17-16.55-42.85-28.36c-5.82-5.42-10.63-11.83-14.82-18.58c-4.57-7.36-8.89-14.89-12.97-22.54
			c-2.95-5.52-4.89-11.49-5.94-18c-8.39-5.5-8.62-13.65-6.32-22.47c-6.06-1.44-5.88-1.55-8.77-6.4c-2.26-3.8-1.29-7.33-0.09-11.02
			c0.36-1.11,0.94-2.32,0.78-3.38c-0.68-4.51,1.42-7.75,4.72-10.25c1.41-1.07,2.02-2.07,2.15-3.79c0.41-5.02,0.68-10.1,1.63-15.03
			c1-5.18,2.6-10.25,4.16-15.3c2.09-6.78,4.11-13.6,8.06-19.62c3.03-4.61,6.01-9.27,9.15-14.12c-0.43-1.26-0.89-2.88-1.52-4.44
			c-1.2-3-0.78-5.69,1.42-8.03c1.54-1.64,2.11-3.27,1.16-5.52c-0.8-1.91-0.02-3.72,1.24-5.37c2.18-2.87,4.16-5.9,6.39-8.73
			c1.32-1.67,2.81-3.31,4.53-4.55c1.73-1.25,3.82-1.33,5.79-0.09c0.7,0.44,1.49,0.76,2.46,1.25c0.33-1.6,0.56-3.08,0.96-4.51
			c0.26-0.91,0.66-1.82,1.18-2.62c1.15-1.77,2.04-1.87,3.83-0.53c0.37,0.28,0.69,0.63,1.45,1.34c0.27-3.06,0.24-5.81,1.71-8.43
			c2.79,1.17,4.09,3.49,5.16,6.43c2.34-3.04,1.57-6.94,3.83-9.78c3.14,2.52,3.41,6.05,4.06,9.42c0.63,3.28,1.24,6.56,2,10.59
			c0.39,0.43,1.29,0.67,2.47-0.41c8.15-7.41,18.29-10.45,28.68-12.8c5.97-1.35,12.04-2.3,18.08-3.34c2.6-0.45,5.24-0.76,7.88-0.93
			c4.93-0.32,9.87-0.75,14.79-0.65c7.45,0.15,14.91,0.63,22.35,1.13c9.86,0.67,19.59,2.28,29.29,4.17
			c9.82,1.91,19.47,4.45,28.97,7.55c4.34,1.42,8.57,3.17,12.85,4.75c1.1,0.41,2.22,0.76,3.62,1.23c0.01-6.57,2.42-11.8,6.96-16.12
			c2.29,1.46,0.84,3.57,1.6,5.4c1.39-1.69,2.63-3.35,4.03-4.87c0.69-0.75,1.63-1.71,2.5-1.75c1.31-0.07,1.34,1.44,1.69,2.44
			c0.12,0.34,0.25,0.67,0.49,1.32c1.19-1.86,1.24-4.39,4.15-5.03c0.87,1.13,1.84,2.41,2.87,3.75c1.21-1.66,2.37-3.25,3.61-4.94
			c2.7,1.81,3,4.38,3.49,6.79c0.24,1.16,0.05,2.41,0.15,3.61c0.06,0.69,0.12,1.47,0.47,2.03c0.95,1.51,2.04,2.93,3.12,4.36
			c0.27,0.36,0.69,0.66,1.11,0.85c1.84,0.83,3.69,1.62,5.66,2.47c2.51-4.6,5.95-8.56,10.39-11.57c0.51-0.35,1.25-0.34,2.08-0.55
			c0.74,3.06-1.76,5.45-1.12,8.47c3.6-2.74,7.03-5.31,11.1-7.2c0.82,3.18-0.38,5.91-0.77,9.03c2.05-0.92,3.74-1.69,6.06-2.73
			c-1.45,4.74-2.73,8.89-4.05,13.2c2.4-0.57,3.22-3.09,5.23-4.08c1.46,1.34,1.12,2.88,0.59,4.35c-1.62,4.54-4.2,8.38-8.44,10.92
			c-1.12,0.67-2.21,1.39-3.4,2.13c1.32,2.91,2.85,5.52,3.68,8.33c0.83,2.84,1.32,5.88,1.29,8.83c-0.03,2.12-1.56,3.98-3.26,5.45
			c-0.72,0.63-1.42,1.29-2.09,1.98c-0.59,0.6-1.12,1.25-1.94,2.16c2.35,3.62,4.73,7.34,7.17,11.02c5.85,8.8,9.14,18.55,10.42,28.95
			c0.91,7.42,0.31,14.86-0.5,22.29c-0.63,5.76-1.33,11.47-3.08,17.02c-0.17,0.55-0.09,1.18-0.14,1.89c0.92,0.78,1.8,1.59,2.76,2.31
			c0.46,0.34,1.11,0.76,1.59,0.68c5.12-0.86,7.69,2.37,10.24,6.2c-2.92,6.13-7.41,10.79-13,14.41c0.02,0.31-0.07,0.65,0.05,0.75
			c5.16,4.44,4.37,10.27,3.51,15.96c-0.22,1.45-1.68,2.84-2.84,4c-1.26,1.26-2.83,2.23-4.45,3.47c0,2.05-0.03,4.2,0.01,6.35
			c0.08,4.45-1.54,8.22-4.51,11.45c-1.39,1.52-2.63,3.02-2.88,5.25c-0.12,1.07-0.95,2.31-1.83,3c-5.13,4.04-10.57,7.56-17.01,9.23
			c-2.3,0.59-4.5,1.07-6.36-1.16c-6.64,7.24-14.67,12.17-22.77,16.88c-5.49,3.19-11.4,5.71-17.26,8.19
			c-14.12,5.98-28.72,10.45-43.81,13.25C243.19,280.98,241.88,281.15,240.12,281.43z M76.68,151.16c1.56,2.01,3.06,3.44,3.93,5.2
			c0.91,1.84,1.8,3.6,3.03,5.27c0.87,1.19,1.39,2.85,1.5,4.35c0.4,5.42-2.04,9.54-6.52,12.41c-2.41,1.55-5.06,2.65-7.18,4.76
			c-1.07,1.07-3,1.3-4.58,1.81c-0.75,0.25-1.58,0.26-2.58,0.41c0.18,1.15,0.2,2.12,0.5,3.01c1.27,3.76,2.28,7.66,4.01,11.2
			c5.92,12.15,12.73,23.78,21.24,34.33c2.34,2.89,4.9,5.63,7.58,8.21c7.59,7.29,16.34,13.09,25.14,18.78
			c3.32,2.14,6.95,3.81,10.48,5.6c2.66,1.34,5.39,2.54,8.36,3.92c0.88-3.07,3.19-3.05,5.33-3.08c1.99-0.02,3.36-0.64,4.44-2.42
			c1.75-2.87,4.41-4.32,7.88-4.19c3.01,0.11,6.04-0.07,9.03,0.22c3.25,0.31,6.45,1.03,8.64,3.87c0.18,0.23,0.59,0.28,0.99,0.46
			c1.09-1.02,2.04-2.13,3.2-2.97c2.96-2.15,6.13-3.99,9.96-2.8c1.53,0.48,2.85,1.66,4.59,2.72c3.81-1.53,6.89,0.4,9.57,3.31
			c0.72,0.78,1.15,1.82,1.77,2.7c1.21,1.75,2.13,3.76,4.41,5.12c2.05-1.38,4.21-2.67,6.19-4.2c4.73-3.67,10.39-3.45,14.72,0.7
			c1.49,1.43,2.77,2.97,3.47,4.98c0.35,1,1.06,1.87,1.61,2.8c0.7,1.17,1.69,1.59,3.05,1.36c2.25-0.38,4.54-0.57,6.77-1.05
			c18.07-3.9,35.54-9.61,52.02-18.08c4.8-2.47,9.4-5.38,13.85-8.44c3.95-2.72,7.62-5.85,11.31-8.94c1.16-0.97,1.96-2.37,2.91-3.57
			c-2.36-3.86-2.46-7.95-2.63-12.03c-0.16-3.83,1.19-7.15,3.81-9.82c1.63-1.67,2.84-3.53,4.01-5.5c0.98-1.65,2.14-3.2,3.29-4.74
			c1.51-2.01,3.58-3.17,6.01-3.74c0.64-0.15,1.27-0.35,1.89-0.53c-0.57-2.83-1.29-5.39-1.58-8c-0.6-5.41,1.69-9.02,6.7-11.07
			c0.77-0.31,1.55-0.6,2.59-1c-2.72-4.41-3.2-8.73-0.76-13.36c2.21-4.19,3.99-8.61,9.7-9.15c0.7-2.56,1.61-4.95,1.99-7.43
			c1.29-8.57,2.26-17.17,2.25-25.87c-0.01-8.94-2.28-17.36-5.62-25.55c-2.85-6.97-7.57-12.84-11.51-19.17
			c-1.69-2.72-4.39-4.79-7.37-5.48c-4.57-1.05-8.5-3.34-12.56-5.37c-4.12-2.06-4.64-5.14-2.02-8.94c0.72-1.05,1.44-2.09,2.54-3.68
			c-1.91,0.63-3.1,1.2-4.35,1.38c-1.51,0.22-3.16,0.45-4.59,0.06c-2.73-0.75-5.65-1.5-7.94-3.05c-3.63-2.47-7.41-5.06-8.28-10.01
			c-0.44-2.47-1.76-4.34-4.37-5.29c-2.07-0.75-2.38-1.74-2.18-3.96c0.06-0.69,0.12-1.39,0.18-2.11c-0.63-0.41-1.11-0.77-1.63-1.06
			c-0.52-0.3-1.07-0.54-1.61-0.81c-10.55-5.12-21.74-8.45-32.97-11.57c-10.09-2.8-20.41-4.54-30.79-6.04
			c-10.39-1.5-20.82-2.27-31.28-2.4c-6.96-0.08-13.94,0.59-20.89,1.12c-10.36,0.79-20.47,2.98-30.42,5.89
			c-5.92,1.73-11.58,4.1-16.57,7.83c-1.11,0.83-2.27,1.61-3.04,3.23c1.61,0.6,2.92,1.15,4.27,1.59c3.37,1.1,4.7,3.8,4.84,6.93
			c0.12,2.87-1.66,5.04-4.26,6.18c-1.74,0.77-3.68,1.07-5.53,1.58c-1.61,0.45-3.25,0.8-4.81,1.37c-2.14,0.78-4.21,1.76-6.33,2.6
			c-0.92,0.36-1.72,0.7-2.08,1.78c-0.61,1.82-2.07,2.94-3.71,3.76c-3.77,1.87-7.52,3.81-11.4,5.42c-1.86,0.77-3.31,1.79-4.62,3.26
			c-1.03,1.15-2.25,2.2-3.56,3.01c-3.58,2.21-6.92,1.67-9.74-1.39c-0.55-0.6-1.09-1.2-1.76-1.94
			c-9.29,10.84-14.62,23.39-18.21,36.73c-2.2,8.17-3.79,16.48-3.71,25.48c2.56-1.07,4.62-1.97,6.71-2.79
			c7.61-2.99,7.32-2.65,12.88,1.92c1.85,1.52,3.72,3.08,5.79,4.23c6.22,3.47,6.51,11,2.86,15.92c-0.88,1.19-2.02,1.94-3.57,2.23
			C79.78,149.94,78.24,150.64,76.68,151.16z M182.03,268.27c0.12,0.3,0.25,0.59,0.37,0.89c-0.86,0.56-1.68,1.18-2.59,1.66
			c-1.27,0.68-2.59,1.28-3.9,1.87c-3.86,1.74-5.46,4.74-5.35,8.93c0.07,2.4,1.18,3.9,3.23,4.69c1.66,0.65,3.45,1,5.2,1.4
			c1.4,0.32,2.83,0.49,4.24,0.77c0.17,0.03,0.29,0.34,0.49,0.59c-0.34,0.4-0.7,0.81-1.05,1.22c2.32,2.55,3.76,3.46,6.42,3.31
			c5.16-0.29,10.31-0.65,15.44-1.22c3.76-0.42,5.18-2.2,5.35-5.95c0.06-1.32-0.31-2.78,0.13-3.94c1.22-3.16-0.06-5.61-1.75-8.04
			c-1.64-2.36-3.26-4.74-4.96-7.06c-1.22-1.66-2.63-3.15-4.82-3.46c-0.24-0.03-0.53,0.27-0.82,0.43c0.69,0.88,1.29,1.65,1.91,2.45
			c-1.54,0.96-2.58,0.29-3.52-0.46c-1.5-1.2-2.96-2.46-4.37-3.76c-1.11-1.02-2.31-1.79-3.85-1.5c-2.91,0.55-7.44,4.53-8.86,7.79
			C180.06,268.67,181.04,268.47,182.03,268.27z M84.14,43.18c0.16,0.18,0.32,0.35,0.48,0.53c-1.95,2.88-3.94,5.73-5.83,8.64
			c-0.57,0.88-1.3,2.01-1.18,2.91c0.66,4.6,2.33,8.81,5.8,12.08c1.25,1.18,2.85,1.48,4.33,0.5c1.69-1.12,3.37-2.34,4.79-3.77
			c1.6-1.62,2.89-3.53,4.33-5.31c0.6-0.74,1.18-1.58,2.47-1c0,0.59,0,1.22,0,2.1c3.17-1.44,6.12-2.76,9.05-4.11
			c0.43-0.2,0.82-0.51,1.2-0.8c1.84-1.43,2.21-2.43,0.89-4.27c-1.15-1.6-1.38-3.24-1.45-5.07c-0.06-1.43-0.32-2.86-0.59-4.27
			c-0.47-2.42-1.7-4.2-4.25-4.85c-1.97-0.51-3.43-1.74-4.37-3.53c-1.2-2.29-3.29-3.39-5.44-4.54c-1.45-0.77-2.56-0.38-3.63,0.5
			c-0.64,0.53-1.15,1.23-1.65,1.9c-2.53,3.35-5.06,6.71-7.56,10.08c-1,1.35-1.2,2.72,0.08,4.19C82.51,44.39,83.33,43.78,84.14,43.18
			z M47.52,149.8c0.34,3.43,2.28,5.82,3.64,8.45c0.09,0.18,0.38,0.31,0.6,0.37c3.59,1.03,5.98,1.56,8.65-1.3
			c0.58-0.62,1.19-1.2,1.79-1.79c2.01-1.98,4.29-3.34,7.1-4.05c3.95-1,7.81-2.39,11.69-3.66c0.55-0.18,1.11-0.5,1.5-0.91
			c3.3-3.43,2.96-9.84-1.05-12.47c-3.44-2.25-6.75-4.57-9.63-7.51c-0.33-0.33-0.81-0.52-1.21-0.77c-1.66-1.05-3.28-1.17-5.08-0.16
			c-3.24,1.83-6.51,3.62-9.86,5.22c-4,1.91-6.2,4.77-5.86,9.34c0.14,1.9,0.07,3.66-1.3,5.37C47.7,146.93,47.78,148.65,47.52,149.8z
			 M326.42,34.9c-0.78-2.59-1.38-4.49-1.91-6.41c-0.73-2.67-2.55-3.89-5.2-4.25c-4.47-0.61-8.4,0.65-11.45,3.83
			c-2.34,2.43-4.54,4.84-7.54,6.57c-2.57,1.49-2.28,3.72,0.46,5.1c2.55,1.28,4.29,3.11,4.72,5.96c0.64,4.25,4.12,6.35,6.78,9.03
			c1.02,1.02,2.24,0.27,2.31-1.33c0.06-1.41,0.01-2.83,0.01-5.05c1.44,1.97,1.74,3.42,1.68,4.98c-0.09,2.37,1.37,3.51,3.35,4.09
			c1.76,0.52,3.49,0.34,5.29-0.3c3.97-1.4,6.39-4.43,9.03-7.46c2.35-2.7,2.24-5.47,1.37-8.37c-0.68-2.29-1.79-4.47-2.89-6.6
			c-0.83-1.61-2.21-2.73-3.91-3.33C327.88,32.44,327.35,33.33,326.42,34.9z M336.37,212.96c-1.61,1.32-3.2,2.58-4.74,3.9
			c-3.08,2.64-4.75,5.87-4.68,10.07c0.08,4.82,1.79,9.11,3.85,13.3c0.29,0.58,1.3,1.05,2.01,1.1c0.92,0.07,1.88-0.28,2.8-0.55
			c5.16-1.5,9.61-4.36,13.9-7.46c0.78-0.56,1.15-1.71,1.63-2.64c0.76-1.47,1.14-3.27,2.22-4.43c3.16-3.4,5.45-7.01,4.8-11.89
			c-0.03-0.23,0.02-0.48,0.04-0.72c0.41-3.77,0.09-4.28-3.46-5.39c-2.86-0.9-5.73-1.76-8.6-2.64c-3.61-1.11-6.36-0.34-8.67,2.52
			c-0.89,1.1-1.64,2.31-2.42,3.42C335.55,212.08,335.86,212.42,336.37,212.96z M56.7,169.76c0.1,0.02,0.2,0.04,0.3,0.06
			c0.07,1.2,0.13,2.41,0.22,3.61c0.25,3.33,1.88,5.85,4.55,7.79c2.66,1.92,6.71,2.12,8.66-0.03c1.78-1.97,3.96-3.09,6.24-4.18
			c4.21-2.01,5.78-5.6,5.77-9.97c0-1.23-0.6-2.53-1.16-3.69c-0.88-1.82-2.05-3.5-2.91-5.33c-1.09-2.32-2.54-3.89-5.23-4.45
			c-3.26-0.68-5.89,0.28-8.28,2.31c-1.83,1.56-3.62,3.17-5.36,4.83c-0.59,0.56-1.22,1.28-1.41,2.03
			C57.52,165.05,57.15,167.42,56.7,169.76z M353.71,68.53c-0.08-2.69-1.09-5.18-1.96-7.74c-1.33-3.9-3.06-7.56-5.69-10.73
			c-0.83-1-1.91-1.83-3-2.55c-1.63-1.07-3.47-0.57-4.69,0.49c-2.14,1.86-4.18,3.95-5.8,6.27c-2.1,3.02-3.82,6.32-5.56,9.57
			c-0.88,1.65-0.39,3.3,1.39,4.29c3.35,1.86,6.69,3.9,10.29,5.1c2.63,0.88,5.28,1.41,7.41,3.32c0.86,0.77,1.82,0.56,2.6-0.17
			c1.22-1.14,2.45-2.29,3.54-3.55C353.28,71.66,354.14,70.32,353.71,68.53z M154.65,284.99c4.79,4.09,9.32,2.69,14.06,0.51
			c-1.15-2.9-0.75-5.59-0.23-8.34c0.39-2.09,1.3-3.73,3.16-4.53c2.39-1.03,3.36-2.9,3.89-5.2c-3.23-4.03-3.83-4.36-8.72-4.48
			c-2.29-0.06-4.58,0.03-6.87-0.03c-2.95-0.08-5.03,1.19-6.46,3.86c0.56,0.31,1.03,0.56,1.64,0.9c-1.95,1.36-3.66,1.12-5.32,1.27
			c-1.65,0.15-3.28,0.48-4.97,0.74c-0.29,1.47-0.66,2.75-0.76,4.05c-0.37,4.47,1.23,6.72,5.54,7.88c1.62,0.44,3.31,0.66,4.93,1.1
			c0.6,0.16,1.1,0.69,1.79,1.15C155.6,284.35,155.15,284.66,154.65,284.99z M212.75,289.22c3.02,0.37,5.6,0.92,8.19,0.97
			c5.01,0.08,9.8-0.84,13.79-4.21c2.29-1.93,2.48-3.78,0.81-6.29c-0.93-1.39-2.14-2.74-2.56-4.29c-0.69-2.57-2.5-4.02-4.38-5.46
			c-2.33-1.78-6.01-1.59-8.4,0.16c-1.93,1.41-3.95,2.68-5.9,4.06c-0.66,0.46-1.22,1.06-1.66,1.46
			C213.12,280.13,215.23,284.27,212.75,289.22z M366.03,196.28c-0.12-1.09-0.44-2.87-0.5-4.66c-0.05-1.57-0.63-2.72-1.79-3.74
			c-5.32-4.71-3.44-4.79-11.34-3.07c-0.82,0.18-1.63,0.4-2.43,0.67c-4.4,1.49-6.35,4.69-5.44,9.18c0.43,2.11,1.17,4.15,1.73,6.24
			c0.37,1.39,1.17,2.34,2.55,2.77c2.98,0.92,5.95,1.85,8.94,2.74c0.43,0.13,0.97,0.16,1.39,0.03
			C363.27,205.16,366.05,201.32,366.03,196.28z M362.55,182.49c1.64-0.96,3.43-1.61,4.65-2.82c2.37-2.34,4.45-4.99,6.59-7.55
			c0.44-0.52,0.62-1.26,0.91-1.87c-1.37-2.06-2.94-3.61-5.33-4.22c-0.05,1.95-0.16,2.2-1.32,3.02c-2.57-2.06-4.16-5.25-8.13-5.75
			c-2.57-0.33-3.07-0.95-4.21,1.23c-1.33,2.54-2.41,5.22-3.53,7.87c-1.34,3.16-0.04,5.84,1.59,8.46c0.69,1.11,1.83,1.55,2.77,0.92
			C358.72,180.35,360.59,180.73,362.55,182.49z M110.82,37.42c0.29,2.61,0.78,4.53,0.63,6.39c-0.21,2.64,0.88,4.53,2.48,6.37
			c5.53-1.6,10.46-4.48,16.18-5.26c2.94-0.4,3.96-3.19,3.05-6.15c-0.31-1.01-0.73-2-0.9-2.46c-3.38-1.34-6.27-2.46-9.14-3.62
			c-2.65-1.07-5.2-0.93-7.51,0.79C113.88,34.74,112.29,36.2,110.82,37.42z M357.79,30.04c-3.79,1.41-6.55,3.71-8.38,7.12
			c-0.41,0.76-0.77,1.76-2.44,1.21c2.81-5.03,7.46-9.04,7.18-15.63c-2.34,1.68-4.32,3.25-6.44,4.59c-3.18,2.01-4.59,4.79-4.19,8.5
			c0.29,2.67,0.02,5.29-0.85,7.84c-0.06,0.18,0.08,0.42,0.15,0.74c0.72,0.26,1.48,0.54,2.46,0.9c1.41-1.55,2.78-3.04,4.13-4.56
			c2.8-3.16,2.79-3.17,5.39-4.13c-2.98,3.51-5.57,6.55-8.12,9.56c1.45,1.77,2.72,3.31,3.91,4.75c4.99-2.55,8.44-6.04,10.34-11.54
			c-3.45,2.14-5.94,5.08-10.4,5.39C354.21,40.16,357.26,35.8,357.79,30.04z M102.39,20.96c-1.82,3.57-1.53,6.74-0.35,9.79
			c0.48,1.22,1.66,2.34,2.8,3.09c1.36,0.89,3.01,1.32,4.69,2.01c0.76-3.12-0.3-6.2,1.26-9.08c0.26,2.18,0.52,4.37,0.78,6.58
			c1.93-0.82,2.35-2.08,2.24-4.05c-0.16-3.05-1.04-5.89-1.87-8.75c-0.5-1.71-1.54-3.12-3.22-4.07c-1.14,3.12,0.43,6.53-1.64,9.58
			C105.45,24.27,104.04,22.74,102.39,20.96z M343.34,21.81c-0.15-0.11-0.3-0.22-0.45-0.33c-2.05,2.8-4.16,5.55-6.11,8.42
			c-0.95,1.4-1.69,3.07-0.95,4.78c1.44,3.36,3.03,6.65,3.09,11.24c1.94-2.76,2.6-4.97,2.56-7.41c-0.02-1.56-0.17-3.15,0.03-4.69
			C342.03,29.8,342.72,25.81,343.34,21.81z M306.16,15.04c-1.57,2.34-2.89,4.16-4.03,6.08c-0.39,0.65-0.57,1.63-0.41,2.36
			c0.4,1.92,1.05,3.78,1.43,5.11c2.07-1.82,4.2-3.69,6.52-5.72C308.6,20.48,307.54,18.12,306.16,15.04z M311.71,22.55
			c1.69-0.3,3.19-0.68,4.71-0.81c1.49-0.13,3-0.03,4.66-0.03c0.25-2.66-0.01-5.04-1.47-7.49c-1.03,1.84-1.91,3.43-2.69,4.84
			c-2.94-0.11-2.77-3.06-4.61-4.08C311.25,17.43,310.27,19.7,311.71,22.55z M116.91,13.85c-0.88,3.43-1.96,5.96-2.07,8.53
			c-0.11,2.57,0.4,5.27,1.55,8.21c1.8-2.52-0.78-5.61,2.06-7.6c0.27,2.31,0.51,4.32,0.74,6.33c1.81-1.81,1.74-3.77,1.17-5.75
			c-0.46-1.59-1.06-3.15-1.62-4.71C118.22,17.41,117.68,15.97,116.91,13.85z M298.84,32.8c0.62-0.38,1.17-0.55,1.17-0.73
			c0.02-2.25,0.24-4.56-0.17-6.74c-0.45-2.41-1.51-4.71-2.24-6.86c-3.84,4.73-4.53,10.64-1.22,13.92c0.28-2.89-1.5-5.92,0.94-8.85
			c0.94,1.68,0.63,3.15,0.86,4.51C298.44,29.56,298.6,31.09,298.84,32.8z"/>
		<path d="M142.84,227.32c-3.61,4.9-6.13,4.44-10.3-1.83c-0.31,0.03-0.67,0.01-0.99,0.11c-2.96,0.98-2.99,1.01-4.66-1.49
			c-1.53-2.29-3.08-4.58-4.43-6.98c-1.2-2.13-0.9-2.83,1.17-4.08c0.81-0.49,1.67-0.91,2.57-1.4c3.62,1.04,3.74,5.05,6.25,7.28
			c1.05-0.65,2.13-1.39,3.27-2c2.01-1.08,3.36-0.76,4.49,1.25c0.69,1.23,1.12,2.64,1.5,4.01
			C142.17,223.81,142.44,225.47,142.84,227.32z M132.85,221.43c1.19,1.88,2.08,3.59,3.25,5.07c1.79,2.27,2.57,2.27,5.5,0.49
			c-0.74-3.02-0.64-6.37-3.45-8.92C136.5,219.12,134.92,220.12,132.85,221.43z M124.3,215.74c1.62,2.59,2.98,4.84,4.46,7.02
			c0.22,0.32,1.06,0.36,1.56,0.27c0.21-0.04,0.48-0.85,0.37-1.2c-0.82-2.78-2.01-5.35-4.42-7.19
			C125.67,214.98,125.15,215.27,124.3,215.74z"/>
		<path d="M161.27,84.44c-1.97,3.87-3.92,7.54-5.71,11.29c-0.98,2.04-2.96,1.85-4.59,2.29c-1.66,0.44-2.53-0.93-3.51-2.2
			c1.3-2.45,2.59-4.85,3.87-7.26c-1.41-1.01-2.69-1.92-4.19-3c1-1.26,1.59-2.37,2.51-3.04c0.79-0.58,2.24-1.19,2.9-0.85
			c2.19,1.13,4.61,1.05,6.84,1.79C159.92,83.65,160.4,83.98,161.27,84.44z M152.83,96.29c1.42-2.67,2.63-4.88,3.77-7.13
			c0.48-0.95,0.78-1.99,1.24-3.18c-0.66-0.31-1.23-0.58-1.95-0.92c-1.85,3.45-3.59,6.69-5.42,10.09
			C151.36,95.58,151.96,95.87,152.83,96.29z"/>
		<path d="M225.23,40.4c2.68,0.3,4.04,1.85,4.18,4.76c2.57,0.71,4.05,2.32,3.37,5.44c-2.11,1.27-4.69,1.5-7.12,1.57
			c-2.51,0.07-3.74-1.83-4.07-4.43c0.78-0.41,1.6-0.85,2.43-1.29C221.64,43.53,221.74,42.75,225.23,40.4z"/>
		<path d="M242.96,197.8c-1.33,4.28-2.88,8.39-5.32,12.02c-1.26-0.26-2.26-0.47-3.25-0.69c-2.87-0.63-4.06-3.1-2.7-5.64
			c0.91-1.69,1.85-3.37,2.82-5.02c2.03-3.47,4.05-3.91,7.34-1.63C242.24,197.11,242.57,197.45,242.96,197.8z M240.33,198.92
			c-1.81-1.31-2.86-1.18-3.69,0.35c-0.74,1.36-1.63,2.64-2.37,4.01c-1.23,2.28-0.83,2.93,2.49,3.75
			C237.92,204.4,239.1,201.72,240.33,198.92z"/>
		<path d="M174.21,216.44c1.25,0.35,2.59,0.52,3.74,1.09c2.69,1.34,3.55,3.83,2.49,6.66c-0.79,2.09-2.34,2.63-4.24,1.42
			c-1.61-1.02-3.16-2.14-4.78-3.13c-1.46-0.89-1.91-1.84-1.53-3.57c0.34-1.51,1.28-2.23,2.82-2.22c0.48,0,0.96,0,1.44,0
			C174.16,216.61,174.19,216.52,174.21,216.44z M171.84,219.49c1.91,1.34,3.59,2.59,5.36,3.69c0.34,0.21,1.33-0.01,1.52-0.33
			c0.29-0.49,0.44-1.42,0.16-1.85C177.72,219.18,174.99,218.59,171.84,219.49z"/>
		<path d="M258.43,237.46c0.7-4.86,3.15-6.87,6.87-5.9c1.2,0.31,2.28,0.77,2.4,2.29c0.13,1.7-0.32,2.98-1.78,3.55
			c-1.3,0.5-2.74,0.76-4.13,0.81C260.76,238.25,259.71,237.77,258.43,237.46z"/>
		<path d="M209.19,178.59c1.93,3.92-0.62,7.08-0.93,10.55c-0.94,0.04-1.4,0.13-1.85,0.07c-2.75-0.36-2.88-0.54-2.44-3.4
			c0.14-0.94,0.48-1.87,0.47-2.81C204.42,180.12,206.12,179.04,209.19,178.59z"/>
		<path d="M302.35,109.73c-1.19,2.11-2.85,3.62-4.94,4.65c-1.68,0.83-2.98,0.38-4.29-1.39c-1.24-1.67-1.25-2.72,0.23-4.07
			c1.24-1.13,2.57-2.2,4-3.07c1.65-1.01,2.46-0.71,3.55,0.96c0.33,0.5,0.62,1.03,0.89,1.57C302,108.81,302.15,109.25,302.35,109.73z
			 M293.8,111.57c1.19,0.48,1.74,0.92,2.16,0.82c0.9-0.23,1.75-0.7,2.58-1.13c1.84-0.96,1.88-1.32,0.26-3.62
			C297.33,108.79,295.88,109.93,293.8,111.57z"/>
		<path d="M280.7,66.81c-2.01,0.09-3.91,0.64-5.14-1.19c-1.1-1.63-0.29-3.19,0.5-4.7c0.38-0.72,0.7-1.47,0.99-2.08
			c0.42-0.13,0.66-0.29,0.86-0.25c4.69,0.93,5.15,1.75,3.56,6.29C281.28,65.43,281.04,65.97,280.7,66.81z"/>
		<path d="M113.8,170.73c-0.12-2.41-0.36-4.65-0.32-6.89c0.04-1.93,2.77-3.8,4.64-3.23c0.56,0.17,1.21,0.85,1.36,1.42
			c0.45,1.72,0.95,3.5,0.91,5.24C120.33,170.24,118.31,171.31,113.8,170.73z M115.85,168.9c2.27-0.25,2.73-0.98,2.48-3.36
			c-0.22-2.15-0.38-2.29-2.48-2.16C115.85,165.11,115.85,166.84,115.85,168.9z"/>
		<path d="M110.5,81c1.5,3.32,0.63,6.45,1.02,9.57c-0.74,0.45-1.29,0.92-1.93,1.16c-2.22,0.83-3.9,0.27-4.57-1.91
			c-0.58-1.89-0.79-3.96-0.79-5.95c0-1.9,1.03-2.82,2.9-3C108.19,80.77,109.26,80.94,110.5,81z M110.71,89.19
			c-0.3-1.54-0.52-3.18-0.95-4.75c-0.44-1.6-1.62-1.81-3.01-1.39c-0.54,3.07-0.52,3.68,0.17,5.34
			C107.71,90.3,107.96,90.36,110.71,89.19z"/>
		<path d="M296.08,178.18c-2.44-1.81-2.99-4.54-4.57-6.86c0.9-1.04,1.68-2.1,2.62-2.98c1.13-1.07,2.11-1.11,3.09,0.14
			c1.24,1.58,2.37,3.32,3.2,5.15c0.8,1.75,0.33,2.55-1.43,3.41C298.12,177.44,297.2,177.74,296.08,178.18z M296.32,176.21
			c0.82-0.5,1.47-0.91,2.1-1.29c-1.54-4.2-2.36-4.87-4.51-3.52C294.67,172.92,295.44,174.46,296.32,176.21z"/>
		<path d="M261.22,257.45c-1.58-1.13-3.31-2.35-4.97-3.54c1.44-4.19,3.09-4.89,6.7-3.06c0.84,0.43,1.62,0.97,2.67,1.6
			C264.34,254.27,263.88,256.48,261.22,257.45z"/>
		<path d="M232.89,94.43c-4.36,5.9-6.1,6.26-9.36,2.28c1.4-2.06,3.14-3.76,5.83-4.98C230.41,92.54,231.58,93.43,232.89,94.43z"/>
		<path d="M300.4,169.49c0.82-1.21,1.47-2.36,2.3-3.34c0.85-1.01,2.09-1.22,3.31-0.81c1.21,0.4,1.44,1.53,1.49,2.64
			c0.04,0.84,0.09,1.72-0.12,2.51c-0.52,1.97-2.61,2.71-4.25,1.51C302.17,171.3,301.37,170.4,300.4,169.49z"/>
		<path d="M175.01,54.74c-0.12,0-0.24,0.01-0.36,0c-1.61-0.15-3.27-0.48-3.78-2.19c-0.21-0.71,0.33-1.93,0.92-2.52
			c1.19-1.2,2.59-2.12,4.5-1.21c1.56,0.74,2.19,1.66,1.91,3.35C177.88,54.13,177.08,54.77,175.01,54.74z"/>
		<path d="M301.2,186.04c0.18-2.56,1.26-3.97,2.68-5.12c1.49-1.21,3.28-0.72,3.58,1.08c0.31,1.83,0.63,3.78-0.49,5.59
			C304.68,188.14,303.16,186.5,301.2,186.04z"/>
		<path d="M334.33,97.43c-0.01,2.03-0.84,2.94-2.71,2.96c-2.15,0.02-3.71-1.03-3.75-2.51c-0.05-1.76,1.83-4.08,3.33-4.13
			C332.76,93.7,334.34,95.56,334.33,97.43z"/>
	</g>
</g>
</svg>
