<?xml version="1.0" encoding="utf-8"?>
<!-- Generator: Adobe Illustrator 23.0.1, SVG Export Plug-In . SVG Version: 6.00 Build 0)  -->
<svg version="1.1" xmlns="http://www.w3.org/2000/svg" xmlns:xlink="http://www.w3.org/1999/xlink" x="0px" y="0px"
	 viewBox="0 0 595.3 841.9" style="enable-background:new 0 0 595.3 841.9;" xml:space="preserve">
<style type="text/css">
	.st0{fill:#D196C2;}
	.st1{fill:#E6C1DD;}
</style>
<g id="Layer_2">
	<g>
		<image style="overflow:visible;" width="248" height="222" xlink:href="98E12D61.png"  transform="matrix(1 0 0 1 185 318.8898)">
		</image>
	</g>
	<path class="st0" d="M239.3,331.6c-1.1,0-2,0.2-2.9,0.5c-0.4-0.1-0.9-0.1-1.4-0.1c-10.3,0-10.3,16,0,16c1.1,0,2-0.2,2.9-0.5
		c0.4,0.1,0.9,0.1,1.4,0.1C249.6,347.6,249.6,331.6,239.3,331.6z"/>
	<path class="st1" d="M340.9,456.4c-0.3-5.8-2.6-11-3.4-16.7c-0.4-2.9-0.8-5.7-1.7-8.5c-0.9-2.9-2-5.3-1.7-8.4c0.4-4.3-4-8-8-8
		c-0.4,0-0.9,0-1.3,0.1c-0.6,3.1-3.1,6-7.1,6c-0.1,0-0.1,0-0.2,0c-2,2-2.7,4.9-2.2,7.9c0.9,5,2,10,3.4,14.9c0.2,0.8,0.5,1.6,0.8,2.5
		c-0.5,0.3-1,0.9-1,1.6c-0.2,1.7-1.9,3.1-2.9,4.2c-1.3,1.4-2.4,2.9-2.9,4.7c-0.7,2.5,3.2,3.6,3.9,1.1c0-0.1,0.1-0.2,0.1-0.3
		c0.6,0.6,1.4,0.8,2.3,0.4c0.7-0.3,1.3-0.8,1.8-1.3c-1.2,6.1,6.1,12.8,11.9,8.6c0.7-0.8,1.5-1.2,2.5-1.1
		C338.3,463.4,341.1,459.7,340.9,456.4z"/>
	<path class="st1" d="M351.9,537.4c-3.1-3.5-8.5-3.4-10.4-7.2c-2.7-5.4-4.5-11.3-6.3-17.1c-1.1-3.5-3.7-5.2-6.6-5.5
		c-0.1-0.2-0.2-0.4-0.4-0.7c-1.4-1.5-3.1-2.5-5.1-2.8c-0.7-0.1-1.4,0.1-1.8,0.5c-1.1-1-3.4-0.5-3.4,1.4c-0.1,2-0.7,5.6,2.1,6
		c-0.7,1.5-0.9,3.3-0.2,5.4c1.5,4.9,3.2,9.9,5.2,14.8c-0.5,1-0.7,2.2-0.7,3.7c0.3,3.9-4.1,8.9-8.1,12.2c-0.3,0-0.6,0-1,0
		c-1.9,0-3.4,0.5-4.6,1.4c-0.9-0.4-2-0.6-3.2-0.6c-10.3,0-10.3,16,0,16c1.5,0,2.8-0.4,3.9-1c0.8,0.7,1.9,1.2,3.2,1.4
		c4.9,0.8,9.4,0.5,13.8-2c4-2.4,7.1-6.4,10.2-9.7c0.7-0.8,1.3-1.6,1.6-2.4c2,0.2,4.1,0.2,6.1,0C353.2,550.4,356.7,542.8,351.9,537.4
		z"/>
	<path class="st1" d="M276.6,530c-0.9-1.7-2.7-3-3.4-4.7c-0.1-0.2,0-2.6,0.1-3.4c0.1-0.8,0-1.6-0.3-2.4c1.4-2.5,1.4-5.8,0-8.3
		c1-1.5,1.4-3.3,1.4-5.1c3.6-3.1,3.6-9.5,0-12.6c0.3-2.4-1.2-4.8-3.8-5.3c-3.6-0.6-5.9,2.2-7.1,5.2c-0.2,0.4-0.2,0.8-0.1,1.2
		c-1.2,1.5-1.8,3.6-1.7,5.5c-2.9,2.5-3.5,7.1-1.7,10.4c-1.3,2-1.7,4.5-1.2,6.8c-0.9,1.3-1.4,2.9-1.6,4.5c-0.1,0.9-0.1,1.7-0.2,2.6
		c-2.9,0.1-5.5,1.3-8,2.7c-0.3,0.2-0.6,0.4-0.8,0.6c-0.9-0.4-1.9-0.6-3-0.6c-1.1-1.9-3.1-3.2-5.8-3.5c-1.1-1.8-2.9-3.2-5.6-3.5
		c0,0,0,0,0,0c-3.2-4.2-9.7-4.2-11.9,1.1c-0.4,1.1-0.3,2.1,0.7,2.7c0.2,0.2,0.5,0.3,0.7,0.4c-0.8,3.7-0.2,7.4,3.4,9.8
		c0.4,0.3,0.8,0.4,1.2,0.3c1.1,0.9,2.5,1.5,4.2,1.6c1.2,2,3.2,3.4,6.2,3.5c1.2,2,3.4,3.5,6.5,3.5c2.1,0,3.8-0.7,5-1.7
		c2.2,1,4.8,1,7.1-0.3c1.2,0.5,2.5,0.8,3.5,0.8c0.1,0,0.2,0,0.2,0c0.4,1,1,1.9,1.7,2.7c3.2,3.2,8.1,2.9,11.3,0
		C278.1,540.9,279.1,534.9,276.6,530z"/>
</g>
<g id="Layer_1">
	<g>
		<path d="M274.4,299.1c4.4-6.8,8.4-13.1,12.4-19.4c1-1.5,2-3.1,3.3-4.4c2.9-3.1,5.5-3.1,8.7-0.3c4.3,3.8,5.6,9,6,14.3
			c0.4,4.5,0.3,9,0.1,13.5c-0.1,2.8,0.7,4.7,2.9,6.4c5.3,4.1,5.8,6.2,4.1,12.4c-1.1,4-1.7,8.1-2.9,12.1c-1.3,4.5-3,8.8-4.5,13.2
			c-0.6,1.8-1.2,3.7-1.8,5.6c3.1,0.6,6.4,0.4,8.4,1.8c2,1.5,2.7,4.6,4.1,7.2c11.3-2.7,19.7,1.9,26.7,11.1c2.2-0.3,4.8-0.6,7.4-0.8
			c5.5-0.4,10.1,1.4,13.9,5.4c5.5,5.8,10.8,11.8,12.9,19.8c0.3,1,1.4,1.8,2.1,2.8c5.2,6.8,9,14.1,7.7,23c-0.4,2.6-1.1,5.2-2,7.7
			c-1.4,3.7-4.7,5.4-8.5,6.8c0.5,3.9,1,7.6,1.6,11.4c1.3-0.2,2.3-0.3,3.2-0.6c3.2-0.8,5.7,0.3,7.2,3c1,1.7,2.3,2.4,3.9,3.4
			c4.8,2.8,7.8,6.4,6.1,12.8c-0.8,2.8-1.7,5.6-2.8,9.2c3.2,4.5,2.7,9.9-0.3,15.2c-3.4,6-9.1,5.8-15.1,5.2c-1.7,4-4.6,6.3-8.9,6.1
			c-4.8-0.2-9.1-2-12-6.1c-1.1-1.6-2-3.4-3.1-5.5c-3.7,2.4-8,3.4-12.9,3.1c1.6,6.2,0.2,10.9-6.4,13.3c0.9,3.2,1.6,6.2,2.6,9.1
			c1,3,2.3,5.9,3.5,8.8c1.3,3.2,3.4,5.5,6.4,7.4c4.6,2.8,7.3,7.2,7.4,12.7c0.1,4.7-2.5,7.5-7.1,7.1c-5.5-0.5-9.1,2.6-13,5.2
			c-0.9,0.6-1.4,1.8-1.8,2.8c-2.8,6-5.2,7-11.6,4.5c-4.7,4-9.5,3.7-14-0.3c-5.3,1.5-9.7-0.6-11.9-5.5c-1.1-2.4,0.1-4.3,1.4-5.9
			c3.1-3.8,7.2-6.5,11.9-6.4c4.8,0.1,6.9-2.8,9-5.8c2-2.9,2.5-6.3,1.5-9.9c-1.9-7.4-3.4-14.9-5.1-22.4c-0.3-1.4-0.5-2.9-0.7-4.3
			c-2.1-1.5-3.9-2.5-6.3-0.4c-2.6,2.3-5.7,1.4-8.5,0.1c-3.3-1.6-6.4-3.5-9.8-5.4c-2.7,3.1-6,2.7-9.4,1.4c-3.7,2.5-4.7,6.2-4.8,10.2
			c-0.1,2-0.5,3.9-0.7,5.9c-0.6,4.7-0.4,9.3,1.9,13.6c0.6,1.2,1.3,2.4,1.6,3.6c2.9,10.2-5,14.8-12.7,15c-0.5,0-0.9-0.2-1.4-0.4
			c-2.5-1.1-5.1-2.2-7.6-3.5c-2.6-1.4-5.1-1.2-7.6,0.2c-0.7,0.4-1.5,0.7-2.3,1c-2.6,1.3-4.8,0.9-6.8-1.1c-0.1-0.1-0.3-0.2-0.4-0.3
			c-3.2-4.3-7.8-6.6-12.6-8.5c-3.6-1.4-5-4.1-5.6-7.5c-0.2-0.9-0.5-2-1.1-2.7c-2-2.4-1.3-4.6,0.1-6.9c2.4-3.8,7.6-5.1,11.3-2.8
			c3.2,2,6.5,4.1,9.3,6.6c1.9,1.7,4,2.4,6.2,2.9c3.5,0.7,5.8-0.7,6.8-4.2c1.2-4.5,2.3-9,3.2-13.6c1.1-5.9,2-11.8,3.1-18.2
			c-10.3-7.5-14-19.4-19-30.7c-6.8,0.1-10.8-3.9-13.7-9.3c-2.5-4.6-3.9-9.5-4.1-14.8c-0.3-6.3-0.8-12.6-1.2-18.6
			c-2.7-2.7-5.6-4.9-7.6-7.8c-2.1-3-1.1-6.7-0.3-10.3c-0.8-1-1.7-1.9-2.6-3c-3-3.9-3.5-10.6,1.2-14.4c3.5-2.9,3.5-3.2,1.1-6.9
			c-2.8-4.5-4.1-9.4-4.9-14.5c-1.5-9.4-2.3-18.9-0.7-28.3c0.5-2.7,1.5-5.4,2.6-7.9c2.2-4.8,4.6-9.6,7.1-14.3
			c0.8-1.5,2.2-3.2,3.8-3.7c3-1.1,3.6-3.1,3.6-5.8c0.1-4.7,0.4-9.3,0.6-14c0-0.7,0-1.3,0.1-2c0.5-4.4,2.9-5.8,6.9-3.8
			c3.2,1.6,6.3,3.7,9.4,5.7c4.1,2.8,8.2,5.6,12.2,8.6c2,1.5,4,2.1,6.5,1.5C266.3,294.5,270.6,295.2,274.4,299.1z M370.6,396.3
			c0.2-0.4,0.5-0.8,0.7-1.1c-2.2-5-5.3-9.5-9-13.5c-1.5-1.6-3-3.2-4.8-4.4c-5.8-3.7-11.7-2.9-17.4,0.2c-1.6,0.9-2.9,2.1-5.1,0.6
			c0.5-0.8,0.8-1.6,1.3-2.2c1.3-1.6,1-3.1-0.3-4.4c-3.2-3.2-7.2-5.3-11.4-6.9c-3.2-1.2-6.2-0.6-9.2,0.7c-2.1,0.9-3.9,0.6-5.3-1.3
			c-0.1-2.6,0.9-5.8-2.2-7c-3.2-1.3-6.2-0.2-8.4,2.9c-0.8-1.2-1.5-2.2-2.1-3.1c-0.6-1-1.1-2.1-1.7-3.1c-2-3.1-3.2-3.4-6.5-1.6
			c-0.5,0.3-1.1,0.5-1.7,0.8c-1-1.1-1.9-2.2-2.9-3c-2.8-2.5-6.4-2.1-8.6,1c-0.9,1.3-1.4,3-2,4.5c-0.3,0.8-0.5,1.7-0.8,2.9
			c-1-0.6-1.5-1-2-1.3c-4.7-3.6-7.3-3-10.3,2.1c-2.7,4.7-3.9,9.5-0.7,14.7c-2.9,1.6-5.5,1.9-8.2,0.5c-1.3-0.7-2.7-1.3-4.1-1.8
			c-2.9-1.1-5.1-0.4-6.9,2.2c-0.8,1.2-2,2.1-3.1,3.3c-2.7-6.7-7-7.7-11.4-2.9c-2.6,2.9-5.4,5.2-8.8,7.1c-4.6,2.6-5.1,6.7-1.8,10.9
			c1,1.3,2.2,2.4,3.4,3.7c-1.2,3.7-2.6,7.4,0,11c2.3,3.4,6,4.3,11,5.3c-4.4,2.9-3.3,6.5-3.3,9.8c0,2.7,0,5.3,0.2,8
			c0.5,6.5,1.4,12.9,5.2,18.5c1.9,2.7,3.8,5.4,6.7,6.2c1.3-1.4,2.3-3.3,3.4-3.5c2-0.2,2.1,2.1,2.7,3.6c0.2,0.5,0.2,1,0.4,1.4
			c2.4,5.8,4.7,11.7,7.4,17.4c2.1,4.4,5.1,8.2,9,11.1c1,0.7,2.2,1.1,4.4,2.2c-0.7-2.9-1-4.6-1.6-6.3c-0.6-1.5-0.5-2.7,0.9-3.4
			c1.3-0.6,2.2,0.2,2.8,1.3c0.2,0.4,0.5,0.9,0.8,1.3c2.6,3.5,5,7.1,7.8,10.3c2.4,2.8,5.1,5.3,8.9,6.9c0.1-3.4-3.2-4.2-3.8-7
			c0.6-0.6,1.4-1.3,2.3-2.2c1.1,1,2,1.8,2.8,2.5c4.5,4,9.5,7.3,14.9,9.9c1.1,0.5,2.3,0.6,3,0.8c0.2-1.9,0-3.5,0.8-4.5
			c0.4-0.5,2.4,0,3.6,0.4c5.4,1.8,10.6,3.9,16,5.4c2.8,0.8,5.9,0.9,8.9,0.8c5.6-0.3,7.1-3.9,3.7-8.5c-1.2-1.6-2.7-2.9-4.1-4.3
			c-0.9-0.9-1.8-1.8-2.6-2.7c1.1-2.6,2.5-2.3,4.5-1.4c3.1,1.4,6.4,2.7,9.8,3.4c4.1,0.9,8.1-1.4,9.7-5.3c1.3-3.2,2.3-6.6,0.9-10.2
			c-0.9-2.3-1.5-4.7-2.5-7c-0.5-1.2-0.5-2.2,0.4-3.2c1-1.1,2-0.5,3.1,0c7.8,3.2,12.9,0.7,15-7.4c0.4-1.4,0.5-2.9,0.7-4.4
			c0.8-5.4-0.3-10.6-1.2-15.8c-0.7-3.7-0.4-4.2,3.2-4.2c3.4,0,5.3-1.7,6.4-4.6c1.4-3.6,2-7.3,1.2-11.2c-1.5-7-4.8-12.7-11.4-16.1
			c-2.4-1.3-4.8-2.6-6.1-5.7C367.2,395.7,368.9,396,370.6,396.3z M253.7,299.9c-4.2-4.9-18.1-14.8-23.1-16.5
			c-0.2,0.4-0.5,0.9-0.5,1.3c-0.2,6.1-0.6,12.3-0.6,18.4c0,2.3-0.5,3.4-2.7,3.9c-3.4,0.7-5.3,3.1-6.6,6.1c-0.7,1.7-1.5,3.3-2.4,4.9
			c-5,8.4-6.9,17.6-6,27.3c0.5,6.1,1.2,12.2,2.4,18.2c1.1,5.2,3.5,10,8.5,12.6c8.1-6.5,8.1-6.5,15.8-2.6c6.5-4.9,7.8-5,14.6-1.2
			c0.6,0.3,1.8,0.5,2.2,0.1c0.6-0.5,1.2-1.7,1.1-2.4c-0.6-4.2,0.8-7.9,2.8-11.4c1.4-2.5,3-5.1,5.8-5.9c2.2-0.6,4.7-0.3,7.4-0.4
			c6.7-7.9,7.9-8.2,15.8-2.5c1.4-1.7,3.3-1.8,5.3-1c1.8,0.8,3.4,1.7,5.6,2.8c1.9-5.5,3.9-10.8,5.5-16.2c1.6-5.2,2.7-10.6,4.1-15.9
			c0.7-2.8-0.4-4.9-2.5-6.5c-1.6-1.2-3.4-2-5-3c0-3.5-0.1-6.8,0-10.1c0.2-5.5-0.4-10.9-2.1-16.2c-0.9-2.9-2.3-5.4-5.2-7.3
			c-4.1,3.1-7.6,6.5-10.3,10.8c-2.2,3.5-4.2,7.1-6.5,10.6c-0.9,1.5-2.2,2.8-3.8,4.8C267.4,295.9,260.3,299.1,253.7,299.9z
			 M234.3,528.5c-0.9-0.9-1.8-1.8-2.9-2.6c-1.9-1.4-4.1-1.2-5.9,0.4c-1.9,1.6-1.2,3.4,0.1,4.8c1.6,1.8,3.6,4.2,5.6,4.5
			c3.7,0.5,6,2.5,8.3,4.8c2.6,2.6,5,2.9,8.5,1.4c4.8-2.1,9.9-3,14.3,1.5c0.3,0.3,0.9,0.4,1.3,0.8c3.5,3.1,6.8,1.6,10.1-0.4
			c3.3-2,4.1-5.2,3.3-8.7c-0.3-1.5-1.3-2.9-2.2-4.3c-2.1-3.5-4.6-6.9-2.4-11.4c0.5-1,0.5-2.3,0.5-3.4c-0.1-4.2,0.8-8.2,1.9-12.2
			c0.6-2,0.7-4.2,0.9-6.3c0.1-0.6,0-1.4-0.3-1.8c-1.9-2.4-4-4.7-6.1-7.1c-2.1,2-4.7,2.4-5.3,5.5c-1.9,10.3-4.2,20.4-6.3,30.5
			c-1.3,1-2.4,2.1-3.7,2.7c-1.7,0.8-3.8,2-5.4,1.7c-2.7-0.5-5.4-1.8-7.7-3.3c-3.8-2.4-7.3-5.1-10.9-7.7c-1.5-1.1-2.9-1.4-4.5-0.1
			c-2,1.7-2.5,3.2-1.5,5.8C230.2,522.4,232.2,523.2,234.3,528.5z M327.1,542.4c-3.1,0.1-5.2,1.5-6.8,3.6c-2,2.5-4.9,3.5-7.9,3.5
			c-4.4,0-7.4,2.6-10.4,5.2c-0.8,0.6-1.5,2.2-1.2,3c0.4,1.3,1.6,2.4,2.6,3.5c1,1.1,2.3,1.2,3.6,0.3c1.9-5.2,1.9-5.2,4.8-5.1
			c-0.2,6.3-0.2,6.3,5.3,8.6c1.8-2.1,3.7-4.3,5.8-6.7c1.4,1.6,2.9,3.2,4.7,5.1c1.1-1.2,2.4-2,2.8-3.1c1.2-3.9,4.5-5.4,7.3-7.7
			c3-2.4,6.4-3.4,10.2-3.4c1,0,1.9-0.2,3.3-0.4c0.3-1.9,1.5-4.2,0.8-5.2c-2-2.7-2.7-6.6-6.1-8.1c-3.7-1.6-5.5-4.8-7-8.1
			c-1.3-2.8-2.4-5.8-3.4-8.8c-1.2-3.4-2.2-6.9-3.3-10.3c-4.2-0.8-8.2-1.5-13.1-2.4C321.4,518.4,323.5,530.3,327.1,542.4z
			 M376.6,489.8c1.9,1.1,2.9,1.7,3.9,2.3c6.3,3.3,9.7,1.7,11.8-5.3c1.1-3.5,0.1-6.2-1.9-8.8c-0.9-1.1-1.9-2.2-2.9-3.4
			c0.9-0.7,1.3-1.4,1.9-1.5c2.5-0.3,3.2-2.1,3.6-4.1c0.2-1,0.3-2,0.4-3c0.6-4.4-1.5-7.4-5.9-8.6c-1-0.3-1.9-1.1-2.6-1.9
			c-0.8-1-1.3-2.3-2-3.4c-0.9-1.2-2.1-1.5-3.5-0.8c-1.7,0.9-3.1,1.9-3.4,4c-0.2,1.5-0.6,2.9-1,4.4c-1.9,6.2-6.3,9.7-12.6,10.3
			c-1.1,0.1-2.1,0.3-2.8,0.4c0,4.2,0.7,8.2-0.2,11.7c-1,3.9-0.2,7.1,1.4,10.3c2,4.3,5.7,6.4,10.2,7c2.1,0.3,3.6-0.7,4-2.7
			c0.2-1.1-0.2-2.4,0-3.4C375.3,492.2,376,491.2,376.6,489.8z"/>
		<path d="M319.1,460.6c-2.9,1.7-5.5,3.2-8.8,2.1c-1.1-4-0.5-7.7,2.7-10.4c3.2-2.6,3.4-5.8,2.8-9.4c-1.3-7.4-2.6-14.7-4-22
			c-0.1-0.7-0.9-1.3-1.4-2c-0.6,0.1-1.1,0.1-1.5,0.3c-5.1,2.6-9.8,1.5-12.9-3.3c-2.7-4.1-4.1-8.7-4.9-13.5c-0.2-0.9,0-2.1,0.6-2.8
			c0.5-0.6,1.7-0.6,2.4-0.8c1.4,4.6,2.6,8.9,4.1,13c0.8,2.3,2.2,4.5,4.8,5.5c2.1,0.8,3.1,0.5,3.9-1.6c0.3-0.8,0.3-1.7,0.6-2.4
			c0.8-1.6,2.5-1.8,3.7-0.5c1.4,1.6,2.5,3.5,4,5.1c2.5,2.7,4.4,2.6,6.5-0.3c1-1.3,1.7-2.9,2.3-4.4c0.5-1.4,1.3-2.3,3.3-2.4
			c0.5,0.7,1.2,1.5,1.9,2.4c1.8,2.1,3.2,2.2,4.9,0c2.4-3.3,5.6-6.3,5.1-11c-0.2-1.6,1.1-2.4,2.6-2.3c1.7,0.1,2.2,1.5,1.9,2.9
			c-0.9,4.1-3,7.8-5.8,10.9c-2.4,2.6-2.7,5-1.8,8.5c1.7,6.2,2.6,12.7,4,19c1,4.5,2.1,9,3.2,13.5c0.2,0.8,0.6,1.6,0.7,2.4
			c1,5.3,0.3,6.3-4.9,7c-1.3,1.4-2.3,3.2-3.8,3.8c-1.4,0.5-3.3-0.2-5.3-0.4c-3.4,3.6-6.2,3.2-8.7-1.6
			C320.4,464.4,319.9,462.8,319.1,460.6z M313.3,459c3-1.6,5.5-2.9,7.9-4.1c3,3.5,0.3,8.6,4.6,11c3-1.5-0.9-6.8,3.9-7.2
			c1.7,1.6,2.1,4.2,4.6,5.5c0.3-1.4,0.6-2.3,0.7-3.2c0.2-1.3-1.3-3,0.8-3.9c1.9-0.8,2.4,1.3,3.6,1.9c0.1,0,0.3-0.1,0.8-0.3
			c-0.4-1.2-0.8-2.4-1.2-3.6c-0.4-1.3-0.9-2.5-1.1-3.8c-1.8-9.6-3.5-19.2-5.3-28.8c-0.6-3.3-2.3-5.4-6.2-5.6
			c-2.3,3.7-5.3,6.6-10.3,6.2c0,1.5-0.1,2.6,0,3.7c0.9,5.9,1.7,11.8,3,17.6c0.6,3,0.1,5-2.5,6.8C314.4,452.9,312.9,455.1,313.3,459z
			"/>
		<path d="M257.6,326.8c-0.3-1.3-2.7-2.5-0.5-5.4c0.9,1.8,1.7,3.4,2.5,5.1c0.5-0.3,1-0.6,1.5-1c0-1.7,0-3.3,0-5
			c4.3-0.8,5.8,1.2,5.2,7c3.6,2.9,8.6-0.2,12.4,3c-1.1,2-3,2.2-4.7,2.1c-4.3-0.3-8.6-0.7-12.8-1.4c-5.2-0.8-10.6,3-10.9,8.1
			c-0.4,7-0.9,7.5-8,8.8c-0.5,0.1-0.9,0.3-1.3,0.5c-0.6,2.9-0.6,2.9,0.6,6.4c2,0.1,4.1,0.1,6.2,0.4c0.7,0.1,1.4,1,2,1.6
			c-0.6,0.7-1.2,1.5-2,1.9c-0.7,0.3-1.6,0.1-2.5,0.2c-4,0.2-8,0.5-11.9,0.7c-0.6,0-1.2-0.3-2.2-0.6c1.1-2.8,4.3-2,5.9-4.5
			c-0.3-1.4-0.8-3.5-1.3-5.5c-3.5-1.1-7.8,0.9-9.9-3.5c-1.5-3.3-2.6-6.4-0.2-9.8c-2.5-1.9-5.1-0.4-7.5-0.8c0.6-2.7,3.3-1.7,4.8-3.1
			c0.3-2.1-2.2-4.4,0.1-7.1c1.1,2,2.1,3.8,3.5,6.3c0.3-1.4,0.5-1.9,0.5-2.4c0.1-1.7-0.1-3.6,2.3-3.7c1.6-0.1,3.5,2.8,3.3,4.7
			c-0.1,0.5-0.4,1.1-0.6,1.8c6.2-0.4,5.8-2.5,15.9,2.2C251,331.5,254,329.3,257.6,326.8z M244.2,345.3c2.2-2.7,2.8-4.9,1.6-7
			c-2.1-3.7-7.8-5.5-11.9-3.8c-1.4,0.5-2.6,1.4-3.9,2.1c-1.4,0.8-3.3,1.6-2.8,3.6c0.6,2.3,1.2,5,4.5,6c0-0.9,0.1-1.4-0.1-1.7
			c-0.9-1.9,0-2.9,1.7-3.3c1.6-0.4,2.4,0.6,2.7,2.2c0.2,0.9,0.6,1.7,1,2.9c0.9-0.7,1.6-0.9,1.8-1.4c0.3-0.9,0.2-2,0.6-2.9
			c0.3-0.7,1.2-1.7,1.5-1.6c0.8,0.3,1.5,1,2,1.7C243.4,342.6,243.6,343.6,244.2,345.3z"/>
		<path d="M283.1,299.7c1.5,2.5,2.4,4.1,3.3,5.5c-2.7,0.2-4.7-1.3-5.3-3.9c-0.5-2.3,0.1-2.9,4-4.4c1.1-1.9,2.1-3.3,2.9-4.8
			c0.7-1.3,1.3-2.6,1.6-4c0.5-2.2,1.7-3.5,3.8-4.1c2,2.5,2,2.5-2.5,4.5c0.3,1.1,0.6,2.2,0.9,3.3c0.3,1.5,0.5,2.9-1.1,4
			c-0.4,0.3-0.7,1-0.8,1.6c-0.2,3.4-0.1,3.4-3.1,2.9C286,300.2,285.2,300.1,283.1,299.7z"/>
		<path d="M240.4,305.8c-2.8,1.7-5,1.3-6.9-0.2c-0.7-0.5-1.2-2.4-0.9-2.9c1.9-2.6,2.5-5.6,3.2-8.6c0-0.2,0-0.4,0.1-0.5
			c0.7-0.5,1.5-1,2.2-1.5c0.4,0.7,0.9,1.3,1.1,2c0.3,1.4,0.4,2.8,0.6,4.4c-1.2,1.3-2.5,2.6-4.2,4.3
			C237.4,303.9,238.7,304.7,240.4,305.8z"/>
		<path d="M249,318.1c3.1-6.6,9.4-8.2,12.9-3.6c-2.5,0.7-4.6-2.6-7-0.7C253.2,315.1,251.4,316.4,249,318.1z"/>
	</g>
</g>
</svg>
