<?xml version="1.0" encoding="UTF-8"?>
<!DOCTYPE svg PUBLIC "-//W3C//DTD SVG 1.1//EN" "http://www.w3.org/Graphics/SVG/1.1/DTD/svg11.dtd">
<svg xmlns="http://www.w3.org/2000/svg" version="1.1" width="595px" height="842px" style="shape-rendering:geometricPrecision; text-rendering:geometricPrecision; image-rendering:optimizeQuality; fill-rule:evenodd; clip-rule:evenodd" xmlns:xlink="http://www.w3.org/1999/xlink">
<g><path style="opacity:0.781" fill="#020202" d="M 290.5,272.5 C 298.038,272.188 302.538,275.855 304,283.5C 304.333,290.5 304.667,297.5 305,304.5C 307.333,307.5 309.667,310.5 312,313.5C 311.383,325.971 308.55,337.971 303.5,349.5C 303.833,350.167 304.167,350.833 304.5,351.5C 306.444,352.189 308.444,352.689 310.5,353C 312.221,355.619 314.054,358.119 316,360.5C 326.528,358.841 335.028,362.341 341.5,371C 352.549,368.808 361.382,372.308 368,381.5C 373.266,391.757 378.933,401.757 385,411.5C 386.474,419.483 385.307,426.983 381.5,434C 379.783,435.559 377.783,436.392 375.5,436.5C 375.724,440.179 376.058,443.846 376.5,447.5C 378.06,447.481 379.56,447.148 381,446.5C 382.5,447 384,447.5 385.5,448C 389.333,451.833 393.167,455.667 397,459.5C 397.776,465.069 396.943,470.402 394.5,475.5C 397.417,481.751 396.917,487.751 393,493.5C 388.799,496.885 384.132,497.885 379,496.5C 377.42,501.294 374.087,503.294 369,502.5C 361.811,501.997 356.811,498.33 354,491.5C 350.527,493.823 346.694,494.823 342.5,494.5C 342.664,497.187 342.497,499.854 342,502.5C 340.171,504.954 338.338,507.287 336.5,509.5C 338.173,515.685 340.339,521.685 343,527.5C 348.047,530.88 352.047,535.214 355,540.5C 356.262,544.909 355.428,548.743 352.5,552C 347.481,552.118 342.815,553.451 338.5,556C 335.275,559.104 332.275,562.437 329.5,566C 327.101,566.711 324.768,566.544 322.5,565.5C 319.983,566.895 317.316,567.895 314.5,568.5C 310.137,566.202 305.47,565.036 300.5,565C 292.548,559.765 292.548,554.432 300.5,549C 304.692,547.211 309.025,545.877 313.5,545C 316.106,543.062 317.939,540.562 319,537.5C 318.453,529.424 317.12,521.424 315,513.5C 314.573,509.958 313.407,506.792 311.5,504C 307.723,505.3 303.723,505.633 299.5,505C 296.006,503.421 292.673,501.587 289.5,499.5C 286.532,501.662 283.366,501.995 280,500.5C 278.171,502.156 276.837,504.156 276,506.5C 273.364,515.46 274.03,524.127 278,532.5C 279.573,544.26 274.406,549.427 262.5,548C 259.253,546.541 255.92,545.374 252.5,544.5C 244.826,548.291 238.493,546.791 233.5,540C 229.423,538.213 225.59,536.046 222,533.5C 220.955,529.656 219.455,525.99 217.5,522.5C 220.083,514.877 225.083,512.71 232.5,516C 237.159,519.992 242.326,523.158 248,525.5C 250.333,524.5 252,522.833 253,520.5C 255.332,510.329 257.499,500.162 259.5,490C 255.202,486.912 251.702,483.079 249,478.5C 245.894,472.621 243.06,466.621 240.5,460.5C 230.627,457.455 224.793,450.788 223,440.5C 222.333,432.5 221.667,424.5 221,416.5C 218.667,414.167 216.333,411.833 214,409.5C 212.796,405.284 212.13,400.951 212,396.5C 208.739,393.131 207.739,389.131 209,384.5C 210.848,381.989 212.681,379.489 214.5,377C 202.722,352.89 203.889,329.39 218,306.5C 220.488,305.353 222.488,303.686 224,301.5C 224.173,293.876 225.006,286.376 226.5,279C 228.833,278.333 231.167,278.333 233.5,279C 241.107,283.609 248.441,288.609 255.5,294C 260.167,294.333 264.833,294.667 269.5,295C 270.966,295.635 272.3,296.469 273.5,297.5C 278.929,288.965 284.596,280.631 290.5,272.5 Z M 291.5,277.5 C 295.043,277.872 297.21,279.872 298,283.5C 299.794,292.403 300.794,301.403 301,310.5C 304.57,311.85 306.737,314.35 307.5,318C 305.14,329.078 301.974,339.912 298,350.5C 294.859,347.705 291.359,347.038 287.5,348.5C 281.314,343.884 275.981,344.717 271.5,351C 265.436,350.13 260.936,352.296 258,357.5C 256.109,361.611 255.109,365.944 255,370.5C 254.586,370.957 254.086,371.291 253.5,371.5C 247.984,367.177 242.818,367.51 238,372.5C 235.978,371.214 233.811,370.214 231.5,369.5C 227.954,370.522 224.787,372.189 222,374.5C 217.359,371.903 214.692,367.903 214,362.5C 210.994,350.124 210.994,337.791 214,325.5C 216.667,320.167 219.333,314.833 222,309.5C 224.333,308.167 226.667,306.833 229,305.5C 229.5,298.508 229.666,291.508 229.5,284.5C 237.718,287.865 245.051,292.698 251.5,299C 256.505,299.082 261.505,299.082 266.5,299C 268.664,299.914 270.664,301.081 272.5,302.5C 278.588,293.996 284.921,285.662 291.5,277.5 Z M 283.5,495.5 C 280.925,494.432 278.758,492.765 277,490.5C 273.684,485.522 270.017,480.855 266,476.5C 264.603,477.226 263.769,478.393 263.5,480C 264.343,481.935 264.343,483.769 263.5,485.5C 256.98,481.129 252.48,475.129 250,467.5C 247.859,462.244 246.026,456.91 244.5,451.5C 241.675,451.081 239.509,452.081 238,454.5C 234.604,451.768 231.937,448.435 230,444.5C 227.39,435.677 226.39,426.677 227,417.5C 227.785,415.714 228.951,414.214 230.5,413C 224.136,412.303 219.803,408.969 217.5,403C 218.09,400.804 218.757,398.638 219.5,396.5C 216.902,394.072 214.902,391.239 213.5,388C 213.862,386.775 214.362,385.609 215,384.5C 219.965,381.26 224.465,377.426 228.5,373C 233.098,371.909 235.931,373.743 237,378.5C 238.833,376.667 240.667,374.833 242.5,373C 246.699,372.673 250.699,373.506 254.5,375.5C 256.731,375.147 258.731,374.314 260.5,373C 256.805,365.438 258.471,359.271 265.5,354.5C 267.996,355.58 270.33,356.914 272.5,358.5C 273.762,355.885 274.928,353.218 276,350.5C 279.61,347.619 282.777,348.119 285.5,352C 288.167,352 290.833,352 293.5,352C 294.732,354.975 296.566,357.475 299,359.5C 305.843,354.506 309.343,356.339 309.5,365C 318.312,362.932 326.312,364.599 333.5,370C 336.1,372.459 336.1,374.959 333.5,377.5C 335.421,378.641 337.421,378.808 339.5,378C 345.496,373.558 351.496,373.558 357.5,378C 363.112,382.892 366.945,388.725 369,395.5C 367.644,394.62 366.144,394.286 364.5,394.5C 364.297,396.39 364.963,397.89 366.5,399C 379.277,404.984 383.777,414.817 380,428.5C 377.592,431.62 374.426,432.953 370.5,432.5C 370.885,437.861 371.551,443.194 372.5,448.5C 372.872,455.588 370.205,461.088 364.5,465C 361.482,465.001 358.482,464.501 355.5,463.5C 354.558,463.608 353.725,463.941 353,464.5C 353.491,469.167 354.324,473.834 355.5,478.5C 355.543,484.785 352.543,488.451 346.5,489.5C 342.041,488.569 337.707,487.236 333.5,485.5C 330.918,485.747 330.085,487.08 331,489.5C 333.333,491.833 335.667,494.167 338,496.5C 339.406,501.269 337.572,503.602 332.5,503.5C 323.16,501.164 313.826,498.83 304.5,496.5C 304.5,497.833 304.5,499.167 304.5,500.5C 296.795,497.644 289.961,493.311 284,487.5C 282.764,488.399 281.93,489.566 281.5,491C 282.414,492.406 283.08,493.906 283.5,495.5 Z M 377.5,451.5 C 378.873,451.343 380.207,451.51 381.5,452C 384.869,455.667 388.369,459.167 392,462.5C 392.328,465.207 391.995,467.874 391,470.5C 389.028,471.305 387.528,472.639 386.5,474.5C 391.81,479.203 392.643,484.537 389,490.5C 388.044,491.894 386.711,492.561 385,492.5C 381.761,491.714 378.761,490.381 376,488.5C 374.153,491.406 372.986,494.573 372.5,498C 364.426,497.6 359.759,493.267 358.5,485C 359.419,480.219 359.752,475.385 359.5,470.5C 364.258,470.271 368.425,468.604 372,465.5C 374.138,460.912 375.972,456.245 377.5,451.5 Z"/></g>
<g><path style="opacity:0.693" fill="#000000" d="M 290.5,283.5 C 294.541,283.574 295.208,284.907 292.5,287.5C 291.741,291.978 290.741,296.311 289.5,300.5C 284.882,299.975 283.882,301.308 286.5,304.5C 282.719,305.597 280.386,304.097 279.5,300C 280.363,297.638 282.03,296.138 284.5,295.5C 286.698,291.558 288.698,287.558 290.5,283.5 Z"/></g>
<g><path style="opacity:0.698" fill="#000000" d="M 235.5,291.5 C 237.124,291.36 238.29,292.027 239,293.5C 240.123,296.956 239.29,299.79 236.5,302C 237.551,303.385 238.884,304.385 240.5,305C 237.782,306.768 234.949,306.934 232,305.5C 232.525,300.732 233.692,296.065 235.5,291.5 Z"/></g>
<g><path style="opacity:0.51" fill="#000000" d="M 252.5,311.5 C 255.807,311.063 258.807,311.73 261.5,313.5C 259.219,314.185 256.886,314.351 254.5,314C 246.017,320.253 245.35,319.419 252.5,311.5 Z"/></g>
<g><path style="opacity:0.806" fill="#020202" d="M 259.5,319.5 C 265.02,319.151 267.354,321.817 266.5,327.5C 270.163,327.952 273.83,328.452 277.5,329C 278.451,329.718 278.617,330.551 278,331.5C 272.233,332.594 266.4,332.594 260.5,331.5C 256.103,330.947 252.937,332.614 251,336.5C 250.461,339.529 249.794,342.529 249,345.5C 246.667,346.877 244.167,347.877 241.5,348.5C 240.319,350.135 240.319,351.802 241.5,353.5C 244.027,354.214 246.527,354.88 249,355.5C 249.507,356.996 249.007,358.163 247.5,359C 241.804,359.83 236.137,359.663 230.5,358.5C 231.528,356.639 233.028,355.305 235,354.5C 235.667,353.167 235.667,351.833 235,350.5C 231.667,349.167 228.333,347.833 225,346.5C 223.401,343.009 223.234,339.509 224.5,336C 222.408,334.887 220.075,334.721 217.5,335.5C 217.45,333.41 218.45,332.077 220.5,331.5C 221.167,329.167 221.833,326.833 222.5,324.5C 223.719,325.263 224.719,326.263 225.5,327.5C 226.386,326.675 226.719,325.675 226.5,324.5C 230.833,324.167 232.833,326.167 232.5,330.5C 234.401,330.567 236.234,330.233 238,329.5C 241.539,330.594 245.039,331.428 248.5,332C 251.167,330 253.833,328 256.5,326C 255.24,324.186 255.24,322.353 256.5,320.5C 257.584,321.665 258.417,322.998 259,324.5C 259.494,322.866 259.66,321.199 259.5,319.5 Z"/></g>
<g><path style="opacity:1" fill="#c68eb8" d="M 233.5,333.5 C 238.039,332.957 241.873,334.29 245,337.5C 245.706,339.971 245.373,342.305 244,344.5C 241.062,339.116 238.729,339.45 237,345.5C 236.189,343.33 234.855,341.663 233,340.5C 232.228,340.645 231.561,340.978 231,341.5C 231.263,342.951 231.096,344.284 230.5,345.5C 227.409,343.654 226.243,340.987 227,337.5C 229.314,336.267 231.481,334.933 233.5,333.5 Z"/></g>
<g><path style="opacity:0.813" fill="#030203" d="M 292.5,397.5 C 295.26,402.906 297.76,408.573 300,414.5C 301.584,415.861 303.418,416.528 305.5,416.5C 305.2,413.756 306.367,412.089 309,411.5C 311.76,413.252 314.26,415.419 316.5,418C 317.5,418.667 318.5,418.667 319.5,418C 321.102,416.065 322.269,413.899 323,411.5C 324.085,410.707 325.252,410.04 326.5,409.5C 330.104,414.925 333.27,414.592 336,408.5C 337.079,404.775 338.745,401.442 341,398.5C 342.397,399.226 343.231,400.393 343.5,402C 341.363,407.939 338.697,413.606 335.5,419C 338.603,433.184 341.437,447.351 344,461.5C 340.385,463.607 336.885,465.94 333.5,468.5C 332.707,468.069 331.873,467.735 331,467.5C 328.439,469.344 325.606,469.844 322.5,469C 320.709,466.586 319.043,464.086 317.5,461.5C 310.648,465.146 307.815,463.146 309,455.5C 310.667,453.167 312.333,450.833 314,448.5C 313.927,438.722 312.76,429.055 310.5,419.5C 306.854,420.283 303.188,420.45 299.5,420C 297.714,419.215 296.214,418.049 295,416.5C 292.326,411.641 290.493,406.474 289.5,401C 290.071,399.401 291.071,398.234 292.5,397.5 Z"/></g>
<g><path style="opacity:1" fill="#debbd6" d="M 325.5,416.5 C 328.642,416.799 330.809,418.466 332,421.5C 334.539,434.003 336.706,446.336 338.5,458.5C 337.476,457.147 336.143,456.48 334.5,456.5C 334.808,458.924 334.474,461.257 333.5,463.5C 331.605,462.027 329.939,460.36 328.5,458.5C 327.028,460.616 325.861,462.949 325,465.5C 323.333,461.833 321.667,458.167 320,454.5C 317.667,455.833 315.333,457.167 313,458.5C 312.492,454.183 314.158,450.85 318,448.5C 318.167,447.5 318.333,446.5 318.5,445.5C 317.031,437.886 316.031,430.22 315.5,422.5C 320.075,422.547 323.408,420.547 325.5,416.5 Z"/></g>
<g><path style="opacity:1" fill="#dfbbd7" d="M 267.5,488.5 C 270.428,489.591 272.594,491.591 274,494.5C 273.511,503.819 272.678,513.152 271.5,522.5C 273.105,527.135 274.771,531.802 276.5,536.5C 275.81,542.022 272.643,545.022 267,545.5C 264.148,544.654 261.648,543.154 259.5,541C 257.577,540.192 255.577,539.692 253.5,539.5C 249.608,541.081 245.608,541.914 241.5,542C 238.231,538.394 234.231,536.061 229.5,535C 227.667,533.167 225.833,531.333 224,529.5C 223.289,527.633 223.789,526.133 225.5,525C 227.92,524.313 230.087,524.813 232,526.5C 232.667,525.833 232.667,525.167 232,524.5C 229.096,522.773 225.93,522.107 222.5,522.5C 222.641,519.52 224.141,517.52 227,516.5C 233.066,520.452 239.233,524.285 245.5,528C 250.108,528.617 253.941,527.117 257,523.5C 259.461,512.859 261.795,502.192 264,491.5C 265.145,490.364 266.312,489.364 267.5,488.5 Z"/></g>
<g><path style="opacity:1" fill="#e1bcd8" d="M 318.5,505.5 C 322.939,506.039 327.272,507.039 331.5,508.5C 334.05,515.934 336.883,523.268 340,530.5C 344.716,533.549 348.382,537.549 351,542.5C 351.18,544.488 351.014,546.488 350.5,548.5C 344.792,547.69 339.792,549.19 335.5,553C 332.315,555.884 329.482,559.051 327,562.5C 325.649,560.981 324.149,559.648 322.5,558.5C 320.183,560.316 318.016,562.316 316,564.5C 312.226,562.775 310.726,559.775 311.5,555.5C 310.325,555.281 309.325,555.614 308.5,556.5C 307.056,562.052 304.556,562.718 301,558.5C 300.676,554.454 302.509,551.621 306.5,550C 310.54,549.091 314.54,548.091 318.5,547C 321.103,544.571 323.436,542.071 325.5,539.5C 322.652,528.259 320.319,516.926 318.5,505.5 Z"/></g>
</svg>
