<?xml version="1.0" encoding="utf-8"?>
<!-- Generator: Adobe Illustrator 23.0.1, SVG Export Plug-In . SVG Version: 6.00 Build 0)  -->
<svg version="1.1" xmlns="http://www.w3.org/2000/svg" xmlns:xlink="http://www.w3.org/1999/xlink" x="0px" y="0px"
	 viewBox="0 0 595.3 841.9" style="enable-background:new 0 0 595.3 841.9;" xml:space="preserve">
<style type="text/css">
	.st0{fill:#8C589F;}
</style>
<g id="Layer_2">
	<g>
		<image style="overflow:visible;" width="311" height="229" xlink:href="37F914D1.png"  transform="matrix(1 0 0 1 143 300.8898)">
		</image>
	</g>
	<path class="st0" d="M288,375.9c-0.6-2.7-2.3-5.5-3.5-8.1c-1.4-3.2-2.8-6.4-4.5-9.4c-2.2-3.8-9.3-3.5-10.1,1.3
		c-0.3,1.6-0.4,3.1,0,4.7c0.1,0.3,0.2,0.6,0.3,0.9c-0.1,0.1-0.2,0.2-0.2,0.3c-2.7,1.5-2.6,5.7-4.4,7.9c-1.9,2.3-2.3,5.5,0,7.8
		c1.9,1.9,5.8,2.3,7.7,0.1c0.9,0.9,2.1,1.4,3.8,1.3c1-0.1,1.1-0.1,0.5,0c0.6,0.6,1.4,1,2.2,1.2c1.7,0.5,3.7,0.4,5.2-0.5
		C287.6,382,288.7,378.8,288,375.9z"/>
	<path class="st0" d="M274.6,409.5c-2.4,2.2-5.3,3.4-8.4,4c-3.2,0.6-5.3,5.3-3.3,8.1c1.6,2.2,2.8,4.4,3.6,7
		c2.1,6.8,12.7,3.9,10.6-2.9c-0.4-1.3-0.9-2.6-1.4-3.8c2.4-1.2,4.6-2.7,6.7-4.5C287.6,412.6,279.8,404.8,274.6,409.5z"/>
	<path class="st0" d="M273.7,463.7c0-0.3,0-0.5,0-0.8c-0.1-3-2.5-5.5-5.5-5.5c-2.9,0-5.6,2.5-5.5,5.5c0,1.5,0.2,3,0.6,4.3
		c-0.1,0.1-0.2,0.1-0.2,0.1c-1.4,0.7-2.3,1.7-3.2,3c-0.4,0.5-0.6,1.1-0.7,1.6c-2.9,2.3-2,8.1,2.7,8.1c1.5,0,2.6-0.6,3.4-1.6
		c1.2-0.2,2.3-0.7,3.2-1.5c0.2-0.1,0.4-0.1,0.5-0.2c0.8-0.3,1.7-0.6,2.4-1.1c1.1-0.7,1.8-1.4,2.5-2.4c0.2-0.3,0.4-0.6,0.5-0.9
		c0,0,0,0,0,0C277,470,276.9,465.7,273.7,463.7z"/>
	<path class="st0" d="M306.8,451.6c-1.7-1.7-1.9-4.2-3.9-5.2c1-2.6,2.4-4.8,2.4-7.9c-0.1-5.8-9.1-5.8-9,0c0,1.5-0.8,2.8-1.5,4.2
		c-0.3,0.8-0.7,1.6-1,2.4c-0.4,1.3-1.2,2.4,0.8,1.7c-4.8,1.8-4,8.5,1.2,8.8c1.1,0.1,2,0.4,2.9,0.4c0.5,0.7,1.1,1.3,1.7,1.9
		C304.5,462,310.9,455.7,306.8,451.6z"/>
	<path class="st0" d="M338.9,411.7c-3.3,0-6.8,1.6-10,1.1c-2.4-0.4-4.8,0.6-5.5,3.1c-0.5,1.8,0.4,4.2,2.1,5.2
		c0.1,0.8,0.3,1.6,0.7,2.4c0.5,0.9,1.3,1.3,1.9,1.9c0,0,0,0,0,0c-1.5,5.1,5.4,7.5,8.2,3.5c0.7-1,1.3-2.1,1.8-3.2
		c0.6-1.3,0.7-2.8,0.2-4.1c1-0.4,2-0.9,2.9-1.5C344.9,417.8,343.4,411.7,338.9,411.7z"/>
	<path class="st0" d="M370.2,442.2c-0.2-0.6-0.5-1.2-0.9-1.6c0-1.3-0.1-2.7-0.6-4c-0.8-2.2-3.1-3.9-5.5-3.1c-2.2,0.7-4,3.2-3.1,5.5
		c0.1,0.3,0.2,0.5,0.2,0.8c-0.1-0.2,0,0.6,0.1,0.9c0,0,0,0,0,0c0,0.1,0,0.2-0.1,0.3c0,0.1-0.1,0.2-0.1,0.4c0,0.1-0.1,0.1-0.1,0.2
		c-0.9,1.6-0.8,3.5,0.4,5c1.2,1.5,2.9,1.9,4.7,1.6c0.6-0.1,1.3-0.2,1.9-0.3C369.4,447.3,370.9,444.3,370.2,442.2z"/>
	<path class="st0" d="M393.4,455.6c-0.1-2.8-2.8-5.3-5.7-4.3c-0.2,0.1-0.4,0.1-0.6,0.2c0,0-0.1,0-0.2,0c-0.1,0-0.3,0-0.4,0
		c-0.3,0-0.5,0-0.8,0c-2.4-0.2-4.6,2.2-4.5,4.5c0.1,1.4,0.6,2.5,1.5,3.3c0,1,0.2,2,0.8,3c1.1,2.1,4.2,2.9,6.2,1.6
		c1.4-0.9,2.2-2.4,2.2-4c0.1-0.2,0.3-0.3,0.4-0.5C393,458.2,393.5,456.9,393.4,455.6z"/>
	<path class="st0" d="M410.3,432.6c-0.6-1-1.5-1.8-2.7-2.1c-1.9-0.4-3.9,0-5.4,1.4c-1.5,1.4-1.9,3.4-1.5,5.3
		c0.2,1.1,1.2,2.2,2.1,2.7c1,0.6,2.4,0.8,3.5,0.5c1-0.3,1.9-0.9,2.5-1.8c0.9-0.6,1.7-1.6,1.9-2.6C411,434.9,410.9,433.6,410.3,432.6
		z"/>
</g>
<g id="Layer_1">
	<g>
		<path d="M239.6,391c-6.1,0.5-12,1.1-17.6,3.6c-2.2,1-4.4,1.5-6.8,0.8c-2.7-0.8-5,0.1-6.9,1.7c-6,5-12.8,6.8-20.5,5.4
			c-0.9-0.2-1.9,0.2-2.9,0.3c-3.2,0.3-6.3,0.1-9.3-1.2c-1.9-0.8-3.6-1.9-3.6-4.3c0-1.7-1.2-2.1-2.3-2.9c-1.9-1.3-4.3-2.7-3.6-5.4
			c0.7-3.1,3-5.6,6.1-5.8c3.7-0.3,6-1.5,6.9-5.2c0.1-0.3,0.3-0.6,0.5-0.8c4.9-4.3,6.8-10.4,9.8-15.9c1.9-3.5,4.2-6.9,6.9-9.6
			c6.1-6.1,12.4-12.1,20.5-15.7c3.8-1.7,7.3-3.2,11.9-2.3c3.4,0.7,7.2-1,10.8-1.2c5-0.2,10-0.4,14.9,0.1c9,0.9,14.9,6.8,20.4,13.2
			c7.1,8.4,11.4,18,14.4,28.7c2.4,8.5,0.9,16.4,0.2,24.5c-0.8,9.4-5.8,17.2-9.8,25.3c-1.4,2.8-2.5,5.8-3.2,8.8
			c-1.3,5.6-2.4,11.4-3.3,17.1c-0.4,2.8,0,5.6,0.2,8.4c0.2,2.7,2.3,4.1,4.5,4.9c2.1,0.8,3.8-0.7,5.2-2.2c3.3-3.9,4.8-8.7,6.4-13.4
			c0.8-2.4,1.1-4.7,3.3-6.5c0.9-0.7,1.4-2.3,1.9-3.5c5.6-14.4,16.4-22.4,31.1-26.1c7.6-1.9,14.7-1.5,21.9,1.4
			c6.4,2.5,11.6,6.3,14.9,12.5c2.6,4.8,5.6,9.4,8.5,14.1c3,4.8,6.9,8.4,12.4,10.4c2.5,0.9,4.6,0.7,6.6-0.8
			c6.2-4.6,10.3-10.1,9.2-18.6c-0.7-5.3-1.5-10.5-3.6-15.5c-0.6-1.4-1.1-2.8-1.7-4.2c-4.8-11.3-1.4-21.4,7.8-28.4
			c5-3.8,10.8-6.4,16.3-9.5c1-0.6,2.1-0.9,3.1-1.5c2-1,4-0.7,5.4,0.7c1.6,1.5,0.7,3.2,0.1,4.6c-0.4,1-1.4,1.8-2.3,2.5
			c-1.6,1.2-3.3,2.2-5,3.3c-6.7,4.3-9.2,11.8-6.7,19.5c2.4,7.3,4.5,14.6,7,21.8c4,11.2,2.1,21.9-2.4,32.5
			c-3.3,7.9-7.5,15.2-14.7,20.4c-5.5,4-11.8,6.2-18.4,7.3c-4.7,0.8-9.2-0.9-13.4-3c-7.3-3.6-13-9.1-18.1-15.4c-2.8-3.5-6-6.7-9.1-10
			c-3.3-3.6-7.6-4.1-12-2.9c-6.3,1.7-11.5,5-14.3,11.4c-2,4.7-4.4,9.3-6.6,14c-5.6,12.2-14.7,20.3-27.9,23.7
			c-9.6,2.4-19.3,3.7-29,0.5c-9.1-3-14.7-9.2-17.4-18.3c-4.5-14.9-4.4-29.8,0.1-44.7c2-6.7,3.8-13.4,7-19.7
			c1.8-3.5,1.8-7.4,0.9-11.2c-1.3-5.3-2.7-10.6-4.1-15.9C240.3,392.3,239.9,391.7,239.6,391z M271.3,434.9c-5-1.9-7.7-5.8-8.7-11
			c-0.2-1-1.1-2-1.9-2.9c-2.3-2.7-2.3-3.5,0.3-5.6c1-0.8,2.2-1.7,3.4-2c2.7-0.6,4.9-2,6.9-3.8c2.4-2,5.1-3.1,8.3-2.9
			c1.1,0.1,2.3-0.1,3.6-0.2c1.6-6.8,4.1-13.4,2.7-20c-3-0.6-6-0.3-7.9-1.7c-3.4-2.4-6.1-1.9-9,0.4c-1,0.8-2.2,1.6-3.3,2.2
			c-3,1.7-3.5,1.5-5.5-2.2c1.6-2.4,3.6-4.7,2.4-8.2c-0.3-1,0.5-2.6,1.1-3.7c0.9-1.6,2-3.1,3.2-4.5c1.7-2,2.8-4,1.4-6.8
			c-1.2-2.4,0-4.5,2.2-6c1.4-1,2.9-2,4.9-3.4c-3.6-3.7-6.9-7.2-10.2-10.7c-6.7-7-15.5-7.1-24.1-6.9c-5.2,0.1-10.3,2.4-15.7,1.7
			c-1.2-0.2-2.6,0.4-3.8,0.9c-12.1,5.1-22.1,12.8-28.9,24.1c-1.4,2.2-2.4,4.7-3.8,6.9c-2.2,3.5-5,6.7-6.7,10.4
			c-1.7,3.6-3.9,5.6-7.7,6c-2.1,0.3-3.7,1.3-4.5,4c1,0.8,2,2.2,3.3,2.5c4,0.9,8.1,1.6,11.3-2.6c2.3-3,3.5-2.9,6.9-1.4
			c0.7,0.3,1.4,0.7,2.2,1.1c1.3-1.6,2.4-3,3.5-4.5c4.1-5.4,4.3-5.5,10.7-2.9c0.3,0.1,0.6,0,1.6-0.1c1.7-2.5,3.5-5.3,5.3-8
			c6.5,1.9,8.3,1.1,12.5-5.2c-1.3-1.5-3-3.1-1.2-5.4c4.2,2,7,6.9,6.1,12.2c-0.5-1.2-1.1-2.4-1.6-3.6c-6.9,5.9-6.9,5.9-14.2,6.7
			c-5.2,7.1-5.2,7.1-13.8,5.6c-0.3,0.2-0.7,0.3-0.8,0.5c-0.9,1.2-1.7,2.4-2.7,3.6c-3.8,4.8-3,6.6-10.9,3c-6.2,4.6-3.5,3.4-11.8,5.5
			c1.6,2.7,4.2,4,7.3,3c2.5-0.8,4.9-0.7,7.3,0c3.1,0.9,6,0.3,8.7-1.1c2.2-1.1,4.3-2.6,6.3-4c2.1-1.4,4.2-2.9,6.9-2.5
			c4.1,0.5,7.9-0.3,11.6-1.9c2.4-1,5.1-1.5,7.7-2.1c2.9-0.6,5.8-0.9,9-1.4c2,1.3,3.2,3.5,3.8,6.2c1.1,4.3,2.5,8.6,3.6,13
			c1.4,5.8,1.3,11.5-1.4,17c-1.5,3-2.7,6.1-3.7,9.2c-4.1,12.1-6.7,24.4-5.4,37.2c0.6,5.5,1.7,10.8,6.4,14.6c2.3,1.9,4.2,4.2,6.1,6.5
			c3.7,4.5,8.2,7.7,14.1,8.6c2.9,0.4,5.9,0.3,8.8,0.4c2.1,0,4.3,0.2,6.4-0.1c11.5-1.8,19.7-8.4,25.1-18.5c2.6-4.8,4.9-9.8,7.1-14.9
			c3-6.8,7.6-12.5,12.6-17.9c4.4-4.7,11.2-5.6,17-2.5c4.2,2.2,7.6,5.3,10.1,9.4c2,3.4,4.2,6.8,6.6,10c5,6.6,11.4,11.7,19.2,14.5
			c2.6,1,5.3,1.8,8.3,1.2c13.9-2.8,22-12.2,28.1-24.1c0.1-0.3,0.2-0.6,0.3-0.9c0.7-3.1,1.1-6.2,2-9.2c1.7-5.6,1.5-11.3,0.2-16.8
			c-2.2-9.2-4.8-18.3-7.3-27.4c-2.1-7.7,1.1-16.4,7.7-20.8c2.1-1.4,4.1-2.9,5.9-4.6c1-0.9,0.8-2-0.2-2.8c-2.7,1.7-5.3,3.1-7.7,4.9
			c-4.4,3.2-9,6.3-13,10c-4.7,4.5-6,10.2-3.7,16.5c1.2,3.1,2.5,6.1,3.7,9.2c0.6,1.5,1.3,3.1,1.3,4.7c0.3,4.9,1.4,8.9,6.8,10.8
			c3.3,1.1,3.9,5.8,1.4,8.3c-1.5,1.4-3.4,2.8-5.4,3.2c-2.5,0.5-4.2,1.6-5.7,3.6c-1.8,2.4-3.5,4.7-3.7,7.9c-0.1,2.1-0.7,4.3-1.4,6.3
			c-1.1,3.6-1.9,7.4-5.7,10.5c-4.5-5.2-10.1-9.3-10.7-16.9c-1.1-0.6-2.3-0.9-3.1-1.7c-3.5-3.6-7.2-2.3-11-0.9
			c-0.8,0.3-1.5,0.8-2.3,1c-1.8,0.4-3.8,1.8-5.5-0.3c-1.6-2,0.2-3.3,0.8-5c0.7-2,2.5-4,1.1-6.1c-2.3-3.5-1.3-6.2,1.3-8.7
			c-3.1-6-6.4-11.6-13.2-13.8c-1.1,1.4-2,3-3.3,3.8c-3.6,2.3-5.6,5.6-6.4,9.7c-0.1,0.6-0.4,1.3-0.7,1.9c-0.9,1.8-2.5,2.6-4,1.5
			c-2.9-2.1-6.4-3.8-6.4-8.3c0-0.8-0.2-1.7-0.7-2.3c-1.8-2.1-3.7-4.1-5.6-6.2c-6.5,2.8-12.1,6.4-15.8,12.4c1.8,6,4.6,11.7,2.6,18.1
			c-0.3,0.9,0.5,2.2,1,3.2c0.4,0.9,1.3,1.6,1.7,2.4c2.1,3.8,0.6,6.7-3.7,6.7c-1.8,0-3.6-0.6-5.2-1.2c-1.2-0.4-2.3-1.4-3.5-1.9
			c-2.9-1.3-5.1-0.9-6.9,1.8c-1.3,2.1-2.8,4.4-4.7,5.7c-3,2-6.2,3.7-7.7,7.4c-0.3,0.7-1.5,1.1-2.4,1.6c-2.8,1.5-5.6,3-8.4,4.4
			c-1.9,1-3.8,2.1-5.9,2.7c-1,0.3-3,0-3.5-0.8c-1.3-1.9-2.2-4.2-0.8-6.5c0.9-1.6,1.9-3.1,3-4.6c1.3-1.8,2.2-3.6,1.5-6
			c-0.5-1.7,0.2-3.3,1.4-4.5c1.3-1.3,2.6-2.6,4.1-3.6c1.4-0.9,2.1-1.9,2.5-3.4C270.6,446.3,271.3,440.9,271.3,434.9z M266.9,382.4
			c5-3.9,9.3-2.6,13.4,0.7c1.9-0.7,3.6-1.3,5.5-2c-0.5-2.5-1-4.6-1.4-6.6c-3.5-0.9-6.5,2.2-9.7-0.3c1.5-3,3.7-5.8,1.2-9.7
			c1.4-0.9,2.7-1.7,4-2.6c-1-1.8-1.8-3.2-2.5-4.4c-1.4,0.2-2.4,0.2-3.3,0.4c-3,0.6-3.9,1.7-2.8,4.5c1.5,3.7,0.3,6.5-2.2,9
			C265.9,374.3,265,377.6,266.9,382.4z M271.7,431.4c2-2.8,2-5.7,0.9-8.7c-0.7-1.9-1.5-3.7,0.1-5.5c6.3-0.6,7.4-1.5,8.6-7.2
			c-4.9-0.5-5-0.5-8,2.3c-1.8,1.7-3.6,3.3-6.4,3.5c-1.1,0.1-2.2,1.2-3.6,2.1C267.5,421.8,266.2,428.3,271.7,431.4z M260.4,477.7
			c4.1-2.1,8.3-4.1,12.3-6.2c1.7-0.9,2.7-2.3,2.7-3.5c-2.9-3.3-5.3-6.1-8-9.2c-1.7,0.4-2.9,2-2.6,3.8c0.8,4.1-1.3,6.9-3.6,9.8
			C260.1,473.9,259.3,475.5,260.4,477.7z M306.3,457.5c-0.5-1.3-0.6-2.2-1.1-2.8c-2.5-2.9-3.1-6-2.2-9.7c0.8-3.5,0-6.8-2.6-9.8
			c-2.5,6.1-4.9,11.9-7.5,18.2C297.9,452.6,300.9,457.6,306.3,457.5z M323.6,416.5c0.9,1.7,1.4,3.3,2.5,4.4c1.8,2,3.4,3.9,3.8,6.7
			c0.2,1.5,1.5,2.4,2.8,2.5c1.5-2.8,2.7-5.3,4.1-7.6c1.4-2.3,4.8-3.1,4.8-6.6c-1.5-1.3-2.9-1.9-4.6,0c-3.4,3.9-3.9,3.9-7.5,0
			c-0.3-0.4-0.8-0.6-1.2-0.9C327,415.5,325.6,415.9,323.6,416.5z M392,453.6c-3.4,0.6-6.1,1.1-9.2,1.7c0.4,3.9,4.2,5,5.2,8.2
			C391.2,460.8,391.6,457.6,392,453.6z M278.7,365.4c-0.6,2.9-1.2,5.5-1.9,8.9c2.6-0.9,5.3-0.3,7.1-3.1
			C282.4,369,283.3,364.9,278.7,365.4z M368.5,445.3c-2.9-3.2-3.4-7.3-6.8-9.7c-1.4,2.6,1.1,4,1.1,5.8c0,1.8-0.4,3.7-0.7,5.9
			C364.3,446.6,366,446.1,368.5,445.3z M404.5,431.8c-0.4,3.2-0.9,5.6,0.1,8.3c2.3-1.2,4.6-1.9,4.3-5
			C408.7,432.6,406.5,432.9,404.5,431.8z"/>
		<path d="M213.2,361.5c-2.3,1.5-4.5,3.1-7.6,5.2c1.6-2.7,2.8-4.3,3.5-6c3.1-8.5,9.3-13,18-14.4c3.9-0.6,7.5,0.4,10.7,2.1
			c2.6-0.2,4-3.1,7.5-1.8c-7.1,4.1-13.5,8-20.2,11.4c-3.2,1.6-6.9,2.1-10.4,3.1c2-1.2,4.6-1.8,5.8-4.3c-1.2-1.3-2.2-2.5-3.4-3.8
			c-2.4,1.9-4.4,3.7-5.3,6.5C211.2,360.9,211.7,361.6,213.2,361.5z M234.3,351.1c-2.5-1.6-4.6-1.8-6.6-1.8c-0.5,0-1.4,1.1-1.4,1.6
			c0,1.2,0.6,2.3,1,3.8C229.7,353.4,231.7,352.4,234.3,351.1z"/>
	</g>
</g>
</svg>
